M48
; DRILL file KiCad 10.0.0 date 2026-06-01T14:26:46
; FORMAT={-:-/ absolute / metric / decimal}
; #@! TF.CreationDate,2026-06-01T14:26:46-04:00
; #@! TF.GenerationSoftware,Kicad,Pcbnew,10.0.0
; #@! TF.FileFunction,Plated,1,4,PTH
FMAT,2
METRIC
; #@! TA.AperFunction,Plated,PTH,ComponentDrill
T1C0.200
; #@! TA.AperFunction,Plated,PTH,ViaDrill
T2C0.300
; #@! TA.AperFunction,Plated,PTH,ComponentDrill
T3C0.500
; #@! TA.AperFunction,Plated,PTH,ComponentDrill
T4C0.600
; #@! TA.AperFunction,Plated,PTH,ComponentDrill
T5C1.000
; #@! TA.AperFunction,Plated,PTH,ComponentDrill
T6C1.300
; #@! TA.AperFunction,Plated,PTH,ComponentDrill
T7C3.200
; #@! TA.AperFunction,Plated,PTH,ComponentDrill
T8C4.500
%
G90
G05
T1
X139.6Y-122.9
X139.6Y-124.3
X140.3Y-122.2
X140.3Y-123.6
X140.3Y-125.0
X141.0Y-122.9
X141.0Y-124.3
X141.7Y-122.2
X141.7Y-123.6
X141.7Y-125.0
X142.4Y-122.9
X142.4Y-124.3
T2
X98.362Y-124.444
X98.366Y-123.561
X101.0Y-119.854
X101.0Y-127.2
X101.2Y-126.0
X101.396Y-121.204
X101.6Y-122.714
X101.6Y-123.514
X102.0Y-115.52
X102.2Y-117.2
X102.75Y-105.0
X102.75Y-114.4
X103.6Y-133.2
X105.15Y-105.0
X105.29Y-116.91
X105.4Y-124.2
X105.6Y-115.4
X105.8Y-125.4
X106.8Y-108.8
X106.8Y-110.4
X107.0Y-125.0
X107.8Y-109.6
X107.8Y-121.0
X108.0Y-117.6
X108.2Y-116.2
X108.8Y-108.8
X108.8Y-110.4
X109.0Y-119.2
X109.2Y-120.972
X109.2Y-122.2
X109.4Y-113.8
X109.4Y-115.0
X109.8Y-118.4
X110.4Y-121.0
X110.4Y-122.2
X110.4Y-123.4
X110.6Y-119.2
X110.6Y-127.0
X110.8Y-110.6
X110.8Y-111.6
X110.8Y-112.6
X111.6Y-122.2
X112.0Y-128.6
X112.245Y-131.755
X112.6Y-109.4
X113.0Y-120.8
X113.0Y-122.0
X113.4Y-113.2
X114.0Y-109.4
X115.05Y-101.55
X115.6Y-109.4
X116.1Y-102.6
X116.6Y-128.6
X116.75Y-101.2
X117.2Y-109.4
X117.79Y-132.6
X119.0Y-122.2
X119.8Y-123.4
X119.9Y-100.2
X120.85Y-128.65
X121.55Y-103.4
X122.4Y-122.6
X122.8Y-103.6
X122.8Y-104.8
X122.8Y-124.0
X122.8Y-125.1
X123.8Y-114.75
X123.8Y-117.4
X124.3Y-121.1
X125.2Y-123.0
X125.8Y-119.6
X127.0Y-112.0
X127.2Y-118.4
X127.6Y-115.2
X127.6Y-125.2
X127.776Y-120.376
X127.8Y-122.2
X128.3Y-132.5
X128.6Y-116.52
X129.4Y-130.0
X129.6Y-117.4
X132.0Y-121.4
X132.2Y-123.4
X132.4Y-128.8
X133.0Y-115.0
X133.2Y-124.4
X133.6Y-129.6
X136.0Y-107.4
X136.52Y-131.32
X138.4Y-115.4
X138.6Y-107.4
X140.4Y-115.8
X141.0Y-95.6
X141.2Y-107.4
X143.8Y-107.4
X144.0Y-115.0
X149.75Y-116.25
X151.0Y-112.6
X151.5Y-101.0
X151.8Y-130.4
X152.0Y-131.8
X153.25Y-115.0
X153.8Y-129.25
X154.0Y-112.0
X154.4Y-115.6
X155.0Y-120.25
X156.0Y-114.4
X157.75Y-112.0
X157.8Y-110.0
X158.4Y-129.25
X161.0Y-112.6
T3
X94.6Y-92.25
X94.6Y-134.75
X95.303Y-90.553
X95.303Y-93.947
X95.303Y-133.053
X95.303Y-136.447
X97.0Y-89.85
X97.0Y-94.65
X97.0Y-132.35
X97.0Y-137.15
X98.697Y-90.553
X98.697Y-93.947
X98.697Y-133.053
X98.697Y-136.447
X99.4Y-92.25
X99.4Y-134.75
X156.6Y-92.25
X156.6Y-134.75
X157.303Y-90.553
X157.303Y-93.947
X157.303Y-133.053
X157.303Y-136.447
X159.0Y-89.85
X159.0Y-94.65
X159.0Y-132.35
X159.0Y-137.15
X160.697Y-90.553
X160.697Y-93.947
X160.697Y-133.053
X160.697Y-136.447
X161.4Y-92.25
X161.4Y-134.75
T5
X136.12Y-110.6
X138.66Y-110.6
X141.2Y-110.6
X143.74Y-110.6
T6
X107.6Y-95.4
X112.6Y-95.4
X117.6Y-95.4
X123.8Y-95.4
X128.8Y-95.4
X133.8Y-95.4
T7
X97.0Y-92.25
X97.0Y-134.75
X159.0Y-92.25
X159.0Y-134.75
T8
X97.4Y-103.4
X97.4Y-110.6
T4
G00X95.52Y-119.284
M15
G01X94.72Y-119.284
M16
G05
G00X95.52Y-127.924
M15
G01X94.72Y-127.924
M16
G05
G00X99.85Y-119.284
M15
G01X98.75Y-119.284
M16
G05
G00X99.85Y-127.924
M15
G01X98.75Y-127.924
M16
G05
M30
