%TF.GenerationSoftware,KiCad,Pcbnew,10.0.0*%
%TF.CreationDate,2026-06-01T14:27:01-04:00*%
%TF.ProjectId,WLED Controller,574c4544-2043-46f6-9e74-726f6c6c6572,rev?*%
%TF.SameCoordinates,Original*%
%TF.FileFunction,Copper,L3,Inr*%
%TF.FilePolarity,Positive*%
%FSLAX46Y46*%
G04 Gerber Fmt 4.6, Leading zero omitted, Abs format (unit mm)*
G04 Created by KiCad (PCBNEW 10.0.0) date 2026-06-01 14:27:01*
%MOMM*%
%LPD*%
G01*
G04 APERTURE LIST*
G04 Aperture macros list*
%AMRoundRect*
0 Rectangle with rounded corners*
0 $1 Rounding radius*
0 $2 $3 $4 $5 $6 $7 $8 $9 X,Y pos of 4 corners*
0 Add a 4 corners polygon primitive as box body*
4,1,4,$2,$3,$4,$5,$6,$7,$8,$9,$2,$3,0*
0 Add four circle primitives for the rounded corners*
1,1,$1+$1,$2,$3*
1,1,$1+$1,$4,$5*
1,1,$1+$1,$6,$7*
1,1,$1+$1,$8,$9*
0 Add four rect primitives between the rounded corners*
20,1,$1+$1,$2,$3,$4,$5,0*
20,1,$1+$1,$4,$5,$6,$7,0*
20,1,$1+$1,$6,$7,$8,$9,0*
20,1,$1+$1,$8,$9,$2,$3,0*%
G04 Aperture macros list end*
%TA.AperFunction,ComponentPad*%
%ADD10C,0.800000*%
%TD*%
%TA.AperFunction,ComponentPad*%
%ADD11C,6.400000*%
%TD*%
%TA.AperFunction,ComponentPad*%
%ADD12RoundRect,0.250000X1.050000X1.050000X-1.050000X1.050000X-1.050000X-1.050000X1.050000X-1.050000X0*%
%TD*%
%TA.AperFunction,ComponentPad*%
%ADD13C,2.600000*%
%TD*%
%TA.AperFunction,ComponentPad*%
%ADD14R,1.700000X1.700000*%
%TD*%
%TA.AperFunction,ComponentPad*%
%ADD15C,1.700000*%
%TD*%
%TA.AperFunction,ComponentPad*%
%ADD16RoundRect,1.500000X-1.500000X1.500000X-1.500000X-1.500000X1.500000X-1.500000X1.500000X1.500000X0*%
%TD*%
%TA.AperFunction,ComponentPad*%
%ADD17C,6.000000*%
%TD*%
%TA.AperFunction,HeatsinkPad*%
%ADD18C,0.600000*%
%TD*%
%TA.AperFunction,ComponentPad*%
%ADD19O,2.100000X1.000000*%
%TD*%
%TA.AperFunction,ComponentPad*%
%ADD20O,1.800000X1.000000*%
%TD*%
%TA.AperFunction,ViaPad*%
%ADD21C,0.600000*%
%TD*%
%TA.AperFunction,Conductor*%
%ADD22C,0.300000*%
%TD*%
G04 APERTURE END LIST*
D10*
%TO.N,GND*%
%TO.C,H4*%
X156600000Y-134750000D03*
X157302944Y-133052944D03*
X157302944Y-136447056D03*
X159000000Y-132350000D03*
D11*
X159000000Y-134750000D03*
D10*
X159000000Y-137150000D03*
X160697056Y-133052944D03*
X160697056Y-136447056D03*
X161400000Y-134750000D03*
%TD*%
D12*
%TO.N,GND*%
%TO.C,J4*%
X117600000Y-95400000D03*
D13*
%TO.N,DATA-5V-2*%
X112600000Y-95400000D03*
%TO.N,+5V*%
X107600000Y-95400000D03*
%TD*%
D14*
%TO.N,+3.3V*%
%TO.C,UART*%
X136120000Y-110600000D03*
D15*
%TO.N,ESP32-RX*%
X138660000Y-110600000D03*
%TO.N,ESP32-TX*%
X141200000Y-110600000D03*
%TO.N,GND*%
X143740000Y-110600000D03*
%TD*%
D10*
%TO.N,GND*%
%TO.C,H3*%
X94600000Y-134750000D03*
X95302944Y-133052944D03*
X95302944Y-136447056D03*
X97000000Y-132350000D03*
D11*
X97000000Y-134750000D03*
D10*
X97000000Y-137150000D03*
X98697056Y-133052944D03*
X98697056Y-136447056D03*
X99400000Y-134750000D03*
%TD*%
D16*
%TO.N,GND*%
%TO.C,BAT1*%
X97400000Y-103400000D03*
D17*
%TO.N,VCC*%
X97400000Y-110600000D03*
%TD*%
D18*
%TO.N,GND*%
%TO.C,U2*%
X142400000Y-124300000D03*
X142400000Y-122900000D03*
X141700000Y-125000000D03*
X141700000Y-123600000D03*
X141700000Y-122200000D03*
X141000000Y-124300000D03*
X141000000Y-122900000D03*
X140300000Y-125000000D03*
X140300000Y-123600000D03*
X140300000Y-122200000D03*
X139600000Y-124300000D03*
X139600000Y-122900000D03*
%TD*%
D12*
%TO.N,+5V*%
%TO.C,J2*%
X133800000Y-95400000D03*
D13*
%TO.N,DATA-5V-1*%
X128800000Y-95400000D03*
%TO.N,GND*%
X123800000Y-95400000D03*
%TD*%
D10*
%TO.N,GND*%
%TO.C,H2*%
X156600000Y-92250000D03*
X157302944Y-90552944D03*
X157302944Y-93947056D03*
X159000000Y-89850000D03*
D11*
X159000000Y-92250000D03*
D10*
X159000000Y-94650000D03*
X160697056Y-90552944D03*
X160697056Y-93947056D03*
X161400000Y-92250000D03*
%TD*%
%TO.N,GND*%
%TO.C,H1*%
X94600000Y-92250000D03*
X95302944Y-90552944D03*
X95302944Y-93947056D03*
X97000000Y-89850000D03*
D11*
X97000000Y-92250000D03*
D10*
X97000000Y-94650000D03*
X98697056Y-90552944D03*
X98697056Y-93947056D03*
X99400000Y-92250000D03*
%TD*%
D19*
%TO.N,N/C*%
%TO.C,J3*%
X99300000Y-119283795D03*
D20*
X95120000Y-119283795D03*
D19*
X99300000Y-127923795D03*
D20*
X95120000Y-127923795D03*
%TD*%
D21*
%TO.N,+5V*%
X110800000Y-112600000D03*
X141000000Y-95600000D03*
X110800000Y-110600000D03*
X161000000Y-112600000D03*
X115600000Y-109400000D03*
X117200000Y-109400000D03*
X112600000Y-109400000D03*
X116750000Y-101200000D03*
X114000000Y-109400000D03*
X113400000Y-113200000D03*
X110800000Y-111600000D03*
%TO.N,GND*%
X101000000Y-127200000D03*
X102000000Y-115520000D03*
X127200000Y-118400000D03*
X105400000Y-124200000D03*
X136000000Y-107400000D03*
X115050000Y-101550000D03*
X111600000Y-122200000D03*
X157750000Y-112000000D03*
X106800000Y-110400000D03*
X109000000Y-119200000D03*
X153250000Y-115000000D03*
X107800000Y-121000000D03*
X105800000Y-125400000D03*
X110400000Y-122200000D03*
X109800000Y-118400000D03*
X119800000Y-123400000D03*
X110600000Y-119200000D03*
X110600000Y-127000000D03*
X107800000Y-109600000D03*
X109200000Y-120971925D03*
X110400000Y-123400000D03*
X152000000Y-131800000D03*
X154000000Y-112000000D03*
X108800000Y-110400000D03*
X122800000Y-103600000D03*
X101000000Y-119853794D03*
X143800000Y-107400000D03*
X105600000Y-115400000D03*
X109200000Y-122200000D03*
X151500000Y-101000000D03*
X106800000Y-108800000D03*
X110400000Y-121000000D03*
X108800000Y-108800000D03*
X122800000Y-104800000D03*
X138600000Y-107400000D03*
X158400000Y-129250000D03*
X141200000Y-107400000D03*
X136520000Y-131320000D03*
%TO.N,+7.4V*%
X102750000Y-114400000D03*
X119900000Y-100200000D03*
X102750000Y-105000000D03*
X105150000Y-105000000D03*
%TO.N,+3.3V*%
X109400000Y-115000000D03*
X103600000Y-133200000D03*
X128600000Y-116520000D03*
X113000000Y-122000000D03*
X153800000Y-129250000D03*
X127600000Y-125200000D03*
X113000000Y-120800000D03*
X151000000Y-112600000D03*
X122800000Y-125100000D03*
X151800000Y-130400000D03*
X107000000Y-125000000D03*
X102200000Y-117200000D03*
X125800000Y-119600000D03*
X154400000Y-115600000D03*
X119000000Y-122200000D03*
X105290000Y-116910000D03*
%TO.N,I2C-SCL*%
X123800000Y-114750000D03*
X108000000Y-117600000D03*
X132400000Y-128800000D03*
X123800000Y-117400000D03*
%TO.N,I2C-SDA*%
X108200000Y-116200000D03*
X127600000Y-115200000D03*
X133200000Y-124400000D03*
%TO.N,INA236-ALERT*%
X144000000Y-115000000D03*
X109400000Y-113800000D03*
%TO.N,BOOT*%
X133000000Y-115000000D03*
X155000000Y-120250000D03*
X128300000Y-132500000D03*
%TO.N,DATA-5V-2*%
X156000000Y-114400000D03*
%TO.N,ESP32-RX*%
X138400000Y-115400000D03*
%TO.N,ESP32-TX*%
X140400000Y-115800000D03*
%TO.N,USB_D+*%
X101600000Y-122713795D03*
X98362277Y-124443511D03*
%TO.N,RTS*%
X116600000Y-128600000D03*
X112245000Y-131755000D03*
%TO.N,+VBUS*%
X101200000Y-126000000D03*
X101396205Y-121203795D03*
%TO.N,DTR*%
X112000000Y-128600000D03*
X117790000Y-132600000D03*
%TO.N,IMU-MISO*%
X132200000Y-123400000D03*
X122400000Y-122600000D03*
%TO.N,IMU-INT1*%
X122800000Y-124000000D03*
X129600000Y-117400000D03*
%TO.N,IMU-INT2*%
X127775735Y-120375735D03*
X127800000Y-122200000D03*
%TO.N,IMU-SCLK*%
X132000000Y-121400000D03*
X125200000Y-123000000D03*
%TO.N,IMU-MOSI*%
X129400000Y-130000000D03*
X124300000Y-121100000D03*
%TO.N,Net-(U1-EN)*%
X121550000Y-103400000D03*
X116100000Y-102600000D03*
%TO.N,TMP117-ALERT*%
X149750000Y-116250000D03*
X127000000Y-112000000D03*
%TO.N,EN*%
X133600000Y-129600000D03*
X120850000Y-128650000D03*
%TO.N,DATA-5V-1*%
X157800000Y-110000000D03*
%TO.N,USB_D-*%
X98366250Y-123560568D03*
X101600000Y-123513795D03*
%TD*%
%TO.N,+VBUS*%
D22*
X101161205Y-121438795D02*
X96761205Y-121438795D01*
X100968795Y-125768795D02*
X101200000Y-126000000D01*
X97168795Y-125768795D02*
X100968795Y-125768795D01*
X96761205Y-121438795D02*
X96200000Y-122000000D01*
X96200000Y-122000000D02*
X96200000Y-124800000D01*
X96200000Y-124800000D02*
X97168795Y-125768795D01*
X101396205Y-121203795D02*
X101161205Y-121438795D01*
%TD*%
%TA.AperFunction,Conductor*%
%TO.N,+3.3V*%
G36*
X155337539Y-108425185D02*
G01*
X155383294Y-108477989D01*
X155394500Y-108529500D01*
X155394500Y-113076007D01*
X155399197Y-113119686D01*
X155410397Y-113171174D01*
X155412890Y-113181372D01*
X155412891Y-113181375D01*
X155455899Y-113262083D01*
X155455901Y-113262086D01*
X155501660Y-113314895D01*
X155503286Y-113316554D01*
X155519246Y-113332843D01*
X155519247Y-113332844D01*
X155519249Y-113332845D01*
X155579512Y-113366554D01*
X155599063Y-113377490D01*
X155666102Y-113397175D01*
X155724000Y-113405500D01*
X158075538Y-113405500D01*
X158142577Y-113425185D01*
X158188332Y-113477989D01*
X158198827Y-113516242D01*
X158199197Y-113519687D01*
X158210397Y-113571174D01*
X158212890Y-113581372D01*
X158212891Y-113581375D01*
X158255899Y-113662083D01*
X158255901Y-113662086D01*
X158301660Y-113714895D01*
X158319242Y-113732839D01*
X158319246Y-113732843D01*
X158319247Y-113732844D01*
X158319249Y-113732845D01*
X158321507Y-113734108D01*
X158399063Y-113777490D01*
X158466102Y-113797175D01*
X158524000Y-113805500D01*
X158524004Y-113805500D01*
X162875500Y-113805500D01*
X162942539Y-113825185D01*
X162988294Y-113877989D01*
X162999500Y-113929500D01*
X162999500Y-134745702D01*
X162999467Y-134748581D01*
X162999401Y-134751423D01*
X162999302Y-134754271D01*
X162982835Y-135110443D01*
X162982436Y-135116175D01*
X162981907Y-135121875D01*
X162981249Y-135127547D01*
X162932587Y-135476394D01*
X162931665Y-135482047D01*
X162930613Y-135487675D01*
X162929430Y-135493281D01*
X162848790Y-135836144D01*
X162847352Y-135841682D01*
X162845788Y-135847180D01*
X162844092Y-135852658D01*
X162732156Y-136186629D01*
X162730210Y-136192020D01*
X162728133Y-136197381D01*
X162725941Y-136202670D01*
X162583683Y-136524854D01*
X162581249Y-136530041D01*
X162578692Y-136535176D01*
X162576021Y-136540242D01*
X162404628Y-136847952D01*
X162401716Y-136852907D01*
X162398707Y-136857765D01*
X162395590Y-136862548D01*
X162196522Y-137153153D01*
X162193169Y-137157812D01*
X162189721Y-137162377D01*
X162186171Y-137166858D01*
X161961169Y-137437818D01*
X161957409Y-137442139D01*
X161953531Y-137446393D01*
X161949575Y-137450536D01*
X161700536Y-137699575D01*
X161696393Y-137703531D01*
X161692139Y-137707409D01*
X161687818Y-137711169D01*
X161416858Y-137936171D01*
X161412377Y-137939721D01*
X161407812Y-137943169D01*
X161403153Y-137946522D01*
X161112548Y-138145590D01*
X161107765Y-138148707D01*
X161104103Y-138150974D01*
X161102896Y-138151722D01*
X161097952Y-138154628D01*
X160790242Y-138326021D01*
X160785176Y-138328692D01*
X160780041Y-138331249D01*
X160774854Y-138333683D01*
X160452670Y-138475941D01*
X160447381Y-138478133D01*
X160442020Y-138480210D01*
X160436629Y-138482156D01*
X160102658Y-138594092D01*
X160097180Y-138595788D01*
X160091682Y-138597352D01*
X160086144Y-138598790D01*
X159743281Y-138679430D01*
X159737675Y-138680613D01*
X159732047Y-138681665D01*
X159726394Y-138682587D01*
X159377547Y-138731249D01*
X159371875Y-138731907D01*
X159366175Y-138732436D01*
X159360442Y-138732835D01*
X159004852Y-138749274D01*
X159001701Y-138749379D01*
X158998523Y-138749445D01*
X158995328Y-138749470D01*
X149641709Y-138702701D01*
X149606797Y-138697503D01*
X149597749Y-138694797D01*
X149591817Y-138693023D01*
X149533239Y-138654962D01*
X149531953Y-138653463D01*
X149504831Y-138598768D01*
X149503266Y-138591483D01*
X149500500Y-138565439D01*
X149500500Y-134582947D01*
X155599500Y-134582947D01*
X155599500Y-134917052D01*
X155618547Y-135110443D01*
X155632246Y-135249541D01*
X155632251Y-135249575D01*
X155632254Y-135249590D01*
X155697420Y-135577213D01*
X155697426Y-135577238D01*
X155794419Y-135896982D01*
X155921996Y-136204977D01*
X155922234Y-136205563D01*
X155922277Y-136205654D01*
X155922278Y-136205656D01*
X155922280Y-136205661D01*
X156079769Y-136500303D01*
X156079780Y-136500321D01*
X156265393Y-136778109D01*
X156265399Y-136778118D01*
X156265410Y-136778132D01*
X156265412Y-136778135D01*
X156477365Y-137036400D01*
X156713597Y-137272632D01*
X156713674Y-137272701D01*
X156714207Y-137273133D01*
X156971882Y-137484601D01*
X157113585Y-137579284D01*
X157249686Y-137670225D01*
X157250359Y-137670598D01*
X157251159Y-137671012D01*
X157326288Y-137711169D01*
X157539026Y-137824880D01*
X157540075Y-137825440D01*
X157544338Y-137827719D01*
X157547812Y-137829576D01*
X157552786Y-137831219D01*
X157853024Y-137955582D01*
X158172749Y-138052569D01*
X158172755Y-138052570D01*
X158172758Y-138052571D01*
X158172769Y-138052574D01*
X158172798Y-138052579D01*
X158173337Y-138052707D01*
X158174603Y-138052939D01*
X158378201Y-138093436D01*
X158378221Y-138093439D01*
X158378243Y-138093444D01*
X158500441Y-138117751D01*
X158832944Y-138150500D01*
X158832947Y-138150500D01*
X159167053Y-138150500D01*
X159167056Y-138150500D01*
X159499559Y-138117751D01*
X159661757Y-138085487D01*
X159821385Y-138053736D01*
X159821445Y-138053728D01*
X159825546Y-138052909D01*
X159825564Y-138052905D01*
X159827230Y-138052574D01*
X159827238Y-138052571D01*
X159827518Y-138052516D01*
X159828955Y-138052103D01*
X159857522Y-138044312D01*
X159859249Y-138043045D01*
X159865453Y-138040980D01*
X160146976Y-137955582D01*
X160455654Y-137827723D01*
X160750315Y-137670224D01*
X161028118Y-137484601D01*
X161286390Y-137272643D01*
X161522643Y-137036390D01*
X161734601Y-136778118D01*
X161920224Y-136500315D01*
X162077723Y-136205654D01*
X162205582Y-135896976D01*
X162302569Y-135577251D01*
X162302571Y-135577241D01*
X162302574Y-135577230D01*
X162343982Y-135369054D01*
X162367751Y-135249559D01*
X162367751Y-135249557D01*
X162367753Y-135249548D01*
X162367753Y-135249547D01*
X162400500Y-134917052D01*
X162400500Y-134582947D01*
X162367752Y-134250451D01*
X162367751Y-134250450D01*
X162367751Y-134250441D01*
X162343444Y-134128243D01*
X162302938Y-133924598D01*
X162302707Y-133923337D01*
X162302577Y-133922785D01*
X162302574Y-133922769D01*
X162302571Y-133922758D01*
X162302570Y-133922755D01*
X162302569Y-133922749D01*
X162205582Y-133603024D01*
X162077723Y-133294346D01*
X161920224Y-132999685D01*
X161734601Y-132721882D01*
X161523133Y-132464207D01*
X161523133Y-132464206D01*
X161522633Y-132463598D01*
X161286400Y-132227365D01*
X161151376Y-132116554D01*
X161029428Y-132016474D01*
X161028430Y-132015632D01*
X161028124Y-132015403D01*
X161028120Y-132015400D01*
X160750329Y-131829785D01*
X160750321Y-131829780D01*
X160750315Y-131829776D01*
X160750310Y-131829773D01*
X160750303Y-131829769D01*
X160750294Y-131829764D01*
X160750287Y-131829760D01*
X160455673Y-131672286D01*
X160455667Y-131672283D01*
X160455661Y-131672280D01*
X160455656Y-131672278D01*
X160455654Y-131672277D01*
X160455559Y-131672233D01*
X160454978Y-131671996D01*
X160373627Y-131638300D01*
X160373626Y-131638300D01*
X160188974Y-131561814D01*
X160167975Y-131553116D01*
X160146978Y-131544418D01*
X159827238Y-131447426D01*
X159827213Y-131447420D01*
X159499590Y-131382254D01*
X159499575Y-131382251D01*
X159499541Y-131382246D01*
X159248108Y-131357483D01*
X159242006Y-131356882D01*
X159167056Y-131349500D01*
X159167053Y-131349500D01*
X158832946Y-131349500D01*
X158832944Y-131349500D01*
X158821547Y-131350622D01*
X158757981Y-131356882D01*
X158757982Y-131356883D01*
X158500457Y-131382246D01*
X158500423Y-131382251D01*
X158500408Y-131382254D01*
X158172785Y-131447420D01*
X158172760Y-131447426D01*
X157853016Y-131544419D01*
X157545021Y-131671996D01*
X157544438Y-131672233D01*
X157544325Y-131672286D01*
X157249705Y-131829764D01*
X157249686Y-131829775D01*
X157249680Y-131829778D01*
X157111259Y-131922268D01*
X156971890Y-132015393D01*
X156971876Y-132015403D01*
X156971864Y-132015411D01*
X156713598Y-132227365D01*
X156477365Y-132463598D01*
X156265412Y-132721863D01*
X156265410Y-132721866D01*
X156265396Y-132721885D01*
X156079778Y-132999680D01*
X156079775Y-132999686D01*
X156079764Y-132999705D01*
X155922286Y-133294325D01*
X155922233Y-133294438D01*
X155921996Y-133295021D01*
X155794419Y-133603016D01*
X155697426Y-133922760D01*
X155697420Y-133922785D01*
X155632254Y-134250408D01*
X155632251Y-134250423D01*
X155632247Y-134250451D01*
X155599500Y-134582947D01*
X149500500Y-134582947D01*
X149500500Y-132534110D01*
X149500500Y-132534108D01*
X149466392Y-132406814D01*
X149466387Y-132406806D01*
X149457563Y-132391521D01*
X149400500Y-132292686D01*
X149307314Y-132199500D01*
X149231104Y-132155500D01*
X149231104Y-132155499D01*
X149231102Y-132155499D01*
X149193187Y-132133608D01*
X149129539Y-132116554D01*
X149065892Y-132099500D01*
X149065891Y-132099500D01*
X130134108Y-132099500D01*
X130006808Y-132133609D01*
X130006806Y-132133610D01*
X129892696Y-132199493D01*
X129892682Y-132199502D01*
X129892677Y-132199506D01*
X129799506Y-132292677D01*
X129799502Y-132292682D01*
X129799493Y-132292696D01*
X129733610Y-132406806D01*
X129733609Y-132406808D01*
X129699500Y-132534108D01*
X129699500Y-138607670D01*
X129694475Y-138642614D01*
X129690070Y-138657612D01*
X129652327Y-138716355D01*
X129650958Y-138717542D01*
X129596097Y-138745018D01*
X129588539Y-138746663D01*
X129562168Y-138749500D01*
X97004297Y-138749500D01*
X97001462Y-138749467D01*
X96998574Y-138749400D01*
X96995728Y-138749302D01*
X96639555Y-138732835D01*
X96633823Y-138732436D01*
X96628123Y-138731907D01*
X96622451Y-138731249D01*
X96273604Y-138682587D01*
X96267951Y-138681665D01*
X96262323Y-138680613D01*
X96256717Y-138679430D01*
X95913854Y-138598790D01*
X95908316Y-138597352D01*
X95902818Y-138595788D01*
X95897340Y-138594092D01*
X95563369Y-138482156D01*
X95557978Y-138480210D01*
X95552617Y-138478133D01*
X95547328Y-138475941D01*
X95225139Y-138333680D01*
X95219953Y-138331246D01*
X95214828Y-138328694D01*
X95209761Y-138326023D01*
X95110316Y-138270633D01*
X94902046Y-138154627D01*
X94897107Y-138151724D01*
X94892249Y-138148716D01*
X94887450Y-138145590D01*
X94596845Y-137946522D01*
X94592186Y-137943169D01*
X94587621Y-137939721D01*
X94583140Y-137936171D01*
X94312180Y-137711169D01*
X94307859Y-137707409D01*
X94303605Y-137703531D01*
X94299462Y-137699575D01*
X94050423Y-137450536D01*
X94046476Y-137446403D01*
X94042609Y-137442162D01*
X94038857Y-137437851D01*
X93901670Y-137272643D01*
X93901661Y-137272632D01*
X93813819Y-137166847D01*
X93810273Y-137162370D01*
X93806827Y-137157808D01*
X93803471Y-137153145D01*
X93604408Y-136862548D01*
X93601282Y-136857749D01*
X93598274Y-136852891D01*
X93595371Y-136847952D01*
X93440149Y-136569276D01*
X93423970Y-136540229D01*
X93421299Y-136535161D01*
X93418764Y-136530070D01*
X93416329Y-136524885D01*
X93275379Y-136205661D01*
X93274035Y-136202619D01*
X93271858Y-136197362D01*
X93269789Y-136192020D01*
X93267851Y-136186653D01*
X93155903Y-135852646D01*
X93154211Y-135847182D01*
X93152652Y-135841704D01*
X93151210Y-135836152D01*
X93151208Y-135836144D01*
X93070563Y-135493261D01*
X93069385Y-135487675D01*
X93068331Y-135482037D01*
X93067412Y-135476399D01*
X93035767Y-135249548D01*
X93035767Y-135249547D01*
X93018747Y-135127534D01*
X93018089Y-135121867D01*
X93017558Y-135116141D01*
X93017164Y-135110450D01*
X93008223Y-134917052D01*
X93000695Y-134754228D01*
X93000599Y-134751423D01*
X93000531Y-134748497D01*
X93000500Y-134745702D01*
X93000500Y-134582947D01*
X93599500Y-134582947D01*
X93599500Y-134917052D01*
X93618547Y-135110443D01*
X93632246Y-135249541D01*
X93632251Y-135249575D01*
X93632254Y-135249590D01*
X93697420Y-135577213D01*
X93697426Y-135577238D01*
X93794419Y-135896982D01*
X93921996Y-136204977D01*
X93922234Y-136205563D01*
X93922277Y-136205654D01*
X93922278Y-136205656D01*
X93922280Y-136205661D01*
X94079769Y-136500303D01*
X94079780Y-136500321D01*
X94265393Y-136778109D01*
X94265399Y-136778118D01*
X94265410Y-136778132D01*
X94265412Y-136778135D01*
X94477365Y-137036400D01*
X94713597Y-137272632D01*
X94713674Y-137272701D01*
X94714207Y-137273133D01*
X94971882Y-137484601D01*
X95113585Y-137579284D01*
X95249686Y-137670225D01*
X95250359Y-137670598D01*
X95251159Y-137671012D01*
X95326288Y-137711169D01*
X95539026Y-137824880D01*
X95540075Y-137825440D01*
X95544338Y-137827719D01*
X95547812Y-137829576D01*
X95552786Y-137831219D01*
X95853024Y-137955582D01*
X96172749Y-138052569D01*
X96172755Y-138052570D01*
X96172758Y-138052571D01*
X96172769Y-138052574D01*
X96172798Y-138052579D01*
X96173337Y-138052707D01*
X96174603Y-138052939D01*
X96378201Y-138093436D01*
X96378221Y-138093439D01*
X96378243Y-138093444D01*
X96500441Y-138117751D01*
X96832944Y-138150500D01*
X96832947Y-138150500D01*
X97167053Y-138150500D01*
X97167056Y-138150500D01*
X97499559Y-138117751D01*
X97661757Y-138085487D01*
X97821385Y-138053736D01*
X97821445Y-138053728D01*
X97825546Y-138052909D01*
X97825564Y-138052905D01*
X97827230Y-138052574D01*
X97827238Y-138052571D01*
X97827518Y-138052516D01*
X97828955Y-138052103D01*
X97857522Y-138044312D01*
X97859249Y-138043045D01*
X97865453Y-138040980D01*
X98146976Y-137955582D01*
X98455654Y-137827723D01*
X98750315Y-137670224D01*
X99028118Y-137484601D01*
X99286390Y-137272643D01*
X99522643Y-137036390D01*
X99734601Y-136778118D01*
X99920224Y-136500315D01*
X100077723Y-136205654D01*
X100205582Y-135896976D01*
X100302569Y-135577251D01*
X100302571Y-135577241D01*
X100302574Y-135577230D01*
X100343982Y-135369054D01*
X100367751Y-135249559D01*
X100367751Y-135249557D01*
X100367753Y-135249548D01*
X100367753Y-135249547D01*
X100400500Y-134917052D01*
X100400500Y-134582947D01*
X100367752Y-134250451D01*
X100367751Y-134250450D01*
X100367751Y-134250441D01*
X100343444Y-134128243D01*
X100302938Y-133924598D01*
X100302707Y-133923337D01*
X100302577Y-133922785D01*
X100302574Y-133922769D01*
X100302571Y-133922758D01*
X100302570Y-133922755D01*
X100302569Y-133922749D01*
X100205582Y-133603024D01*
X100077723Y-133294346D01*
X99920224Y-132999685D01*
X99734601Y-132721882D01*
X99580499Y-132534108D01*
X117289500Y-132534108D01*
X117289500Y-132665892D01*
X117306554Y-132729539D01*
X117323608Y-132793188D01*
X117331763Y-132807310D01*
X117331766Y-132807316D01*
X117389500Y-132907314D01*
X117482686Y-133000500D01*
X117596814Y-133066392D01*
X117724108Y-133100500D01*
X117724110Y-133100500D01*
X117855890Y-133100500D01*
X117855892Y-133100500D01*
X117983186Y-133066392D01*
X118097314Y-133000500D01*
X118190500Y-132907314D01*
X118256392Y-132793186D01*
X118290500Y-132665892D01*
X118290500Y-132534108D01*
X118263705Y-132434108D01*
X127799500Y-132434108D01*
X127799500Y-132565891D01*
X127809884Y-132604646D01*
X127833608Y-132693188D01*
X127850164Y-132721863D01*
X127850180Y-132721890D01*
X127899500Y-132807314D01*
X127992686Y-132900500D01*
X128106814Y-132966392D01*
X128234108Y-133000500D01*
X128234110Y-133000500D01*
X128365890Y-133000500D01*
X128365892Y-133000500D01*
X128493186Y-132966392D01*
X128607314Y-132900500D01*
X128700500Y-132807314D01*
X128766392Y-132693186D01*
X128800500Y-132565892D01*
X128800500Y-132434108D01*
X128766392Y-132306814D01*
X128766387Y-132306806D01*
X128743054Y-132266392D01*
X128700500Y-132192686D01*
X128607314Y-132099500D01*
X128542906Y-132062314D01*
X128493187Y-132033608D01*
X128425206Y-132015393D01*
X128365892Y-131999500D01*
X128365891Y-131999500D01*
X128234108Y-131999500D01*
X128106808Y-132033609D01*
X128106806Y-132033610D01*
X127992696Y-132099493D01*
X127992682Y-132099502D01*
X127992677Y-132099506D01*
X127899506Y-132192677D01*
X127899502Y-132192682D01*
X127899493Y-132192696D01*
X127833610Y-132306806D01*
X127833609Y-132306808D01*
X127833608Y-132306812D01*
X127799500Y-132434108D01*
X118263705Y-132434108D01*
X118256392Y-132406814D01*
X118190500Y-132292686D01*
X118097314Y-132199500D01*
X118021104Y-132155500D01*
X118021104Y-132155499D01*
X118021102Y-132155499D01*
X117983187Y-132133608D01*
X117919539Y-132116554D01*
X117855892Y-132099500D01*
X117855891Y-132099500D01*
X117724108Y-132099500D01*
X117596808Y-132133609D01*
X117596806Y-132133610D01*
X117482696Y-132199493D01*
X117482682Y-132199502D01*
X117482677Y-132199506D01*
X117389506Y-132292677D01*
X117389502Y-132292682D01*
X117389493Y-132292696D01*
X117323610Y-132406806D01*
X117323609Y-132406808D01*
X117323608Y-132406812D01*
X117289500Y-132534108D01*
X99580499Y-132534108D01*
X99523132Y-132464206D01*
X99522689Y-132463660D01*
X99522640Y-132463605D01*
X99286400Y-132227365D01*
X99151376Y-132116554D01*
X99029428Y-132016474D01*
X99028430Y-132015632D01*
X99028124Y-132015403D01*
X99028120Y-132015400D01*
X98750329Y-131829785D01*
X98750321Y-131829780D01*
X98750315Y-131829776D01*
X98750310Y-131829773D01*
X98750303Y-131829769D01*
X98750286Y-131829760D01*
X98728958Y-131818360D01*
X98676534Y-131790339D01*
X98676533Y-131790338D01*
X98545869Y-131720497D01*
X98487144Y-131689108D01*
X111744500Y-131689108D01*
X111744500Y-131820892D01*
X111746882Y-131829780D01*
X111750510Y-131843323D01*
X111750511Y-131843327D01*
X111771467Y-131921538D01*
X111778608Y-131948187D01*
X111804589Y-131993186D01*
X111844500Y-132062314D01*
X111937686Y-132155500D01*
X112051814Y-132221392D01*
X112179108Y-132255500D01*
X112179110Y-132255500D01*
X112310890Y-132255500D01*
X112310892Y-132255500D01*
X112438186Y-132221392D01*
X112552314Y-132155500D01*
X112645500Y-132062314D01*
X112711392Y-131948186D01*
X112745500Y-131820892D01*
X112745500Y-131689108D01*
X112711392Y-131561814D01*
X112711387Y-131561806D01*
X112683317Y-131513187D01*
X112645500Y-131447686D01*
X112552314Y-131354500D01*
X112543654Y-131349500D01*
X112486461Y-131316478D01*
X112486461Y-131316479D01*
X112438189Y-131288609D01*
X112438190Y-131288609D01*
X112438187Y-131288608D01*
X112374539Y-131271554D01*
X112374538Y-131271553D01*
X112327945Y-131259069D01*
X112310892Y-131254500D01*
X112310891Y-131254500D01*
X112179108Y-131254500D01*
X112051808Y-131288609D01*
X112051806Y-131288610D01*
X111937696Y-131354493D01*
X111937682Y-131354502D01*
X111937677Y-131354506D01*
X111844506Y-131447677D01*
X111844502Y-131447682D01*
X111844493Y-131447696D01*
X111778610Y-131561806D01*
X111778609Y-131561809D01*
X111778608Y-131561811D01*
X111778608Y-131561812D01*
X111766552Y-131606806D01*
X111749009Y-131672280D01*
X111744833Y-131687862D01*
X111744833Y-131687864D01*
X111744500Y-131689108D01*
X98487144Y-131689108D01*
X98455661Y-131672280D01*
X98455656Y-131672278D01*
X98455650Y-131672275D01*
X98455551Y-131672229D01*
X98454978Y-131671996D01*
X98373627Y-131638300D01*
X98373626Y-131638300D01*
X98188974Y-131561814D01*
X98167975Y-131553116D01*
X98146978Y-131544418D01*
X97827238Y-131447426D01*
X97827213Y-131447420D01*
X97499590Y-131382254D01*
X97499575Y-131382251D01*
X97499541Y-131382246D01*
X97248108Y-131357483D01*
X97242006Y-131356882D01*
X97167056Y-131349500D01*
X97167053Y-131349500D01*
X96832946Y-131349500D01*
X96832944Y-131349500D01*
X96821547Y-131350622D01*
X96757981Y-131356882D01*
X96757982Y-131356883D01*
X96500457Y-131382246D01*
X96500423Y-131382251D01*
X96500408Y-131382254D01*
X96172785Y-131447420D01*
X96172760Y-131447426D01*
X95853016Y-131544419D01*
X95545021Y-131671996D01*
X95544438Y-131672233D01*
X95544325Y-131672286D01*
X95249705Y-131829764D01*
X95249686Y-131829775D01*
X95249680Y-131829778D01*
X95111259Y-131922268D01*
X94971890Y-132015393D01*
X94971876Y-132015403D01*
X94971864Y-132015411D01*
X94713598Y-132227365D01*
X94477365Y-132463598D01*
X94265412Y-132721863D01*
X94265410Y-132721866D01*
X94265396Y-132721885D01*
X94079778Y-132999680D01*
X94079775Y-132999686D01*
X94079764Y-132999705D01*
X93922286Y-133294325D01*
X93922233Y-133294438D01*
X93921996Y-133295021D01*
X93794419Y-133603016D01*
X93697426Y-133922760D01*
X93697420Y-133922785D01*
X93632254Y-134250408D01*
X93632251Y-134250423D01*
X93632247Y-134250451D01*
X93599500Y-134582947D01*
X93000500Y-134582947D01*
X93000500Y-131254108D01*
X136019500Y-131254108D01*
X136019500Y-131385892D01*
X136036554Y-131449539D01*
X136053608Y-131513187D01*
X136071640Y-131544418D01*
X136119500Y-131627314D01*
X136212686Y-131720500D01*
X136326814Y-131786392D01*
X136454108Y-131820500D01*
X136454110Y-131820500D01*
X136585890Y-131820500D01*
X136585892Y-131820500D01*
X136713186Y-131786392D01*
X136803744Y-131734108D01*
X151499500Y-131734108D01*
X151499500Y-131865891D01*
X151521550Y-131948186D01*
X151533608Y-131993187D01*
X151546435Y-132015403D01*
X151546436Y-132015405D01*
X151556946Y-132033608D01*
X151599500Y-132107314D01*
X151692686Y-132200500D01*
X151806814Y-132266392D01*
X151934108Y-132300500D01*
X151934110Y-132300500D01*
X152065890Y-132300500D01*
X152065892Y-132300500D01*
X152193186Y-132266392D01*
X152307314Y-132200500D01*
X152400500Y-132107314D01*
X152466392Y-131993186D01*
X152500500Y-131865892D01*
X152500500Y-131734108D01*
X152466392Y-131606814D01*
X152466387Y-131606806D01*
X152440408Y-131561809D01*
X152400500Y-131492686D01*
X152307314Y-131399500D01*
X152250250Y-131366554D01*
X152193187Y-131333608D01*
X152129539Y-131316554D01*
X152065892Y-131299500D01*
X152065891Y-131299500D01*
X151934108Y-131299500D01*
X151806808Y-131333609D01*
X151806806Y-131333610D01*
X151692696Y-131399493D01*
X151692682Y-131399502D01*
X151692677Y-131399506D01*
X151599506Y-131492677D01*
X151599502Y-131492682D01*
X151599493Y-131492696D01*
X151533610Y-131606806D01*
X151533609Y-131606808D01*
X151533608Y-131606812D01*
X151499500Y-131734108D01*
X136803744Y-131734108D01*
X136827314Y-131720500D01*
X136920500Y-131627314D01*
X136986392Y-131513186D01*
X137020500Y-131385892D01*
X137020500Y-131254108D01*
X136986392Y-131126814D01*
X136986387Y-131126806D01*
X136977563Y-131111521D01*
X136920500Y-131012686D01*
X136827314Y-130919500D01*
X136770250Y-130886554D01*
X136713187Y-130853608D01*
X136649539Y-130836554D01*
X136585892Y-130819500D01*
X136585891Y-130819500D01*
X136454108Y-130819500D01*
X136326808Y-130853609D01*
X136326806Y-130853610D01*
X136212696Y-130919493D01*
X136212682Y-130919502D01*
X136212677Y-130919506D01*
X136119506Y-131012677D01*
X136119502Y-131012682D01*
X136119493Y-131012696D01*
X136053610Y-131126806D01*
X136053609Y-131126808D01*
X136053608Y-131126812D01*
X136019500Y-131254108D01*
X93000500Y-131254108D01*
X93000500Y-129934108D01*
X128899500Y-129934108D01*
X128899500Y-130065891D01*
X128908773Y-130100499D01*
X128933608Y-130193188D01*
X128966554Y-130250250D01*
X128999500Y-130307314D01*
X129092686Y-130400500D01*
X129206814Y-130466392D01*
X129334108Y-130500500D01*
X129334110Y-130500500D01*
X129465890Y-130500500D01*
X129465892Y-130500500D01*
X129593186Y-130466392D01*
X129707314Y-130400500D01*
X129800500Y-130307314D01*
X129866392Y-130193186D01*
X129900500Y-130065892D01*
X129900500Y-129934108D01*
X129866392Y-129806814D01*
X129866387Y-129806806D01*
X129833878Y-129750499D01*
X129800500Y-129692686D01*
X129707314Y-129599500D01*
X129650250Y-129566554D01*
X129594053Y-129534108D01*
X133099500Y-129534108D01*
X133099500Y-129665893D01*
X133106679Y-129692686D01*
X133113031Y-129716391D01*
X133133608Y-129793187D01*
X133141475Y-129806812D01*
X133199500Y-129907314D01*
X133292686Y-130000500D01*
X133391521Y-130057563D01*
X133405944Y-130065890D01*
X133406814Y-130066392D01*
X133534108Y-130100500D01*
X133534110Y-130100500D01*
X133665890Y-130100500D01*
X133665892Y-130100500D01*
X133793186Y-130066392D01*
X133907314Y-130000500D01*
X134000500Y-129907314D01*
X134066392Y-129793186D01*
X134100500Y-129665892D01*
X134100500Y-129534108D01*
X134066392Y-129406814D01*
X134000500Y-129292686D01*
X133907314Y-129199500D01*
X133880654Y-129184108D01*
X157899500Y-129184108D01*
X157899500Y-129315891D01*
X157933608Y-129443185D01*
X157933608Y-129443186D01*
X157933607Y-129443186D01*
X157933608Y-129443187D01*
X157966121Y-129499500D01*
X157999500Y-129557314D01*
X158092686Y-129650500D01*
X158206814Y-129716392D01*
X158334108Y-129750500D01*
X158334110Y-129750500D01*
X158465890Y-129750500D01*
X158465892Y-129750500D01*
X158593186Y-129716392D01*
X158707314Y-129650500D01*
X158800500Y-129557314D01*
X158866392Y-129443186D01*
X158900500Y-129315892D01*
X158900500Y-129184108D01*
X158866392Y-129056814D01*
X158866387Y-129056806D01*
X158833877Y-129000497D01*
X158800500Y-128942686D01*
X158707314Y-128849500D01*
X158650250Y-128816554D01*
X158593187Y-128783608D01*
X158529539Y-128766554D01*
X158465892Y-128749500D01*
X158465891Y-128749500D01*
X158334108Y-128749500D01*
X158206808Y-128783609D01*
X158206806Y-128783610D01*
X158092696Y-128849493D01*
X158092682Y-128849502D01*
X158092677Y-128849506D01*
X157999506Y-128942677D01*
X157999502Y-128942682D01*
X157999493Y-128942696D01*
X157933610Y-129056806D01*
X157933609Y-129056808D01*
X157917644Y-129116391D01*
X157899500Y-129184108D01*
X133880654Y-129184108D01*
X133822442Y-129150499D01*
X133793187Y-129133608D01*
X133728931Y-129116391D01*
X133728930Y-129116390D01*
X133682782Y-129104025D01*
X133665892Y-129099500D01*
X133665891Y-129099500D01*
X133534108Y-129099500D01*
X133406808Y-129133609D01*
X133406806Y-129133610D01*
X133292696Y-129199493D01*
X133292682Y-129199502D01*
X133292677Y-129199506D01*
X133199506Y-129292677D01*
X133199502Y-129292682D01*
X133199493Y-129292696D01*
X133133607Y-129406810D01*
X133123862Y-129443185D01*
X133123862Y-129443186D01*
X133099500Y-129534108D01*
X129594053Y-129534108D01*
X129593187Y-129533608D01*
X129529539Y-129516554D01*
X129465892Y-129499500D01*
X129465891Y-129499500D01*
X129334108Y-129499500D01*
X129206808Y-129533609D01*
X129206806Y-129533610D01*
X129092696Y-129599493D01*
X129092682Y-129599502D01*
X129092677Y-129599506D01*
X128999506Y-129692677D01*
X128999502Y-129692682D01*
X128999493Y-129692696D01*
X128933610Y-129806806D01*
X128933609Y-129806808D01*
X128933608Y-129806812D01*
X128899500Y-129934108D01*
X93000500Y-129934108D01*
X93000500Y-127992790D01*
X94019499Y-127992790D01*
X94046418Y-128128117D01*
X94046421Y-128128127D01*
X94046929Y-128129354D01*
X94046930Y-128129358D01*
X94099217Y-128255592D01*
X94099222Y-128255601D01*
X94099232Y-128255618D01*
X94175886Y-128370338D01*
X94175887Y-128370339D01*
X94175892Y-128370345D01*
X94273448Y-128467901D01*
X94273454Y-128467906D01*
X94273458Y-128467909D01*
X94388182Y-128544566D01*
X94388195Y-128544573D01*
X94483647Y-128584110D01*
X94510060Y-128595050D01*
X94514470Y-128597136D01*
X94651001Y-128624295D01*
X95588995Y-128624295D01*
X95588996Y-128624295D01*
X95634518Y-128615239D01*
X95680041Y-128606184D01*
X95724328Y-128597375D01*
X95851811Y-128544570D01*
X95966542Y-128467909D01*
X96064114Y-128370337D01*
X96140775Y-128255606D01*
X96193580Y-128128123D01*
X96220500Y-127992788D01*
X96220500Y-127854802D01*
X96220500Y-127854799D01*
X96220500Y-127854797D01*
X96220500Y-127854796D01*
X96193341Y-127718266D01*
X96191256Y-127713857D01*
X96185723Y-127700499D01*
X96140778Y-127591990D01*
X96140771Y-127591977D01*
X96064114Y-127477253D01*
X96064111Y-127477249D01*
X96064106Y-127477243D01*
X95966550Y-127379687D01*
X95966544Y-127379682D01*
X95966543Y-127379681D01*
X95851823Y-127303027D01*
X95851822Y-127303026D01*
X95851817Y-127303023D01*
X95851804Y-127303016D01*
X95851797Y-127303012D01*
X95724354Y-127250224D01*
X95724340Y-127250219D01*
X95724332Y-127250216D01*
X95724322Y-127250213D01*
X95724319Y-127250212D01*
X95724315Y-127250211D01*
X95588998Y-127223295D01*
X95588995Y-127223295D01*
X95588993Y-127223295D01*
X94651007Y-127223295D01*
X94651005Y-127223295D01*
X94651000Y-127223295D01*
X94515683Y-127250211D01*
X94515677Y-127250213D01*
X94515667Y-127250216D01*
X94515662Y-127250217D01*
X94515644Y-127250224D01*
X94388201Y-127303012D01*
X94388192Y-127303017D01*
X94388175Y-127303027D01*
X94273455Y-127379681D01*
X94273454Y-127379682D01*
X94273448Y-127379687D01*
X94175892Y-127477243D01*
X94175887Y-127477249D01*
X94175886Y-127477250D01*
X94099232Y-127591970D01*
X94099222Y-127591987D01*
X94099217Y-127591996D01*
X94046429Y-127719439D01*
X94046416Y-127719478D01*
X94019500Y-127854795D01*
X94019500Y-127854797D01*
X94019500Y-127854799D01*
X94019500Y-127854802D01*
X94019500Y-127992788D01*
X94019500Y-127992790D01*
X94019499Y-127992790D01*
X93000500Y-127992790D01*
X93000500Y-121953856D01*
X95849500Y-121953856D01*
X95849500Y-124846144D01*
X95849638Y-124846659D01*
X95863887Y-124899841D01*
X95863914Y-124899939D01*
X95866584Y-124909902D01*
X95873385Y-124935286D01*
X95919527Y-125015208D01*
X95919529Y-125015211D01*
X95919530Y-125015212D01*
X96953583Y-126049265D01*
X97033507Y-126095409D01*
X97122651Y-126119295D01*
X98125115Y-126119295D01*
X98160047Y-126124316D01*
X98173366Y-126128227D01*
X98232144Y-126166001D01*
X98261170Y-126229556D01*
X98262380Y-126237971D01*
X98259417Y-126287712D01*
X98224500Y-126418027D01*
X98224500Y-126569562D01*
X98244108Y-126642744D01*
X98244109Y-126642744D01*
X98244109Y-126642745D01*
X98263719Y-126715931D01*
X98273925Y-126733608D01*
X98339485Y-126847160D01*
X98339487Y-126847162D01*
X98446635Y-126954310D01*
X98447324Y-126954806D01*
X98449828Y-126956154D01*
X98553587Y-127016059D01*
X98581328Y-127037876D01*
X98589132Y-127046061D01*
X98621147Y-127108165D01*
X98614503Y-127177718D01*
X98571312Y-127232638D01*
X98571309Y-127232640D01*
X98559426Y-127241101D01*
X98534957Y-127254651D01*
X98418198Y-127303014D01*
X98418192Y-127303017D01*
X98418175Y-127303027D01*
X98303455Y-127379681D01*
X98303454Y-127379682D01*
X98303448Y-127379687D01*
X98205892Y-127477243D01*
X98205887Y-127477249D01*
X98205886Y-127477250D01*
X98129232Y-127591970D01*
X98129222Y-127591987D01*
X98129217Y-127591996D01*
X98076429Y-127719439D01*
X98076416Y-127719478D01*
X98049500Y-127854795D01*
X98049500Y-127948421D01*
X98044237Y-127966341D01*
X98076416Y-128128110D01*
X98076417Y-128128114D01*
X98076418Y-128128117D01*
X98076421Y-128128127D01*
X98076424Y-128128135D01*
X98076429Y-128128149D01*
X98129217Y-128255592D01*
X98129222Y-128255601D01*
X98129232Y-128255618D01*
X98205886Y-128370338D01*
X98205887Y-128370339D01*
X98205892Y-128370345D01*
X98303448Y-128467901D01*
X98303454Y-128467906D01*
X98303458Y-128467909D01*
X98418182Y-128544566D01*
X98418195Y-128544573D01*
X98513647Y-128584110D01*
X98540060Y-128595050D01*
X98544470Y-128597136D01*
X98681001Y-128624295D01*
X99918995Y-128624295D01*
X99918996Y-128624295D01*
X99964518Y-128615239D01*
X100010041Y-128606184D01*
X100054328Y-128597375D01*
X100181811Y-128544570D01*
X100197468Y-128534108D01*
X111499500Y-128534108D01*
X111499500Y-128665891D01*
X111533608Y-128793187D01*
X111562476Y-128843186D01*
X111599500Y-128907314D01*
X111692686Y-129000500D01*
X111806814Y-129066392D01*
X111934108Y-129100500D01*
X111934110Y-129100500D01*
X112065890Y-129100500D01*
X112065892Y-129100500D01*
X112193186Y-129066392D01*
X112307314Y-129000500D01*
X112400500Y-128907314D01*
X112466392Y-128793186D01*
X112500500Y-128665892D01*
X112500500Y-128534108D01*
X116099500Y-128534108D01*
X116099500Y-128665891D01*
X116133608Y-128793187D01*
X116162476Y-128843186D01*
X116199500Y-128907314D01*
X116292686Y-129000500D01*
X116406814Y-129066392D01*
X116534108Y-129100500D01*
X116534110Y-129100500D01*
X116665890Y-129100500D01*
X116665892Y-129100500D01*
X116793186Y-129066392D01*
X116907314Y-129000500D01*
X117000500Y-128907314D01*
X117066392Y-128793186D01*
X117100500Y-128665892D01*
X117100500Y-128584108D01*
X120349500Y-128584108D01*
X120349500Y-128715892D01*
X120350821Y-128720822D01*
X120350821Y-128720824D01*
X120358504Y-128749499D01*
X120358505Y-128749499D01*
X120358505Y-128749500D01*
X120370211Y-128793186D01*
X120383608Y-128843186D01*
X120383607Y-128843186D01*
X120396717Y-128865892D01*
X120449497Y-128957310D01*
X120449499Y-128957312D01*
X120449500Y-128957314D01*
X120542686Y-129050500D01*
X120641084Y-129107310D01*
X120656810Y-129116390D01*
X120656814Y-129116392D01*
X120784108Y-129150500D01*
X120784110Y-129150500D01*
X120915890Y-129150500D01*
X120915892Y-129150500D01*
X121043186Y-129116392D01*
X121157314Y-129050500D01*
X121250500Y-128957314D01*
X121316392Y-128843186D01*
X121345620Y-128734106D01*
X131899500Y-128734106D01*
X131899500Y-128734108D01*
X131899500Y-128865892D01*
X131916554Y-128929539D01*
X131933608Y-128993187D01*
X131966554Y-129050250D01*
X131999500Y-129107314D01*
X132092686Y-129200500D01*
X132206814Y-129266392D01*
X132334108Y-129300500D01*
X132334110Y-129300500D01*
X132465890Y-129300500D01*
X132465892Y-129300500D01*
X132593186Y-129266392D01*
X132707314Y-129200500D01*
X132800500Y-129107314D01*
X132866392Y-128993186D01*
X132900500Y-128865892D01*
X132900500Y-128734108D01*
X132866392Y-128606814D01*
X132866387Y-128606806D01*
X132830457Y-128544573D01*
X132800500Y-128492686D01*
X132707314Y-128399500D01*
X132608910Y-128342686D01*
X132593187Y-128333608D01*
X132529539Y-128316554D01*
X132465892Y-128299500D01*
X132465891Y-128299500D01*
X132334108Y-128299500D01*
X132206808Y-128333609D01*
X132206806Y-128333610D01*
X132092696Y-128399493D01*
X132092682Y-128399502D01*
X132092677Y-128399506D01*
X131999506Y-128492677D01*
X131999502Y-128492682D01*
X131999493Y-128492696D01*
X131933610Y-128606806D01*
X131933609Y-128606809D01*
X131933608Y-128606811D01*
X131933608Y-128606812D01*
X131928924Y-128624295D01*
X131917778Y-128665892D01*
X131899500Y-128734106D01*
X121345620Y-128734106D01*
X121350500Y-128715892D01*
X121350500Y-128584108D01*
X121316392Y-128456814D01*
X121250500Y-128342686D01*
X121157314Y-128249500D01*
X121100250Y-128216554D01*
X121043187Y-128183608D01*
X120979539Y-128166554D01*
X120915892Y-128149500D01*
X120915891Y-128149500D01*
X120784108Y-128149500D01*
X120656808Y-128183609D01*
X120656806Y-128183610D01*
X120542696Y-128249493D01*
X120542682Y-128249502D01*
X120542677Y-128249506D01*
X120449506Y-128342677D01*
X120449503Y-128342681D01*
X120449502Y-128342683D01*
X120449500Y-128342686D01*
X120412479Y-128406808D01*
X120383607Y-128456814D01*
X120382880Y-128459527D01*
X120382879Y-128459531D01*
X120380635Y-128467909D01*
X120349500Y-128584108D01*
X117100500Y-128584108D01*
X117100500Y-128534108D01*
X117066392Y-128406814D01*
X117066387Y-128406806D01*
X117057563Y-128391521D01*
X117000500Y-128292686D01*
X116907314Y-128199500D01*
X116820712Y-128149500D01*
X116820712Y-128149499D01*
X116820710Y-128149499D01*
X116793187Y-128133608D01*
X116729539Y-128116554D01*
X116665892Y-128099500D01*
X116665891Y-128099500D01*
X116534108Y-128099500D01*
X116406808Y-128133609D01*
X116406806Y-128133610D01*
X116292696Y-128199493D01*
X116292682Y-128199502D01*
X116292677Y-128199506D01*
X116199506Y-128292677D01*
X116199502Y-128292682D01*
X116199493Y-128292696D01*
X116133610Y-128406806D01*
X116133609Y-128406808D01*
X116110599Y-128492686D01*
X116099500Y-128534108D01*
X112500500Y-128534108D01*
X112466392Y-128406814D01*
X112466387Y-128406806D01*
X112457563Y-128391521D01*
X112400500Y-128292686D01*
X112307314Y-128199500D01*
X112220712Y-128149500D01*
X112220712Y-128149499D01*
X112220710Y-128149499D01*
X112193187Y-128133608D01*
X112129539Y-128116554D01*
X112065892Y-128099500D01*
X112065891Y-128099500D01*
X111934108Y-128099500D01*
X111806808Y-128133609D01*
X111806806Y-128133610D01*
X111692696Y-128199493D01*
X111692682Y-128199502D01*
X111692677Y-128199506D01*
X111599506Y-128292677D01*
X111599502Y-128292682D01*
X111599493Y-128292696D01*
X111533610Y-128406806D01*
X111533609Y-128406808D01*
X111510599Y-128492686D01*
X111499500Y-128534108D01*
X100197468Y-128534108D01*
X100296542Y-128467909D01*
X100307639Y-128456812D01*
X100326152Y-128438300D01*
X100360133Y-128404318D01*
X100394112Y-128370340D01*
X100394114Y-128370337D01*
X100470775Y-128255606D01*
X100523580Y-128128123D01*
X100550500Y-127992788D01*
X100550500Y-127854802D01*
X100550500Y-127854799D01*
X100550499Y-127854796D01*
X100543546Y-127819844D01*
X100531774Y-127760663D01*
X100529885Y-127725429D01*
X100530893Y-127714156D01*
X100556475Y-127649140D01*
X100613146Y-127608274D01*
X100682915Y-127604533D01*
X100693563Y-127607049D01*
X100727047Y-127620338D01*
X100806814Y-127666392D01*
X100934108Y-127700500D01*
X100934110Y-127700500D01*
X101065890Y-127700500D01*
X101065892Y-127700500D01*
X101193186Y-127666392D01*
X101307314Y-127600500D01*
X101400500Y-127507314D01*
X101466392Y-127393186D01*
X101500500Y-127265892D01*
X101500500Y-127134108D01*
X101466392Y-127006814D01*
X101466389Y-127006808D01*
X101455520Y-126987982D01*
X101455519Y-126987980D01*
X101455519Y-126987979D01*
X101451462Y-126980954D01*
X101451458Y-126980946D01*
X101451458Y-126980945D01*
X101451455Y-126980942D01*
X101424416Y-126934109D01*
X101424415Y-126934108D01*
X110099500Y-126934108D01*
X110099500Y-127065891D01*
X110102085Y-127075539D01*
X110133608Y-127193188D01*
X110161272Y-127241101D01*
X110166383Y-127249954D01*
X110199500Y-127307314D01*
X110292686Y-127400500D01*
X110406814Y-127466392D01*
X110534108Y-127500500D01*
X110534110Y-127500500D01*
X110665890Y-127500500D01*
X110665892Y-127500500D01*
X110793186Y-127466392D01*
X110907314Y-127400500D01*
X111000500Y-127307314D01*
X111066392Y-127193186D01*
X111100500Y-127065892D01*
X111100500Y-126934108D01*
X111066392Y-126806814D01*
X111066387Y-126806806D01*
X111028279Y-126740801D01*
X111000500Y-126692686D01*
X110907314Y-126599500D01*
X110850250Y-126566554D01*
X110793187Y-126533608D01*
X110729539Y-126516554D01*
X110665892Y-126499500D01*
X110665891Y-126499500D01*
X110534108Y-126499500D01*
X110406808Y-126533609D01*
X110406806Y-126533610D01*
X110292696Y-126599493D01*
X110292682Y-126599502D01*
X110292677Y-126599506D01*
X110199506Y-126692677D01*
X110199502Y-126692682D01*
X110199493Y-126692696D01*
X110133610Y-126806806D01*
X110133609Y-126806808D01*
X110133608Y-126806812D01*
X110099500Y-126934108D01*
X101424415Y-126934108D01*
X101400500Y-126892686D01*
X101307314Y-126799500D01*
X101307312Y-126799498D01*
X101306623Y-126799001D01*
X101304107Y-126797647D01*
X101205646Y-126740801D01*
X101179499Y-126714523D01*
X101164242Y-126704202D01*
X101160468Y-126695396D01*
X101159949Y-126694874D01*
X101154862Y-126685960D01*
X101156117Y-126685243D01*
X101136722Y-126639980D01*
X101148291Y-126571075D01*
X101187977Y-126524177D01*
X101188479Y-126523820D01*
X101239810Y-126502584D01*
X101242032Y-126502210D01*
X101262559Y-126500500D01*
X101265890Y-126500500D01*
X101265892Y-126500500D01*
X101393186Y-126466392D01*
X101507314Y-126400500D01*
X101600500Y-126307314D01*
X101666392Y-126193186D01*
X101700500Y-126065892D01*
X101700500Y-125934108D01*
X101666392Y-125806814D01*
X101600500Y-125692686D01*
X101507314Y-125599500D01*
X101450250Y-125566554D01*
X101393187Y-125533608D01*
X101329539Y-125516554D01*
X101265892Y-125499500D01*
X101265891Y-125499500D01*
X101252412Y-125499500D01*
X101221272Y-125495526D01*
X101192534Y-125488070D01*
X101161674Y-125475431D01*
X101104085Y-125442182D01*
X101104084Y-125442181D01*
X101104083Y-125442181D01*
X101014939Y-125418295D01*
X101014938Y-125418295D01*
X97383169Y-125418295D01*
X97348233Y-125413272D01*
X97322991Y-125405860D01*
X97270246Y-125374564D01*
X97229790Y-125334108D01*
X105299500Y-125334108D01*
X105299500Y-125465892D01*
X105300051Y-125467948D01*
X105300051Y-125467952D01*
X105305510Y-125488326D01*
X105305511Y-125488326D01*
X105333608Y-125593187D01*
X105366554Y-125650250D01*
X105399500Y-125707314D01*
X105492686Y-125800500D01*
X105606814Y-125866392D01*
X105734108Y-125900500D01*
X105734110Y-125900500D01*
X105865890Y-125900500D01*
X105865892Y-125900500D01*
X105993186Y-125866392D01*
X106107314Y-125800500D01*
X106200500Y-125707314D01*
X106266392Y-125593186D01*
X106300500Y-125465892D01*
X106300500Y-125334108D01*
X106266392Y-125206814D01*
X106200500Y-125092686D01*
X106107314Y-124999500D01*
X106050250Y-124966554D01*
X105993187Y-124933608D01*
X105904713Y-124909902D01*
X105904713Y-124909901D01*
X105865893Y-124899500D01*
X105865892Y-124899500D01*
X105734108Y-124899500D01*
X105606808Y-124933609D01*
X105606806Y-124933610D01*
X105492696Y-124999493D01*
X105492682Y-124999502D01*
X105492677Y-124999506D01*
X105399506Y-125092677D01*
X105399502Y-125092682D01*
X105399493Y-125092696D01*
X105333607Y-125206810D01*
X105333607Y-125206812D01*
X105309973Y-125295020D01*
X105309972Y-125295023D01*
X105306680Y-125307313D01*
X105299500Y-125334108D01*
X97229790Y-125334108D01*
X96599426Y-124703744D01*
X96578274Y-124675488D01*
X96565667Y-124652399D01*
X96550500Y-124592974D01*
X96550500Y-124377619D01*
X97861777Y-124377619D01*
X97861777Y-124509402D01*
X97894040Y-124629814D01*
X97895886Y-124636700D01*
X97906347Y-124654819D01*
X97906348Y-124654820D01*
X97961777Y-124750825D01*
X98054963Y-124844011D01*
X98125272Y-124884604D01*
X98169087Y-124909901D01*
X98169091Y-124909903D01*
X98296385Y-124944011D01*
X98296387Y-124944011D01*
X98428167Y-124944011D01*
X98428169Y-124944011D01*
X98555463Y-124909903D01*
X98669591Y-124844011D01*
X98762777Y-124750825D01*
X98828669Y-124636697D01*
X98862777Y-124509403D01*
X98862777Y-124377619D01*
X98828669Y-124250325D01*
X98828664Y-124250317D01*
X98803548Y-124206814D01*
X98762777Y-124136197D01*
X98760686Y-124134106D01*
X104899500Y-124134106D01*
X104899500Y-124134108D01*
X104899500Y-124265892D01*
X104916554Y-124329539D01*
X104933608Y-124393187D01*
X104966554Y-124450250D01*
X104999500Y-124507314D01*
X105092686Y-124600500D01*
X105206814Y-124666392D01*
X105334108Y-124700500D01*
X105334110Y-124700500D01*
X105465890Y-124700500D01*
X105465892Y-124700500D01*
X105593186Y-124666392D01*
X105707314Y-124600500D01*
X105800500Y-124507314D01*
X105866392Y-124393186D01*
X105900500Y-124265892D01*
X105900500Y-124134108D01*
X105866392Y-124006814D01*
X105866389Y-124006809D01*
X105866041Y-124006206D01*
X105866010Y-124006153D01*
X105824416Y-123934110D01*
X105824415Y-123934109D01*
X105824414Y-123934108D01*
X122299500Y-123934108D01*
X122299500Y-124065892D01*
X122299723Y-124066724D01*
X122299723Y-124066726D01*
X122305352Y-124087734D01*
X122308773Y-124100500D01*
X122333608Y-124193187D01*
X122366554Y-124250250D01*
X122399500Y-124307314D01*
X122492686Y-124400500D01*
X122492687Y-124400501D01*
X122492689Y-124400502D01*
X122591519Y-124457562D01*
X122591521Y-124457563D01*
X122605944Y-124465890D01*
X122606814Y-124466392D01*
X122734108Y-124500500D01*
X122734110Y-124500500D01*
X122865890Y-124500500D01*
X122865892Y-124500500D01*
X122993186Y-124466392D01*
X123107314Y-124400500D01*
X123173708Y-124334106D01*
X132699500Y-124334106D01*
X132699500Y-124465893D01*
X132711158Y-124509401D01*
X132733608Y-124593187D01*
X132741766Y-124607316D01*
X132741768Y-124607320D01*
X132770633Y-124657315D01*
X132799500Y-124707314D01*
X132892686Y-124800500D01*
X133006814Y-124866392D01*
X133134108Y-124900500D01*
X133134110Y-124900500D01*
X133265890Y-124900500D01*
X133265892Y-124900500D01*
X133393186Y-124866392D01*
X133507314Y-124800500D01*
X133600500Y-124707314D01*
X133666392Y-124593186D01*
X133700500Y-124465892D01*
X133700500Y-124334108D01*
X133666392Y-124206814D01*
X133666387Y-124206806D01*
X133657563Y-124191521D01*
X133600500Y-124092686D01*
X133507314Y-123999500D01*
X133488345Y-123988548D01*
X133448308Y-123965432D01*
X133448304Y-123965430D01*
X133440097Y-123960692D01*
X133393187Y-123933608D01*
X133313931Y-123912372D01*
X133307390Y-123910619D01*
X133307384Y-123910617D01*
X133265893Y-123899500D01*
X133265892Y-123899500D01*
X133134108Y-123899500D01*
X133006808Y-123933609D01*
X133006806Y-123933610D01*
X132892696Y-123999493D01*
X132892682Y-123999502D01*
X132892677Y-123999506D01*
X132799506Y-124092677D01*
X132799502Y-124092682D01*
X132799493Y-124092696D01*
X132733610Y-124206806D01*
X132733609Y-124206809D01*
X132733608Y-124206811D01*
X132733608Y-124206812D01*
X132726294Y-124234108D01*
X132717778Y-124265892D01*
X132699500Y-124334106D01*
X123173708Y-124334106D01*
X123200500Y-124307314D01*
X123213023Y-124285622D01*
X123225520Y-124263980D01*
X123264404Y-124196628D01*
X123265988Y-124194077D01*
X123266391Y-124193187D01*
X123266392Y-124193186D01*
X123300500Y-124065892D01*
X123300500Y-123934108D01*
X123266392Y-123806814D01*
X123266387Y-123806806D01*
X123251400Y-123780848D01*
X123200500Y-123692686D01*
X123107314Y-123599500D01*
X123050250Y-123566554D01*
X122993187Y-123533608D01*
X122929539Y-123516554D01*
X122865892Y-123499500D01*
X122865891Y-123499500D01*
X122734108Y-123499500D01*
X122606808Y-123533609D01*
X122606806Y-123533610D01*
X122492696Y-123599493D01*
X122492682Y-123599502D01*
X122492677Y-123599506D01*
X122399506Y-123692677D01*
X122399502Y-123692682D01*
X122399493Y-123692696D01*
X122333610Y-123806806D01*
X122333609Y-123806808D01*
X122303620Y-123918732D01*
X122299634Y-123933608D01*
X122299500Y-123934108D01*
X105824414Y-123934108D01*
X105800500Y-123892686D01*
X105707314Y-123799500D01*
X105650250Y-123766554D01*
X105593187Y-123733608D01*
X105501843Y-123709133D01*
X105501843Y-123709132D01*
X105465893Y-123699500D01*
X105465892Y-123699500D01*
X105334108Y-123699500D01*
X105206808Y-123733609D01*
X105206806Y-123733610D01*
X105092696Y-123799493D01*
X105092682Y-123799502D01*
X105092677Y-123799506D01*
X104999506Y-123892677D01*
X104999504Y-123892680D01*
X104999493Y-123892696D01*
X104933610Y-124006806D01*
X104933609Y-124006809D01*
X104933609Y-124006810D01*
X104933608Y-124006812D01*
X104932754Y-124010001D01*
X104917778Y-124065892D01*
X104899500Y-124134106D01*
X98760686Y-124134106D01*
X98730894Y-124104314D01*
X98709742Y-124076058D01*
X98702250Y-124062337D01*
X98687398Y-123994077D01*
X98687497Y-123992696D01*
X98687527Y-123992268D01*
X98706893Y-123934073D01*
X98711086Y-123927549D01*
X98727710Y-123906921D01*
X98741949Y-123892683D01*
X98766750Y-123867882D01*
X98832642Y-123753754D01*
X98866750Y-123626460D01*
X98866750Y-123494676D01*
X98832642Y-123367382D01*
X98832070Y-123366392D01*
X98813431Y-123334108D01*
X98766750Y-123253254D01*
X98673564Y-123160068D01*
X98593417Y-123113795D01*
X98559437Y-123094176D01*
X98495789Y-123077122D01*
X98432142Y-123060068D01*
X98432141Y-123060068D01*
X98300358Y-123060068D01*
X98173058Y-123094177D01*
X98173056Y-123094178D01*
X98058946Y-123160061D01*
X98058932Y-123160070D01*
X98058927Y-123160074D01*
X97965756Y-123253245D01*
X97965752Y-123253250D01*
X97965743Y-123253264D01*
X97899860Y-123367374D01*
X97899859Y-123367376D01*
X97875457Y-123458449D01*
X97865750Y-123494676D01*
X97865750Y-123626459D01*
X97899858Y-123753755D01*
X97926271Y-123799502D01*
X97965750Y-123867882D01*
X97965752Y-123867884D01*
X98004634Y-123906766D01*
X98010434Y-123914787D01*
X98011831Y-123918732D01*
X98018784Y-123928020D01*
X98026276Y-123941741D01*
X98041128Y-124010001D01*
X98040999Y-124011807D01*
X98021631Y-124070010D01*
X98017450Y-124076516D01*
X98000814Y-124097159D01*
X97961779Y-124136193D01*
X97961778Y-124136194D01*
X97961770Y-124136207D01*
X97895887Y-124250317D01*
X97895886Y-124250319D01*
X97895885Y-124250323D01*
X97861777Y-124377619D01*
X96550500Y-124377619D01*
X96550500Y-122647903D01*
X101099500Y-122647903D01*
X101099500Y-122779686D01*
X101133608Y-122906982D01*
X101149270Y-122934108D01*
X101199500Y-123021109D01*
X101199502Y-123021111D01*
X101203117Y-123024726D01*
X101209757Y-123035902D01*
X101209962Y-123036705D01*
X101211985Y-123039812D01*
X101220542Y-123055484D01*
X101235393Y-123123743D01*
X101235264Y-123125549D01*
X101215890Y-123183760D01*
X101211653Y-123190352D01*
X101203246Y-123201910D01*
X101199502Y-123206477D01*
X101199493Y-123206491D01*
X101133610Y-123320601D01*
X101133609Y-123320602D01*
X101129990Y-123334108D01*
X101110293Y-123407621D01*
X101109259Y-123411481D01*
X101099500Y-123447900D01*
X101099500Y-123579688D01*
X101112031Y-123626457D01*
X101112032Y-123626457D01*
X101112032Y-123626458D01*
X101133608Y-123706982D01*
X101154267Y-123742763D01*
X101199500Y-123821109D01*
X101292686Y-123914295D01*
X101373046Y-123960691D01*
X101373048Y-123960693D01*
X101395569Y-123973695D01*
X101406814Y-123980187D01*
X101534108Y-124014295D01*
X101534110Y-124014295D01*
X101665889Y-124014295D01*
X101665892Y-124014295D01*
X101793186Y-123980187D01*
X101907314Y-123914295D01*
X102000500Y-123821109D01*
X102066392Y-123706981D01*
X102100500Y-123579687D01*
X102100500Y-123447903D01*
X102066392Y-123320609D01*
X102066387Y-123320601D01*
X102046192Y-123285621D01*
X102000500Y-123206481D01*
X102000498Y-123206479D01*
X102000497Y-123206477D01*
X101998472Y-123203838D01*
X101988016Y-123187779D01*
X101979459Y-123172108D01*
X101964606Y-123103846D01*
X101964735Y-123102037D01*
X101984101Y-123043842D01*
X101988294Y-123037318D01*
X101995931Y-123027845D01*
X101995553Y-123027555D01*
X102000492Y-123021116D01*
X102000500Y-123021109D01*
X102066392Y-122906981D01*
X102100500Y-122779687D01*
X102100500Y-122647903D01*
X102066392Y-122520609D01*
X102066387Y-122520601D01*
X102054205Y-122499500D01*
X102000500Y-122406481D01*
X101907314Y-122313295D01*
X101839286Y-122274019D01*
X101839286Y-122274018D01*
X101839284Y-122274018D01*
X101825206Y-122265890D01*
X101793187Y-122247403D01*
X101729539Y-122230349D01*
X101665892Y-122213295D01*
X101665891Y-122213295D01*
X101534108Y-122213295D01*
X101406808Y-122247404D01*
X101406806Y-122247405D01*
X101292696Y-122313288D01*
X101292682Y-122313297D01*
X101292677Y-122313301D01*
X101199506Y-122406472D01*
X101199502Y-122406477D01*
X101199493Y-122406491D01*
X101133610Y-122520601D01*
X101133609Y-122520603D01*
X101129990Y-122534110D01*
X101099500Y-122647903D01*
X96550500Y-122647903D01*
X96550500Y-122214373D01*
X96555522Y-122179440D01*
X96562934Y-122154195D01*
X96594228Y-122101453D01*
X96857463Y-121838218D01*
X96885713Y-121817070D01*
X96908805Y-121804462D01*
X96968230Y-121789295D01*
X101207347Y-121789295D01*
X101207349Y-121789295D01*
X101296493Y-121765409D01*
X101323030Y-121750087D01*
X101359439Y-121729067D01*
X101389339Y-121716683D01*
X101414427Y-121709961D01*
X101419805Y-121708520D01*
X101451898Y-121704295D01*
X101462095Y-121704295D01*
X101462097Y-121704295D01*
X101589391Y-121670187D01*
X101703519Y-121604295D01*
X101796705Y-121511109D01*
X101862597Y-121396981D01*
X101896705Y-121269687D01*
X101896705Y-121137903D01*
X101862597Y-121010609D01*
X101818429Y-120934108D01*
X107299500Y-120934108D01*
X107299500Y-121065892D01*
X107307373Y-121095273D01*
X107333608Y-121193187D01*
X107336981Y-121199029D01*
X107399500Y-121307314D01*
X107492686Y-121400500D01*
X107558187Y-121438317D01*
X107605944Y-121465890D01*
X107605958Y-121465898D01*
X107605957Y-121465898D01*
X107606810Y-121466390D01*
X107606811Y-121466390D01*
X107606814Y-121466392D01*
X107734108Y-121500500D01*
X107734110Y-121500500D01*
X107865890Y-121500500D01*
X107865892Y-121500500D01*
X107993186Y-121466392D01*
X108107314Y-121400500D01*
X108200500Y-121307314D01*
X108266392Y-121193186D01*
X108300500Y-121065892D01*
X108300500Y-120934108D01*
X108292977Y-120906032D01*
X108699500Y-120906032D01*
X108699500Y-121037818D01*
X108714200Y-121092682D01*
X108714201Y-121092682D01*
X108714201Y-121092683D01*
X108733608Y-121165112D01*
X108757684Y-121206812D01*
X108799500Y-121279239D01*
X108892686Y-121372425D01*
X109006814Y-121438317D01*
X109134108Y-121472425D01*
X109265892Y-121472425D01*
X109393186Y-121438317D01*
X109507314Y-121372425D01*
X109600500Y-121279239D01*
X109666392Y-121165111D01*
X109671854Y-121144725D01*
X109676846Y-121129908D01*
X109678331Y-121126275D01*
X109681881Y-121121826D01*
X109690420Y-121103692D01*
X109694616Y-121097493D01*
X109714222Y-121081306D01*
X109721917Y-121071667D01*
X109728660Y-121069387D01*
X109748494Y-121053014D01*
X109817870Y-121044723D01*
X109876227Y-121071368D01*
X109877406Y-121072341D01*
X109916582Y-121130194D01*
X109918252Y-121135877D01*
X109933608Y-121193186D01*
X109999500Y-121307314D01*
X110092686Y-121400500D01*
X110158187Y-121438317D01*
X110205944Y-121465890D01*
X110206814Y-121466392D01*
X110250377Y-121478064D01*
X110259058Y-121481883D01*
X110262357Y-121484661D01*
X110273660Y-121489501D01*
X110283318Y-121495388D01*
X110310219Y-121524977D01*
X110312496Y-121526895D01*
X110312770Y-121527783D01*
X110330318Y-121547084D01*
X110341908Y-121615986D01*
X110314457Y-121680155D01*
X110314067Y-121680628D01*
X110269892Y-121714544D01*
X110267844Y-121715479D01*
X110248443Y-121722453D01*
X110242821Y-121723959D01*
X110240666Y-121724537D01*
X110225736Y-121728537D01*
X110206807Y-121733609D01*
X110206806Y-121733610D01*
X110092696Y-121799493D01*
X110092682Y-121799502D01*
X110092677Y-121799506D01*
X109999506Y-121892677D01*
X109999502Y-121892682D01*
X109999493Y-121892696D01*
X109933608Y-122006810D01*
X109924388Y-122041221D01*
X109905768Y-122073276D01*
X109899732Y-122090716D01*
X109892198Y-122096640D01*
X109891834Y-122097267D01*
X109884541Y-122104484D01*
X109883526Y-122103458D01*
X109844809Y-122133904D01*
X109775255Y-122140542D01*
X109719724Y-122114357D01*
X109719250Y-122113966D01*
X109685455Y-122069891D01*
X109684520Y-122067843D01*
X109677546Y-122048440D01*
X109666393Y-122006819D01*
X109666392Y-122006818D01*
X109666391Y-122006812D01*
X109657563Y-121991521D01*
X109605011Y-121900500D01*
X109600502Y-121892689D01*
X109600497Y-121892683D01*
X109507316Y-121799502D01*
X109507314Y-121799500D01*
X109393186Y-121733608D01*
X109265892Y-121699500D01*
X109134108Y-121699500D01*
X109022581Y-121729383D01*
X109005967Y-121731570D01*
X108992673Y-121741772D01*
X108892682Y-121799502D01*
X108892677Y-121799506D01*
X108799506Y-121892677D01*
X108799502Y-121892682D01*
X108799493Y-121892696D01*
X108733607Y-122006810D01*
X108733607Y-122006811D01*
X108709751Y-122095849D01*
X108699500Y-122134106D01*
X108699500Y-122265893D01*
X108707438Y-122295518D01*
X108712202Y-122313297D01*
X108733608Y-122393187D01*
X108741475Y-122406812D01*
X108799500Y-122507314D01*
X108892686Y-122600500D01*
X108974790Y-122647903D01*
X108974791Y-122647904D01*
X109005928Y-122665881D01*
X109006810Y-122666390D01*
X109006811Y-122666390D01*
X109006814Y-122666392D01*
X109134108Y-122700500D01*
X109134110Y-122700500D01*
X109265890Y-122700500D01*
X109265892Y-122700500D01*
X109393186Y-122666392D01*
X109507314Y-122600500D01*
X109600500Y-122507314D01*
X109666392Y-122393186D01*
X109675610Y-122358777D01*
X109694233Y-122326712D01*
X109700265Y-122309287D01*
X109707792Y-122303367D01*
X109708159Y-122302736D01*
X109715452Y-122295518D01*
X109716468Y-122296544D01*
X109755186Y-122266096D01*
X109824739Y-122259455D01*
X109880252Y-122285621D01*
X109880729Y-122286015D01*
X109914535Y-122330085D01*
X109915470Y-122332132D01*
X109922454Y-122351558D01*
X109933608Y-122393188D01*
X109934593Y-122394893D01*
X109941475Y-122406812D01*
X109999500Y-122507314D01*
X110092686Y-122600500D01*
X110174790Y-122647903D01*
X110205944Y-122665890D01*
X110206814Y-122666392D01*
X110249171Y-122677741D01*
X110256775Y-122680906D01*
X110260364Y-122683808D01*
X110273660Y-122689501D01*
X110283318Y-122695388D01*
X110307288Y-122721753D01*
X110311104Y-122724839D01*
X110311682Y-122726586D01*
X110330318Y-122747084D01*
X110341908Y-122815986D01*
X110314457Y-122880155D01*
X110314067Y-122880628D01*
X110269892Y-122914544D01*
X110267844Y-122915479D01*
X110248443Y-122922453D01*
X110242821Y-122923959D01*
X110240666Y-122924537D01*
X110225736Y-122928537D01*
X110206807Y-122933609D01*
X110206806Y-122933610D01*
X110092696Y-122999493D01*
X110092682Y-122999502D01*
X110092677Y-122999506D01*
X109999506Y-123092677D01*
X109999502Y-123092682D01*
X109999493Y-123092696D01*
X109933610Y-123206806D01*
X109933609Y-123206808D01*
X109918293Y-123263968D01*
X109899500Y-123334108D01*
X109899500Y-123465891D01*
X109914260Y-123520979D01*
X109933608Y-123593188D01*
X109937254Y-123599502D01*
X109952818Y-123626459D01*
X109999500Y-123707314D01*
X110092686Y-123800500D01*
X110150031Y-123833608D01*
X110150032Y-123833609D01*
X110150034Y-123833610D01*
X110206810Y-123866390D01*
X110206814Y-123866392D01*
X110334108Y-123900500D01*
X110334110Y-123900500D01*
X110465890Y-123900500D01*
X110465892Y-123900500D01*
X110593186Y-123866392D01*
X110707314Y-123800500D01*
X110800500Y-123707314D01*
X110866392Y-123593186D01*
X110900500Y-123465892D01*
X110900500Y-123334108D01*
X119299500Y-123334108D01*
X119299500Y-123465891D01*
X119314260Y-123520979D01*
X119333608Y-123593188D01*
X119337254Y-123599502D01*
X119352818Y-123626459D01*
X119399500Y-123707314D01*
X119492686Y-123800500D01*
X119550031Y-123833608D01*
X119550032Y-123833609D01*
X119550034Y-123833610D01*
X119606810Y-123866390D01*
X119606814Y-123866392D01*
X119734108Y-123900500D01*
X119734110Y-123900500D01*
X119865890Y-123900500D01*
X119865892Y-123900500D01*
X119993186Y-123866392D01*
X120107314Y-123800500D01*
X120200500Y-123707314D01*
X120266392Y-123593186D01*
X120300500Y-123465892D01*
X120300500Y-123334108D01*
X120266392Y-123206814D01*
X120266387Y-123206806D01*
X120246354Y-123172108D01*
X120200500Y-123092686D01*
X120107314Y-122999500D01*
X120049100Y-122965890D01*
X119993187Y-122933608D01*
X119929539Y-122916554D01*
X119865892Y-122899500D01*
X119865891Y-122899500D01*
X119734108Y-122899500D01*
X119606808Y-122933609D01*
X119606806Y-122933610D01*
X119492696Y-122999493D01*
X119492682Y-122999502D01*
X119492677Y-122999506D01*
X119399506Y-123092677D01*
X119399502Y-123092682D01*
X119399493Y-123092696D01*
X119333610Y-123206806D01*
X119333609Y-123206808D01*
X119318293Y-123263968D01*
X119299500Y-123334108D01*
X110900500Y-123334108D01*
X110866392Y-123206814D01*
X110866387Y-123206806D01*
X110846354Y-123172108D01*
X110800500Y-123092686D01*
X110707314Y-122999500D01*
X110649100Y-122965890D01*
X110593187Y-122933608D01*
X110576259Y-122929072D01*
X110549200Y-122921822D01*
X110540151Y-122917766D01*
X110536972Y-122915050D01*
X110526328Y-122910492D01*
X110516667Y-122904603D01*
X110488617Y-122873742D01*
X110487027Y-122872384D01*
X110486850Y-122871799D01*
X110469673Y-122852900D01*
X110458092Y-122783997D01*
X110485599Y-122719774D01*
X110486034Y-122719247D01*
X110530070Y-122685470D01*
X110532127Y-122684531D01*
X110551545Y-122677549D01*
X110593186Y-122666392D01*
X110707314Y-122600500D01*
X110800500Y-122507314D01*
X110866392Y-122393186D01*
X110875610Y-122358777D01*
X110894233Y-122326712D01*
X110900265Y-122309287D01*
X110907792Y-122303367D01*
X110908159Y-122302736D01*
X110915452Y-122295518D01*
X110916468Y-122296544D01*
X110955186Y-122266096D01*
X111024739Y-122259455D01*
X111080252Y-122285621D01*
X111080729Y-122286015D01*
X111114535Y-122330085D01*
X111115470Y-122332132D01*
X111122454Y-122351558D01*
X111133608Y-122393188D01*
X111134593Y-122394893D01*
X111141475Y-122406812D01*
X111199500Y-122507314D01*
X111292686Y-122600500D01*
X111374790Y-122647903D01*
X111374791Y-122647904D01*
X111405928Y-122665881D01*
X111406810Y-122666390D01*
X111406811Y-122666390D01*
X111406814Y-122666392D01*
X111534108Y-122700500D01*
X111534110Y-122700500D01*
X111665890Y-122700500D01*
X111665892Y-122700500D01*
X111793186Y-122666392D01*
X111907314Y-122600500D01*
X111973711Y-122534103D01*
X121899500Y-122534103D01*
X121899500Y-122665894D01*
X121903523Y-122680906D01*
X121907918Y-122697310D01*
X121933608Y-122793187D01*
X121933609Y-122793188D01*
X121933608Y-122793188D01*
X121965723Y-122848810D01*
X121965723Y-122848813D01*
X121965725Y-122848813D01*
X121999500Y-122907314D01*
X122092686Y-123000500D01*
X122092687Y-123000501D01*
X122092689Y-123000502D01*
X122167747Y-123043837D01*
X122191521Y-123057563D01*
X122205944Y-123065890D01*
X122206814Y-123066392D01*
X122334108Y-123100500D01*
X122334110Y-123100500D01*
X122465890Y-123100500D01*
X122465892Y-123100500D01*
X122593186Y-123066392D01*
X122707314Y-123000500D01*
X122773706Y-122934108D01*
X124699500Y-122934108D01*
X124699500Y-123065892D01*
X124715001Y-123123743D01*
X124716554Y-123129539D01*
X124733608Y-123193188D01*
X124739758Y-123203838D01*
X124741766Y-123207316D01*
X124799500Y-123307314D01*
X124892686Y-123400500D01*
X124892688Y-123400501D01*
X124892692Y-123400504D01*
X124966891Y-123443343D01*
X124966894Y-123443344D01*
X124966896Y-123443345D01*
X124999928Y-123462416D01*
X125005928Y-123465881D01*
X125006810Y-123466390D01*
X125006811Y-123466390D01*
X125006814Y-123466392D01*
X125134108Y-123500500D01*
X125134110Y-123500500D01*
X125265890Y-123500500D01*
X125265892Y-123500500D01*
X125393186Y-123466392D01*
X125507314Y-123400500D01*
X125573706Y-123334108D01*
X131699500Y-123334108D01*
X131699500Y-123465891D01*
X131714260Y-123520979D01*
X131733608Y-123593188D01*
X131737254Y-123599502D01*
X131752818Y-123626459D01*
X131799500Y-123707314D01*
X131892686Y-123800500D01*
X131950031Y-123833608D01*
X131950032Y-123833609D01*
X131950034Y-123833610D01*
X132006810Y-123866390D01*
X132006814Y-123866392D01*
X132134108Y-123900500D01*
X132134110Y-123900500D01*
X132265890Y-123900500D01*
X132265892Y-123900500D01*
X132393186Y-123866392D01*
X132507314Y-123800500D01*
X132600500Y-123707314D01*
X132666392Y-123593186D01*
X132700500Y-123465892D01*
X132700500Y-123334108D01*
X132666392Y-123206814D01*
X132666387Y-123206806D01*
X132646354Y-123172108D01*
X132600500Y-123092686D01*
X132507314Y-122999500D01*
X132431229Y-122955572D01*
X132431227Y-122955571D01*
X132407318Y-122941767D01*
X132400791Y-122936758D01*
X132393187Y-122933608D01*
X132393186Y-122933608D01*
X132385579Y-122930457D01*
X132377418Y-122929383D01*
X132359332Y-122924537D01*
X132265892Y-122899500D01*
X132265891Y-122899500D01*
X132134108Y-122899500D01*
X132006808Y-122933609D01*
X132006806Y-122933610D01*
X131892696Y-122999493D01*
X131892682Y-122999502D01*
X131892677Y-122999506D01*
X131799506Y-123092677D01*
X131799502Y-123092682D01*
X131799493Y-123092696D01*
X131733610Y-123206806D01*
X131733609Y-123206808D01*
X131718293Y-123263968D01*
X131699500Y-123334108D01*
X125573706Y-123334108D01*
X125600500Y-123307314D01*
X125613023Y-123285622D01*
X125625520Y-123263980D01*
X125664404Y-123196628D01*
X125665988Y-123194077D01*
X125666390Y-123193189D01*
X125666392Y-123193186D01*
X125700500Y-123065892D01*
X125700500Y-122934108D01*
X125673705Y-122834108D01*
X139099500Y-122834108D01*
X139099500Y-122965891D01*
X139127519Y-123070461D01*
X139133608Y-123093187D01*
X139156946Y-123133608D01*
X139156947Y-123133610D01*
X139199497Y-123207310D01*
X139199499Y-123207313D01*
X139199500Y-123207314D01*
X139292686Y-123300500D01*
X139406814Y-123366392D01*
X139534108Y-123400500D01*
X139534110Y-123400500D01*
X139644507Y-123400500D01*
X139662830Y-123401861D01*
X139674019Y-123403532D01*
X139674019Y-123403600D01*
X139681892Y-123404825D01*
X139682285Y-123404767D01*
X139691484Y-123406142D01*
X139715393Y-123417220D01*
X139740646Y-123424753D01*
X139746617Y-123431688D01*
X139754879Y-123435517D01*
X139768827Y-123457487D01*
X139786063Y-123477506D01*
X139788198Y-123482207D01*
X139791345Y-123492953D01*
X139792329Y-123494502D01*
X139792319Y-123496276D01*
X139798019Y-123515736D01*
X139798137Y-123516554D01*
X139798224Y-123517150D01*
X139799500Y-123534893D01*
X139799500Y-123658655D01*
X139794640Y-123693031D01*
X139794554Y-123693327D01*
X139792074Y-123701774D01*
X139792022Y-123702101D01*
X139790879Y-123706066D01*
X139774051Y-123732522D01*
X139758844Y-123759944D01*
X139755446Y-123761772D01*
X139753381Y-123765020D01*
X139725243Y-123778030D01*
X139703788Y-123789579D01*
X139704267Y-123791286D01*
X139700364Y-123792380D01*
X139700362Y-123792381D01*
X139691407Y-123794892D01*
X139657921Y-123799500D01*
X139534108Y-123799500D01*
X139406808Y-123833609D01*
X139406806Y-123833610D01*
X139292696Y-123899493D01*
X139292682Y-123899502D01*
X139292677Y-123899506D01*
X139199506Y-123992677D01*
X139199502Y-123992682D01*
X139199493Y-123992696D01*
X139133610Y-124106806D01*
X139133609Y-124106808D01*
X139125732Y-124136207D01*
X139099500Y-124234108D01*
X139099500Y-124365891D01*
X139133608Y-124493186D01*
X139133608Y-124493187D01*
X139156946Y-124533608D01*
X139156947Y-124533610D01*
X139199497Y-124607310D01*
X139199499Y-124607313D01*
X139199500Y-124607314D01*
X139292686Y-124700500D01*
X139406814Y-124766392D01*
X139534108Y-124800500D01*
X139534110Y-124800500D01*
X139644508Y-124800500D01*
X139663574Y-124801975D01*
X139690828Y-124806216D01*
X139754044Y-124835974D01*
X139791135Y-124895183D01*
X139792348Y-124899500D01*
X139794873Y-124908480D01*
X139799500Y-124942038D01*
X139799500Y-125065892D01*
X139825081Y-125161362D01*
X139833608Y-125193188D01*
X139841474Y-125206810D01*
X139841475Y-125206812D01*
X139899500Y-125307314D01*
X139992686Y-125400500D01*
X139992687Y-125400501D01*
X139992689Y-125400502D01*
X140091519Y-125457562D01*
X140091521Y-125457563D01*
X140105944Y-125465890D01*
X140106814Y-125466392D01*
X140234108Y-125500500D01*
X140234110Y-125500500D01*
X140365890Y-125500500D01*
X140365892Y-125500500D01*
X140493186Y-125466392D01*
X140607314Y-125400500D01*
X140700500Y-125307314D01*
X140766392Y-125193186D01*
X140800500Y-125065892D01*
X140800500Y-124955480D01*
X140801862Y-124937155D01*
X140803532Y-124925981D01*
X140803599Y-124925981D01*
X140804825Y-124918104D01*
X140804767Y-124917710D01*
X140806143Y-124908508D01*
X140817219Y-124884604D01*
X140824752Y-124859351D01*
X140831690Y-124853378D01*
X140835520Y-124845114D01*
X140857504Y-124831156D01*
X140877520Y-124813927D01*
X140878841Y-124813326D01*
X140878845Y-124813326D01*
X140878847Y-124813324D01*
X140882216Y-124811795D01*
X140892948Y-124808654D01*
X140894506Y-124807666D01*
X140896293Y-124807675D01*
X140915784Y-124801972D01*
X140917212Y-124801766D01*
X140934886Y-124800500D01*
X141058663Y-124800500D01*
X141093017Y-124805354D01*
X141093264Y-124805425D01*
X141101740Y-124807914D01*
X141102078Y-124807966D01*
X141106047Y-124809111D01*
X141132475Y-124825913D01*
X141159878Y-124841082D01*
X141161726Y-124844510D01*
X141165009Y-124846598D01*
X141178064Y-124874821D01*
X141189566Y-124896158D01*
X141191274Y-124895678D01*
X141192375Y-124899595D01*
X141192376Y-124899600D01*
X141194873Y-124908486D01*
X141199500Y-124942038D01*
X141199500Y-125065892D01*
X141225081Y-125161362D01*
X141233608Y-125193188D01*
X141241474Y-125206810D01*
X141241475Y-125206812D01*
X141299500Y-125307314D01*
X141392686Y-125400500D01*
X141392687Y-125400501D01*
X141392689Y-125400502D01*
X141491519Y-125457562D01*
X141491521Y-125457563D01*
X141505944Y-125465890D01*
X141506814Y-125466392D01*
X141634108Y-125500500D01*
X141634110Y-125500500D01*
X141765890Y-125500500D01*
X141765892Y-125500500D01*
X141893186Y-125466392D01*
X142007314Y-125400500D01*
X142100500Y-125307314D01*
X142166392Y-125193186D01*
X142200500Y-125065892D01*
X142200500Y-124955480D01*
X142201976Y-124936406D01*
X142203599Y-124925981D01*
X142206217Y-124909161D01*
X142235979Y-124845950D01*
X142295193Y-124808862D01*
X142295199Y-124808860D01*
X142308499Y-124805123D01*
X142342041Y-124800500D01*
X142465890Y-124800500D01*
X142465892Y-124800500D01*
X142593186Y-124766392D01*
X142707314Y-124700500D01*
X142800500Y-124607314D01*
X142866392Y-124493186D01*
X142900500Y-124365892D01*
X142900500Y-124234108D01*
X142866392Y-124106814D01*
X142866387Y-124106806D01*
X142843247Y-124066726D01*
X142800500Y-123992686D01*
X142707314Y-123899500D01*
X142683448Y-123885720D01*
X142658341Y-123871225D01*
X142658339Y-123871224D01*
X142649966Y-123866390D01*
X142593187Y-123833608D01*
X142493188Y-123806814D01*
X142486827Y-123805109D01*
X142486823Y-123805108D01*
X142465893Y-123799500D01*
X142465892Y-123799500D01*
X142355364Y-123799500D01*
X142336979Y-123798130D01*
X142325981Y-123796481D01*
X142325981Y-123796412D01*
X142318083Y-123795177D01*
X142317676Y-123795236D01*
X142308444Y-123793852D01*
X142284484Y-123782735D01*
X142259193Y-123775151D01*
X142253260Y-123768247D01*
X142245064Y-123764445D01*
X142231188Y-123742566D01*
X142213912Y-123722464D01*
X142213302Y-123721120D01*
X142213301Y-123721116D01*
X142213298Y-123721112D01*
X142211790Y-123717788D01*
X142208635Y-123707004D01*
X142207644Y-123705441D01*
X142207654Y-123703651D01*
X142201976Y-123684238D01*
X142201769Y-123682802D01*
X142200500Y-123665110D01*
X142200500Y-123541337D01*
X142205354Y-123506982D01*
X142205427Y-123506727D01*
X142207916Y-123498252D01*
X142207968Y-123497914D01*
X142209112Y-123493949D01*
X142225904Y-123467537D01*
X142241055Y-123440147D01*
X142244500Y-123438289D01*
X142246600Y-123434988D01*
X142275000Y-123421850D01*
X142296174Y-123410437D01*
X142295692Y-123408720D01*
X142299602Y-123407621D01*
X142299605Y-123407621D01*
X142308500Y-123405121D01*
X142342039Y-123400500D01*
X142465890Y-123400500D01*
X142465892Y-123400500D01*
X142593186Y-123366392D01*
X142707314Y-123300500D01*
X142800500Y-123207314D01*
X142866392Y-123093186D01*
X142900500Y-122965892D01*
X142900500Y-122834108D01*
X142866392Y-122706814D01*
X142866387Y-122706806D01*
X142843054Y-122666392D01*
X142800500Y-122592686D01*
X142707314Y-122499500D01*
X142683246Y-122485604D01*
X142654375Y-122468935D01*
X142654372Y-122468934D01*
X142645792Y-122463980D01*
X142593187Y-122433608D01*
X142493188Y-122406814D01*
X142487056Y-122405170D01*
X142487051Y-122405169D01*
X142465893Y-122399500D01*
X142465892Y-122399500D01*
X142355369Y-122399500D01*
X142336218Y-122398012D01*
X142309088Y-122393771D01*
X142245893Y-122363969D01*
X142208843Y-122304733D01*
X142205102Y-122291392D01*
X142200500Y-122257922D01*
X142200500Y-122134110D01*
X142200500Y-122134108D01*
X142166392Y-122006814D01*
X142166387Y-122006806D01*
X142157560Y-121991517D01*
X142100500Y-121892686D01*
X142007314Y-121799500D01*
X141948260Y-121765405D01*
X141893187Y-121733608D01*
X141804937Y-121709962D01*
X141804937Y-121709961D01*
X141765893Y-121699500D01*
X141765892Y-121699500D01*
X141634108Y-121699500D01*
X141506808Y-121733609D01*
X141506806Y-121733610D01*
X141392696Y-121799493D01*
X141392682Y-121799502D01*
X141392677Y-121799506D01*
X141299506Y-121892677D01*
X141299502Y-121892682D01*
X141299493Y-121892696D01*
X141233610Y-122006806D01*
X141233609Y-122006808D01*
X141199500Y-122134108D01*
X141199500Y-122244626D01*
X141198130Y-122263008D01*
X141196480Y-122274019D01*
X141196411Y-122274019D01*
X141195177Y-122281913D01*
X141195235Y-122282316D01*
X141193852Y-122291548D01*
X141182736Y-122315507D01*
X141175150Y-122340804D01*
X141168247Y-122346737D01*
X141164447Y-122354928D01*
X141142589Y-122368790D01*
X141122481Y-122386075D01*
X141117798Y-122388201D01*
X141106995Y-122391365D01*
X141105444Y-122392350D01*
X141103673Y-122392339D01*
X141084315Y-122398011D01*
X141082879Y-122398219D01*
X141065103Y-122399500D01*
X140941342Y-122399500D01*
X140906969Y-122394641D01*
X140906711Y-122394566D01*
X140898219Y-122392073D01*
X140897889Y-122392021D01*
X140893933Y-122390880D01*
X140867489Y-122374061D01*
X140840081Y-122358873D01*
X140838245Y-122355462D01*
X140834977Y-122353383D01*
X140821823Y-122324936D01*
X140810435Y-122303768D01*
X140808708Y-122304253D01*
X140805103Y-122291393D01*
X140800500Y-122257923D01*
X140800500Y-122134110D01*
X140800500Y-122134108D01*
X140766392Y-122006814D01*
X140766387Y-122006806D01*
X140757560Y-121991517D01*
X140700500Y-121892686D01*
X140607314Y-121799500D01*
X140548260Y-121765405D01*
X140493187Y-121733608D01*
X140404937Y-121709962D01*
X140404937Y-121709961D01*
X140365893Y-121699500D01*
X140365892Y-121699500D01*
X140234108Y-121699500D01*
X140106808Y-121733609D01*
X140106806Y-121733610D01*
X139992696Y-121799493D01*
X139992682Y-121799502D01*
X139992677Y-121799506D01*
X139899506Y-121892677D01*
X139899502Y-121892682D01*
X139899493Y-121892696D01*
X139833610Y-122006806D01*
X139833609Y-122006808D01*
X139799500Y-122134108D01*
X139799500Y-122244618D01*
X139798013Y-122263762D01*
X139793772Y-122290903D01*
X139763974Y-122354099D01*
X139704746Y-122391152D01*
X139691408Y-122394893D01*
X139657921Y-122399500D01*
X139534108Y-122399500D01*
X139406808Y-122433609D01*
X139406806Y-122433610D01*
X139292696Y-122499493D01*
X139292682Y-122499502D01*
X139292677Y-122499506D01*
X139199506Y-122592677D01*
X139199502Y-122592682D01*
X139199493Y-122592696D01*
X139133610Y-122706806D01*
X139133609Y-122706808D01*
X139133608Y-122706812D01*
X139099500Y-122834108D01*
X125673705Y-122834108D01*
X125666392Y-122806814D01*
X125666387Y-122806806D01*
X125657563Y-122791521D01*
X125600500Y-122692686D01*
X125507314Y-122599500D01*
X125450250Y-122566554D01*
X125393187Y-122533608D01*
X125329539Y-122516554D01*
X125265892Y-122499500D01*
X125265891Y-122499500D01*
X125134108Y-122499500D01*
X125006808Y-122533609D01*
X125006806Y-122533610D01*
X124892696Y-122599493D01*
X124892682Y-122599502D01*
X124892677Y-122599506D01*
X124799506Y-122692677D01*
X124799502Y-122692682D01*
X124799493Y-122692696D01*
X124733610Y-122806806D01*
X124733609Y-122806809D01*
X124733608Y-122806811D01*
X124733608Y-122806812D01*
X124706768Y-122906982D01*
X124703879Y-122917766D01*
X124699634Y-122933609D01*
X124699500Y-122934108D01*
X122773706Y-122934108D01*
X122800500Y-122907314D01*
X122814301Y-122883410D01*
X122825520Y-122863980D01*
X122858527Y-122806809D01*
X122864395Y-122796645D01*
X122865986Y-122794082D01*
X122866390Y-122793189D01*
X122866392Y-122793186D01*
X122900500Y-122665892D01*
X122900500Y-122534108D01*
X122866392Y-122406814D01*
X122866387Y-122406806D01*
X122837379Y-122356562D01*
X122800500Y-122292686D01*
X122707314Y-122199500D01*
X122613233Y-122145182D01*
X122610083Y-122143363D01*
X122610075Y-122143358D01*
X122594050Y-122134106D01*
X127299500Y-122134106D01*
X127299500Y-122265893D01*
X127307438Y-122295518D01*
X127312202Y-122313297D01*
X127333608Y-122393187D01*
X127341475Y-122406812D01*
X127399500Y-122507314D01*
X127492686Y-122600500D01*
X127574790Y-122647903D01*
X127574791Y-122647904D01*
X127605928Y-122665881D01*
X127606810Y-122666390D01*
X127606811Y-122666390D01*
X127606814Y-122666392D01*
X127734108Y-122700500D01*
X127734110Y-122700500D01*
X127865890Y-122700500D01*
X127865892Y-122700500D01*
X127993186Y-122666392D01*
X128107314Y-122600500D01*
X128200500Y-122507314D01*
X128266392Y-122393186D01*
X128300500Y-122265892D01*
X128300500Y-122134108D01*
X128266392Y-122006814D01*
X128266387Y-122006806D01*
X128257560Y-121991517D01*
X128200500Y-121892686D01*
X128107314Y-121799500D01*
X128048260Y-121765405D01*
X127993187Y-121733608D01*
X127904937Y-121709962D01*
X127904937Y-121709961D01*
X127865893Y-121699500D01*
X127865892Y-121699500D01*
X127734108Y-121699500D01*
X127606808Y-121733609D01*
X127606806Y-121733610D01*
X127492696Y-121799493D01*
X127492682Y-121799502D01*
X127492677Y-121799506D01*
X127399506Y-121892677D01*
X127399502Y-121892682D01*
X127399493Y-121892696D01*
X127333607Y-122006810D01*
X127333607Y-122006811D01*
X127309751Y-122095849D01*
X127299500Y-122134106D01*
X122594050Y-122134106D01*
X122593187Y-122133608D01*
X122529539Y-122116554D01*
X122465892Y-122099500D01*
X122465891Y-122099500D01*
X122334108Y-122099500D01*
X122206808Y-122133609D01*
X122206806Y-122133610D01*
X122092696Y-122199493D01*
X122092682Y-122199502D01*
X122092677Y-122199506D01*
X121999506Y-122292677D01*
X121999502Y-122292682D01*
X121999493Y-122292696D01*
X121933610Y-122406806D01*
X121933609Y-122406809D01*
X121933608Y-122406811D01*
X121933608Y-122406812D01*
X121903117Y-122520609D01*
X121903116Y-122520608D01*
X121899500Y-122534103D01*
X111973711Y-122534103D01*
X112000500Y-122507314D01*
X112013023Y-122485622D01*
X112025520Y-122463980D01*
X112062617Y-122399722D01*
X112062624Y-122399716D01*
X112062622Y-122399715D01*
X112065406Y-122394893D01*
X112066392Y-122393186D01*
X112100500Y-122265892D01*
X112100500Y-122134108D01*
X112066392Y-122006814D01*
X112066387Y-122006806D01*
X112057560Y-121991517D01*
X112000500Y-121892686D01*
X111907314Y-121799500D01*
X111848260Y-121765405D01*
X111793187Y-121733608D01*
X111704937Y-121709962D01*
X111704937Y-121709961D01*
X111665893Y-121699500D01*
X111665892Y-121699500D01*
X111534108Y-121699500D01*
X111406808Y-121733609D01*
X111406806Y-121733610D01*
X111292696Y-121799493D01*
X111292682Y-121799502D01*
X111292677Y-121799506D01*
X111199506Y-121892677D01*
X111199502Y-121892682D01*
X111199493Y-121892696D01*
X111133608Y-122006810D01*
X111124388Y-122041221D01*
X111105768Y-122073276D01*
X111099732Y-122090716D01*
X111092198Y-122096640D01*
X111091834Y-122097267D01*
X111084541Y-122104484D01*
X111083526Y-122103458D01*
X111044809Y-122133904D01*
X110975255Y-122140542D01*
X110919724Y-122114357D01*
X110919250Y-122113966D01*
X110885455Y-122069891D01*
X110884520Y-122067843D01*
X110877546Y-122048440D01*
X110866393Y-122006819D01*
X110866392Y-122006818D01*
X110866391Y-122006812D01*
X110857563Y-121991521D01*
X110805011Y-121900500D01*
X110800502Y-121892689D01*
X110800497Y-121892683D01*
X110707316Y-121799502D01*
X110707314Y-121799500D01*
X110648260Y-121765405D01*
X110593187Y-121733608D01*
X110576259Y-121729072D01*
X110549243Y-121721833D01*
X110540237Y-121717805D01*
X110537043Y-121715080D01*
X110526328Y-121710492D01*
X110516667Y-121704603D01*
X110488748Y-121673886D01*
X110487078Y-121672462D01*
X110486891Y-121671843D01*
X110469673Y-121652900D01*
X110458092Y-121583997D01*
X110485599Y-121519774D01*
X110486034Y-121519247D01*
X110530070Y-121485470D01*
X110532127Y-121484531D01*
X110551545Y-121477549D01*
X110593186Y-121466392D01*
X110707314Y-121400500D01*
X110800500Y-121307314D01*
X110866392Y-121193186D01*
X110900500Y-121065892D01*
X110900500Y-121034108D01*
X123799500Y-121034108D01*
X123799500Y-121165891D01*
X123810465Y-121206814D01*
X123833608Y-121293188D01*
X123857234Y-121334108D01*
X123866554Y-121350250D01*
X123899500Y-121407314D01*
X123992686Y-121500500D01*
X124106814Y-121566392D01*
X124234108Y-121600500D01*
X124234110Y-121600500D01*
X124365890Y-121600500D01*
X124365892Y-121600500D01*
X124493186Y-121566392D01*
X124607314Y-121500500D01*
X124700500Y-121407314D01*
X124742766Y-121334108D01*
X131499500Y-121334108D01*
X131499500Y-121465892D01*
X131500051Y-121467948D01*
X131500051Y-121467950D01*
X131511616Y-121511110D01*
X131521255Y-121547084D01*
X131533608Y-121593187D01*
X131565723Y-121648811D01*
X131565724Y-121648813D01*
X131565725Y-121648813D01*
X131599500Y-121707314D01*
X131692686Y-121800500D01*
X131806814Y-121866392D01*
X131934108Y-121900500D01*
X131934110Y-121900500D01*
X132065890Y-121900500D01*
X132065892Y-121900500D01*
X132193186Y-121866392D01*
X132307314Y-121800500D01*
X132400500Y-121707314D01*
X132466392Y-121593186D01*
X132500500Y-121465892D01*
X132500500Y-121334108D01*
X132466392Y-121206814D01*
X132400500Y-121092686D01*
X132307314Y-120999500D01*
X132215772Y-120946648D01*
X132193187Y-120933608D01*
X132093188Y-120906814D01*
X132089103Y-120905719D01*
X132089096Y-120905717D01*
X132065893Y-120899500D01*
X132065892Y-120899500D01*
X131934108Y-120899500D01*
X131806808Y-120933609D01*
X131806806Y-120933610D01*
X131692696Y-120999493D01*
X131692682Y-120999502D01*
X131692677Y-120999506D01*
X131599506Y-121092677D01*
X131599502Y-121092682D01*
X131599501Y-121092684D01*
X131533607Y-121206810D01*
X131533607Y-121206812D01*
X131509973Y-121295020D01*
X131509972Y-121295023D01*
X131506680Y-121307313D01*
X131499500Y-121334108D01*
X124742766Y-121334108D01*
X124766392Y-121293186D01*
X124800500Y-121165892D01*
X124800500Y-121034108D01*
X124766392Y-120906814D01*
X124766387Y-120906806D01*
X124760423Y-120896476D01*
X124760421Y-120896472D01*
X124748738Y-120876236D01*
X124748738Y-120876237D01*
X124748737Y-120876235D01*
X124700500Y-120792686D01*
X124607314Y-120699500D01*
X124522439Y-120650497D01*
X124493187Y-120633608D01*
X124429539Y-120616554D01*
X124365892Y-120599500D01*
X124365891Y-120599500D01*
X124234108Y-120599500D01*
X124106808Y-120633609D01*
X124106806Y-120633610D01*
X123992696Y-120699493D01*
X123992682Y-120699502D01*
X123992677Y-120699506D01*
X123899506Y-120792677D01*
X123899502Y-120792682D01*
X123899493Y-120792696D01*
X123833610Y-120906806D01*
X123833609Y-120906808D01*
X123833608Y-120906812D01*
X123799500Y-121034108D01*
X110900500Y-121034108D01*
X110900500Y-120934108D01*
X110866392Y-120806814D01*
X110866389Y-120806809D01*
X110864361Y-120803296D01*
X110864355Y-120803286D01*
X110848737Y-120776235D01*
X110800500Y-120692686D01*
X110707314Y-120599500D01*
X110650250Y-120566554D01*
X110593187Y-120533608D01*
X110529539Y-120516554D01*
X110465892Y-120499500D01*
X110465891Y-120499500D01*
X110334108Y-120499500D01*
X110206808Y-120533609D01*
X110206806Y-120533610D01*
X110092696Y-120599493D01*
X110092682Y-120599502D01*
X110092677Y-120599506D01*
X109999506Y-120692677D01*
X109999498Y-120692686D01*
X109999496Y-120692690D01*
X109933607Y-120806812D01*
X109929496Y-120822157D01*
X109928148Y-120827186D01*
X109914258Y-120859623D01*
X109908373Y-120869279D01*
X109895176Y-120881276D01*
X109891781Y-120886847D01*
X109885916Y-120889695D01*
X109856676Y-120916280D01*
X109787774Y-120927870D01*
X109723544Y-120900369D01*
X109723484Y-120900319D01*
X109723011Y-120899928D01*
X109689216Y-120855853D01*
X109688281Y-120853805D01*
X109681306Y-120834399D01*
X109666393Y-120778741D01*
X109666392Y-120778740D01*
X109666392Y-120778739D01*
X109600500Y-120664611D01*
X109507314Y-120571425D01*
X109441813Y-120533608D01*
X109441813Y-120533607D01*
X109441811Y-120533607D01*
X109393187Y-120505533D01*
X109329539Y-120488479D01*
X109265892Y-120471425D01*
X109265891Y-120471425D01*
X109134108Y-120471425D01*
X109006808Y-120505534D01*
X109006806Y-120505535D01*
X108892696Y-120571418D01*
X108892682Y-120571427D01*
X108892677Y-120571431D01*
X108799506Y-120664602D01*
X108799502Y-120664607D01*
X108799493Y-120664621D01*
X108733610Y-120778731D01*
X108733609Y-120778734D01*
X108733608Y-120778736D01*
X108733608Y-120778737D01*
X108707484Y-120876235D01*
X108705990Y-120881812D01*
X108699500Y-120906032D01*
X108292977Y-120906032D01*
X108266392Y-120806814D01*
X108200500Y-120692686D01*
X108107314Y-120599500D01*
X108050250Y-120566554D01*
X107993187Y-120533608D01*
X107929539Y-120516554D01*
X107865892Y-120499500D01*
X107865891Y-120499500D01*
X107734108Y-120499500D01*
X107606808Y-120533609D01*
X107606806Y-120533610D01*
X107492696Y-120599493D01*
X107492682Y-120599502D01*
X107492677Y-120599506D01*
X107399506Y-120692677D01*
X107399502Y-120692682D01*
X107399493Y-120692696D01*
X107333610Y-120806806D01*
X107333609Y-120806809D01*
X107333608Y-120806811D01*
X107333608Y-120806812D01*
X107328149Y-120827186D01*
X107306814Y-120906811D01*
X107300081Y-120931937D01*
X107300081Y-120931939D01*
X107299500Y-120934108D01*
X101818429Y-120934108D01*
X101796705Y-120896481D01*
X101703519Y-120803295D01*
X101673428Y-120785921D01*
X101621906Y-120756175D01*
X101621903Y-120756174D01*
X101612074Y-120750499D01*
X101589392Y-120737403D01*
X101510972Y-120716391D01*
X101506218Y-120715117D01*
X101506212Y-120715115D01*
X101462098Y-120703295D01*
X101462097Y-120703295D01*
X101330313Y-120703295D01*
X101203013Y-120737404D01*
X101203011Y-120737405D01*
X101088906Y-120803286D01*
X101088887Y-120803297D01*
X101088882Y-120803301D01*
X100995711Y-120896472D01*
X100995707Y-120896477D01*
X100933490Y-121004237D01*
X100922656Y-121020041D01*
X100908345Y-121037800D01*
X100850962Y-121077645D01*
X100838043Y-121081946D01*
X100798874Y-121088295D01*
X99474885Y-121088295D01*
X99439946Y-121083271D01*
X99426628Y-121079360D01*
X99367851Y-121041584D01*
X99338829Y-120978030D01*
X99337619Y-120969614D01*
X99340581Y-120919877D01*
X99375500Y-120789561D01*
X99375500Y-120638029D01*
X99336281Y-120491660D01*
X99336276Y-120491652D01*
X99307394Y-120441627D01*
X99260515Y-120360430D01*
X99153365Y-120253280D01*
X99152668Y-120252777D01*
X99150157Y-120251427D01*
X99103685Y-120224597D01*
X99077538Y-120198318D01*
X99062280Y-120187997D01*
X99058506Y-120179191D01*
X99057987Y-120178669D01*
X99052900Y-120169755D01*
X99054155Y-120169038D01*
X99034760Y-120123775D01*
X99046329Y-120054870D01*
X99086015Y-120007972D01*
X99086517Y-120007615D01*
X99137848Y-119986379D01*
X99140070Y-119986005D01*
X99160597Y-119984295D01*
X99918996Y-119984295D01*
X100042609Y-119959706D01*
X100054328Y-119957375D01*
X100181811Y-119904570D01*
X100181816Y-119904566D01*
X100181819Y-119904565D01*
X100249562Y-119859300D01*
X100287335Y-119834060D01*
X100307737Y-119823037D01*
X100324157Y-119816064D01*
X100393551Y-119807978D01*
X100456307Y-119838695D01*
X100492057Y-119896861D01*
X100506747Y-119949490D01*
X100509836Y-119958263D01*
X100518639Y-119991115D01*
X100533608Y-120046981D01*
X100540345Y-120058649D01*
X100540346Y-120058653D01*
X100540347Y-120058653D01*
X100599497Y-120161104D01*
X100599499Y-120161106D01*
X100599500Y-120161108D01*
X100692686Y-120254294D01*
X100788899Y-120309843D01*
X100788900Y-120309844D01*
X100799372Y-120315890D01*
X100803356Y-120318190D01*
X100806814Y-120320186D01*
X100806816Y-120320186D01*
X100806817Y-120320187D01*
X100827691Y-120325780D01*
X100934108Y-120354294D01*
X100934110Y-120354294D01*
X101065890Y-120354294D01*
X101065892Y-120354294D01*
X101193186Y-120320186D01*
X101211101Y-120309843D01*
X127275235Y-120309843D01*
X127275235Y-120441626D01*
X127309343Y-120568922D01*
X127326998Y-120599500D01*
X127375235Y-120683049D01*
X127468421Y-120776235D01*
X127582549Y-120842127D01*
X127709843Y-120876235D01*
X127709845Y-120876235D01*
X127841625Y-120876235D01*
X127841627Y-120876235D01*
X127968921Y-120842127D01*
X128083049Y-120776235D01*
X128176235Y-120683049D01*
X128242127Y-120568921D01*
X128276235Y-120441627D01*
X128276235Y-120309843D01*
X128242545Y-120184108D01*
X154499500Y-120184108D01*
X154499500Y-120315892D01*
X154500623Y-120320083D01*
X154500623Y-120320084D01*
X154509790Y-120354295D01*
X154511433Y-120360426D01*
X154533608Y-120443187D01*
X154566121Y-120499500D01*
X154599500Y-120557314D01*
X154692686Y-120650500D01*
X154806814Y-120716392D01*
X154934108Y-120750500D01*
X154934110Y-120750500D01*
X155065890Y-120750500D01*
X155065892Y-120750500D01*
X155193186Y-120716392D01*
X155307314Y-120650500D01*
X155400500Y-120557314D01*
X155466392Y-120443186D01*
X155500500Y-120315892D01*
X155500500Y-120184108D01*
X155466392Y-120056814D01*
X155400500Y-119942686D01*
X155307314Y-119849500D01*
X155242617Y-119812147D01*
X155193187Y-119783608D01*
X155129539Y-119766554D01*
X155065892Y-119749500D01*
X155065891Y-119749500D01*
X154934108Y-119749500D01*
X154806808Y-119783609D01*
X154806806Y-119783610D01*
X154692696Y-119849493D01*
X154692682Y-119849502D01*
X154692677Y-119849506D01*
X154599506Y-119942677D01*
X154599502Y-119942682D01*
X154599493Y-119942696D01*
X154533607Y-120056810D01*
X154533607Y-120056812D01*
X154525472Y-120087173D01*
X154525471Y-120087180D01*
X154522972Y-120096508D01*
X154499500Y-120184108D01*
X128242545Y-120184108D01*
X128242127Y-120182549D01*
X128242122Y-120182541D01*
X128228109Y-120158270D01*
X128176235Y-120068421D01*
X128083049Y-119975235D01*
X127986836Y-119919686D01*
X127968922Y-119909343D01*
X127905274Y-119892289D01*
X127841627Y-119875235D01*
X127841626Y-119875235D01*
X127709843Y-119875235D01*
X127582543Y-119909344D01*
X127582541Y-119909345D01*
X127468431Y-119975228D01*
X127468417Y-119975237D01*
X127468412Y-119975241D01*
X127375241Y-120068412D01*
X127375237Y-120068417D01*
X127375228Y-120068431D01*
X127309345Y-120182541D01*
X127309344Y-120182543D01*
X127309343Y-120182547D01*
X127275235Y-120309843D01*
X101211101Y-120309843D01*
X101307314Y-120254294D01*
X101400500Y-120161108D01*
X101466392Y-120046980D01*
X101500500Y-119919686D01*
X101500500Y-119787902D01*
X101466392Y-119660608D01*
X101400500Y-119546480D01*
X101307314Y-119453294D01*
X101250250Y-119420348D01*
X101193187Y-119387402D01*
X101115909Y-119366696D01*
X101108681Y-119364759D01*
X101108678Y-119364758D01*
X101065893Y-119353294D01*
X101065892Y-119353294D01*
X100934108Y-119353294D01*
X100934106Y-119353294D01*
X100808624Y-119386915D01*
X100808625Y-119386916D01*
X100806810Y-119387402D01*
X100751934Y-119419084D01*
X100719177Y-119432199D01*
X100705693Y-119435471D01*
X100635902Y-119432150D01*
X100578987Y-119391626D01*
X100577002Y-119389101D01*
X100551057Y-119324227D01*
X100550500Y-119312484D01*
X100550500Y-119214799D01*
X100550499Y-119214797D01*
X100537645Y-119150172D01*
X100534450Y-119134108D01*
X108499500Y-119134108D01*
X108499500Y-119265891D01*
X108533190Y-119391625D01*
X108533608Y-119393186D01*
X108533607Y-119393186D01*
X108533608Y-119393187D01*
X108553706Y-119427997D01*
X108599500Y-119507314D01*
X108692686Y-119600500D01*
X108806814Y-119666392D01*
X108934108Y-119700500D01*
X108934110Y-119700500D01*
X109065890Y-119700500D01*
X109065892Y-119700500D01*
X109193186Y-119666392D01*
X109307314Y-119600500D01*
X109400500Y-119507314D01*
X109466392Y-119393186D01*
X109500500Y-119265892D01*
X109500500Y-119134108D01*
X109475193Y-119039662D01*
X109471004Y-119004623D01*
X109471334Y-118990750D01*
X109492608Y-118924199D01*
X109546468Y-118879720D01*
X109547969Y-118879078D01*
X109605637Y-118869377D01*
X109610635Y-118869734D01*
X109633876Y-118873642D01*
X109734108Y-118900500D01*
X109734111Y-118900500D01*
X109865889Y-118900500D01*
X109865890Y-118900500D01*
X109865892Y-118900500D01*
X109960336Y-118875193D01*
X109995374Y-118871004D01*
X110009247Y-118871334D01*
X110075798Y-118892608D01*
X110120262Y-118946435D01*
X110120903Y-118947930D01*
X110130620Y-119005655D01*
X110130262Y-119010652D01*
X110126354Y-119033883D01*
X110099500Y-119134106D01*
X110099500Y-119134108D01*
X110099500Y-119265891D01*
X110133190Y-119391625D01*
X110133608Y-119393186D01*
X110133607Y-119393186D01*
X110133608Y-119393187D01*
X110153706Y-119427997D01*
X110199500Y-119507314D01*
X110292686Y-119600500D01*
X110406814Y-119666392D01*
X110534108Y-119700500D01*
X110534110Y-119700500D01*
X110665890Y-119700500D01*
X110665892Y-119700500D01*
X110793186Y-119666392D01*
X110907314Y-119600500D01*
X111000500Y-119507314D01*
X111066392Y-119393186D01*
X111100500Y-119265892D01*
X111100500Y-119134108D01*
X111066392Y-119006814D01*
X111066387Y-119006806D01*
X111057119Y-118990752D01*
X111000500Y-118892686D01*
X110907314Y-118799500D01*
X110850250Y-118766554D01*
X110793187Y-118733608D01*
X110729539Y-118716554D01*
X110665892Y-118699500D01*
X110665891Y-118699500D01*
X110534106Y-118699500D01*
X110504944Y-118707314D01*
X110439668Y-118724804D01*
X110404628Y-118728994D01*
X110390753Y-118728664D01*
X110324200Y-118707391D01*
X110279714Y-118653514D01*
X110279066Y-118652001D01*
X110269377Y-118594358D01*
X110269735Y-118589357D01*
X110273642Y-118566126D01*
X110300500Y-118465892D01*
X110300500Y-118334108D01*
X126699500Y-118334108D01*
X126699500Y-118465891D01*
X126733608Y-118593187D01*
X126743440Y-118610216D01*
X126799500Y-118707314D01*
X126892686Y-118800500D01*
X127006814Y-118866392D01*
X127134108Y-118900500D01*
X127134110Y-118900500D01*
X127265890Y-118900500D01*
X127265892Y-118900500D01*
X127393186Y-118866392D01*
X127507314Y-118800500D01*
X127600500Y-118707314D01*
X127666392Y-118593186D01*
X127700500Y-118465892D01*
X127700500Y-118334108D01*
X127666392Y-118206814D01*
X127666387Y-118206806D01*
X127605011Y-118100500D01*
X127600500Y-118092686D01*
X127507314Y-117999500D01*
X127450250Y-117966554D01*
X127393187Y-117933608D01*
X127329539Y-117916554D01*
X127265892Y-117899500D01*
X127265891Y-117899500D01*
X127134108Y-117899500D01*
X127006808Y-117933609D01*
X127006806Y-117933610D01*
X126892696Y-117999493D01*
X126892682Y-117999502D01*
X126892677Y-117999506D01*
X126799506Y-118092677D01*
X126799502Y-118092682D01*
X126799493Y-118092696D01*
X126733610Y-118206806D01*
X126733609Y-118206808D01*
X126733608Y-118206812D01*
X126699500Y-118334108D01*
X110300500Y-118334108D01*
X110266392Y-118206814D01*
X110266387Y-118206806D01*
X110205011Y-118100500D01*
X110200500Y-118092686D01*
X110107314Y-117999500D01*
X110050250Y-117966554D01*
X109993187Y-117933608D01*
X109929539Y-117916554D01*
X109865892Y-117899500D01*
X109865891Y-117899500D01*
X109734108Y-117899500D01*
X109606808Y-117933609D01*
X109606806Y-117933610D01*
X109492696Y-117999493D01*
X109492682Y-117999502D01*
X109492677Y-117999506D01*
X109399506Y-118092677D01*
X109399502Y-118092682D01*
X109399493Y-118092696D01*
X109333610Y-118206806D01*
X109333609Y-118206808D01*
X109299500Y-118334108D01*
X109299500Y-118465893D01*
X109324804Y-118560333D01*
X109328994Y-118595374D01*
X109328664Y-118609246D01*
X109307391Y-118675798D01*
X109253527Y-118720279D01*
X109252033Y-118720919D01*
X109194344Y-118730619D01*
X109193863Y-118730585D01*
X109189347Y-118730262D01*
X109166116Y-118726354D01*
X109065893Y-118699500D01*
X109065892Y-118699500D01*
X108934108Y-118699500D01*
X108806808Y-118733609D01*
X108806806Y-118733610D01*
X108692696Y-118799493D01*
X108692682Y-118799502D01*
X108692677Y-118799506D01*
X108599506Y-118892677D01*
X108599502Y-118892682D01*
X108599493Y-118892696D01*
X108533610Y-119006806D01*
X108533609Y-119006808D01*
X108514142Y-119079462D01*
X108499500Y-119134108D01*
X100534450Y-119134108D01*
X100523581Y-119079470D01*
X100523580Y-119079468D01*
X100523577Y-119079460D01*
X100470781Y-118951996D01*
X100470776Y-118951987D01*
X100470771Y-118951977D01*
X100394114Y-118837253D01*
X100394111Y-118837249D01*
X100394106Y-118837243D01*
X100296550Y-118739687D01*
X100296544Y-118739682D01*
X100296543Y-118739681D01*
X100181823Y-118663027D01*
X100181822Y-118663026D01*
X100181817Y-118663023D01*
X100181804Y-118663016D01*
X100181797Y-118663012D01*
X100054354Y-118610224D01*
X100054340Y-118610219D01*
X100054332Y-118610216D01*
X100054322Y-118610213D01*
X100054319Y-118610212D01*
X100054315Y-118610211D01*
X99918998Y-118583295D01*
X99918995Y-118583295D01*
X99918993Y-118583295D01*
X98681007Y-118583295D01*
X98681005Y-118583295D01*
X98681000Y-118583295D01*
X98545683Y-118610211D01*
X98545677Y-118610213D01*
X98545667Y-118610216D01*
X98545662Y-118610217D01*
X98545644Y-118610224D01*
X98418201Y-118663012D01*
X98418192Y-118663017D01*
X98418175Y-118663027D01*
X98303455Y-118739681D01*
X98303454Y-118739682D01*
X98303448Y-118739687D01*
X98205892Y-118837243D01*
X98205887Y-118837249D01*
X98205886Y-118837250D01*
X98129232Y-118951970D01*
X98129222Y-118951987D01*
X98129217Y-118951996D01*
X98076429Y-119079439D01*
X98076416Y-119079478D01*
X98049500Y-119214795D01*
X98049500Y-119308421D01*
X98044237Y-119326341D01*
X98076416Y-119488110D01*
X98076417Y-119488114D01*
X98076418Y-119488117D01*
X98076421Y-119488127D01*
X98076424Y-119488135D01*
X98076429Y-119488149D01*
X98129217Y-119615592D01*
X98129222Y-119615601D01*
X98129232Y-119615618D01*
X98205886Y-119730338D01*
X98205887Y-119730339D01*
X98205892Y-119730345D01*
X98303448Y-119827901D01*
X98303452Y-119827904D01*
X98303454Y-119827906D01*
X98303458Y-119827909D01*
X98418182Y-119904566D01*
X98418195Y-119904573D01*
X98531013Y-119951303D01*
X98551494Y-119962130D01*
X98567368Y-119972528D01*
X98612660Y-120025727D01*
X98622002Y-120094970D01*
X98592425Y-120158270D01*
X98592421Y-120158274D01*
X98586378Y-120165126D01*
X98555381Y-120190493D01*
X98446632Y-120253281D01*
X98446631Y-120253282D01*
X98446626Y-120253286D01*
X98339491Y-120360421D01*
X98339487Y-120360426D01*
X98339478Y-120360440D01*
X98263721Y-120491652D01*
X98263720Y-120491655D01*
X98263719Y-120491657D01*
X98263719Y-120491658D01*
X98261618Y-120499500D01*
X98243017Y-120568921D01*
X98224500Y-120638027D01*
X98224500Y-120789558D01*
X98224499Y-120789558D01*
X98229123Y-120806815D01*
X98258105Y-120914980D01*
X98262295Y-120950022D01*
X98261965Y-120963896D01*
X98240692Y-121030448D01*
X98186820Y-121074932D01*
X98179003Y-121078280D01*
X98130183Y-121088295D01*
X96715053Y-121088295D01*
X96639266Y-121108601D01*
X96639251Y-121108607D01*
X96625915Y-121112181D01*
X96625914Y-121112182D01*
X96606446Y-121123421D01*
X96606434Y-121123427D01*
X96546000Y-121158318D01*
X96545995Y-121158322D01*
X96545989Y-121158327D01*
X96545982Y-121158333D01*
X95919535Y-121784780D01*
X95919531Y-121784785D01*
X95919527Y-121784791D01*
X95919525Y-121784793D01*
X95898250Y-121821644D01*
X95898250Y-121821646D01*
X95882169Y-121849500D01*
X95873386Y-121864712D01*
X95849500Y-121953856D01*
X93000500Y-121953856D01*
X93000500Y-119352790D01*
X94019499Y-119352790D01*
X94046418Y-119488117D01*
X94046421Y-119488127D01*
X94046929Y-119489354D01*
X94046930Y-119489358D01*
X94099217Y-119615592D01*
X94099222Y-119615601D01*
X94099232Y-119615618D01*
X94175886Y-119730338D01*
X94175887Y-119730339D01*
X94175892Y-119730345D01*
X94273448Y-119827901D01*
X94273452Y-119827904D01*
X94273454Y-119827906D01*
X94273458Y-119827909D01*
X94388182Y-119904566D01*
X94388195Y-119904573D01*
X94480202Y-119942683D01*
X94510060Y-119955050D01*
X94514470Y-119957136D01*
X94651001Y-119984295D01*
X95588995Y-119984295D01*
X95588996Y-119984295D01*
X95712609Y-119959706D01*
X95724328Y-119957375D01*
X95851811Y-119904570D01*
X95966542Y-119827909D01*
X96064114Y-119730337D01*
X96140775Y-119615606D01*
X96193580Y-119488123D01*
X96212464Y-119393187D01*
X96220500Y-119352790D01*
X96220500Y-119214799D01*
X96220500Y-119214797D01*
X96220500Y-119214796D01*
X96193640Y-119079770D01*
X96193639Y-119079765D01*
X96193340Y-119078264D01*
X96191260Y-119073867D01*
X96140778Y-118951990D01*
X96140771Y-118951977D01*
X96064114Y-118837253D01*
X96064111Y-118837249D01*
X96064106Y-118837243D01*
X95966550Y-118739687D01*
X95966544Y-118739682D01*
X95966543Y-118739681D01*
X95851823Y-118663027D01*
X95851822Y-118663026D01*
X95851817Y-118663023D01*
X95851804Y-118663016D01*
X95851797Y-118663012D01*
X95724354Y-118610224D01*
X95724340Y-118610219D01*
X95724332Y-118610216D01*
X95724322Y-118610213D01*
X95724319Y-118610212D01*
X95724315Y-118610211D01*
X95588998Y-118583295D01*
X95588995Y-118583295D01*
X95588993Y-118583295D01*
X94651007Y-118583295D01*
X94651005Y-118583295D01*
X94651000Y-118583295D01*
X94515683Y-118610211D01*
X94515677Y-118610213D01*
X94515667Y-118610216D01*
X94515662Y-118610217D01*
X94515644Y-118610224D01*
X94388201Y-118663012D01*
X94388192Y-118663017D01*
X94388175Y-118663027D01*
X94273455Y-118739681D01*
X94273454Y-118739682D01*
X94273448Y-118739687D01*
X94175892Y-118837243D01*
X94175887Y-118837249D01*
X94175886Y-118837250D01*
X94099232Y-118951970D01*
X94099222Y-118951987D01*
X94099217Y-118951996D01*
X94046429Y-119079439D01*
X94046416Y-119079478D01*
X94019500Y-119214795D01*
X94019500Y-119214797D01*
X94019500Y-119214799D01*
X94019500Y-119214802D01*
X94019500Y-119352788D01*
X94019500Y-119352790D01*
X94019499Y-119352790D01*
X93000500Y-119352790D01*
X93000500Y-117534106D01*
X107499500Y-117534106D01*
X107499500Y-117534108D01*
X107499500Y-117665892D01*
X107516554Y-117729539D01*
X107533608Y-117793187D01*
X107566554Y-117850250D01*
X107599500Y-117907314D01*
X107692686Y-118000500D01*
X107806814Y-118066392D01*
X107934108Y-118100500D01*
X107934110Y-118100500D01*
X108065890Y-118100500D01*
X108065892Y-118100500D01*
X108193186Y-118066392D01*
X108307314Y-118000500D01*
X108400500Y-117907314D01*
X108466392Y-117793186D01*
X108500500Y-117665892D01*
X108500500Y-117534108D01*
X108466392Y-117406814D01*
X108466389Y-117406808D01*
X108455520Y-117387982D01*
X108455519Y-117387980D01*
X108455519Y-117387979D01*
X108451462Y-117380954D01*
X108451458Y-117380946D01*
X108451458Y-117380945D01*
X108451455Y-117380942D01*
X108424416Y-117334109D01*
X108424415Y-117334108D01*
X123299500Y-117334108D01*
X123299500Y-117465891D01*
X123316554Y-117529539D01*
X123333608Y-117593188D01*
X123366554Y-117650250D01*
X123399500Y-117707314D01*
X123492686Y-117800500D01*
X123606814Y-117866392D01*
X123734108Y-117900500D01*
X123734110Y-117900500D01*
X123865890Y-117900500D01*
X123865892Y-117900500D01*
X123993186Y-117866392D01*
X124107314Y-117800500D01*
X124200500Y-117707314D01*
X124266392Y-117593186D01*
X124300500Y-117465892D01*
X124300500Y-117334108D01*
X129099500Y-117334108D01*
X129099500Y-117465891D01*
X129116554Y-117529539D01*
X129133608Y-117593188D01*
X129166554Y-117650250D01*
X129199500Y-117707314D01*
X129292686Y-117800500D01*
X129406814Y-117866392D01*
X129534108Y-117900500D01*
X129534110Y-117900500D01*
X129665890Y-117900500D01*
X129665892Y-117900500D01*
X129793186Y-117866392D01*
X129907314Y-117800500D01*
X130000500Y-117707314D01*
X130066392Y-117593186D01*
X130100500Y-117465892D01*
X130100500Y-117334108D01*
X130066392Y-117206814D01*
X130066387Y-117206806D01*
X130043148Y-117166554D01*
X130000500Y-117092686D01*
X129907314Y-116999500D01*
X129850250Y-116966554D01*
X129793187Y-116933608D01*
X129729539Y-116916554D01*
X129665892Y-116899500D01*
X129665891Y-116899500D01*
X129534108Y-116899500D01*
X129406808Y-116933609D01*
X129406806Y-116933610D01*
X129292696Y-116999493D01*
X129292682Y-116999502D01*
X129292677Y-116999506D01*
X129199506Y-117092677D01*
X129199502Y-117092682D01*
X129199493Y-117092696D01*
X129133610Y-117206806D01*
X129133609Y-117206808D01*
X129133608Y-117206812D01*
X129099500Y-117334108D01*
X124300500Y-117334108D01*
X124266392Y-117206814D01*
X124266387Y-117206806D01*
X124243148Y-117166554D01*
X124200500Y-117092686D01*
X124107314Y-116999500D01*
X124050250Y-116966554D01*
X123993187Y-116933608D01*
X123929539Y-116916554D01*
X123865892Y-116899500D01*
X123865891Y-116899500D01*
X123734108Y-116899500D01*
X123606808Y-116933609D01*
X123606806Y-116933610D01*
X123492696Y-116999493D01*
X123492682Y-116999502D01*
X123492677Y-116999506D01*
X123399506Y-117092677D01*
X123399502Y-117092682D01*
X123399493Y-117092696D01*
X123333610Y-117206806D01*
X123333609Y-117206808D01*
X123333608Y-117206812D01*
X123299500Y-117334108D01*
X108424415Y-117334108D01*
X108400500Y-117292686D01*
X108307314Y-117199500D01*
X108250250Y-117166554D01*
X108193187Y-117133608D01*
X108129539Y-117116554D01*
X108065892Y-117099500D01*
X108065891Y-117099500D01*
X107934108Y-117099500D01*
X107806808Y-117133609D01*
X107806806Y-117133610D01*
X107692696Y-117199493D01*
X107692682Y-117199502D01*
X107692677Y-117199506D01*
X107599506Y-117292677D01*
X107599502Y-117292682D01*
X107599493Y-117292696D01*
X107533610Y-117406806D01*
X107533609Y-117406809D01*
X107533608Y-117406811D01*
X107533608Y-117406812D01*
X107517779Y-117465890D01*
X107517778Y-117465892D01*
X107499500Y-117534106D01*
X93000500Y-117534106D01*
X93000500Y-116134108D01*
X107699500Y-116134108D01*
X107699500Y-116265891D01*
X107733608Y-116393187D01*
X107762476Y-116443186D01*
X107799500Y-116507314D01*
X107892686Y-116600500D01*
X108006814Y-116666392D01*
X108134108Y-116700500D01*
X108134110Y-116700500D01*
X108265890Y-116700500D01*
X108265892Y-116700500D01*
X108393186Y-116666392D01*
X108507314Y-116600500D01*
X108600500Y-116507314D01*
X108666392Y-116393186D01*
X108700500Y-116265892D01*
X108700500Y-116134108D01*
X108666392Y-116006814D01*
X108666387Y-116006806D01*
X108649462Y-115977490D01*
X108600500Y-115892686D01*
X108507314Y-115799500D01*
X108420712Y-115749500D01*
X108420712Y-115749499D01*
X108420710Y-115749499D01*
X108393187Y-115733608D01*
X108316969Y-115713186D01*
X108265892Y-115699500D01*
X108265891Y-115699500D01*
X108134108Y-115699500D01*
X108006808Y-115733609D01*
X108006806Y-115733610D01*
X107892696Y-115799493D01*
X107892682Y-115799502D01*
X107892677Y-115799506D01*
X107799506Y-115892677D01*
X107799502Y-115892682D01*
X107799493Y-115892696D01*
X107733610Y-116006806D01*
X107733609Y-116006808D01*
X107733608Y-116006812D01*
X107699500Y-116134108D01*
X93000500Y-116134108D01*
X93000500Y-115129500D01*
X93020185Y-115062461D01*
X93072989Y-115016706D01*
X93124500Y-115005500D01*
X101507352Y-115005502D01*
X101574389Y-115025187D01*
X101620144Y-115077991D01*
X101630088Y-115147149D01*
X101603253Y-115208107D01*
X101599501Y-115212684D01*
X101599500Y-115212686D01*
X101533610Y-115326806D01*
X101533609Y-115326809D01*
X101533608Y-115326811D01*
X101533608Y-115326812D01*
X101514132Y-115399500D01*
X101499500Y-115454108D01*
X101499500Y-115585892D01*
X101505106Y-115606814D01*
X101532034Y-115707314D01*
X101533609Y-115713189D01*
X101554574Y-115749501D01*
X101554575Y-115749502D01*
X101567100Y-115771195D01*
X101599500Y-115827314D01*
X101692686Y-115920500D01*
X101806814Y-115986392D01*
X101934108Y-116020500D01*
X101934110Y-116020500D01*
X102065890Y-116020500D01*
X102065892Y-116020500D01*
X102193186Y-115986392D01*
X102307314Y-115920500D01*
X102400500Y-115827314D01*
X102466392Y-115713186D01*
X102500500Y-115585892D01*
X102500500Y-115454108D01*
X102468346Y-115334106D01*
X105099500Y-115334106D01*
X105099500Y-115334108D01*
X105099500Y-115465892D01*
X105116554Y-115529539D01*
X105133608Y-115593188D01*
X105137830Y-115600499D01*
X105141475Y-115606812D01*
X105199500Y-115707314D01*
X105292686Y-115800500D01*
X105377560Y-115849502D01*
X105401964Y-115863592D01*
X105405928Y-115865881D01*
X105406810Y-115866390D01*
X105406811Y-115866390D01*
X105406814Y-115866392D01*
X105534108Y-115900500D01*
X105534110Y-115900500D01*
X105665890Y-115900500D01*
X105665892Y-115900500D01*
X105793186Y-115866392D01*
X105907314Y-115800500D01*
X106000500Y-115707314D01*
X106066392Y-115593186D01*
X106100500Y-115465892D01*
X106100500Y-115334108D01*
X106066392Y-115206814D01*
X106066387Y-115206806D01*
X106033877Y-115150497D01*
X106000500Y-115092686D01*
X105907314Y-114999500D01*
X105809781Y-114943189D01*
X105793187Y-114933608D01*
X105729539Y-114916554D01*
X105665892Y-114899500D01*
X105665891Y-114899500D01*
X105534108Y-114899500D01*
X105406808Y-114933609D01*
X105406806Y-114933610D01*
X105292696Y-114999493D01*
X105292682Y-114999502D01*
X105292677Y-114999506D01*
X105199506Y-115092677D01*
X105199502Y-115092682D01*
X105199493Y-115092696D01*
X105133610Y-115206806D01*
X105133609Y-115206809D01*
X105133608Y-115206811D01*
X105133608Y-115206812D01*
X105131041Y-115216392D01*
X105117778Y-115265892D01*
X105099500Y-115334106D01*
X102468346Y-115334106D01*
X102466392Y-115326814D01*
X102400500Y-115212686D01*
X102335632Y-115147818D01*
X102302147Y-115086495D01*
X102307131Y-115016803D01*
X102329960Y-114985367D01*
X102330343Y-114984198D01*
X102332410Y-114981993D01*
X102346154Y-114963068D01*
X102356161Y-114955113D01*
X102361358Y-114952654D01*
X102416279Y-114909463D01*
X102435048Y-114892747D01*
X102435468Y-114892073D01*
X102441317Y-114887424D01*
X102470586Y-114875528D01*
X102499158Y-114862007D01*
X102503317Y-114862226D01*
X102506045Y-114861118D01*
X102515348Y-114862860D01*
X102550570Y-114864718D01*
X102556811Y-114866390D01*
X102556814Y-114866392D01*
X102684108Y-114900500D01*
X102684110Y-114900500D01*
X102815890Y-114900500D01*
X102815892Y-114900500D01*
X102943186Y-114866392D01*
X102943187Y-114866391D01*
X102951037Y-114864288D01*
X102951842Y-114867293D01*
X103006634Y-114861362D01*
X103069137Y-114892590D01*
X103078421Y-114902205D01*
X103089420Y-114914899D01*
X103091042Y-114916554D01*
X103107006Y-114932847D01*
X103107007Y-114932848D01*
X103107009Y-114932849D01*
X103161033Y-114963068D01*
X103186823Y-114977494D01*
X103253862Y-114997179D01*
X103311760Y-115005504D01*
X103311764Y-115005504D01*
X104675666Y-115005504D01*
X104675668Y-115005504D01*
X104682310Y-115004784D01*
X104719640Y-115000744D01*
X104771480Y-114989388D01*
X104781945Y-114986806D01*
X104862532Y-114943562D01*
X104915203Y-114897653D01*
X104933109Y-114880005D01*
X104977522Y-114800057D01*
X104997010Y-114732960D01*
X105005164Y-114675042D01*
X104998943Y-112544084D01*
X105018431Y-112476991D01*
X105071101Y-112431082D01*
X105122578Y-112419727D01*
X109670140Y-112406461D01*
X109737235Y-112425949D01*
X109783144Y-112478620D01*
X109794500Y-112530460D01*
X109794500Y-113235061D01*
X109774815Y-113302100D01*
X109722011Y-113347855D01*
X109652853Y-113357799D01*
X109608501Y-113342449D01*
X109593189Y-113333608D01*
X109529539Y-113316554D01*
X109475595Y-113302100D01*
X109465892Y-113299500D01*
X109465891Y-113299500D01*
X109334108Y-113299500D01*
X109206808Y-113333609D01*
X109206806Y-113333610D01*
X109092696Y-113399493D01*
X109092682Y-113399502D01*
X109092677Y-113399506D01*
X108999506Y-113492677D01*
X108999502Y-113492682D01*
X108999493Y-113492696D01*
X108933610Y-113606806D01*
X108933609Y-113606808D01*
X108899500Y-113734108D01*
X108899500Y-113865890D01*
X108933608Y-113993188D01*
X108937254Y-113999502D01*
X108966554Y-114050250D01*
X108999500Y-114107314D01*
X109092686Y-114200500D01*
X109191503Y-114257552D01*
X109206810Y-114266390D01*
X109206814Y-114266392D01*
X109334108Y-114300500D01*
X109334110Y-114300500D01*
X109465890Y-114300500D01*
X109465892Y-114300500D01*
X109593186Y-114266392D01*
X109608498Y-114257551D01*
X109676396Y-114241077D01*
X109742423Y-114263927D01*
X109785616Y-114318847D01*
X109794500Y-114364937D01*
X109794500Y-115676007D01*
X109799197Y-115719686D01*
X109810397Y-115771174D01*
X109812890Y-115781372D01*
X109812891Y-115781375D01*
X109855899Y-115862083D01*
X109855901Y-115862086D01*
X109901660Y-115914895D01*
X109919242Y-115932839D01*
X109919246Y-115932843D01*
X109919247Y-115932844D01*
X109919249Y-115932845D01*
X109999059Y-115977488D01*
X109999063Y-115977490D01*
X110066102Y-115997175D01*
X110124000Y-116005500D01*
X112070500Y-116005500D01*
X112137539Y-116025185D01*
X112183294Y-116077989D01*
X112194500Y-116129500D01*
X112194500Y-116276007D01*
X112199197Y-116319686D01*
X112210397Y-116371174D01*
X112212890Y-116381372D01*
X112212891Y-116381375D01*
X112255899Y-116462083D01*
X112255901Y-116462086D01*
X112301660Y-116514895D01*
X112319242Y-116532839D01*
X112319246Y-116532843D01*
X112319247Y-116532844D01*
X112319249Y-116532845D01*
X112362997Y-116557316D01*
X112399063Y-116577490D01*
X112466102Y-116597175D01*
X112524000Y-116605500D01*
X114475991Y-116605500D01*
X114476000Y-116605500D01*
X114519684Y-116600803D01*
X114548875Y-116594452D01*
X114571174Y-116589602D01*
X114571190Y-116589598D01*
X114571195Y-116589597D01*
X114581373Y-116587110D01*
X114662085Y-116544100D01*
X114714889Y-116498345D01*
X114732843Y-116480754D01*
X114777490Y-116400937D01*
X114797175Y-116333898D01*
X114805500Y-116276000D01*
X114805500Y-114684108D01*
X123299500Y-114684108D01*
X123299500Y-114815891D01*
X123333132Y-114941412D01*
X123333609Y-114943189D01*
X123333610Y-114943192D01*
X123359469Y-114987980D01*
X123359470Y-114987981D01*
X123399500Y-115057314D01*
X123492686Y-115150500D01*
X123590211Y-115206806D01*
X123600391Y-115212684D01*
X123606814Y-115216392D01*
X123734108Y-115250500D01*
X123734110Y-115250500D01*
X123865890Y-115250500D01*
X123865892Y-115250500D01*
X123993186Y-115216392D01*
X124107314Y-115150500D01*
X124123708Y-115134106D01*
X127099500Y-115134106D01*
X127099500Y-115265891D01*
X127115822Y-115326811D01*
X127115823Y-115326811D01*
X127115823Y-115326812D01*
X127133608Y-115393187D01*
X127166554Y-115450250D01*
X127199500Y-115507314D01*
X127292686Y-115600500D01*
X127391521Y-115657563D01*
X127402615Y-115663968D01*
X127406814Y-115666392D01*
X127534108Y-115700500D01*
X127534110Y-115700500D01*
X127665890Y-115700500D01*
X127665892Y-115700500D01*
X127793186Y-115666392D01*
X127907314Y-115600500D01*
X128000500Y-115507314D01*
X128066392Y-115393186D01*
X128100500Y-115265892D01*
X128100500Y-115134108D01*
X128066392Y-115006814D01*
X128066389Y-115006808D01*
X128055520Y-114987982D01*
X128055519Y-114987980D01*
X128055519Y-114987979D01*
X128051462Y-114980954D01*
X128051458Y-114980946D01*
X128051458Y-114980945D01*
X128051455Y-114980942D01*
X128024414Y-114934106D01*
X132499500Y-114934106D01*
X132499500Y-115065891D01*
X132513863Y-115119499D01*
X132513864Y-115119499D01*
X132513864Y-115119500D01*
X132533608Y-115193187D01*
X132544866Y-115212686D01*
X132599500Y-115307314D01*
X132692686Y-115400500D01*
X132785538Y-115454108D01*
X132805944Y-115465890D01*
X132806814Y-115466392D01*
X132934108Y-115500500D01*
X132934110Y-115500500D01*
X133065890Y-115500500D01*
X133065892Y-115500500D01*
X133193186Y-115466392D01*
X133307314Y-115400500D01*
X133373708Y-115334106D01*
X137899500Y-115334106D01*
X137899500Y-115334108D01*
X137899500Y-115465892D01*
X137916554Y-115529539D01*
X137933608Y-115593188D01*
X137937830Y-115600499D01*
X137941475Y-115606812D01*
X137999500Y-115707314D01*
X138092686Y-115800500D01*
X138177560Y-115849502D01*
X138201964Y-115863592D01*
X138205928Y-115865881D01*
X138206810Y-115866390D01*
X138206811Y-115866390D01*
X138206814Y-115866392D01*
X138334108Y-115900500D01*
X138334110Y-115900500D01*
X138465890Y-115900500D01*
X138465892Y-115900500D01*
X138593186Y-115866392D01*
X138707314Y-115800500D01*
X138773708Y-115734106D01*
X139899500Y-115734106D01*
X139899500Y-115865893D01*
X139908773Y-115900500D01*
X139920076Y-115942683D01*
X139933608Y-115993187D01*
X139966554Y-116050250D01*
X139999500Y-116107314D01*
X140092686Y-116200500D01*
X140191521Y-116257563D01*
X140205944Y-116265890D01*
X140206814Y-116266392D01*
X140334108Y-116300500D01*
X140334110Y-116300500D01*
X140465890Y-116300500D01*
X140465892Y-116300500D01*
X140593186Y-116266392D01*
X140707314Y-116200500D01*
X140723706Y-116184108D01*
X149249500Y-116184108D01*
X149249500Y-116315891D01*
X149272289Y-116400940D01*
X149283608Y-116443186D01*
X149283607Y-116443186D01*
X149305295Y-116480750D01*
X149316554Y-116500250D01*
X149349500Y-116557314D01*
X149442686Y-116650500D01*
X149556814Y-116716392D01*
X149684108Y-116750500D01*
X149684110Y-116750500D01*
X149815890Y-116750500D01*
X149815892Y-116750500D01*
X149943186Y-116716392D01*
X150057314Y-116650500D01*
X150150500Y-116557314D01*
X150216392Y-116443186D01*
X150250500Y-116315892D01*
X150250500Y-116184108D01*
X150216392Y-116056814D01*
X150216387Y-116056806D01*
X150187521Y-116006808D01*
X150150500Y-115942686D01*
X150057314Y-115849500D01*
X149972439Y-115800497D01*
X149943187Y-115783608D01*
X149879539Y-115766554D01*
X149815892Y-115749500D01*
X149815891Y-115749500D01*
X149684108Y-115749500D01*
X149556808Y-115783609D01*
X149556806Y-115783610D01*
X149442696Y-115849493D01*
X149442682Y-115849502D01*
X149442677Y-115849506D01*
X149349506Y-115942677D01*
X149349502Y-115942682D01*
X149349493Y-115942696D01*
X149283610Y-116056806D01*
X149283609Y-116056808D01*
X149283608Y-116056812D01*
X149249500Y-116184108D01*
X140723706Y-116184108D01*
X140800500Y-116107314D01*
X140866392Y-115993186D01*
X140900500Y-115865892D01*
X140900500Y-115734108D01*
X140866392Y-115606814D01*
X140866387Y-115606806D01*
X140821777Y-115529539D01*
X140800500Y-115492686D01*
X140707314Y-115399500D01*
X140650250Y-115366554D01*
X140593187Y-115333608D01*
X140529539Y-115316554D01*
X140465892Y-115299500D01*
X140465891Y-115299500D01*
X140334108Y-115299500D01*
X140206808Y-115333609D01*
X140206806Y-115333610D01*
X140092696Y-115399493D01*
X140092682Y-115399502D01*
X140092677Y-115399506D01*
X139999506Y-115492677D01*
X139999502Y-115492682D01*
X139999493Y-115492696D01*
X139933610Y-115606806D01*
X139933609Y-115606809D01*
X139933608Y-115606811D01*
X139933608Y-115606812D01*
X139918293Y-115663970D01*
X139917644Y-115666392D01*
X139899500Y-115734106D01*
X138773708Y-115734106D01*
X138800500Y-115707314D01*
X138813023Y-115685622D01*
X138825520Y-115663980D01*
X138864404Y-115596628D01*
X138865988Y-115594077D01*
X138866390Y-115593189D01*
X138866392Y-115593186D01*
X138900500Y-115465892D01*
X138900500Y-115334108D01*
X138866392Y-115206814D01*
X138866387Y-115206806D01*
X138833877Y-115150497D01*
X138800500Y-115092686D01*
X138707314Y-114999500D01*
X138609781Y-114943189D01*
X138594050Y-114934106D01*
X143499500Y-114934106D01*
X143499500Y-115065891D01*
X143513863Y-115119499D01*
X143513864Y-115119499D01*
X143513864Y-115119500D01*
X143533608Y-115193187D01*
X143544866Y-115212686D01*
X143599500Y-115307314D01*
X143692686Y-115400500D01*
X143785538Y-115454108D01*
X143805944Y-115465890D01*
X143806814Y-115466392D01*
X143934108Y-115500500D01*
X143934110Y-115500500D01*
X144065890Y-115500500D01*
X144065892Y-115500500D01*
X144193186Y-115466392D01*
X144307314Y-115400500D01*
X144400500Y-115307314D01*
X144466392Y-115193186D01*
X144500500Y-115065892D01*
X144500500Y-114934108D01*
X144500499Y-114934106D01*
X152749500Y-114934106D01*
X152749500Y-115065891D01*
X152763863Y-115119499D01*
X152763864Y-115119499D01*
X152763864Y-115119500D01*
X152783608Y-115193187D01*
X152794866Y-115212686D01*
X152849500Y-115307314D01*
X152942686Y-115400500D01*
X153035538Y-115454108D01*
X153055944Y-115465890D01*
X153056814Y-115466392D01*
X153184108Y-115500500D01*
X153184110Y-115500500D01*
X153315890Y-115500500D01*
X153315892Y-115500500D01*
X153443186Y-115466392D01*
X153557314Y-115400500D01*
X153650500Y-115307314D01*
X153716392Y-115193186D01*
X153750500Y-115065892D01*
X153750500Y-114934108D01*
X153716392Y-114806814D01*
X153716387Y-114806806D01*
X153693148Y-114766554D01*
X153650500Y-114692686D01*
X153557314Y-114599500D01*
X153483380Y-114556814D01*
X153443187Y-114533608D01*
X153379539Y-114516554D01*
X153315892Y-114499500D01*
X153315891Y-114499500D01*
X153184108Y-114499500D01*
X153056808Y-114533609D01*
X153056806Y-114533610D01*
X152942696Y-114599493D01*
X152942682Y-114599502D01*
X152942677Y-114599506D01*
X152849506Y-114692677D01*
X152849502Y-114692682D01*
X152849493Y-114692696D01*
X152783610Y-114806806D01*
X152783609Y-114806809D01*
X152783608Y-114806811D01*
X152783608Y-114806812D01*
X152781175Y-114815892D01*
X152767644Y-114866392D01*
X152749500Y-114934106D01*
X144500499Y-114934106D01*
X144466392Y-114806814D01*
X144466387Y-114806806D01*
X144443148Y-114766554D01*
X144400500Y-114692686D01*
X144307314Y-114599500D01*
X144233380Y-114556814D01*
X144193187Y-114533608D01*
X144129539Y-114516554D01*
X144065892Y-114499500D01*
X144065891Y-114499500D01*
X143934108Y-114499500D01*
X143806808Y-114533609D01*
X143806806Y-114533610D01*
X143692696Y-114599493D01*
X143692682Y-114599502D01*
X143692677Y-114599506D01*
X143599506Y-114692677D01*
X143599502Y-114692682D01*
X143599493Y-114692696D01*
X143533610Y-114806806D01*
X143533609Y-114806809D01*
X143533608Y-114806811D01*
X143533608Y-114806812D01*
X143531175Y-114815892D01*
X143517644Y-114866392D01*
X143499500Y-114934106D01*
X138594050Y-114934106D01*
X138593187Y-114933608D01*
X138529539Y-114916554D01*
X138465892Y-114899500D01*
X138465891Y-114899500D01*
X138334108Y-114899500D01*
X138206808Y-114933609D01*
X138206806Y-114933610D01*
X138092696Y-114999493D01*
X138092682Y-114999502D01*
X138092677Y-114999506D01*
X137999506Y-115092677D01*
X137999502Y-115092682D01*
X137999493Y-115092696D01*
X137933610Y-115206806D01*
X137933609Y-115206809D01*
X137933608Y-115206811D01*
X137933608Y-115206812D01*
X137931041Y-115216392D01*
X137917778Y-115265892D01*
X137899500Y-115334106D01*
X133373708Y-115334106D01*
X133400500Y-115307314D01*
X133413023Y-115285622D01*
X133425520Y-115263980D01*
X133464404Y-115196628D01*
X133465988Y-115194077D01*
X133466390Y-115193189D01*
X133466392Y-115193186D01*
X133500500Y-115065892D01*
X133500500Y-114934108D01*
X133466392Y-114806814D01*
X133466387Y-114806806D01*
X133443148Y-114766554D01*
X133400500Y-114692686D01*
X133307314Y-114599500D01*
X133233380Y-114556814D01*
X133193187Y-114533608D01*
X133129539Y-114516554D01*
X133065892Y-114499500D01*
X133065891Y-114499500D01*
X132934108Y-114499500D01*
X132806808Y-114533609D01*
X132806806Y-114533610D01*
X132692696Y-114599493D01*
X132692682Y-114599502D01*
X132692677Y-114599506D01*
X132599506Y-114692677D01*
X132599502Y-114692682D01*
X132599493Y-114692696D01*
X132533610Y-114806806D01*
X132533609Y-114806809D01*
X132533608Y-114806811D01*
X132533608Y-114806812D01*
X132531175Y-114815892D01*
X132517644Y-114866392D01*
X132499500Y-114934106D01*
X128024414Y-114934106D01*
X128005011Y-114900499D01*
X128005009Y-114900496D01*
X128000535Y-114892747D01*
X128000500Y-114892686D01*
X127907314Y-114799500D01*
X127850250Y-114766554D01*
X127793187Y-114733608D01*
X127729539Y-114716554D01*
X127665892Y-114699500D01*
X127665891Y-114699500D01*
X127534108Y-114699500D01*
X127406808Y-114733609D01*
X127406806Y-114733610D01*
X127292696Y-114799493D01*
X127292682Y-114799502D01*
X127292677Y-114799506D01*
X127199506Y-114892677D01*
X127199502Y-114892682D01*
X127199493Y-114892696D01*
X127133610Y-115006806D01*
X127133609Y-115006809D01*
X127133608Y-115006811D01*
X127133608Y-115006812D01*
X127129362Y-115022660D01*
X127117778Y-115065892D01*
X127099500Y-115134106D01*
X124123708Y-115134106D01*
X124200500Y-115057314D01*
X124266175Y-114943562D01*
X124266391Y-114943188D01*
X124266867Y-114941412D01*
X124300500Y-114815892D01*
X124300500Y-114684108D01*
X124266392Y-114556814D01*
X124266387Y-114556806D01*
X124252995Y-114533610D01*
X124200500Y-114442686D01*
X124107314Y-114349500D01*
X124080654Y-114334108D01*
X155499500Y-114334108D01*
X155499500Y-114465891D01*
X155523862Y-114556814D01*
X155533609Y-114593189D01*
X155545612Y-114613979D01*
X155545614Y-114613981D01*
X155599500Y-114707314D01*
X155692686Y-114800500D01*
X155789156Y-114856197D01*
X155803914Y-114864718D01*
X155806814Y-114866392D01*
X155934108Y-114900500D01*
X155934110Y-114900500D01*
X156065890Y-114900500D01*
X156065892Y-114900500D01*
X156193186Y-114866392D01*
X156307314Y-114800500D01*
X156400500Y-114707314D01*
X156466392Y-114593186D01*
X156500500Y-114465892D01*
X156500500Y-114334108D01*
X156466392Y-114206814D01*
X156466387Y-114206806D01*
X156457563Y-114191521D01*
X156400500Y-114092686D01*
X156307314Y-113999500D01*
X156250250Y-113966554D01*
X156193187Y-113933608D01*
X156129539Y-113916554D01*
X156065892Y-113899500D01*
X156065891Y-113899500D01*
X155934108Y-113899500D01*
X155806808Y-113933609D01*
X155806806Y-113933610D01*
X155692696Y-113999493D01*
X155692682Y-113999502D01*
X155692677Y-113999506D01*
X155599506Y-114092677D01*
X155599502Y-114092682D01*
X155599493Y-114092696D01*
X155533610Y-114206806D01*
X155533609Y-114206808D01*
X155517644Y-114266391D01*
X155499500Y-114334108D01*
X124080654Y-114334108D01*
X124022442Y-114300499D01*
X123993187Y-114283608D01*
X123928931Y-114266391D01*
X123928930Y-114266390D01*
X123882782Y-114254025D01*
X123865892Y-114249500D01*
X123865891Y-114249500D01*
X123734108Y-114249500D01*
X123606808Y-114283609D01*
X123606806Y-114283610D01*
X123492696Y-114349493D01*
X123492682Y-114349502D01*
X123492677Y-114349506D01*
X123399506Y-114442677D01*
X123399502Y-114442682D01*
X123399493Y-114442696D01*
X123333610Y-114556806D01*
X123333609Y-114556808D01*
X123318290Y-114613981D01*
X123299500Y-114684108D01*
X114805500Y-114684108D01*
X114805500Y-113729500D01*
X114825185Y-113662461D01*
X114877989Y-113616706D01*
X114929500Y-113605500D01*
X124675991Y-113605500D01*
X124676000Y-113605500D01*
X124719684Y-113600803D01*
X124748875Y-113594452D01*
X124771174Y-113589602D01*
X124771190Y-113589598D01*
X124771195Y-113589597D01*
X124781373Y-113587110D01*
X124862085Y-113544100D01*
X124914889Y-113498345D01*
X124932843Y-113480754D01*
X124977490Y-113400937D01*
X124997175Y-113333898D01*
X125005500Y-113276000D01*
X125005500Y-111934108D01*
X126499500Y-111934108D01*
X126499500Y-112065892D01*
X126500568Y-112069878D01*
X126500568Y-112069880D01*
X126508504Y-112099499D01*
X126508505Y-112099499D01*
X126508505Y-112099500D01*
X126533608Y-112193187D01*
X126566554Y-112250250D01*
X126599500Y-112307314D01*
X126692686Y-112400500D01*
X126745656Y-112431082D01*
X126787000Y-112454952D01*
X126787003Y-112454955D01*
X126787004Y-112454955D01*
X126806786Y-112466377D01*
X126806806Y-112466388D01*
X126806810Y-112466390D01*
X126806814Y-112466392D01*
X126934108Y-112500500D01*
X126934110Y-112500500D01*
X127065890Y-112500500D01*
X127065892Y-112500500D01*
X127193186Y-112466392D01*
X127307314Y-112400500D01*
X127400500Y-112307314D01*
X127466392Y-112193186D01*
X127500500Y-112065892D01*
X127500500Y-111934108D01*
X153499500Y-111934108D01*
X153499500Y-112065892D01*
X153500568Y-112069878D01*
X153500568Y-112069880D01*
X153508504Y-112099499D01*
X153508505Y-112099499D01*
X153508505Y-112099500D01*
X153533608Y-112193187D01*
X153566554Y-112250250D01*
X153599500Y-112307314D01*
X153692686Y-112400500D01*
X153745656Y-112431082D01*
X153787000Y-112454952D01*
X153787003Y-112454955D01*
X153787004Y-112454955D01*
X153806786Y-112466377D01*
X153806806Y-112466388D01*
X153806810Y-112466390D01*
X153806814Y-112466392D01*
X153934108Y-112500500D01*
X153934110Y-112500500D01*
X154065890Y-112500500D01*
X154065892Y-112500500D01*
X154193186Y-112466392D01*
X154307314Y-112400500D01*
X154400500Y-112307314D01*
X154466392Y-112193186D01*
X154500500Y-112065892D01*
X154500500Y-111934108D01*
X154466392Y-111806814D01*
X154400500Y-111692686D01*
X154307314Y-111599500D01*
X154250250Y-111566554D01*
X154193187Y-111533608D01*
X154129539Y-111516554D01*
X154065892Y-111499500D01*
X154065891Y-111499500D01*
X153934108Y-111499500D01*
X153806808Y-111533609D01*
X153806806Y-111533610D01*
X153692696Y-111599493D01*
X153692682Y-111599502D01*
X153692677Y-111599506D01*
X153599506Y-111692677D01*
X153599502Y-111692682D01*
X153599493Y-111692696D01*
X153533607Y-111806810D01*
X153523649Y-111843979D01*
X153523648Y-111843982D01*
X153521076Y-111853584D01*
X153499500Y-111934108D01*
X127500500Y-111934108D01*
X127466392Y-111806814D01*
X127400500Y-111692686D01*
X127307314Y-111599500D01*
X127250250Y-111566554D01*
X127193187Y-111533608D01*
X127129539Y-111516554D01*
X127065892Y-111499500D01*
X127065891Y-111499500D01*
X126934108Y-111499500D01*
X126806808Y-111533609D01*
X126806806Y-111533610D01*
X126692696Y-111599493D01*
X126692682Y-111599502D01*
X126692677Y-111599506D01*
X126599506Y-111692677D01*
X126599502Y-111692682D01*
X126599493Y-111692696D01*
X126533607Y-111806810D01*
X126523649Y-111843979D01*
X126523648Y-111843982D01*
X126521076Y-111853584D01*
X126499500Y-111934108D01*
X125005500Y-111934108D01*
X125005500Y-110703471D01*
X137609499Y-110703471D01*
X137649864Y-110906394D01*
X137649868Y-110906412D01*
X137649870Y-110906420D01*
X137729058Y-111097596D01*
X137844023Y-111269655D01*
X137844027Y-111269661D01*
X137990336Y-111415970D01*
X137990340Y-111415973D01*
X137990342Y-111415975D01*
X137990345Y-111415977D01*
X137990349Y-111415980D01*
X137990348Y-111415980D01*
X137990411Y-111416032D01*
X137990448Y-111416046D01*
X138162402Y-111530941D01*
X138353580Y-111610130D01*
X138544540Y-111648114D01*
X138553559Y-111649908D01*
X138555794Y-111650409D01*
X138556532Y-111650500D01*
X138763466Y-111650500D01*
X138767586Y-111650500D01*
X138775435Y-111648118D01*
X138966420Y-111610130D01*
X139157598Y-111530941D01*
X139329655Y-111415977D01*
X139475977Y-111269655D01*
X139590941Y-111097598D01*
X139670130Y-110906420D01*
X139710499Y-110703471D01*
X140149499Y-110703471D01*
X140189864Y-110906394D01*
X140189868Y-110906412D01*
X140189870Y-110906420D01*
X140269058Y-111097596D01*
X140384023Y-111269655D01*
X140384027Y-111269661D01*
X140530336Y-111415970D01*
X140530340Y-111415973D01*
X140530342Y-111415975D01*
X140530345Y-111415977D01*
X140530349Y-111415980D01*
X140530348Y-111415980D01*
X140530411Y-111416032D01*
X140530448Y-111416046D01*
X140702402Y-111530941D01*
X140893580Y-111610130D01*
X141084540Y-111648114D01*
X141093559Y-111649908D01*
X141095794Y-111650409D01*
X141096532Y-111650500D01*
X141303466Y-111650500D01*
X141307586Y-111650500D01*
X141315435Y-111648118D01*
X141506420Y-111610130D01*
X141697598Y-111530941D01*
X141869655Y-111415977D01*
X142015977Y-111269655D01*
X142130941Y-111097598D01*
X142210130Y-110906420D01*
X142250499Y-110703471D01*
X142689499Y-110703471D01*
X142729864Y-110906394D01*
X142729868Y-110906412D01*
X142729870Y-110906420D01*
X142809058Y-111097596D01*
X142924023Y-111269655D01*
X142924027Y-111269661D01*
X143070336Y-111415970D01*
X143070340Y-111415973D01*
X143070342Y-111415975D01*
X143070345Y-111415977D01*
X143070349Y-111415980D01*
X143070348Y-111415980D01*
X143070411Y-111416032D01*
X143070448Y-111416046D01*
X143242402Y-111530941D01*
X143433580Y-111610130D01*
X143624540Y-111648114D01*
X143633559Y-111649908D01*
X143635794Y-111650409D01*
X143636532Y-111650500D01*
X143843466Y-111650500D01*
X143847586Y-111650500D01*
X143855435Y-111648118D01*
X144046420Y-111610130D01*
X144237598Y-111530941D01*
X144409655Y-111415977D01*
X144555977Y-111269655D01*
X144670941Y-111097598D01*
X144750130Y-110906420D01*
X144790500Y-110703465D01*
X144790500Y-110496535D01*
X144750130Y-110293580D01*
X144670941Y-110102402D01*
X144556046Y-109930449D01*
X144556036Y-109930417D01*
X144555980Y-109930348D01*
X144555980Y-109930349D01*
X144555977Y-109930345D01*
X144555975Y-109930342D01*
X144555973Y-109930340D01*
X144555970Y-109930336D01*
X144409659Y-109784025D01*
X144296898Y-109708681D01*
X144296884Y-109708672D01*
X144294851Y-109707314D01*
X144237598Y-109669059D01*
X144229952Y-109665892D01*
X144220948Y-109662162D01*
X144220946Y-109662161D01*
X144120218Y-109620438D01*
X144046420Y-109589870D01*
X144046412Y-109589868D01*
X144046404Y-109589866D01*
X144046394Y-109589864D01*
X143843471Y-109549500D01*
X143843469Y-109549500D01*
X143843465Y-109549500D01*
X143636535Y-109549500D01*
X143636530Y-109549500D01*
X143636528Y-109549500D01*
X143433604Y-109589864D01*
X143433579Y-109589870D01*
X143242404Y-109669057D01*
X143070337Y-109784027D01*
X142924027Y-109930337D01*
X142809057Y-110102404D01*
X142729870Y-110293579D01*
X142729864Y-110293604D01*
X142689500Y-110496527D01*
X142689500Y-110496528D01*
X142689500Y-110496530D01*
X142689500Y-110703469D01*
X142689500Y-110703471D01*
X142689499Y-110703471D01*
X142250499Y-110703471D01*
X142250500Y-110703465D01*
X142250500Y-110496535D01*
X142250498Y-110496527D01*
X142230315Y-110395057D01*
X142210130Y-110293580D01*
X142130941Y-110102402D01*
X142016046Y-109930449D01*
X142016036Y-109930417D01*
X142015980Y-109930348D01*
X142015980Y-109930349D01*
X142015977Y-109930345D01*
X142015975Y-109930342D01*
X142015973Y-109930340D01*
X142015970Y-109930336D01*
X141869659Y-109784025D01*
X141756898Y-109708681D01*
X141756884Y-109708672D01*
X141754851Y-109707314D01*
X141697598Y-109669059D01*
X141689952Y-109665892D01*
X141680948Y-109662162D01*
X141680946Y-109662161D01*
X141580218Y-109620438D01*
X141506420Y-109589870D01*
X141506412Y-109589868D01*
X141506404Y-109589866D01*
X141506394Y-109589864D01*
X141303471Y-109549500D01*
X141303469Y-109549500D01*
X141303465Y-109549500D01*
X141096535Y-109549500D01*
X141096530Y-109549500D01*
X141096528Y-109549500D01*
X140893604Y-109589864D01*
X140893579Y-109589870D01*
X140702404Y-109669057D01*
X140530337Y-109784027D01*
X140384027Y-109930337D01*
X140269057Y-110102404D01*
X140189870Y-110293579D01*
X140189864Y-110293604D01*
X140149500Y-110496527D01*
X140149500Y-110496528D01*
X140149500Y-110496530D01*
X140149500Y-110703469D01*
X140149500Y-110703471D01*
X140149499Y-110703471D01*
X139710499Y-110703471D01*
X139710500Y-110703465D01*
X139710500Y-110496535D01*
X139710498Y-110496527D01*
X139690315Y-110395057D01*
X139670130Y-110293580D01*
X139590941Y-110102402D01*
X139476046Y-109930449D01*
X139476036Y-109930417D01*
X139475980Y-109930348D01*
X139475980Y-109930349D01*
X139475977Y-109930345D01*
X139475975Y-109930342D01*
X139475973Y-109930340D01*
X139475970Y-109930336D01*
X139329659Y-109784025D01*
X139216898Y-109708681D01*
X139216884Y-109708672D01*
X139214851Y-109707314D01*
X139157598Y-109669059D01*
X139149952Y-109665892D01*
X139140948Y-109662162D01*
X139140946Y-109662161D01*
X139040218Y-109620438D01*
X138966420Y-109589870D01*
X138966412Y-109589868D01*
X138966404Y-109589866D01*
X138966394Y-109589864D01*
X138763471Y-109549500D01*
X138763469Y-109549500D01*
X138763465Y-109549500D01*
X138556535Y-109549500D01*
X138556530Y-109549500D01*
X138556528Y-109549500D01*
X138353604Y-109589864D01*
X138353579Y-109589870D01*
X138162404Y-109669057D01*
X137990337Y-109784027D01*
X137844027Y-109930337D01*
X137729057Y-110102404D01*
X137649870Y-110293579D01*
X137649864Y-110293604D01*
X137609500Y-110496527D01*
X137609500Y-110496528D01*
X137609500Y-110496530D01*
X137609500Y-110703469D01*
X137609500Y-110703471D01*
X137609499Y-110703471D01*
X125005500Y-110703471D01*
X125005500Y-108529500D01*
X125025185Y-108462461D01*
X125077989Y-108416706D01*
X125129500Y-108405500D01*
X155270500Y-108405500D01*
X155337539Y-108425185D01*
G37*
%TD.AperFunction*%
%TD*%
%TA.AperFunction,NonConductor*%
G36*
X100637253Y-126124318D02*
G01*
X100652251Y-126128722D01*
X100711027Y-126166495D01*
X100724758Y-126182341D01*
X100738426Y-126201532D01*
X100740739Y-126205538D01*
X100799497Y-126307310D01*
X100799499Y-126307312D01*
X100799499Y-126307313D01*
X100799502Y-126307316D01*
X100892686Y-126400500D01*
X100893375Y-126400996D01*
X100895879Y-126402344D01*
X100994357Y-126459200D01*
X101022093Y-126481012D01*
X101029898Y-126489197D01*
X101061916Y-126551298D01*
X101055277Y-126620852D01*
X101012089Y-126675775D01*
X101012022Y-126675822D01*
X101011520Y-126676179D01*
X100960247Y-126697405D01*
X100958032Y-126697778D01*
X100937441Y-126699500D01*
X100934108Y-126699500D01*
X100806808Y-126733609D01*
X100806806Y-126733610D01*
X100692696Y-126799493D01*
X100692682Y-126799502D01*
X100692677Y-126799506D01*
X100599506Y-126892677D01*
X100599502Y-126892682D01*
X100599493Y-126892696D01*
X100533610Y-127006806D01*
X100533609Y-127006808D01*
X100499500Y-127134108D01*
X100499500Y-127262198D01*
X100498018Y-127281309D01*
X100495431Y-127297894D01*
X100465650Y-127361099D01*
X100406425Y-127398169D01*
X100336567Y-127397337D01*
X100328840Y-127394968D01*
X100296298Y-127379517D01*
X100181823Y-127303027D01*
X100181822Y-127303026D01*
X100181817Y-127303023D01*
X100181804Y-127303016D01*
X100181797Y-127303012D01*
X100054354Y-127250224D01*
X100054340Y-127250219D01*
X100054332Y-127250216D01*
X100054322Y-127250213D01*
X100054319Y-127250212D01*
X100054315Y-127250211D01*
X99918998Y-127223295D01*
X99918995Y-127223295D01*
X99918993Y-127223295D01*
X99168074Y-127223295D01*
X99132275Y-127213600D01*
X99113857Y-127212279D01*
X99106190Y-127206537D01*
X99105503Y-127206351D01*
X99096642Y-127201172D01*
X99097368Y-127199929D01*
X99057934Y-127170394D01*
X99033534Y-127104923D01*
X99044431Y-127044586D01*
X99044688Y-127044024D01*
X99078517Y-126999938D01*
X99080263Y-126998497D01*
X99097211Y-126986730D01*
X99107237Y-126980942D01*
X99114739Y-126976611D01*
X99139885Y-126962092D01*
X99153365Y-126954310D01*
X99260515Y-126847160D01*
X99336281Y-126715930D01*
X99375500Y-126569561D01*
X99375500Y-126418029D01*
X99341893Y-126292607D01*
X99337704Y-126257567D01*
X99338034Y-126243690D01*
X99359307Y-126177141D01*
X99413184Y-126132655D01*
X99413184Y-126132654D01*
X99417168Y-126130948D01*
X99421015Y-126129302D01*
X99469817Y-126119295D01*
X100602317Y-126119295D01*
X100637253Y-126124318D01*
G37*
%TD.AperFunction*%
%TA.AperFunction,Conductor*%
%TO.N,+5V*%
G36*
X159002855Y-88250632D02*
G01*
X159363311Y-88267296D01*
X159374700Y-88268352D01*
X159729238Y-88317808D01*
X159740482Y-88319910D01*
X160088944Y-88401867D01*
X160099934Y-88404994D01*
X160439368Y-88518761D01*
X160450022Y-88522889D01*
X160777496Y-88667482D01*
X160787723Y-88672574D01*
X161030656Y-88807887D01*
X161100453Y-88846764D01*
X161110191Y-88852793D01*
X161405513Y-89055093D01*
X161414650Y-89061994D01*
X161547461Y-89172278D01*
X161690035Y-89290670D01*
X161698499Y-89298386D01*
X161951613Y-89551500D01*
X161959329Y-89559964D01*
X162188003Y-89835346D01*
X162194906Y-89844486D01*
X162397206Y-90139808D01*
X162403235Y-90149546D01*
X162577418Y-90462263D01*
X162582523Y-90472516D01*
X162727105Y-90799964D01*
X162731243Y-90810644D01*
X162845001Y-91150052D01*
X162848135Y-91161068D01*
X162930087Y-91509509D01*
X162932192Y-91520768D01*
X162981646Y-91875291D01*
X162982703Y-91886695D01*
X162999368Y-92247144D01*
X162999500Y-92252871D01*
X162999500Y-113476000D01*
X162979815Y-113543039D01*
X162927011Y-113588794D01*
X162875500Y-113600000D01*
X158524000Y-113600000D01*
X158456961Y-113580315D01*
X158411206Y-113527511D01*
X158400000Y-113476000D01*
X158400000Y-113200000D01*
X155724000Y-113200000D01*
X155656961Y-113180315D01*
X155611206Y-113127511D01*
X155600000Y-113076000D01*
X155600000Y-111934108D01*
X157249500Y-111934108D01*
X157249500Y-112065891D01*
X157283608Y-112193187D01*
X157287253Y-112199500D01*
X157349500Y-112307314D01*
X157442686Y-112400500D01*
X157556814Y-112466392D01*
X157684108Y-112500500D01*
X157684110Y-112500500D01*
X157815890Y-112500500D01*
X157815892Y-112500500D01*
X157943186Y-112466392D01*
X158057314Y-112400500D01*
X158150500Y-112307314D01*
X158216392Y-112193186D01*
X158250500Y-112065892D01*
X158250500Y-111934108D01*
X158216392Y-111806814D01*
X158150500Y-111692686D01*
X158057314Y-111599500D01*
X158000250Y-111566554D01*
X157943187Y-111533608D01*
X157879539Y-111516554D01*
X157815892Y-111499500D01*
X157684108Y-111499500D01*
X157556812Y-111533608D01*
X157442686Y-111599500D01*
X157442683Y-111599502D01*
X157349502Y-111692683D01*
X157349500Y-111692686D01*
X157283608Y-111806812D01*
X157249500Y-111934108D01*
X155600000Y-111934108D01*
X155600000Y-109934108D01*
X157299500Y-109934108D01*
X157299500Y-110065892D01*
X157308773Y-110100499D01*
X157333608Y-110193187D01*
X157341475Y-110206812D01*
X157399500Y-110307314D01*
X157492686Y-110400500D01*
X157591521Y-110457563D01*
X157605944Y-110465890D01*
X157606814Y-110466392D01*
X157734108Y-110500500D01*
X157734110Y-110500500D01*
X157865890Y-110500500D01*
X157865892Y-110500500D01*
X157993186Y-110466392D01*
X158107314Y-110400500D01*
X158200500Y-110307314D01*
X158266392Y-110193186D01*
X158300500Y-110065892D01*
X158300500Y-109934108D01*
X158266392Y-109806814D01*
X158200500Y-109692686D01*
X158107314Y-109599500D01*
X158020712Y-109549500D01*
X157993187Y-109533608D01*
X157929539Y-109516554D01*
X157865892Y-109499500D01*
X157734108Y-109499500D01*
X157606812Y-109533608D01*
X157492686Y-109599500D01*
X157492683Y-109599502D01*
X157399502Y-109692683D01*
X157399500Y-109692686D01*
X157333608Y-109806812D01*
X157308773Y-109899500D01*
X157299500Y-109934108D01*
X155600000Y-109934108D01*
X155600000Y-108200000D01*
X124800000Y-108200000D01*
X124800000Y-113276000D01*
X124780315Y-113343039D01*
X124727511Y-113388794D01*
X124676000Y-113400000D01*
X114600000Y-113400000D01*
X114600000Y-116276000D01*
X114580315Y-116343039D01*
X114527511Y-116388794D01*
X114476000Y-116400000D01*
X112524000Y-116400000D01*
X112456961Y-116380315D01*
X112411206Y-116327511D01*
X112400000Y-116276000D01*
X112400000Y-115800000D01*
X110124000Y-115800000D01*
X110056961Y-115780315D01*
X110011206Y-115727511D01*
X110000000Y-115676000D01*
X110000000Y-112199999D01*
X109999999Y-112199999D01*
X104792485Y-112215190D01*
X104792484Y-112215190D01*
X104799665Y-114675642D01*
X104780177Y-114742739D01*
X104727506Y-114788648D01*
X104675666Y-114800004D01*
X103311760Y-114800004D01*
X103244721Y-114780319D01*
X103198966Y-114727515D01*
X103189022Y-114658357D01*
X103204373Y-114614003D01*
X103216392Y-114593186D01*
X103250500Y-114465892D01*
X103250500Y-114334108D01*
X103216392Y-114206814D01*
X103150500Y-114092686D01*
X103057314Y-113999500D01*
X103000250Y-113966554D01*
X102943187Y-113933608D01*
X102879539Y-113916554D01*
X102815892Y-113899500D01*
X102684108Y-113899500D01*
X102556812Y-113933608D01*
X102442686Y-113999500D01*
X102442683Y-113999502D01*
X102349502Y-114092683D01*
X102349500Y-114092686D01*
X102283608Y-114206812D01*
X102272170Y-114249500D01*
X102249500Y-114334108D01*
X102249500Y-114465892D01*
X102273862Y-114556814D01*
X102283609Y-114593188D01*
X102283609Y-114593189D01*
X102295626Y-114614003D01*
X102312099Y-114681903D01*
X102289246Y-114747930D01*
X102234325Y-114791121D01*
X102188239Y-114800003D01*
X93124500Y-114800000D01*
X93057461Y-114780315D01*
X93011706Y-114727511D01*
X93000500Y-114676000D01*
X93000500Y-110420259D01*
X94199500Y-110420259D01*
X94199500Y-110779740D01*
X94239746Y-111136935D01*
X94239748Y-111136951D01*
X94319737Y-111487407D01*
X94319741Y-111487419D01*
X94438465Y-111826711D01*
X94594432Y-112150579D01*
X94625171Y-112199500D01*
X94785685Y-112454956D01*
X95009812Y-112736003D01*
X95263997Y-112990188D01*
X95545044Y-113214315D01*
X95849418Y-113405566D01*
X96173292Y-113561536D01*
X96428119Y-113650703D01*
X96512580Y-113680258D01*
X96512592Y-113680262D01*
X96863052Y-113760252D01*
X97220260Y-113800499D01*
X97220261Y-113800500D01*
X97220264Y-113800500D01*
X97579739Y-113800500D01*
X97579739Y-113800499D01*
X97936948Y-113760252D01*
X98287408Y-113680262D01*
X98626708Y-113561536D01*
X98950582Y-113405566D01*
X99254956Y-113214315D01*
X99536003Y-112990188D01*
X99790188Y-112736003D01*
X100014315Y-112454956D01*
X100205566Y-112150582D01*
X100361536Y-111826708D01*
X100480262Y-111487408D01*
X100560252Y-111136948D01*
X100600500Y-110779736D01*
X100600500Y-110420264D01*
X100600499Y-110420259D01*
X100600499Y-110420257D01*
X100591442Y-110339864D01*
X100590793Y-110334108D01*
X106299500Y-110334108D01*
X106299500Y-110465891D01*
X106333608Y-110593187D01*
X106366554Y-110650250D01*
X106399500Y-110707314D01*
X106492686Y-110800500D01*
X106606814Y-110866392D01*
X106734108Y-110900500D01*
X106734110Y-110900500D01*
X106865890Y-110900500D01*
X106865892Y-110900500D01*
X106993186Y-110866392D01*
X107107314Y-110800500D01*
X107200500Y-110707314D01*
X107266392Y-110593186D01*
X107300500Y-110465892D01*
X107300500Y-110334108D01*
X108299500Y-110334108D01*
X108299500Y-110465891D01*
X108333608Y-110593187D01*
X108366554Y-110650250D01*
X108399500Y-110707314D01*
X108492686Y-110800500D01*
X108606814Y-110866392D01*
X108734108Y-110900500D01*
X108734110Y-110900500D01*
X108865890Y-110900500D01*
X108865892Y-110900500D01*
X108993186Y-110866392D01*
X109107314Y-110800500D01*
X109200500Y-110707314D01*
X109266392Y-110593186D01*
X109300500Y-110465892D01*
X109300500Y-110334108D01*
X109266392Y-110206814D01*
X109200500Y-110092686D01*
X109107314Y-109999500D01*
X109050250Y-109966554D01*
X108993187Y-109933608D01*
X108929539Y-109916554D01*
X108865892Y-109899500D01*
X108734108Y-109899500D01*
X108606812Y-109933608D01*
X108492686Y-109999500D01*
X108492683Y-109999502D01*
X108399502Y-110092683D01*
X108399500Y-110092686D01*
X108333608Y-110206812D01*
X108299500Y-110334108D01*
X107300500Y-110334108D01*
X107266392Y-110206814D01*
X107200500Y-110092686D01*
X107107314Y-109999500D01*
X107050250Y-109966554D01*
X106993187Y-109933608D01*
X106929539Y-109916554D01*
X106865892Y-109899500D01*
X106734108Y-109899500D01*
X106606812Y-109933608D01*
X106492686Y-109999500D01*
X106492683Y-109999502D01*
X106399502Y-110092683D01*
X106399500Y-110092686D01*
X106333608Y-110206812D01*
X106299500Y-110334108D01*
X100590793Y-110334108D01*
X100569194Y-110142421D01*
X100560252Y-110063052D01*
X100480262Y-109712592D01*
X100465977Y-109671769D01*
X100429295Y-109566936D01*
X100417808Y-109534108D01*
X107299500Y-109534108D01*
X107299500Y-109665892D01*
X107312010Y-109712580D01*
X107333608Y-109793187D01*
X107341475Y-109806812D01*
X107399500Y-109907314D01*
X107492686Y-110000500D01*
X107591521Y-110057563D01*
X107605944Y-110065890D01*
X107606814Y-110066392D01*
X107734108Y-110100500D01*
X107734110Y-110100500D01*
X107865890Y-110100500D01*
X107865892Y-110100500D01*
X107993186Y-110066392D01*
X108107314Y-110000500D01*
X108200500Y-109907314D01*
X108266392Y-109793186D01*
X108300500Y-109665892D01*
X108300500Y-109534108D01*
X108266392Y-109406814D01*
X108200500Y-109292686D01*
X108107314Y-109199500D01*
X108050250Y-109166554D01*
X107993187Y-109133608D01*
X107929539Y-109116554D01*
X107865892Y-109099500D01*
X107734108Y-109099500D01*
X107606812Y-109133608D01*
X107492686Y-109199500D01*
X107492683Y-109199502D01*
X107399502Y-109292683D01*
X107399500Y-109292686D01*
X107333608Y-109406812D01*
X107308773Y-109499500D01*
X107299500Y-109534108D01*
X100417808Y-109534108D01*
X100405698Y-109499500D01*
X100361536Y-109373292D01*
X100205566Y-109049418D01*
X100014315Y-108745044D01*
X100005594Y-108734108D01*
X106299500Y-108734108D01*
X106299500Y-108865891D01*
X106333608Y-108993187D01*
X106366074Y-109049418D01*
X106399500Y-109107314D01*
X106492686Y-109200500D01*
X106606814Y-109266392D01*
X106734108Y-109300500D01*
X106734110Y-109300500D01*
X106865890Y-109300500D01*
X106865892Y-109300500D01*
X106993186Y-109266392D01*
X107107314Y-109200500D01*
X107200500Y-109107314D01*
X107266392Y-108993186D01*
X107300500Y-108865892D01*
X107300500Y-108734108D01*
X108299500Y-108734108D01*
X108299500Y-108865891D01*
X108333608Y-108993187D01*
X108366074Y-109049418D01*
X108399500Y-109107314D01*
X108492686Y-109200500D01*
X108606814Y-109266392D01*
X108734108Y-109300500D01*
X108734110Y-109300500D01*
X108865890Y-109300500D01*
X108865892Y-109300500D01*
X108993186Y-109266392D01*
X109107314Y-109200500D01*
X109200500Y-109107314D01*
X109266392Y-108993186D01*
X109300500Y-108865892D01*
X109300500Y-108734108D01*
X109266392Y-108606814D01*
X109200500Y-108492686D01*
X109107314Y-108399500D01*
X109050250Y-108366554D01*
X108993187Y-108333608D01*
X108929539Y-108316554D01*
X108865892Y-108299500D01*
X108734108Y-108299500D01*
X108606812Y-108333608D01*
X108492686Y-108399500D01*
X108492683Y-108399502D01*
X108399502Y-108492683D01*
X108399500Y-108492686D01*
X108333608Y-108606812D01*
X108299500Y-108734108D01*
X107300500Y-108734108D01*
X107266392Y-108606814D01*
X107200500Y-108492686D01*
X107107314Y-108399500D01*
X107050250Y-108366554D01*
X106993187Y-108333608D01*
X106929539Y-108316554D01*
X106865892Y-108299500D01*
X106734108Y-108299500D01*
X106606812Y-108333608D01*
X106492686Y-108399500D01*
X106492683Y-108399502D01*
X106399502Y-108492683D01*
X106399500Y-108492686D01*
X106333608Y-108606812D01*
X106299500Y-108734108D01*
X100005594Y-108734108D01*
X99790188Y-108463997D01*
X99536003Y-108209812D01*
X99254956Y-107985685D01*
X98960236Y-107800500D01*
X98950579Y-107794432D01*
X98626711Y-107638465D01*
X98287419Y-107519741D01*
X98287411Y-107519738D01*
X97968160Y-107446872D01*
X97968159Y-107446871D01*
X97936951Y-107439748D01*
X97936935Y-107439746D01*
X97579740Y-107399500D01*
X97579736Y-107399500D01*
X97220264Y-107399500D01*
X97220259Y-107399500D01*
X96863064Y-107439746D01*
X96863048Y-107439748D01*
X96512592Y-107519737D01*
X96512580Y-107519741D01*
X96173288Y-107638465D01*
X95849420Y-107794432D01*
X95545045Y-107985684D01*
X95263997Y-108209811D01*
X95009811Y-108463997D01*
X94785684Y-108745045D01*
X94594432Y-109049420D01*
X94438465Y-109373288D01*
X94319741Y-109712580D01*
X94319737Y-109712592D01*
X94239748Y-110063048D01*
X94239746Y-110063064D01*
X94199500Y-110420259D01*
X93000500Y-110420259D01*
X93000500Y-107334108D01*
X135499500Y-107334108D01*
X135499500Y-107465891D01*
X135533608Y-107593187D01*
X135559749Y-107638464D01*
X135599500Y-107707314D01*
X135692686Y-107800500D01*
X135806814Y-107866392D01*
X135934108Y-107900500D01*
X135934110Y-107900500D01*
X136065890Y-107900500D01*
X136065892Y-107900500D01*
X136193186Y-107866392D01*
X136307314Y-107800500D01*
X136400500Y-107707314D01*
X136466392Y-107593186D01*
X136500500Y-107465892D01*
X136500500Y-107334108D01*
X138099500Y-107334108D01*
X138099500Y-107465891D01*
X138133608Y-107593187D01*
X138159749Y-107638464D01*
X138199500Y-107707314D01*
X138292686Y-107800500D01*
X138406814Y-107866392D01*
X138534108Y-107900500D01*
X138534110Y-107900500D01*
X138665890Y-107900500D01*
X138665892Y-107900500D01*
X138793186Y-107866392D01*
X138907314Y-107800500D01*
X139000500Y-107707314D01*
X139066392Y-107593186D01*
X139100500Y-107465892D01*
X139100500Y-107334108D01*
X140699500Y-107334108D01*
X140699500Y-107465891D01*
X140733608Y-107593187D01*
X140759749Y-107638464D01*
X140799500Y-107707314D01*
X140892686Y-107800500D01*
X141006814Y-107866392D01*
X141134108Y-107900500D01*
X141134110Y-107900500D01*
X141265890Y-107900500D01*
X141265892Y-107900500D01*
X141393186Y-107866392D01*
X141507314Y-107800500D01*
X141600500Y-107707314D01*
X141666392Y-107593186D01*
X141700500Y-107465892D01*
X141700500Y-107334108D01*
X143299500Y-107334108D01*
X143299500Y-107465891D01*
X143333608Y-107593187D01*
X143359749Y-107638464D01*
X143399500Y-107707314D01*
X143492686Y-107800500D01*
X143606814Y-107866392D01*
X143734108Y-107900500D01*
X143734110Y-107900500D01*
X143865890Y-107900500D01*
X143865892Y-107900500D01*
X143993186Y-107866392D01*
X144107314Y-107800500D01*
X144200500Y-107707314D01*
X144266392Y-107593186D01*
X144300500Y-107465892D01*
X144300500Y-107334108D01*
X144266392Y-107206814D01*
X144200500Y-107092686D01*
X144107314Y-106999500D01*
X144050250Y-106966554D01*
X143993187Y-106933608D01*
X143929539Y-106916554D01*
X143865892Y-106899500D01*
X143734108Y-106899500D01*
X143606812Y-106933608D01*
X143492686Y-106999500D01*
X143492683Y-106999502D01*
X143399502Y-107092683D01*
X143399500Y-107092686D01*
X143333608Y-107206812D01*
X143299500Y-107334108D01*
X141700500Y-107334108D01*
X141666392Y-107206814D01*
X141600500Y-107092686D01*
X141507314Y-106999500D01*
X141450250Y-106966554D01*
X141393187Y-106933608D01*
X141329539Y-106916554D01*
X141265892Y-106899500D01*
X141134108Y-106899500D01*
X141006812Y-106933608D01*
X140892686Y-106999500D01*
X140892683Y-106999502D01*
X140799502Y-107092683D01*
X140799500Y-107092686D01*
X140733608Y-107206812D01*
X140699500Y-107334108D01*
X139100500Y-107334108D01*
X139066392Y-107206814D01*
X139000500Y-107092686D01*
X138907314Y-106999500D01*
X138850250Y-106966554D01*
X138793187Y-106933608D01*
X138729539Y-106916554D01*
X138665892Y-106899500D01*
X138534108Y-106899500D01*
X138406812Y-106933608D01*
X138292686Y-106999500D01*
X138292683Y-106999502D01*
X138199502Y-107092683D01*
X138199500Y-107092686D01*
X138133608Y-107206812D01*
X138099500Y-107334108D01*
X136500500Y-107334108D01*
X136466392Y-107206814D01*
X136400500Y-107092686D01*
X136307314Y-106999500D01*
X136250250Y-106966554D01*
X136193187Y-106933608D01*
X136129539Y-106916554D01*
X136065892Y-106899500D01*
X135934108Y-106899500D01*
X135806812Y-106933608D01*
X135692686Y-106999500D01*
X135692683Y-106999502D01*
X135599502Y-107092683D01*
X135599500Y-107092686D01*
X135533608Y-107206812D01*
X135499500Y-107334108D01*
X93000500Y-107334108D01*
X93000500Y-101795576D01*
X94199500Y-101795576D01*
X94199500Y-105004423D01*
X94201785Y-105052098D01*
X94202313Y-105063104D01*
X94243652Y-105300500D01*
X94247107Y-105320343D01*
X94247107Y-105320344D01*
X94274174Y-105400500D01*
X94330643Y-105567730D01*
X94435450Y-105769587D01*
X94450966Y-105799470D01*
X94605244Y-106010113D01*
X94605248Y-106010118D01*
X94789881Y-106194751D01*
X94789886Y-106194755D01*
X95000529Y-106349033D01*
X95000532Y-106349034D01*
X95000534Y-106349036D01*
X95232270Y-106469357D01*
X95479657Y-106552893D01*
X95736896Y-106597687D01*
X95795590Y-106600500D01*
X95795607Y-106600500D01*
X99004393Y-106600500D01*
X99004410Y-106600500D01*
X99063104Y-106597687D01*
X99320343Y-106552893D01*
X99567730Y-106469357D01*
X99799466Y-106349036D01*
X100010119Y-106194751D01*
X100194751Y-106010119D01*
X100349036Y-105799466D01*
X100469357Y-105567730D01*
X100552893Y-105320343D01*
X100597687Y-105063104D01*
X100600500Y-105004410D01*
X100600500Y-104934108D01*
X102249500Y-104934108D01*
X102249500Y-105065892D01*
X102266554Y-105129539D01*
X102283608Y-105193187D01*
X102316554Y-105250250D01*
X102349500Y-105307314D01*
X102442686Y-105400500D01*
X102556814Y-105466392D01*
X102684108Y-105500500D01*
X102684110Y-105500500D01*
X102815890Y-105500500D01*
X102815892Y-105500500D01*
X102943186Y-105466392D01*
X103057314Y-105400500D01*
X103150500Y-105307314D01*
X103216392Y-105193186D01*
X103250500Y-105065892D01*
X103250500Y-104934108D01*
X104649500Y-104934108D01*
X104649500Y-105065892D01*
X104666554Y-105129539D01*
X104683608Y-105193187D01*
X104716554Y-105250250D01*
X104749500Y-105307314D01*
X104842686Y-105400500D01*
X104956814Y-105466392D01*
X105084108Y-105500500D01*
X105084110Y-105500500D01*
X105215890Y-105500500D01*
X105215892Y-105500500D01*
X105343186Y-105466392D01*
X105457314Y-105400500D01*
X105550500Y-105307314D01*
X105616392Y-105193186D01*
X105650500Y-105065892D01*
X105650500Y-104934108D01*
X105616392Y-104806814D01*
X105550500Y-104692686D01*
X105457314Y-104599500D01*
X105400250Y-104566554D01*
X105343187Y-104533608D01*
X105279539Y-104516554D01*
X105215892Y-104499500D01*
X105084108Y-104499500D01*
X104956812Y-104533608D01*
X104842686Y-104599500D01*
X104842683Y-104599502D01*
X104749502Y-104692683D01*
X104749500Y-104692686D01*
X104683608Y-104806812D01*
X104667778Y-104865892D01*
X104649500Y-104934108D01*
X103250500Y-104934108D01*
X103216392Y-104806814D01*
X103150500Y-104692686D01*
X103057314Y-104599500D01*
X103000250Y-104566554D01*
X102943187Y-104533608D01*
X102879539Y-104516554D01*
X102815892Y-104499500D01*
X102684108Y-104499500D01*
X102556812Y-104533608D01*
X102442686Y-104599500D01*
X102442683Y-104599502D01*
X102349502Y-104692683D01*
X102349500Y-104692686D01*
X102283608Y-104806812D01*
X102267778Y-104865892D01*
X102249500Y-104934108D01*
X100600500Y-104934108D01*
X100600500Y-103334108D01*
X121049500Y-103334108D01*
X121049500Y-103465892D01*
X121066554Y-103529539D01*
X121083608Y-103593187D01*
X121116554Y-103650250D01*
X121149500Y-103707314D01*
X121242686Y-103800500D01*
X121356814Y-103866392D01*
X121484108Y-103900500D01*
X121484110Y-103900500D01*
X121615890Y-103900500D01*
X121615892Y-103900500D01*
X121743186Y-103866392D01*
X121857314Y-103800500D01*
X121950500Y-103707314D01*
X122016392Y-103593186D01*
X122032222Y-103534108D01*
X122299500Y-103534108D01*
X122299500Y-103665892D01*
X122316554Y-103729539D01*
X122333608Y-103793187D01*
X122366554Y-103850250D01*
X122399500Y-103907314D01*
X122492686Y-104000500D01*
X122606814Y-104066392D01*
X122658441Y-104080225D01*
X122718102Y-104116590D01*
X122748631Y-104179437D01*
X122740336Y-104248812D01*
X122695851Y-104302690D01*
X122658442Y-104319774D01*
X122640666Y-104324537D01*
X122606812Y-104333608D01*
X122492686Y-104399500D01*
X122492683Y-104399502D01*
X122399502Y-104492683D01*
X122399500Y-104492686D01*
X122333608Y-104606812D01*
X122299500Y-104734108D01*
X122299500Y-104865891D01*
X122333608Y-104993187D01*
X122366554Y-105050250D01*
X122399500Y-105107314D01*
X122492686Y-105200500D01*
X122606814Y-105266392D01*
X122734108Y-105300500D01*
X122734110Y-105300500D01*
X122865890Y-105300500D01*
X122865892Y-105300500D01*
X122993186Y-105266392D01*
X123107314Y-105200500D01*
X123200500Y-105107314D01*
X123266392Y-104993186D01*
X123300500Y-104865892D01*
X123300500Y-104734108D01*
X123266392Y-104606814D01*
X123200500Y-104492686D01*
X123107314Y-104399500D01*
X123050250Y-104366554D01*
X122993187Y-104333608D01*
X122976259Y-104329072D01*
X122941556Y-104319774D01*
X122881897Y-104283410D01*
X122851368Y-104220564D01*
X122859662Y-104151188D01*
X122904147Y-104097310D01*
X122941555Y-104080226D01*
X122993186Y-104066392D01*
X123107314Y-104000500D01*
X123200500Y-103907314D01*
X123266392Y-103793186D01*
X123300500Y-103665892D01*
X123300500Y-103534108D01*
X123266392Y-103406814D01*
X123200500Y-103292686D01*
X123107314Y-103199500D01*
X123050250Y-103166554D01*
X122993187Y-103133608D01*
X122929539Y-103116554D01*
X122865892Y-103099500D01*
X122734108Y-103099500D01*
X122606812Y-103133608D01*
X122492686Y-103199500D01*
X122492683Y-103199502D01*
X122399502Y-103292683D01*
X122399500Y-103292686D01*
X122333608Y-103406812D01*
X122317778Y-103465892D01*
X122299500Y-103534108D01*
X122032222Y-103534108D01*
X122050500Y-103465892D01*
X122050500Y-103334108D01*
X122016392Y-103206814D01*
X121950500Y-103092686D01*
X121857314Y-102999500D01*
X121800250Y-102966554D01*
X121743187Y-102933608D01*
X121679539Y-102916554D01*
X121615892Y-102899500D01*
X121484108Y-102899500D01*
X121356812Y-102933608D01*
X121242686Y-102999500D01*
X121242683Y-102999502D01*
X121149502Y-103092683D01*
X121149500Y-103092686D01*
X121083608Y-103206812D01*
X121060600Y-103292683D01*
X121049500Y-103334108D01*
X100600500Y-103334108D01*
X100600500Y-102534108D01*
X115599500Y-102534108D01*
X115599500Y-102665891D01*
X115633608Y-102793187D01*
X115666554Y-102850250D01*
X115699500Y-102907314D01*
X115792686Y-103000500D01*
X115906814Y-103066392D01*
X116034108Y-103100500D01*
X116034110Y-103100500D01*
X116165890Y-103100500D01*
X116165892Y-103100500D01*
X116293186Y-103066392D01*
X116407314Y-103000500D01*
X116500500Y-102907314D01*
X116566392Y-102793186D01*
X116600500Y-102665892D01*
X116600500Y-102534108D01*
X116566392Y-102406814D01*
X116500500Y-102292686D01*
X116407314Y-102199500D01*
X116350250Y-102166554D01*
X116293187Y-102133608D01*
X116229539Y-102116554D01*
X116165892Y-102099500D01*
X116034108Y-102099500D01*
X115906812Y-102133608D01*
X115792686Y-102199500D01*
X115792683Y-102199502D01*
X115699502Y-102292683D01*
X115699500Y-102292686D01*
X115633608Y-102406812D01*
X115599500Y-102534108D01*
X100600500Y-102534108D01*
X100600500Y-101795590D01*
X100597687Y-101736896D01*
X100553668Y-101484108D01*
X114549500Y-101484108D01*
X114549500Y-101615891D01*
X114583608Y-101743187D01*
X114613873Y-101795606D01*
X114649500Y-101857314D01*
X114742686Y-101950500D01*
X114856814Y-102016392D01*
X114984108Y-102050500D01*
X114984110Y-102050500D01*
X115115890Y-102050500D01*
X115115892Y-102050500D01*
X115243186Y-102016392D01*
X115357314Y-101950500D01*
X115450500Y-101857314D01*
X115516392Y-101743186D01*
X115550500Y-101615892D01*
X115550500Y-101484108D01*
X115516392Y-101356814D01*
X115450500Y-101242686D01*
X115357314Y-101149500D01*
X115300250Y-101116554D01*
X115243187Y-101083608D01*
X115177061Y-101065890D01*
X115115892Y-101049500D01*
X114984108Y-101049500D01*
X114856812Y-101083608D01*
X114742686Y-101149500D01*
X114742683Y-101149502D01*
X114649502Y-101242683D01*
X114649500Y-101242686D01*
X114583608Y-101356812D01*
X114549500Y-101484108D01*
X100553668Y-101484108D01*
X100552893Y-101479657D01*
X100469357Y-101232270D01*
X100349036Y-101000534D01*
X100349034Y-101000532D01*
X100349033Y-101000529D01*
X100300385Y-100934108D01*
X150999500Y-100934108D01*
X150999500Y-101065891D01*
X151033608Y-101193187D01*
X151056173Y-101232270D01*
X151099500Y-101307314D01*
X151192686Y-101400500D01*
X151306814Y-101466392D01*
X151434108Y-101500500D01*
X151434110Y-101500500D01*
X151565890Y-101500500D01*
X151565892Y-101500500D01*
X151693186Y-101466392D01*
X151807314Y-101400500D01*
X151900500Y-101307314D01*
X151966392Y-101193186D01*
X152000500Y-101065892D01*
X152000500Y-100934108D01*
X151966392Y-100806814D01*
X151900500Y-100692686D01*
X151807314Y-100599500D01*
X151750250Y-100566554D01*
X151693187Y-100533608D01*
X151629539Y-100516554D01*
X151565892Y-100499500D01*
X151434108Y-100499500D01*
X151306812Y-100533608D01*
X151192686Y-100599500D01*
X151192683Y-100599502D01*
X151099502Y-100692683D01*
X151099500Y-100692686D01*
X151033608Y-100806812D01*
X150999500Y-100934108D01*
X100300385Y-100934108D01*
X100194755Y-100789886D01*
X100194751Y-100789881D01*
X100010118Y-100605248D01*
X100010113Y-100605244D01*
X99799470Y-100450966D01*
X99769587Y-100435450D01*
X99567730Y-100330643D01*
X99320343Y-100247107D01*
X99063104Y-100202313D01*
X99052098Y-100201785D01*
X99004423Y-100199500D01*
X99004410Y-100199500D01*
X95795590Y-100199500D01*
X95795576Y-100199500D01*
X95744232Y-100201961D01*
X95736896Y-100202313D01*
X95565403Y-100232175D01*
X95479656Y-100247107D01*
X95479655Y-100247107D01*
X95232270Y-100330643D01*
X95000529Y-100450966D01*
X94789886Y-100605244D01*
X94789881Y-100605248D01*
X94605248Y-100789881D01*
X94605244Y-100789886D01*
X94450966Y-101000529D01*
X94330643Y-101232270D01*
X94247107Y-101479655D01*
X94247107Y-101479656D01*
X94232175Y-101565403D01*
X94202313Y-101736896D01*
X94201961Y-101744232D01*
X94199500Y-101795576D01*
X93000500Y-101795576D01*
X93000500Y-100134108D01*
X119399500Y-100134108D01*
X119399500Y-100265891D01*
X119433608Y-100393187D01*
X119466554Y-100450250D01*
X119499500Y-100507314D01*
X119592686Y-100600500D01*
X119706814Y-100666392D01*
X119834108Y-100700500D01*
X119834110Y-100700500D01*
X119965890Y-100700500D01*
X119965892Y-100700500D01*
X120093186Y-100666392D01*
X120207314Y-100600500D01*
X120300500Y-100507314D01*
X120366392Y-100393186D01*
X120400500Y-100265892D01*
X120400500Y-100134108D01*
X120366392Y-100006814D01*
X120300500Y-99892686D01*
X120207314Y-99799500D01*
X120150250Y-99766554D01*
X120093187Y-99733608D01*
X120029539Y-99716554D01*
X119965892Y-99699500D01*
X119834108Y-99699500D01*
X119706812Y-99733608D01*
X119592686Y-99799500D01*
X119592683Y-99799502D01*
X119499502Y-99892683D01*
X119499500Y-99892686D01*
X119433608Y-100006812D01*
X119399500Y-100134108D01*
X93000500Y-100134108D01*
X93000500Y-92252871D01*
X93000632Y-92247144D01*
X93008223Y-92082947D01*
X93599500Y-92082947D01*
X93599500Y-92417052D01*
X93632247Y-92749548D01*
X93632250Y-92749565D01*
X93697425Y-93077230D01*
X93697428Y-93077241D01*
X93697430Y-93077250D01*
X93697431Y-93077251D01*
X93794418Y-93396976D01*
X93916567Y-93691870D01*
X93922278Y-93705656D01*
X93922280Y-93705661D01*
X94079769Y-94000303D01*
X94079780Y-94000321D01*
X94265393Y-94278109D01*
X94265403Y-94278123D01*
X94477361Y-94536395D01*
X94713604Y-94772638D01*
X94713609Y-94772642D01*
X94713610Y-94772643D01*
X94971882Y-94984601D01*
X95249685Y-95170224D01*
X95249694Y-95170229D01*
X95249696Y-95170230D01*
X95544338Y-95327719D01*
X95544340Y-95327719D01*
X95544346Y-95327723D01*
X95853024Y-95455582D01*
X96172749Y-95552569D01*
X96172755Y-95552570D01*
X96172758Y-95552571D01*
X96172769Y-95552574D01*
X96358906Y-95589598D01*
X96500441Y-95617751D01*
X96832944Y-95650500D01*
X96832947Y-95650500D01*
X97167053Y-95650500D01*
X97167056Y-95650500D01*
X97499559Y-95617751D01*
X97661757Y-95585487D01*
X97827230Y-95552574D01*
X97827241Y-95552571D01*
X97827241Y-95552570D01*
X97827251Y-95552569D01*
X98146976Y-95455582D01*
X98455654Y-95327723D01*
X98541170Y-95282014D01*
X105800000Y-95282014D01*
X105800000Y-95517985D01*
X105830799Y-95751914D01*
X105891870Y-95979837D01*
X105982160Y-96197819D01*
X105982165Y-96197828D01*
X106100144Y-96402171D01*
X106100145Y-96402172D01*
X106162721Y-96483723D01*
X106998958Y-95647487D01*
X107023978Y-95707890D01*
X107095112Y-95814351D01*
X107185649Y-95904888D01*
X107292110Y-95976022D01*
X107352511Y-96001041D01*
X106516275Y-96837277D01*
X106597827Y-96899854D01*
X106597828Y-96899855D01*
X106802171Y-97017834D01*
X106802180Y-97017839D01*
X107020163Y-97108129D01*
X107020161Y-97108129D01*
X107248085Y-97169200D01*
X107482014Y-97199999D01*
X107482029Y-97200000D01*
X107717971Y-97200000D01*
X107717985Y-97199999D01*
X107951914Y-97169200D01*
X108179837Y-97108129D01*
X108397819Y-97017839D01*
X108397828Y-97017834D01*
X108602181Y-96899850D01*
X108683723Y-96837279D01*
X108683723Y-96837276D01*
X107847487Y-96001041D01*
X107907890Y-95976022D01*
X108014351Y-95904888D01*
X108104888Y-95814351D01*
X108176022Y-95707890D01*
X108201041Y-95647487D01*
X109037276Y-96483723D01*
X109037279Y-96483723D01*
X109099850Y-96402181D01*
X109217834Y-96197828D01*
X109217839Y-96197819D01*
X109308129Y-95979837D01*
X109369200Y-95751914D01*
X109399999Y-95517985D01*
X109400000Y-95517971D01*
X109400000Y-95282026D01*
X109399999Y-95282016D01*
X109399984Y-95281902D01*
X111099500Y-95281902D01*
X111099500Y-95518097D01*
X111136446Y-95751368D01*
X111209433Y-95975994D01*
X111247141Y-96050000D01*
X111316657Y-96186433D01*
X111455483Y-96377510D01*
X111622490Y-96544517D01*
X111813567Y-96683343D01*
X111912991Y-96734002D01*
X112024003Y-96790566D01*
X112024005Y-96790566D01*
X112024008Y-96790568D01*
X112144412Y-96829689D01*
X112248631Y-96863553D01*
X112481903Y-96900500D01*
X112481908Y-96900500D01*
X112718097Y-96900500D01*
X112951368Y-96863553D01*
X113175992Y-96790568D01*
X113386433Y-96683343D01*
X113577510Y-96544517D01*
X113744517Y-96377510D01*
X113883343Y-96186433D01*
X113990568Y-95975992D01*
X114063553Y-95751368D01*
X114089175Y-95589598D01*
X114100500Y-95518097D01*
X114100500Y-95281902D01*
X114063553Y-95048631D01*
X113990566Y-94824003D01*
X113883342Y-94613566D01*
X113744517Y-94422490D01*
X113617757Y-94295730D01*
X116099500Y-94295730D01*
X116099500Y-96504269D01*
X116102353Y-96534699D01*
X116102353Y-96534701D01*
X116147206Y-96662880D01*
X116147207Y-96662882D01*
X116227850Y-96772150D01*
X116337118Y-96852793D01*
X116379845Y-96867744D01*
X116465299Y-96897646D01*
X116495730Y-96900500D01*
X116495734Y-96900500D01*
X118704270Y-96900500D01*
X118734699Y-96897646D01*
X118734701Y-96897646D01*
X118798790Y-96875219D01*
X118862882Y-96852793D01*
X118972150Y-96772150D01*
X119052793Y-96662882D01*
X119094212Y-96544514D01*
X119097646Y-96534701D01*
X119097646Y-96534699D01*
X119100500Y-96504269D01*
X119100500Y-95281902D01*
X122299500Y-95281902D01*
X122299500Y-95518097D01*
X122336446Y-95751368D01*
X122409433Y-95975994D01*
X122447141Y-96050000D01*
X122516657Y-96186433D01*
X122655483Y-96377510D01*
X122822490Y-96544517D01*
X123013567Y-96683343D01*
X123112991Y-96734002D01*
X123224003Y-96790566D01*
X123224005Y-96790566D01*
X123224008Y-96790568D01*
X123344412Y-96829689D01*
X123448631Y-96863553D01*
X123681903Y-96900500D01*
X123681908Y-96900500D01*
X123918097Y-96900500D01*
X124151368Y-96863553D01*
X124375992Y-96790568D01*
X124586433Y-96683343D01*
X124777510Y-96544517D01*
X124944517Y-96377510D01*
X125083343Y-96186433D01*
X125190568Y-95975992D01*
X125263553Y-95751368D01*
X125289175Y-95589598D01*
X125300500Y-95518097D01*
X125300500Y-95281902D01*
X127299500Y-95281902D01*
X127299500Y-95518097D01*
X127336446Y-95751368D01*
X127409433Y-95975994D01*
X127447141Y-96050000D01*
X127516657Y-96186433D01*
X127655483Y-96377510D01*
X127822490Y-96544517D01*
X128013567Y-96683343D01*
X128112991Y-96734002D01*
X128224003Y-96790566D01*
X128224005Y-96790566D01*
X128224008Y-96790568D01*
X128344412Y-96829689D01*
X128448631Y-96863553D01*
X128681903Y-96900500D01*
X128681908Y-96900500D01*
X128918097Y-96900500D01*
X129151368Y-96863553D01*
X129375992Y-96790568D01*
X129586433Y-96683343D01*
X129777510Y-96544517D01*
X129944517Y-96377510D01*
X130083343Y-96186433D01*
X130190568Y-95975992D01*
X130263553Y-95751368D01*
X130284716Y-95617751D01*
X130290816Y-95579240D01*
X130300500Y-95518097D01*
X130300500Y-95281902D01*
X130263553Y-95048631D01*
X130190566Y-94824003D01*
X130083342Y-94613566D01*
X129944517Y-94422490D01*
X129822040Y-94300013D01*
X132000000Y-94300013D01*
X132000000Y-95150000D01*
X133199999Y-95150000D01*
X133174979Y-95210402D01*
X133150000Y-95335981D01*
X133150000Y-95464019D01*
X133174979Y-95589598D01*
X133199999Y-95650000D01*
X132000001Y-95650000D01*
X132000001Y-96499986D01*
X132010494Y-96602697D01*
X132065641Y-96769119D01*
X132065643Y-96769124D01*
X132157684Y-96918345D01*
X132281654Y-97042315D01*
X132430875Y-97134356D01*
X132430880Y-97134358D01*
X132597302Y-97189505D01*
X132597309Y-97189506D01*
X132700019Y-97199999D01*
X133549999Y-97199999D01*
X133550000Y-97199998D01*
X133550000Y-96000001D01*
X133610402Y-96025021D01*
X133735981Y-96050000D01*
X133864019Y-96050000D01*
X133989598Y-96025021D01*
X134050000Y-96000001D01*
X134050000Y-97199999D01*
X134899972Y-97199999D01*
X134899986Y-97199998D01*
X135002697Y-97189505D01*
X135169119Y-97134358D01*
X135169124Y-97134356D01*
X135318345Y-97042315D01*
X135442315Y-96918345D01*
X135534356Y-96769124D01*
X135534358Y-96769119D01*
X135589505Y-96602697D01*
X135589506Y-96602690D01*
X135599999Y-96499986D01*
X135600000Y-96499973D01*
X135600000Y-95650000D01*
X134400001Y-95650000D01*
X134425021Y-95589598D01*
X134450000Y-95464019D01*
X134450000Y-95335981D01*
X134425021Y-95210402D01*
X134400001Y-95150000D01*
X135599999Y-95150000D01*
X135599999Y-94300028D01*
X135599998Y-94300013D01*
X135589505Y-94197302D01*
X135534358Y-94030880D01*
X135534356Y-94030875D01*
X135442315Y-93881654D01*
X135318345Y-93757684D01*
X135169124Y-93665643D01*
X135169119Y-93665641D01*
X135002697Y-93610494D01*
X135002690Y-93610493D01*
X134899986Y-93600000D01*
X134050000Y-93600000D01*
X134050000Y-94799998D01*
X133989598Y-94774979D01*
X133864019Y-94750000D01*
X133735981Y-94750000D01*
X133610402Y-94774979D01*
X133550000Y-94799998D01*
X133550000Y-93600000D01*
X132700028Y-93600000D01*
X132700012Y-93600001D01*
X132597302Y-93610494D01*
X132430880Y-93665641D01*
X132430875Y-93665643D01*
X132281654Y-93757684D01*
X132157684Y-93881654D01*
X132065643Y-94030875D01*
X132065641Y-94030880D01*
X132010494Y-94197302D01*
X132010493Y-94197309D01*
X132000000Y-94300013D01*
X129822040Y-94300013D01*
X129777510Y-94255483D01*
X129586433Y-94116657D01*
X129375996Y-94009433D01*
X129151368Y-93936446D01*
X128918097Y-93899500D01*
X128918092Y-93899500D01*
X128681908Y-93899500D01*
X128681903Y-93899500D01*
X128448631Y-93936446D01*
X128224003Y-94009433D01*
X128013566Y-94116657D01*
X127904550Y-94195862D01*
X127822490Y-94255483D01*
X127822488Y-94255485D01*
X127822487Y-94255485D01*
X127655485Y-94422487D01*
X127655485Y-94422488D01*
X127655483Y-94422490D01*
X127595862Y-94504550D01*
X127516657Y-94613566D01*
X127409433Y-94824003D01*
X127336446Y-95048631D01*
X127299500Y-95281902D01*
X125300500Y-95281902D01*
X125263553Y-95048631D01*
X125190566Y-94824003D01*
X125083342Y-94613566D01*
X124944517Y-94422490D01*
X124777510Y-94255483D01*
X124586433Y-94116657D01*
X124375996Y-94009433D01*
X124151368Y-93936446D01*
X123918097Y-93899500D01*
X123918092Y-93899500D01*
X123681908Y-93899500D01*
X123681903Y-93899500D01*
X123448631Y-93936446D01*
X123224003Y-94009433D01*
X123013566Y-94116657D01*
X122904550Y-94195862D01*
X122822490Y-94255483D01*
X122822488Y-94255485D01*
X122822487Y-94255485D01*
X122655485Y-94422487D01*
X122655485Y-94422488D01*
X122655483Y-94422490D01*
X122595862Y-94504550D01*
X122516657Y-94613566D01*
X122409433Y-94824003D01*
X122336446Y-95048631D01*
X122299500Y-95281902D01*
X119100500Y-95281902D01*
X119100500Y-94295730D01*
X119097646Y-94265300D01*
X119097646Y-94265298D01*
X119052793Y-94137119D01*
X119052792Y-94137117D01*
X119037692Y-94116657D01*
X118972150Y-94027850D01*
X118862882Y-93947207D01*
X118862880Y-93947206D01*
X118734700Y-93902353D01*
X118704270Y-93899500D01*
X118704266Y-93899500D01*
X116495734Y-93899500D01*
X116495730Y-93899500D01*
X116465300Y-93902353D01*
X116465298Y-93902353D01*
X116337119Y-93947206D01*
X116337117Y-93947207D01*
X116227850Y-94027850D01*
X116147207Y-94137117D01*
X116147206Y-94137119D01*
X116102353Y-94265298D01*
X116102353Y-94265300D01*
X116099500Y-94295730D01*
X113617757Y-94295730D01*
X113577510Y-94255483D01*
X113386433Y-94116657D01*
X113175996Y-94009433D01*
X112951368Y-93936446D01*
X112718097Y-93899500D01*
X112718092Y-93899500D01*
X112481908Y-93899500D01*
X112481903Y-93899500D01*
X112248631Y-93936446D01*
X112024003Y-94009433D01*
X111813566Y-94116657D01*
X111704550Y-94195862D01*
X111622490Y-94255483D01*
X111622488Y-94255485D01*
X111622487Y-94255485D01*
X111455485Y-94422487D01*
X111455485Y-94422488D01*
X111455483Y-94422490D01*
X111395862Y-94504550D01*
X111316657Y-94613566D01*
X111209433Y-94824003D01*
X111136446Y-95048631D01*
X111099500Y-95281902D01*
X109399984Y-95281902D01*
X109369200Y-95048085D01*
X109308129Y-94820162D01*
X109217839Y-94602180D01*
X109217834Y-94602171D01*
X109099855Y-94397828D01*
X109099854Y-94397827D01*
X109037277Y-94316275D01*
X108201041Y-95152511D01*
X108176022Y-95092110D01*
X108104888Y-94985649D01*
X108014351Y-94895112D01*
X107907890Y-94823978D01*
X107847488Y-94798958D01*
X108683723Y-93962721D01*
X108602172Y-93900145D01*
X108602171Y-93900144D01*
X108397828Y-93782165D01*
X108397819Y-93782160D01*
X108179836Y-93691870D01*
X108179838Y-93691870D01*
X107951914Y-93630799D01*
X107717985Y-93600000D01*
X107482014Y-93600000D01*
X107248085Y-93630799D01*
X107020162Y-93691870D01*
X106802180Y-93782160D01*
X106802171Y-93782165D01*
X106597828Y-93900144D01*
X106597818Y-93900150D01*
X106516275Y-93962720D01*
X106516275Y-93962721D01*
X107352512Y-94798958D01*
X107292110Y-94823978D01*
X107185649Y-94895112D01*
X107095112Y-94985649D01*
X107023978Y-95092110D01*
X106998958Y-95152511D01*
X106162721Y-94316275D01*
X106162720Y-94316275D01*
X106100150Y-94397818D01*
X106100144Y-94397828D01*
X105982165Y-94602171D01*
X105982160Y-94602180D01*
X105891870Y-94820162D01*
X105830799Y-95048085D01*
X105800000Y-95282014D01*
X98541170Y-95282014D01*
X98750315Y-95170224D01*
X99028118Y-94984601D01*
X99286390Y-94772643D01*
X99522643Y-94536390D01*
X99734601Y-94278118D01*
X99920224Y-94000315D01*
X99948612Y-93947206D01*
X100077719Y-93705661D01*
X100077723Y-93705654D01*
X100205582Y-93396976D01*
X100302569Y-93077251D01*
X100302571Y-93077241D01*
X100302574Y-93077230D01*
X100335487Y-92911757D01*
X100367751Y-92749559D01*
X100400500Y-92417056D01*
X100400500Y-92082947D01*
X155599500Y-92082947D01*
X155599500Y-92417052D01*
X155632247Y-92749548D01*
X155632250Y-92749565D01*
X155697425Y-93077230D01*
X155697428Y-93077241D01*
X155697430Y-93077250D01*
X155697431Y-93077251D01*
X155794418Y-93396976D01*
X155916567Y-93691870D01*
X155922278Y-93705656D01*
X155922280Y-93705661D01*
X156079769Y-94000303D01*
X156079780Y-94000321D01*
X156265393Y-94278109D01*
X156265403Y-94278123D01*
X156477361Y-94536395D01*
X156713604Y-94772638D01*
X156713609Y-94772642D01*
X156713610Y-94772643D01*
X156971882Y-94984601D01*
X157249685Y-95170224D01*
X157249694Y-95170229D01*
X157249696Y-95170230D01*
X157544338Y-95327719D01*
X157544340Y-95327719D01*
X157544346Y-95327723D01*
X157853024Y-95455582D01*
X158172749Y-95552569D01*
X158172755Y-95552570D01*
X158172758Y-95552571D01*
X158172769Y-95552574D01*
X158358906Y-95589598D01*
X158500441Y-95617751D01*
X158832944Y-95650500D01*
X158832947Y-95650500D01*
X159167053Y-95650500D01*
X159167056Y-95650500D01*
X159499559Y-95617751D01*
X159661757Y-95585487D01*
X159827230Y-95552574D01*
X159827241Y-95552571D01*
X159827241Y-95552570D01*
X159827251Y-95552569D01*
X160146976Y-95455582D01*
X160455654Y-95327723D01*
X160750315Y-95170224D01*
X161028118Y-94984601D01*
X161286390Y-94772643D01*
X161522643Y-94536390D01*
X161734601Y-94278118D01*
X161920224Y-94000315D01*
X162077723Y-93705654D01*
X162205582Y-93396976D01*
X162302569Y-93077251D01*
X162302571Y-93077241D01*
X162302574Y-93077230D01*
X162335487Y-92911757D01*
X162367751Y-92749559D01*
X162400500Y-92417056D01*
X162400500Y-92082944D01*
X162367751Y-91750441D01*
X162343444Y-91628243D01*
X162302574Y-91422769D01*
X162302571Y-91422758D01*
X162302570Y-91422755D01*
X162302569Y-91422749D01*
X162205582Y-91103024D01*
X162077723Y-90794346D01*
X161920224Y-90499685D01*
X161734601Y-90221882D01*
X161522643Y-89963610D01*
X161522642Y-89963609D01*
X161522638Y-89963604D01*
X161286395Y-89727361D01*
X161028123Y-89515403D01*
X161028122Y-89515402D01*
X161028118Y-89515399D01*
X160750315Y-89329776D01*
X160750310Y-89329773D01*
X160750303Y-89329769D01*
X160455661Y-89172280D01*
X160455656Y-89172278D01*
X160146977Y-89044418D01*
X159827241Y-88947428D01*
X159827230Y-88947425D01*
X159499565Y-88882250D01*
X159499548Y-88882247D01*
X159248108Y-88857483D01*
X159167056Y-88849500D01*
X158832944Y-88849500D01*
X158757982Y-88856883D01*
X158500451Y-88882247D01*
X158500434Y-88882250D01*
X158172769Y-88947425D01*
X158172758Y-88947428D01*
X157853022Y-89044418D01*
X157544343Y-89172278D01*
X157544338Y-89172280D01*
X157249696Y-89329769D01*
X157249678Y-89329780D01*
X156971890Y-89515393D01*
X156971876Y-89515403D01*
X156713604Y-89727361D01*
X156477361Y-89963604D01*
X156265403Y-90221876D01*
X156265393Y-90221890D01*
X156079780Y-90499678D01*
X156079769Y-90499696D01*
X155922280Y-90794338D01*
X155922278Y-90794343D01*
X155794418Y-91103022D01*
X155697428Y-91422758D01*
X155697425Y-91422769D01*
X155632250Y-91750434D01*
X155632247Y-91750451D01*
X155599500Y-92082947D01*
X100400500Y-92082947D01*
X100400500Y-92082944D01*
X100367751Y-91750441D01*
X100343444Y-91628243D01*
X100302574Y-91422769D01*
X100302571Y-91422758D01*
X100302570Y-91422755D01*
X100302569Y-91422749D01*
X100205582Y-91103024D01*
X100077723Y-90794346D01*
X99920224Y-90499685D01*
X99734601Y-90221882D01*
X99522643Y-89963610D01*
X99522642Y-89963609D01*
X99522638Y-89963604D01*
X99286395Y-89727361D01*
X99028123Y-89515403D01*
X99028122Y-89515402D01*
X99028118Y-89515399D01*
X98750315Y-89329776D01*
X98750310Y-89329773D01*
X98750303Y-89329769D01*
X98455661Y-89172280D01*
X98455656Y-89172278D01*
X98146977Y-89044418D01*
X97827241Y-88947428D01*
X97827230Y-88947425D01*
X97499565Y-88882250D01*
X97499548Y-88882247D01*
X97248108Y-88857483D01*
X97167056Y-88849500D01*
X96832944Y-88849500D01*
X96757982Y-88856883D01*
X96500451Y-88882247D01*
X96500434Y-88882250D01*
X96172769Y-88947425D01*
X96172758Y-88947428D01*
X95853022Y-89044418D01*
X95544343Y-89172278D01*
X95544338Y-89172280D01*
X95249696Y-89329769D01*
X95249678Y-89329780D01*
X94971890Y-89515393D01*
X94971876Y-89515403D01*
X94713604Y-89727361D01*
X94477361Y-89963604D01*
X94265403Y-90221876D01*
X94265393Y-90221890D01*
X94079780Y-90499678D01*
X94079769Y-90499696D01*
X93922280Y-90794338D01*
X93922278Y-90794343D01*
X93794418Y-91103022D01*
X93697428Y-91422758D01*
X93697425Y-91422769D01*
X93632250Y-91750434D01*
X93632247Y-91750451D01*
X93599500Y-92082947D01*
X93008223Y-92082947D01*
X93008629Y-92074173D01*
X93008629Y-92074172D01*
X93017296Y-91886696D01*
X93018353Y-91875291D01*
X93067808Y-91520757D01*
X93069909Y-91509520D01*
X93151869Y-91161049D01*
X93154992Y-91150070D01*
X93268763Y-90810623D01*
X93272886Y-90799984D01*
X93417486Y-90472494D01*
X93422569Y-90462285D01*
X93596767Y-90149540D01*
X93602793Y-90139808D01*
X93662998Y-90051920D01*
X93805103Y-89844472D01*
X93811986Y-89835359D01*
X94040681Y-89559951D01*
X94048375Y-89551511D01*
X94301511Y-89298375D01*
X94309951Y-89290681D01*
X94585359Y-89061986D01*
X94594472Y-89055103D01*
X94889813Y-88852789D01*
X94899540Y-88846767D01*
X95212285Y-88672569D01*
X95222494Y-88667486D01*
X95549984Y-88522886D01*
X95560623Y-88518763D01*
X95900070Y-88404992D01*
X95911049Y-88401869D01*
X96259520Y-88319909D01*
X96270757Y-88317808D01*
X96625301Y-88268352D01*
X96636686Y-88267296D01*
X96997145Y-88250632D01*
X97002872Y-88250500D01*
X97065892Y-88250500D01*
X158934108Y-88250500D01*
X158997128Y-88250500D01*
X159002855Y-88250632D01*
G37*
%TD.AperFunction*%
%TD*%
M02*
