%TF.GenerationSoftware,KiCad,Pcbnew,10.0.0*%
%TF.CreationDate,2026-06-01T14:27:01-04:00*%
%TF.ProjectId,WLED Controller,574c4544-2043-46f6-9e74-726f6c6c6572,rev?*%
%TF.SameCoordinates,Original*%
%TF.FileFunction,Soldermask,Bot*%
%TF.FilePolarity,Negative*%
%FSLAX46Y46*%
G04 Gerber Fmt 4.6, Leading zero omitted, Abs format (unit mm)*
G04 Created by KiCad (PCBNEW 10.0.0) date 2026-06-01 14:27:01*
%MOMM*%
%LPD*%
G01*
G04 APERTURE LIST*
G04 Aperture macros list*
%AMRoundRect*
0 Rectangle with rounded corners*
0 $1 Rounding radius*
0 $2 $3 $4 $5 $6 $7 $8 $9 X,Y pos of 4 corners*
0 Add a 4 corners polygon primitive as box body*
4,1,4,$2,$3,$4,$5,$6,$7,$8,$9,$2,$3,0*
0 Add four circle primitives for the rounded corners*
1,1,$1+$1,$2,$3*
1,1,$1+$1,$4,$5*
1,1,$1+$1,$6,$7*
1,1,$1+$1,$8,$9*
0 Add four rect primitives between the rounded corners*
20,1,$1+$1,$2,$3,$4,$5,0*
20,1,$1+$1,$4,$5,$6,$7,0*
20,1,$1+$1,$6,$7,$8,$9,0*
20,1,$1+$1,$8,$9,$2,$3,0*%
G04 Aperture macros list end*
%ADD10C,0.800000*%
%ADD11C,6.400000*%
%ADD12RoundRect,0.250000X1.050000X1.050000X-1.050000X1.050000X-1.050000X-1.050000X1.050000X-1.050000X0*%
%ADD13C,2.600000*%
%ADD14R,1.700000X1.700000*%
%ADD15C,1.700000*%
%ADD16RoundRect,1.500000X-1.500000X1.500000X-1.500000X-1.500000X1.500000X-1.500000X1.500000X1.500000X0*%
%ADD17C,6.000000*%
%ADD18C,0.600000*%
%ADD19C,0.650000*%
%ADD20O,2.100000X1.000000*%
%ADD21O,1.800000X1.000000*%
G04 APERTURE END LIST*
D10*
%TO.C,H4*%
X156600000Y-134750000D03*
X157302944Y-133052944D03*
X157302944Y-136447056D03*
X159000000Y-132350000D03*
D11*
X159000000Y-134750000D03*
D10*
X159000000Y-137150000D03*
X160697056Y-133052944D03*
X160697056Y-136447056D03*
X161400000Y-134750000D03*
%TD*%
D12*
%TO.C,J4*%
X117600000Y-95400000D03*
D13*
X112600000Y-95400000D03*
X107600000Y-95400000D03*
%TD*%
D14*
%TO.C,UART*%
X136120000Y-110600000D03*
D15*
X138660000Y-110600000D03*
X141200000Y-110600000D03*
X143740000Y-110600000D03*
%TD*%
D10*
%TO.C,H3*%
X94600000Y-134750000D03*
X95302944Y-133052944D03*
X95302944Y-136447056D03*
X97000000Y-132350000D03*
D11*
X97000000Y-134750000D03*
D10*
X97000000Y-137150000D03*
X98697056Y-133052944D03*
X98697056Y-136447056D03*
X99400000Y-134750000D03*
%TD*%
D16*
%TO.C,BAT1*%
X97400000Y-103400000D03*
D17*
X97400000Y-110600000D03*
%TD*%
D18*
%TO.C,U2*%
X142400000Y-124300000D03*
X142400000Y-122900000D03*
X141700000Y-125000000D03*
X141700000Y-123600000D03*
X141700000Y-122200000D03*
X141000000Y-124300000D03*
X141000000Y-122900000D03*
X140300000Y-125000000D03*
X140300000Y-123600000D03*
X140300000Y-122200000D03*
X139600000Y-124300000D03*
X139600000Y-122900000D03*
%TD*%
D12*
%TO.C,J2*%
X133800000Y-95400000D03*
D13*
X128800000Y-95400000D03*
X123800000Y-95400000D03*
%TD*%
D10*
%TO.C,H2*%
X156600000Y-92250000D03*
X157302944Y-90552944D03*
X157302944Y-93947056D03*
X159000000Y-89850000D03*
D11*
X159000000Y-92250000D03*
D10*
X159000000Y-94650000D03*
X160697056Y-90552944D03*
X160697056Y-93947056D03*
X161400000Y-92250000D03*
%TD*%
%TO.C,H1*%
X94600000Y-92250000D03*
X95302944Y-90552944D03*
X95302944Y-93947056D03*
X97000000Y-89850000D03*
D11*
X97000000Y-92250000D03*
D10*
X97000000Y-94650000D03*
X98697056Y-90552944D03*
X98697056Y-93947056D03*
X99400000Y-92250000D03*
%TD*%
D19*
%TO.C,J3*%
X98800000Y-120713795D03*
X98800000Y-126493795D03*
D20*
X99300000Y-119283795D03*
D21*
X95120000Y-119283795D03*
D20*
X99300000Y-127923795D03*
D21*
X95120000Y-127923795D03*
%TD*%
M02*
