%TF.GenerationSoftware,KiCad,Pcbnew,10.0.0*%
%TF.CreationDate,2026-04-11T13:38:20-04:00*%
%TF.ProjectId,WLED Controller,574c4544-2043-46f6-9e74-726f6c6c6572,rev?*%
%TF.SameCoordinates,Original*%
%TF.FileFunction,Copper,L2,Inr*%
%TF.FilePolarity,Positive*%
%FSLAX46Y46*%
G04 Gerber Fmt 4.6, Leading zero omitted, Abs format (unit mm)*
G04 Created by KiCad (PCBNEW 10.0.0) date 2026-04-11 13:38:20*
%MOMM*%
%LPD*%
G01*
G04 APERTURE LIST*
G04 Aperture macros list*
%AMRoundRect*
0 Rectangle with rounded corners*
0 $1 Rounding radius*
0 $2 $3 $4 $5 $6 $7 $8 $9 X,Y pos of 4 corners*
0 Add a 4 corners polygon primitive as box body*
4,1,4,$2,$3,$4,$5,$6,$7,$8,$9,$2,$3,0*
0 Add four circle primitives for the rounded corners*
1,1,$1+$1,$2,$3*
1,1,$1+$1,$4,$5*
1,1,$1+$1,$6,$7*
1,1,$1+$1,$8,$9*
0 Add four rect primitives between the rounded corners*
20,1,$1+$1,$2,$3,$4,$5,0*
20,1,$1+$1,$4,$5,$6,$7,0*
20,1,$1+$1,$6,$7,$8,$9,0*
20,1,$1+$1,$8,$9,$2,$3,0*%
G04 Aperture macros list end*
%TA.AperFunction,ComponentPad*%
%ADD10RoundRect,0.250000X1.050000X1.050000X-1.050000X1.050000X-1.050000X-1.050000X1.050000X-1.050000X0*%
%TD*%
%TA.AperFunction,ComponentPad*%
%ADD11C,2.600000*%
%TD*%
%TA.AperFunction,ComponentPad*%
%ADD12RoundRect,1.500000X-1.500000X-1.500000X1.500000X-1.500000X1.500000X1.500000X-1.500000X1.500000X0*%
%TD*%
%TA.AperFunction,ComponentPad*%
%ADD13C,6.000000*%
%TD*%
%TA.AperFunction,ComponentPad*%
%ADD14C,0.800000*%
%TD*%
%TA.AperFunction,ComponentPad*%
%ADD15C,6.400000*%
%TD*%
%TA.AperFunction,HeatsinkPad*%
%ADD16O,2.100000X1.000000*%
%TD*%
%TA.AperFunction,HeatsinkPad*%
%ADD17O,1.800000X1.000000*%
%TD*%
%TA.AperFunction,ComponentPad*%
%ADD18R,1.700000X1.700000*%
%TD*%
%TA.AperFunction,ComponentPad*%
%ADD19C,1.700000*%
%TD*%
%TA.AperFunction,HeatsinkPad*%
%ADD20C,0.600000*%
%TD*%
%TA.AperFunction,ViaPad*%
%ADD21C,0.600000*%
%TD*%
G04 APERTURE END LIST*
D10*
%TO.N,+5V*%
%TO.C,J1*%
X199250000Y-97250000D03*
D11*
%TO.N,DATA-5V-1*%
X194250000Y-97250000D03*
%TO.N,GND*%
X189250000Y-97250000D03*
%TD*%
D12*
%TO.N,GND*%
%TO.C,XT60*%
X172400000Y-96750000D03*
D13*
%TO.N,VCC*%
X179600000Y-96750000D03*
%TD*%
D10*
%TO.N,GND*%
%TO.C,J2*%
X215750000Y-97250000D03*
D11*
%TO.N,DATA-5V-2*%
X210750000Y-97250000D03*
%TO.N,+5V*%
X205750000Y-97250000D03*
%TD*%
D14*
%TO.N,GND*%
%TO.C,H1*%
X158600000Y-96500000D03*
X159302944Y-94802944D03*
X159302944Y-98197056D03*
X161000000Y-94100000D03*
D15*
X161000000Y-96500000D03*
D14*
X161000000Y-98900000D03*
X162697056Y-94802944D03*
X162697056Y-98197056D03*
X163400000Y-96500000D03*
%TD*%
%TO.N,GND*%
%TO.C,H4*%
X220600002Y-136000002D03*
X221302946Y-134302946D03*
X221302946Y-137697058D03*
X223000002Y-133600002D03*
D15*
X223000002Y-136000002D03*
D14*
X223000002Y-138400002D03*
X224697058Y-134302946D03*
X224697058Y-137697058D03*
X225400002Y-136000002D03*
%TD*%
D16*
%TO.N,GND*%
%TO.C,J3*%
X163603267Y-121431267D03*
D17*
X159423267Y-121431267D03*
D16*
X163603267Y-130071267D03*
D17*
X159423267Y-130071267D03*
%TD*%
D18*
%TO.N,+3.3V*%
%TO.C,UART*%
X192130000Y-111500000D03*
D19*
%TO.N,ESP32-RX*%
X194670000Y-111500000D03*
%TO.N,ESP32-TX*%
X197210000Y-111500000D03*
%TO.N,GND*%
X199750000Y-111500000D03*
%TD*%
D14*
%TO.N,GND*%
%TO.C,H3*%
X220600002Y-96499998D03*
X221302946Y-94802942D03*
X221302946Y-98197054D03*
X223000002Y-94099998D03*
D15*
X223000002Y-96499998D03*
D14*
X223000002Y-98899998D03*
X224697058Y-94802942D03*
X224697058Y-98197054D03*
X225400002Y-96499998D03*
%TD*%
D20*
%TO.N,GND*%
%TO.C,U2*%
X198900000Y-125100000D03*
X198900000Y-123700000D03*
X198200000Y-125800000D03*
X198200000Y-124400000D03*
X198200000Y-123000000D03*
X197500000Y-125100000D03*
X197500000Y-123700000D03*
X196800000Y-125800000D03*
X196800000Y-124400000D03*
X196800000Y-123000000D03*
X196100000Y-125100000D03*
X196100000Y-123700000D03*
%TD*%
D14*
%TO.N,GND*%
%TO.C,H2*%
X158599998Y-136052944D03*
X159302942Y-134355888D03*
X159302942Y-137750000D03*
X160999998Y-133652944D03*
D15*
X160999998Y-136052944D03*
D14*
X160999998Y-138452944D03*
X162697054Y-134355888D03*
X162697054Y-137750000D03*
X163399998Y-136052944D03*
%TD*%
D21*
%TO.N,+3.3V*%
X207500000Y-115100000D03*
X215600000Y-111600000D03*
%TO.N,DR+*%
X172900000Y-126900000D03*
%TO.N,DR-*%
X172099997Y-126900000D03*
%TO.N,DR+*%
X173700000Y-125925003D03*
%TO.N,DR-*%
X173700000Y-125125000D03*
%TO.N,GND*%
X169400000Y-129100000D03*
%TO.N,Net-(J3-CC2)*%
X165750000Y-127500000D03*
%TO.N,Net-(J3-CC1)*%
X165500000Y-124000000D03*
%TO.N,Net-(J3-CC2)*%
X163000000Y-131750000D03*
%TO.N,Net-(J3-CC1)*%
X163000000Y-119750000D03*
%TO.N,+3.3V*%
X169500000Y-128050003D03*
%TO.N,+5V*%
X163750000Y-116000000D03*
X162750000Y-110000000D03*
X161750000Y-109000000D03*
X162750000Y-113000000D03*
X165750000Y-101000000D03*
X163750000Y-109000000D03*
X162750000Y-102000000D03*
X164750000Y-108000000D03*
X163750000Y-117000000D03*
X164750000Y-103000000D03*
X165750000Y-109000000D03*
X161750000Y-105000000D03*
X161750000Y-113000000D03*
X175250000Y-106000000D03*
X163750000Y-102000000D03*
X163750000Y-110000000D03*
X164750000Y-110000000D03*
X161750000Y-114000000D03*
X163750000Y-113000000D03*
X166500000Y-100000000D03*
X161750000Y-107000000D03*
X161750000Y-117000000D03*
X161750000Y-103000000D03*
X164750000Y-100000000D03*
X164750000Y-111500000D03*
X165750000Y-100000000D03*
X161750000Y-116000000D03*
X166500000Y-102000000D03*
X163750000Y-110750000D03*
X166500000Y-103000000D03*
X163750000Y-100000000D03*
X161750000Y-102000000D03*
X161750000Y-115000000D03*
X165750000Y-102000000D03*
X210900000Y-117200000D03*
X161750000Y-108000000D03*
X162750000Y-101000000D03*
X165750000Y-112250000D03*
X162750000Y-103000000D03*
X163750000Y-103000000D03*
X162750000Y-117000000D03*
X163750000Y-108000000D03*
X163750000Y-101000000D03*
X165750000Y-111500000D03*
X164750000Y-110750000D03*
X163750000Y-112000000D03*
X162750000Y-116000000D03*
X161750000Y-112000000D03*
X162750000Y-100000000D03*
X162750000Y-109000000D03*
X162750000Y-107000000D03*
X165750000Y-110000000D03*
X161750000Y-106000000D03*
X164750000Y-101000000D03*
X165750000Y-110750000D03*
X162750000Y-108000000D03*
X165750000Y-113000000D03*
X166500000Y-101000000D03*
X162750000Y-112000000D03*
X164750000Y-102000000D03*
X164750000Y-109000000D03*
X165750000Y-103000000D03*
X165750000Y-108000000D03*
X162750000Y-110750000D03*
X161750000Y-104000000D03*
%TO.N,GND*%
X211750000Y-136500000D03*
X168750000Y-136750000D03*
X180250000Y-113000000D03*
X167000000Y-120250000D03*
X182000000Y-136750000D03*
X216500000Y-136500000D03*
X173750000Y-111000000D03*
X167000000Y-122750000D03*
X165500000Y-98500000D03*
X206500000Y-138500000D03*
X177750000Y-111750000D03*
X180250000Y-136750000D03*
X214750000Y-134500000D03*
X178750000Y-136750000D03*
X216500000Y-138500000D03*
X168750000Y-138500000D03*
X183750000Y-134750000D03*
X175250000Y-111000000D03*
X180250000Y-134750000D03*
X173750000Y-136750000D03*
X210000000Y-136500000D03*
X210000000Y-138500000D03*
X168500000Y-117750000D03*
X178750000Y-138500000D03*
X172000000Y-138500000D03*
X165500000Y-136750000D03*
X206500000Y-136500000D03*
X208250000Y-136500000D03*
X167000000Y-117750000D03*
X176000000Y-112500000D03*
X213250000Y-134500000D03*
X175500000Y-138500000D03*
X180250000Y-138500000D03*
X170250000Y-136750000D03*
X168500000Y-122750000D03*
X218250000Y-134500000D03*
X168500000Y-121500000D03*
X182000000Y-134750000D03*
X165500000Y-138500000D03*
X183750000Y-136750000D03*
X211750000Y-134500000D03*
X167000000Y-121500000D03*
X167000000Y-119000000D03*
X216500000Y-134500000D03*
X213250000Y-138500000D03*
X177250000Y-138500000D03*
X183849000Y-107849000D03*
X218250000Y-136500000D03*
X167250000Y-138500000D03*
X208250000Y-138500000D03*
X210000000Y-134500000D03*
X173750000Y-138500000D03*
X167000000Y-127250000D03*
X183750000Y-138500000D03*
X165500000Y-94750000D03*
X214750000Y-138500000D03*
X218250000Y-138500000D03*
X165500000Y-93500000D03*
X214750000Y-136500000D03*
X167250000Y-136750000D03*
X165500000Y-96000000D03*
X175500000Y-107250000D03*
X182000000Y-138500000D03*
X213250000Y-136500000D03*
X172000000Y-136750000D03*
X168500000Y-120250000D03*
X165500000Y-97250000D03*
X170250000Y-138500000D03*
X211750000Y-138500000D03*
X168500000Y-119000000D03*
%TO.N,+3.3V*%
X174750000Y-118000000D03*
X169750000Y-120750000D03*
X175750000Y-119000000D03*
X170750000Y-119000000D03*
X172000000Y-120000000D03*
X169750000Y-120000000D03*
X184750000Y-122500000D03*
X175750000Y-118000000D03*
X169750000Y-118000000D03*
X167000000Y-133250000D03*
X170750000Y-118000000D03*
X186500000Y-113000000D03*
X172750000Y-118000000D03*
X174750000Y-120000000D03*
X169750000Y-119000000D03*
X217500000Y-130900000D03*
X173750000Y-119000000D03*
X174750000Y-119000000D03*
X170750000Y-120000000D03*
X175750000Y-120750000D03*
X207600000Y-117200000D03*
X203000000Y-130750000D03*
X175750000Y-120000000D03*
X171750000Y-119000000D03*
X183800000Y-109300000D03*
X182500000Y-116250000D03*
X171750000Y-118000000D03*
X169750000Y-121750000D03*
X212500000Y-121750000D03*
X173750000Y-120000000D03*
X179000000Y-122500000D03*
X173750000Y-118000000D03*
X175750000Y-121750000D03*
X188400000Y-109900000D03*
%TO.N,INA236-ALERT*%
X204750000Y-113250000D03*
X186500000Y-105000000D03*
%TO.N,IMU-MISO*%
X179250000Y-119500000D03*
X189000000Y-123250000D03*
%TO.N,IMU-INT1*%
X190500000Y-118250000D03*
X179250000Y-121000000D03*
%TO.N,IMU-CS*%
X184750000Y-121250000D03*
X183000000Y-118000000D03*
%TO.N,IMU-SCLK*%
X189000000Y-122000000D03*
X181750000Y-117250000D03*
%TO.N,IMU-MOSI*%
X180000000Y-118000000D03*
X185750000Y-130750000D03*
%TO.N,I2C-SCL*%
X186500000Y-110000000D03*
X180650000Y-111550000D03*
X190200000Y-129600000D03*
%TO.N,Net-(Q2-B)*%
X175200000Y-135800000D03*
X178900000Y-128700000D03*
%TO.N,BOOT*%
X193500000Y-121250000D03*
X189500000Y-126600000D03*
X209750000Y-125750000D03*
X185800000Y-125800000D03*
%TO.N,I2C-SDA*%
X184000000Y-112000000D03*
X192400000Y-124750000D03*
X186500000Y-107000000D03*
%TO.N,EN*%
X179000000Y-133600000D03*
X192400000Y-129600000D03*
%TO.N,BUZZER+*%
X212000000Y-110200000D03*
X222900000Y-110000000D03*
%TO.N,Net-(Q1-B)*%
X177200000Y-132300000D03*
X175200000Y-126400000D03*
%TO.N,BUZZER-PWM*%
X211800000Y-111400000D03*
X203000000Y-120750000D03*
%TO.N,TMP117-ALERT*%
X183500000Y-111000000D03*
X193500000Y-116000000D03*
X188250000Y-111500000D03*
X180600000Y-113900000D03*
%TO.N,ESP32-RX*%
X194750000Y-117000000D03*
%TO.N,ESP32-TX*%
X196000000Y-117000000D03*
%TD*%
%TA.AperFunction,Conductor*%
%TO.N,GND*%
G36*
X222998497Y-92500531D02*
G01*
X223001467Y-92500600D01*
X223004222Y-92500695D01*
X223360468Y-92517164D01*
X223366135Y-92517557D01*
X223371886Y-92518091D01*
X223377484Y-92518740D01*
X223726438Y-92567417D01*
X223732008Y-92568325D01*
X223737717Y-92569393D01*
X223743233Y-92570557D01*
X224086165Y-92651213D01*
X224091685Y-92652647D01*
X224096688Y-92654070D01*
X224097182Y-92654211D01*
X224102646Y-92655903D01*
X224436653Y-92767851D01*
X224442025Y-92769790D01*
X224447362Y-92771858D01*
X224452627Y-92774039D01*
X224774885Y-92916329D01*
X224780070Y-92918764D01*
X224785161Y-92921299D01*
X224790229Y-92923970D01*
X225030656Y-93057887D01*
X225097995Y-93095395D01*
X225102864Y-93098257D01*
X225107742Y-93101277D01*
X225107765Y-93101291D01*
X225112548Y-93104408D01*
X225268049Y-93210928D01*
X225403163Y-93303483D01*
X225407812Y-93306829D01*
X225412377Y-93310277D01*
X225416858Y-93313827D01*
X225687818Y-93538829D01*
X225692139Y-93542589D01*
X225696393Y-93546467D01*
X225700536Y-93550423D01*
X225949575Y-93799462D01*
X225953531Y-93803605D01*
X225957409Y-93807859D01*
X225961169Y-93812180D01*
X226186171Y-94083140D01*
X226189721Y-94087621D01*
X226193169Y-94092186D01*
X226196522Y-94096845D01*
X226395590Y-94387450D01*
X226398707Y-94392233D01*
X226401733Y-94397120D01*
X226404618Y-94402029D01*
X226482504Y-94541861D01*
X226576021Y-94709756D01*
X226578692Y-94714822D01*
X226581230Y-94719920D01*
X226581249Y-94719957D01*
X226583683Y-94725144D01*
X226725941Y-95047328D01*
X226728133Y-95052617D01*
X226730210Y-95057978D01*
X226732156Y-95063369D01*
X226844092Y-95397340D01*
X226845788Y-95402818D01*
X226847352Y-95408316D01*
X226848790Y-95413854D01*
X226929430Y-95756717D01*
X226930613Y-95762323D01*
X226931665Y-95767951D01*
X226932587Y-95773604D01*
X226981249Y-96122451D01*
X226981907Y-96128123D01*
X226982436Y-96133823D01*
X226982835Y-96139555D01*
X226999302Y-96495727D01*
X226999400Y-96498573D01*
X226999467Y-96501461D01*
X226999500Y-96504296D01*
X226999500Y-135995702D01*
X226999467Y-135998581D01*
X226999401Y-136001423D01*
X226999302Y-136004271D01*
X226982835Y-136360443D01*
X226982436Y-136366175D01*
X226981907Y-136371875D01*
X226981249Y-136377547D01*
X226932587Y-136726394D01*
X226931665Y-136732047D01*
X226930613Y-136737675D01*
X226929430Y-136743281D01*
X226848790Y-137086144D01*
X226847352Y-137091682D01*
X226845788Y-137097180D01*
X226844092Y-137102658D01*
X226732156Y-137436629D01*
X226730210Y-137442020D01*
X226728133Y-137447381D01*
X226725941Y-137452670D01*
X226583683Y-137774854D01*
X226581249Y-137780041D01*
X226578692Y-137785176D01*
X226576021Y-137790242D01*
X226404628Y-138097952D01*
X226401716Y-138102907D01*
X226398707Y-138107765D01*
X226395590Y-138112548D01*
X226196522Y-138403153D01*
X226193169Y-138407812D01*
X226189721Y-138412377D01*
X226186171Y-138416858D01*
X225961169Y-138687818D01*
X225957409Y-138692139D01*
X225953531Y-138696393D01*
X225949575Y-138700536D01*
X225700536Y-138949575D01*
X225696393Y-138953531D01*
X225692139Y-138957409D01*
X225687818Y-138961169D01*
X225416858Y-139186171D01*
X225412377Y-139189721D01*
X225407812Y-139193169D01*
X225403153Y-139196522D01*
X225112548Y-139395590D01*
X225107765Y-139398707D01*
X225104103Y-139400974D01*
X225102896Y-139401722D01*
X225097952Y-139404628D01*
X224790242Y-139576021D01*
X224785176Y-139578692D01*
X224780041Y-139581249D01*
X224774854Y-139583683D01*
X224452670Y-139725941D01*
X224447381Y-139728133D01*
X224442020Y-139730210D01*
X224436629Y-139732156D01*
X224102658Y-139844092D01*
X224097180Y-139845788D01*
X224091682Y-139847352D01*
X224086144Y-139848790D01*
X223743281Y-139929430D01*
X223737675Y-139930613D01*
X223732047Y-139931665D01*
X223726394Y-139932587D01*
X223377547Y-139981249D01*
X223371873Y-139981908D01*
X223366172Y-139982437D01*
X223360441Y-139982835D01*
X223035392Y-139997861D01*
X223035393Y-139997862D01*
X223004232Y-139999303D01*
X223001431Y-139999400D01*
X222998678Y-139999465D01*
X222995751Y-139999500D01*
X222935293Y-139999500D01*
X222915431Y-139997899D01*
X222908413Y-139996760D01*
X222896460Y-139999587D01*
X205874106Y-140014123D01*
X205807050Y-139994496D01*
X205761250Y-139941731D01*
X205750000Y-139890123D01*
X205750000Y-132750000D01*
X186250000Y-132750000D01*
X186250000Y-139906984D01*
X186230315Y-139974023D01*
X186177511Y-140019778D01*
X186126106Y-140030984D01*
X160998734Y-140052441D01*
X160995805Y-140052409D01*
X160992863Y-140052342D01*
X160989916Y-140052240D01*
X160636839Y-140035794D01*
X160631075Y-140035390D01*
X160625327Y-140034853D01*
X160619602Y-140034184D01*
X160268181Y-139984791D01*
X160262489Y-139983855D01*
X160256808Y-139982785D01*
X160251161Y-139981585D01*
X159905851Y-139899739D01*
X159900273Y-139898279D01*
X159894731Y-139896690D01*
X159889216Y-139894969D01*
X159552988Y-139781371D01*
X159547558Y-139779394D01*
X159542203Y-139777302D01*
X159536885Y-139775081D01*
X159212678Y-139630723D01*
X159207469Y-139628257D01*
X159202295Y-139625658D01*
X159197211Y-139622954D01*
X158887833Y-139449087D01*
X158882867Y-139446142D01*
X158877977Y-139443086D01*
X158873157Y-139439916D01*
X158581264Y-139238031D01*
X158576584Y-139234629D01*
X158572019Y-139231146D01*
X158567524Y-139227549D01*
X158295660Y-138999404D01*
X158291330Y-138995595D01*
X158287100Y-138991696D01*
X158282946Y-138987684D01*
X158033486Y-138735274D01*
X158029537Y-138731089D01*
X158025659Y-138726782D01*
X158021901Y-138722407D01*
X157995377Y-138690035D01*
X157796956Y-138447866D01*
X157793404Y-138443317D01*
X157789978Y-138438713D01*
X157786651Y-138434019D01*
X157588214Y-138139777D01*
X157585106Y-138134929D01*
X157582113Y-138130013D01*
X157579221Y-138125003D01*
X157571123Y-138110189D01*
X157571123Y-138110190D01*
X157408988Y-137813578D01*
X157406337Y-137808445D01*
X157403819Y-137803280D01*
X157401416Y-137798046D01*
X157393651Y-137780041D01*
X157260882Y-137472171D01*
X157258725Y-137466833D01*
X157256681Y-137461414D01*
X157254776Y-137455982D01*
X157145125Y-137118405D01*
X157143492Y-137112946D01*
X157141948Y-137107312D01*
X157140564Y-137101756D01*
X157140158Y-137099947D01*
X157138938Y-137094515D01*
X157062778Y-136755487D01*
X157061647Y-136749839D01*
X157060645Y-136744155D01*
X157059780Y-136738482D01*
X157014511Y-136386425D01*
X157013918Y-136380787D01*
X157013440Y-136374922D01*
X157013111Y-136369255D01*
X157007238Y-136200499D01*
X157000608Y-136009994D01*
X157000558Y-136008120D01*
X157000518Y-136005783D01*
X157000503Y-136003060D01*
X157000509Y-136002141D01*
X157001251Y-135939029D01*
X157000719Y-135930093D01*
X157000500Y-135922725D01*
X157000500Y-135734108D01*
X174699500Y-135734108D01*
X174699500Y-135865891D01*
X174714728Y-135922725D01*
X174733608Y-135993188D01*
X174738898Y-136002350D01*
X174742762Y-136009042D01*
X174799500Y-136107314D01*
X174892686Y-136200500D01*
X175006814Y-136266392D01*
X175134108Y-136300500D01*
X175134110Y-136300500D01*
X175265890Y-136300500D01*
X175265892Y-136300500D01*
X175393186Y-136266392D01*
X175507314Y-136200500D01*
X175600500Y-136107314D01*
X175666392Y-135993186D01*
X175700500Y-135865892D01*
X175700500Y-135734108D01*
X175666392Y-135606814D01*
X175666387Y-135606806D01*
X175657563Y-135591521D01*
X175600500Y-135492686D01*
X175507314Y-135399500D01*
X175450250Y-135366554D01*
X175393187Y-135333608D01*
X175329539Y-135316554D01*
X175265892Y-135299500D01*
X175265891Y-135299500D01*
X175134108Y-135299500D01*
X175006808Y-135333609D01*
X175006806Y-135333610D01*
X174892696Y-135399493D01*
X174892682Y-135399502D01*
X174892677Y-135399506D01*
X174799506Y-135492677D01*
X174799502Y-135492682D01*
X174799493Y-135492696D01*
X174733610Y-135606806D01*
X174733609Y-135606808D01*
X174733608Y-135606812D01*
X174699500Y-135734108D01*
X157000500Y-135734108D01*
X157000500Y-133184108D01*
X166499500Y-133184108D01*
X166499500Y-133315892D01*
X166533607Y-133443187D01*
X166541768Y-133457322D01*
X166541772Y-133457327D01*
X166599500Y-133557314D01*
X166692686Y-133650500D01*
X166806814Y-133716392D01*
X166934108Y-133750500D01*
X166934110Y-133750500D01*
X167065890Y-133750500D01*
X167065892Y-133750500D01*
X167193186Y-133716392D01*
X167307314Y-133650500D01*
X167400500Y-133557314D01*
X167413898Y-133534108D01*
X178499500Y-133534108D01*
X178499500Y-133665891D01*
X178513031Y-133716391D01*
X178533608Y-133793188D01*
X178566554Y-133850250D01*
X178599500Y-133907314D01*
X178692686Y-134000500D01*
X178806814Y-134066392D01*
X178934108Y-134100500D01*
X178934110Y-134100500D01*
X179065890Y-134100500D01*
X179065892Y-134100500D01*
X179193186Y-134066392D01*
X179307314Y-134000500D01*
X179400500Y-133907314D01*
X179466392Y-133793186D01*
X179500500Y-133665892D01*
X179500500Y-133534108D01*
X179466392Y-133406814D01*
X179466387Y-133406806D01*
X179457563Y-133391521D01*
X179400500Y-133292686D01*
X179307314Y-133199500D01*
X179250250Y-133166554D01*
X179193187Y-133133608D01*
X179129539Y-133116554D01*
X179065892Y-133099500D01*
X179065891Y-133099500D01*
X178934108Y-133099500D01*
X178806808Y-133133609D01*
X178806806Y-133133610D01*
X178692696Y-133199493D01*
X178692682Y-133199502D01*
X178692677Y-133199506D01*
X178599506Y-133292677D01*
X178599502Y-133292682D01*
X178599493Y-133292696D01*
X178533610Y-133406806D01*
X178533609Y-133406808D01*
X178518290Y-133463980D01*
X178499500Y-133534108D01*
X167413898Y-133534108D01*
X167466392Y-133443186D01*
X167500500Y-133315892D01*
X167500500Y-133184108D01*
X167466392Y-133056814D01*
X167466387Y-133056806D01*
X167457563Y-133041521D01*
X167400500Y-132942686D01*
X167307314Y-132849500D01*
X167222442Y-132800499D01*
X167193187Y-132783608D01*
X167128931Y-132766391D01*
X167128930Y-132766390D01*
X167082782Y-132754025D01*
X167065892Y-132749500D01*
X167065891Y-132749500D01*
X166934108Y-132749500D01*
X166806808Y-132783609D01*
X166806806Y-132783610D01*
X166692696Y-132849493D01*
X166692682Y-132849502D01*
X166692677Y-132849506D01*
X166599506Y-132942677D01*
X166599502Y-132942682D01*
X166599493Y-132942696D01*
X166533610Y-133056806D01*
X166533609Y-133056808D01*
X166499500Y-133184108D01*
X157000500Y-133184108D01*
X157000500Y-131684108D01*
X162499500Y-131684108D01*
X162499500Y-131815891D01*
X162504248Y-131833610D01*
X162533608Y-131943188D01*
X162562182Y-131992677D01*
X162562185Y-131992683D01*
X162599500Y-132057314D01*
X162692686Y-132150500D01*
X162806814Y-132216392D01*
X162934108Y-132250500D01*
X162934110Y-132250500D01*
X163065890Y-132250500D01*
X163065892Y-132250500D01*
X163127068Y-132234108D01*
X176699500Y-132234108D01*
X176699500Y-132365891D01*
X176716554Y-132429539D01*
X176733608Y-132493188D01*
X176766554Y-132550250D01*
X176799500Y-132607314D01*
X176892686Y-132700500D01*
X176991521Y-132757563D01*
X177006810Y-132766390D01*
X177006814Y-132766392D01*
X177134108Y-132800500D01*
X177134110Y-132800500D01*
X177265890Y-132800500D01*
X177265892Y-132800500D01*
X177393186Y-132766392D01*
X177507314Y-132700500D01*
X177600500Y-132607314D01*
X177666392Y-132493186D01*
X177700500Y-132365892D01*
X177700500Y-132234108D01*
X177666392Y-132106814D01*
X177666387Y-132106806D01*
X177637813Y-132057314D01*
X177600500Y-131992686D01*
X177507314Y-131899500D01*
X177450250Y-131866554D01*
X177393187Y-131833608D01*
X177327061Y-131815890D01*
X177265892Y-131799500D01*
X177265891Y-131799500D01*
X177134108Y-131799500D01*
X177006808Y-131833609D01*
X177006806Y-131833610D01*
X176892696Y-131899493D01*
X176892682Y-131899502D01*
X176892677Y-131899506D01*
X176799506Y-131992677D01*
X176799502Y-131992682D01*
X176799493Y-131992696D01*
X176733610Y-132106806D01*
X176733609Y-132106808D01*
X176733608Y-132106812D01*
X176699500Y-132234108D01*
X163127068Y-132234108D01*
X163193186Y-132216392D01*
X163307314Y-132150500D01*
X163400500Y-132057314D01*
X163466392Y-131943186D01*
X163500500Y-131815892D01*
X163500500Y-131684108D01*
X163466392Y-131556814D01*
X163466387Y-131556806D01*
X163457563Y-131541521D01*
X163400500Y-131442686D01*
X163307314Y-131349500D01*
X163222439Y-131300497D01*
X163193187Y-131283608D01*
X163129539Y-131266554D01*
X163065892Y-131249500D01*
X163065891Y-131249500D01*
X162934108Y-131249500D01*
X162806808Y-131283609D01*
X162806806Y-131283610D01*
X162692696Y-131349493D01*
X162692682Y-131349502D01*
X162692677Y-131349506D01*
X162599506Y-131442677D01*
X162599502Y-131442682D01*
X162599493Y-131442696D01*
X162533610Y-131556806D01*
X162533609Y-131556808D01*
X162533608Y-131556812D01*
X162499500Y-131684108D01*
X157000500Y-131684108D01*
X157000500Y-130684108D01*
X185249500Y-130684108D01*
X185249500Y-130815892D01*
X185250651Y-130820188D01*
X185250651Y-130820189D01*
X185266554Y-130879539D01*
X185283608Y-130943187D01*
X185296717Y-130965892D01*
X185349497Y-131057310D01*
X185349499Y-131057312D01*
X185349500Y-131057314D01*
X185442686Y-131150500D01*
X185556814Y-131216392D01*
X185684108Y-131250500D01*
X185684110Y-131250500D01*
X185815890Y-131250500D01*
X185815892Y-131250500D01*
X185943186Y-131216392D01*
X186057314Y-131150500D01*
X186150500Y-131057314D01*
X186216392Y-130943186D01*
X186250500Y-130815892D01*
X186250500Y-130684108D01*
X202499500Y-130684108D01*
X202499500Y-130815892D01*
X202500651Y-130820188D01*
X202500651Y-130820189D01*
X202516554Y-130879539D01*
X202533608Y-130943187D01*
X202546717Y-130965892D01*
X202599497Y-131057310D01*
X202599499Y-131057312D01*
X202599500Y-131057314D01*
X202692686Y-131150500D01*
X202806814Y-131216392D01*
X202934108Y-131250500D01*
X202934110Y-131250500D01*
X203065890Y-131250500D01*
X203065892Y-131250500D01*
X203193186Y-131216392D01*
X203307314Y-131150500D01*
X203400500Y-131057314D01*
X203466392Y-130943186D01*
X203495619Y-130834108D01*
X216999500Y-130834108D01*
X216999500Y-130965891D01*
X217016554Y-131029539D01*
X217033608Y-131093188D01*
X217066554Y-131150250D01*
X217099500Y-131207314D01*
X217192686Y-131300500D01*
X217306814Y-131366392D01*
X217434108Y-131400500D01*
X217434110Y-131400500D01*
X217565890Y-131400500D01*
X217565892Y-131400500D01*
X217693186Y-131366392D01*
X217807314Y-131300500D01*
X217900500Y-131207314D01*
X217966392Y-131093186D01*
X218000500Y-130965892D01*
X218000500Y-130834108D01*
X217966392Y-130706814D01*
X217966387Y-130706806D01*
X217953283Y-130684108D01*
X217900500Y-130592686D01*
X217807314Y-130499500D01*
X217708910Y-130442686D01*
X217693187Y-130433608D01*
X217629539Y-130416554D01*
X217565892Y-130399500D01*
X217565891Y-130399500D01*
X217434108Y-130399500D01*
X217306808Y-130433609D01*
X217306806Y-130433610D01*
X217192696Y-130499493D01*
X217192682Y-130499502D01*
X217192677Y-130499506D01*
X217099506Y-130592677D01*
X217099502Y-130592682D01*
X217099493Y-130592696D01*
X217033610Y-130706806D01*
X217033609Y-130706808D01*
X217033608Y-130706812D01*
X216999500Y-130834108D01*
X203495619Y-130834108D01*
X203500500Y-130815892D01*
X203500500Y-130684108D01*
X203466392Y-130556814D01*
X203400500Y-130442686D01*
X203307314Y-130349500D01*
X203250250Y-130316554D01*
X203193187Y-130283608D01*
X203129539Y-130266554D01*
X203065892Y-130249500D01*
X203065891Y-130249500D01*
X202934108Y-130249500D01*
X202806808Y-130283609D01*
X202806806Y-130283610D01*
X202692696Y-130349493D01*
X202692682Y-130349502D01*
X202692677Y-130349506D01*
X202599506Y-130442677D01*
X202599502Y-130442682D01*
X202599500Y-130442686D01*
X202533607Y-130556810D01*
X202533607Y-130556812D01*
X202526459Y-130583489D01*
X202526458Y-130583497D01*
X202523997Y-130592683D01*
X202499500Y-130684108D01*
X186250500Y-130684108D01*
X186216392Y-130556814D01*
X186150500Y-130442686D01*
X186057314Y-130349500D01*
X186000250Y-130316554D01*
X185943187Y-130283608D01*
X185879539Y-130266554D01*
X185815892Y-130249500D01*
X185815891Y-130249500D01*
X185684108Y-130249500D01*
X185556808Y-130283609D01*
X185556806Y-130283610D01*
X185442696Y-130349493D01*
X185442682Y-130349502D01*
X185442677Y-130349506D01*
X185349506Y-130442677D01*
X185349502Y-130442682D01*
X185349500Y-130442686D01*
X185283607Y-130556810D01*
X185283607Y-130556812D01*
X185276459Y-130583489D01*
X185276458Y-130583497D01*
X185273997Y-130592683D01*
X185249500Y-130684108D01*
X157000500Y-130684108D01*
X157000500Y-129534108D01*
X189699500Y-129534108D01*
X189699500Y-129665891D01*
X189716554Y-129729539D01*
X189733608Y-129793188D01*
X189766554Y-129850250D01*
X189799500Y-129907314D01*
X189892686Y-130000500D01*
X190006814Y-130066392D01*
X190134108Y-130100500D01*
X190134110Y-130100500D01*
X190265890Y-130100500D01*
X190265892Y-130100500D01*
X190393186Y-130066392D01*
X190507314Y-130000500D01*
X190600500Y-129907314D01*
X190666392Y-129793186D01*
X190700500Y-129665892D01*
X190700500Y-129534108D01*
X191899500Y-129534108D01*
X191899500Y-129665891D01*
X191916554Y-129729539D01*
X191933608Y-129793188D01*
X191966554Y-129850250D01*
X191999500Y-129907314D01*
X192092686Y-130000500D01*
X192206814Y-130066392D01*
X192334108Y-130100500D01*
X192334110Y-130100500D01*
X192465890Y-130100500D01*
X192465892Y-130100500D01*
X192593186Y-130066392D01*
X192707314Y-130000500D01*
X192800500Y-129907314D01*
X192866392Y-129793186D01*
X192900500Y-129665892D01*
X192900500Y-129534108D01*
X192866392Y-129406814D01*
X192866387Y-129406806D01*
X192857563Y-129391521D01*
X192800500Y-129292686D01*
X192707314Y-129199500D01*
X192649968Y-129166391D01*
X192593188Y-129133608D01*
X192529539Y-129116554D01*
X192465892Y-129099500D01*
X192465891Y-129099500D01*
X192334108Y-129099500D01*
X192206808Y-129133609D01*
X192206806Y-129133610D01*
X192092696Y-129199493D01*
X192092682Y-129199502D01*
X192092677Y-129199506D01*
X191999506Y-129292677D01*
X191999502Y-129292682D01*
X191999493Y-129292696D01*
X191933610Y-129406806D01*
X191933609Y-129406808D01*
X191933608Y-129406812D01*
X191899500Y-129534108D01*
X190700500Y-129534108D01*
X190666392Y-129406814D01*
X190666387Y-129406806D01*
X190657563Y-129391521D01*
X190600500Y-129292686D01*
X190507314Y-129199500D01*
X190449968Y-129166391D01*
X190393188Y-129133608D01*
X190329539Y-129116554D01*
X190265892Y-129099500D01*
X190265891Y-129099500D01*
X190134108Y-129099500D01*
X190006808Y-129133609D01*
X190006806Y-129133610D01*
X189892696Y-129199493D01*
X189892682Y-129199502D01*
X189892677Y-129199506D01*
X189799506Y-129292677D01*
X189799502Y-129292682D01*
X189799493Y-129292696D01*
X189733610Y-129406806D01*
X189733609Y-129406808D01*
X189733608Y-129406812D01*
X189699500Y-129534108D01*
X157000500Y-129534108D01*
X157000500Y-128565501D01*
X162527767Y-128565501D01*
X162527767Y-128717032D01*
X162566986Y-128863403D01*
X162584182Y-128893186D01*
X162642752Y-128994632D01*
X162749902Y-129101782D01*
X162881132Y-129177548D01*
X163027501Y-129216767D01*
X163027503Y-129216767D01*
X163179031Y-129216767D01*
X163179033Y-129216767D01*
X163325402Y-129177548D01*
X163456632Y-129101782D01*
X163563782Y-128994632D01*
X163639548Y-128863402D01*
X163678767Y-128717033D01*
X163678767Y-128634108D01*
X178399500Y-128634108D01*
X178399500Y-128765891D01*
X178416554Y-128829539D01*
X178433608Y-128893188D01*
X178466554Y-128950250D01*
X178499500Y-129007314D01*
X178592686Y-129100500D01*
X178706814Y-129166392D01*
X178834108Y-129200500D01*
X178834110Y-129200500D01*
X178965890Y-129200500D01*
X178965892Y-129200500D01*
X179093186Y-129166392D01*
X179207314Y-129100500D01*
X179300500Y-129007314D01*
X179366392Y-128893186D01*
X179400500Y-128765892D01*
X179400500Y-128634108D01*
X179366392Y-128506814D01*
X179366387Y-128506806D01*
X179333881Y-128450504D01*
X179300500Y-128392686D01*
X179207314Y-128299500D01*
X179150250Y-128266554D01*
X179093187Y-128233608D01*
X179029539Y-128216554D01*
X178965892Y-128199500D01*
X178965891Y-128199500D01*
X178834108Y-128199500D01*
X178706808Y-128233609D01*
X178706806Y-128233610D01*
X178592696Y-128299493D01*
X178592682Y-128299502D01*
X178592677Y-128299506D01*
X178499506Y-128392677D01*
X178499502Y-128392682D01*
X178499493Y-128392696D01*
X178433610Y-128506806D01*
X178433609Y-128506808D01*
X178433608Y-128506812D01*
X178399500Y-128634108D01*
X163678767Y-128634108D01*
X163678767Y-128565501D01*
X163639548Y-128419132D01*
X163639543Y-128419124D01*
X163603855Y-128357310D01*
X163563782Y-128287902D01*
X163456632Y-128180752D01*
X163391017Y-128142869D01*
X163325403Y-128104986D01*
X163252217Y-128085376D01*
X163252216Y-128085375D01*
X163179034Y-128065767D01*
X163179033Y-128065767D01*
X163027501Y-128065767D01*
X162881126Y-128104987D01*
X162881124Y-128104988D01*
X162749912Y-128180745D01*
X162749898Y-128180754D01*
X162749893Y-128180758D01*
X162642758Y-128287893D01*
X162642754Y-128287898D01*
X162642753Y-128287900D01*
X162566988Y-128419124D01*
X162566987Y-128419126D01*
X162566986Y-128419130D01*
X162527767Y-128565501D01*
X157000500Y-128565501D01*
X157000500Y-127434108D01*
X165249500Y-127434108D01*
X165249500Y-127565891D01*
X165283608Y-127693187D01*
X165312187Y-127742686D01*
X165349500Y-127807314D01*
X165442686Y-127900500D01*
X165556814Y-127966392D01*
X165684108Y-128000500D01*
X165684110Y-128000500D01*
X165815890Y-128000500D01*
X165815892Y-128000500D01*
X165877057Y-127984111D01*
X168999500Y-127984111D01*
X168999500Y-128115894D01*
X169016878Y-128180750D01*
X169033609Y-128243193D01*
X169059420Y-128287899D01*
X169066122Y-128299506D01*
X169099500Y-128357317D01*
X169192686Y-128450503D01*
X169290213Y-128506810D01*
X169290217Y-128506814D01*
X169290218Y-128506813D01*
X169306810Y-128516393D01*
X169306814Y-128516395D01*
X169306816Y-128516395D01*
X169306817Y-128516396D01*
X169327691Y-128521989D01*
X169434108Y-128550503D01*
X169434110Y-128550503D01*
X169565890Y-128550503D01*
X169565892Y-128550503D01*
X169693186Y-128516395D01*
X169807314Y-128450503D01*
X169900500Y-128357317D01*
X169966392Y-128243189D01*
X170000500Y-128115895D01*
X170000500Y-127984111D01*
X169966392Y-127856817D01*
X169966387Y-127856809D01*
X169957563Y-127841524D01*
X169900500Y-127742689D01*
X169807314Y-127649503D01*
X169750250Y-127616557D01*
X169693187Y-127583611D01*
X169627050Y-127565890D01*
X169627049Y-127565889D01*
X169582278Y-127553893D01*
X169565892Y-127549503D01*
X169565891Y-127549503D01*
X169434108Y-127549503D01*
X169306808Y-127583612D01*
X169306806Y-127583613D01*
X169192696Y-127649496D01*
X169192682Y-127649505D01*
X169192677Y-127649509D01*
X169099506Y-127742680D01*
X169099505Y-127742682D01*
X169099493Y-127742699D01*
X169033610Y-127856809D01*
X169033609Y-127856811D01*
X169033608Y-127856815D01*
X168999500Y-127984111D01*
X165877057Y-127984111D01*
X165943186Y-127966392D01*
X166057314Y-127900500D01*
X166150500Y-127807314D01*
X166216392Y-127693186D01*
X166250500Y-127565892D01*
X166250500Y-127434108D01*
X166216392Y-127306814D01*
X166216389Y-127306808D01*
X166212745Y-127300497D01*
X166212742Y-127300493D01*
X166205696Y-127288289D01*
X166190524Y-127262010D01*
X166150500Y-127192686D01*
X166057314Y-127099500D01*
X165999968Y-127066391D01*
X165943188Y-127033608D01*
X165879539Y-127016554D01*
X165815892Y-126999500D01*
X165815891Y-126999500D01*
X165684108Y-126999500D01*
X165556808Y-127033609D01*
X165556806Y-127033610D01*
X165442696Y-127099493D01*
X165442682Y-127099502D01*
X165442677Y-127099506D01*
X165349506Y-127192677D01*
X165349502Y-127192682D01*
X165349493Y-127192696D01*
X165283610Y-127306806D01*
X165283609Y-127306808D01*
X165267644Y-127366391D01*
X165249500Y-127434108D01*
X157000500Y-127434108D01*
X157000500Y-126834108D01*
X171599497Y-126834108D01*
X171599497Y-126965891D01*
X171608770Y-127000499D01*
X171633605Y-127093188D01*
X171637827Y-127100500D01*
X171666551Y-127150250D01*
X171699497Y-127207314D01*
X171792683Y-127300500D01*
X171891518Y-127357563D01*
X171906807Y-127366390D01*
X171906811Y-127366392D01*
X172034105Y-127400500D01*
X172034107Y-127400500D01*
X172165887Y-127400500D01*
X172165889Y-127400500D01*
X172293183Y-127366392D01*
X172407311Y-127300500D01*
X172407320Y-127300490D01*
X172409937Y-127298483D01*
X172425998Y-127288023D01*
X172441678Y-127279459D01*
X172509890Y-127264600D01*
X172511697Y-127264729D01*
X172569953Y-127284102D01*
X172576468Y-127288289D01*
X172585950Y-127295930D01*
X172586240Y-127295553D01*
X172592681Y-127300495D01*
X172592686Y-127300500D01*
X172691521Y-127357563D01*
X172706810Y-127366390D01*
X172706814Y-127366392D01*
X172834108Y-127400500D01*
X172834110Y-127400500D01*
X172965890Y-127400500D01*
X172965892Y-127400500D01*
X173093186Y-127366392D01*
X173207314Y-127300500D01*
X173300500Y-127207314D01*
X173366392Y-127093186D01*
X173400500Y-126965892D01*
X173400500Y-126834108D01*
X173366392Y-126706814D01*
X173366387Y-126706806D01*
X173357563Y-126691521D01*
X173300500Y-126592686D01*
X173207314Y-126499500D01*
X173149098Y-126465889D01*
X173093187Y-126433608D01*
X172993188Y-126406814D01*
X172993186Y-126406813D01*
X172965893Y-126399500D01*
X172965892Y-126399500D01*
X172834108Y-126399500D01*
X172706813Y-126433608D01*
X172706811Y-126433609D01*
X172706810Y-126433609D01*
X172654844Y-126463612D01*
X172599121Y-126495783D01*
X172599101Y-126495796D01*
X172592686Y-126499500D01*
X172592684Y-126499501D01*
X172592682Y-126499503D01*
X172591119Y-126501065D01*
X172581767Y-126507240D01*
X172580990Y-126507478D01*
X172572872Y-126512592D01*
X172558305Y-126520545D01*
X172490031Y-126535393D01*
X172489992Y-126535390D01*
X172488184Y-126535260D01*
X172430043Y-126515898D01*
X172423538Y-126511718D01*
X172414046Y-126504069D01*
X172413757Y-126504447D01*
X172407314Y-126499503D01*
X172407313Y-126499502D01*
X172407311Y-126499500D01*
X172349095Y-126465889D01*
X172293184Y-126433608D01*
X172193185Y-126406814D01*
X172193183Y-126406813D01*
X172165890Y-126399500D01*
X172165889Y-126399500D01*
X172034105Y-126399500D01*
X171906805Y-126433609D01*
X171906803Y-126433610D01*
X171792693Y-126499493D01*
X171792679Y-126499502D01*
X171792674Y-126499506D01*
X171699503Y-126592677D01*
X171699499Y-126592682D01*
X171699490Y-126592696D01*
X171633607Y-126706806D01*
X171633606Y-126706808D01*
X171633471Y-126707313D01*
X171599497Y-126834108D01*
X157000500Y-126834108D01*
X157000500Y-125059108D01*
X173199500Y-125059108D01*
X173199500Y-125190892D01*
X173199741Y-125191791D01*
X173199741Y-125191792D01*
X173213884Y-125244576D01*
X173213886Y-125244582D01*
X173215472Y-125250500D01*
X173233608Y-125318187D01*
X173251687Y-125349500D01*
X173299500Y-125432314D01*
X173299501Y-125432315D01*
X173299502Y-125432316D01*
X173299504Y-125432318D01*
X173301528Y-125434956D01*
X173311987Y-125451020D01*
X173320543Y-125466690D01*
X173335394Y-125534949D01*
X173335265Y-125536755D01*
X173315899Y-125594954D01*
X173311719Y-125601459D01*
X173305237Y-125609504D01*
X173305344Y-125609581D01*
X173298997Y-125618385D01*
X173297637Y-125620914D01*
X173263612Y-125679847D01*
X173233609Y-125731813D01*
X173233609Y-125731814D01*
X173233608Y-125731816D01*
X173199500Y-125859111D01*
X173199500Y-125990894D01*
X173233608Y-126118190D01*
X173242510Y-126133608D01*
X173299500Y-126232317D01*
X173392686Y-126325503D01*
X173506814Y-126391395D01*
X173634108Y-126425503D01*
X173634110Y-126425503D01*
X173765890Y-126425503D01*
X173765892Y-126425503D01*
X173893186Y-126391395D01*
X173992410Y-126334108D01*
X174699500Y-126334108D01*
X174699500Y-126465892D01*
X174709848Y-126504510D01*
X174712948Y-126516081D01*
X174712949Y-126516088D01*
X174733606Y-126593184D01*
X174733608Y-126593187D01*
X174766554Y-126650250D01*
X174799500Y-126707314D01*
X174892686Y-126800500D01*
X175006814Y-126866392D01*
X175134108Y-126900500D01*
X175134110Y-126900500D01*
X175265890Y-126900500D01*
X175265892Y-126900500D01*
X175393186Y-126866392D01*
X175507314Y-126800500D01*
X175600500Y-126707314D01*
X175666392Y-126593186D01*
X175682222Y-126534108D01*
X188999500Y-126534108D01*
X188999500Y-126665892D01*
X189016554Y-126729539D01*
X189033608Y-126793187D01*
X189066554Y-126850250D01*
X189099500Y-126907314D01*
X189192686Y-127000500D01*
X189306814Y-127066392D01*
X189434108Y-127100500D01*
X189434110Y-127100500D01*
X189565890Y-127100500D01*
X189565892Y-127100500D01*
X189693186Y-127066392D01*
X189807314Y-127000500D01*
X189900500Y-126907314D01*
X189966392Y-126793186D01*
X190000500Y-126665892D01*
X190000500Y-126534108D01*
X189966392Y-126406814D01*
X189966387Y-126406806D01*
X189924416Y-126334110D01*
X189900500Y-126292686D01*
X189807314Y-126199500D01*
X189722439Y-126150497D01*
X189693187Y-126133608D01*
X189629539Y-126116554D01*
X189565892Y-126099500D01*
X189565891Y-126099500D01*
X189434108Y-126099500D01*
X189306808Y-126133609D01*
X189306806Y-126133610D01*
X189192696Y-126199493D01*
X189192682Y-126199502D01*
X189192677Y-126199506D01*
X189099506Y-126292677D01*
X189099502Y-126292682D01*
X189099493Y-126292696D01*
X189033610Y-126406806D01*
X189033609Y-126406809D01*
X189033608Y-126406811D01*
X189033608Y-126406812D01*
X189028736Y-126424992D01*
X189008772Y-126499500D01*
X189008772Y-126499503D01*
X188999500Y-126534108D01*
X175682222Y-126534108D01*
X175700500Y-126465892D01*
X175700500Y-126334108D01*
X175666392Y-126206814D01*
X175666387Y-126206806D01*
X175633877Y-126150497D01*
X175600500Y-126092686D01*
X175507314Y-125999500D01*
X175450250Y-125966554D01*
X175393187Y-125933608D01*
X175329539Y-125916554D01*
X175265892Y-125899500D01*
X175265891Y-125899500D01*
X175134108Y-125899500D01*
X175006808Y-125933609D01*
X175006806Y-125933610D01*
X174892696Y-125999493D01*
X174892682Y-125999502D01*
X174892677Y-125999506D01*
X174799506Y-126092677D01*
X174799502Y-126092682D01*
X174799493Y-126092696D01*
X174733610Y-126206806D01*
X174733609Y-126206809D01*
X174733608Y-126206811D01*
X174733608Y-126206812D01*
X174726774Y-126232317D01*
X174717644Y-126266392D01*
X174701806Y-126325503D01*
X174699500Y-126334108D01*
X173992410Y-126334108D01*
X174007314Y-126325503D01*
X174100500Y-126232317D01*
X174166392Y-126118189D01*
X174200500Y-125990895D01*
X174200500Y-125859111D01*
X174167006Y-125734108D01*
X185299500Y-125734108D01*
X185299500Y-125865891D01*
X185308505Y-125899500D01*
X185333608Y-125993188D01*
X185337254Y-125999502D01*
X185366554Y-126050250D01*
X185399500Y-126107314D01*
X185492686Y-126200500D01*
X185606814Y-126266392D01*
X185734108Y-126300500D01*
X185734110Y-126300500D01*
X185865890Y-126300500D01*
X185865892Y-126300500D01*
X185993186Y-126266392D01*
X186107314Y-126200500D01*
X186200500Y-126107314D01*
X186266392Y-125993186D01*
X186300500Y-125865892D01*
X186300500Y-125734108D01*
X186287103Y-125684108D01*
X209249500Y-125684108D01*
X209249500Y-125815891D01*
X209281041Y-125933608D01*
X209283609Y-125943189D01*
X209311152Y-125990894D01*
X209311153Y-125990895D01*
X209349497Y-126057310D01*
X209349499Y-126057313D01*
X209349500Y-126057314D01*
X209442686Y-126150500D01*
X209556814Y-126216392D01*
X209684108Y-126250500D01*
X209684110Y-126250500D01*
X209815890Y-126250500D01*
X209815892Y-126250500D01*
X209943186Y-126216392D01*
X210057314Y-126150500D01*
X210150500Y-126057314D01*
X210216392Y-125943186D01*
X210250500Y-125815892D01*
X210250500Y-125684108D01*
X210216392Y-125556814D01*
X210216387Y-125556806D01*
X210202446Y-125532659D01*
X210150500Y-125442686D01*
X210057314Y-125349500D01*
X209970712Y-125299500D01*
X209970712Y-125299499D01*
X209970710Y-125299499D01*
X209943187Y-125283608D01*
X209879539Y-125266554D01*
X209815892Y-125249500D01*
X209815891Y-125249500D01*
X209684108Y-125249500D01*
X209556808Y-125283609D01*
X209556806Y-125283610D01*
X209442696Y-125349493D01*
X209442682Y-125349502D01*
X209442677Y-125349506D01*
X209349506Y-125442677D01*
X209349502Y-125442682D01*
X209349493Y-125442696D01*
X209283610Y-125556806D01*
X209283609Y-125556808D01*
X209283608Y-125556812D01*
X209249500Y-125684108D01*
X186287103Y-125684108D01*
X186266392Y-125606814D01*
X186266387Y-125606806D01*
X186256546Y-125589761D01*
X186200500Y-125492686D01*
X186107314Y-125399500D01*
X186050250Y-125366554D01*
X185993187Y-125333608D01*
X185929539Y-125316554D01*
X185865892Y-125299500D01*
X185865891Y-125299500D01*
X185734108Y-125299500D01*
X185606808Y-125333609D01*
X185606806Y-125333610D01*
X185492696Y-125399493D01*
X185492682Y-125399502D01*
X185492677Y-125399506D01*
X185399506Y-125492677D01*
X185399502Y-125492682D01*
X185399493Y-125492696D01*
X185333610Y-125606806D01*
X185333609Y-125606808D01*
X185333608Y-125606812D01*
X185299500Y-125734108D01*
X174167006Y-125734108D01*
X174166392Y-125731817D01*
X174100500Y-125617689D01*
X174088900Y-125606089D01*
X174080208Y-125589761D01*
X174078855Y-125583208D01*
X174073509Y-125574895D01*
X174070977Y-125568119D01*
X174068419Y-125532659D01*
X174066081Y-125521334D01*
X174067362Y-125518007D01*
X174065950Y-125498430D01*
X174065963Y-125498368D01*
X174066170Y-125497416D01*
X174078029Y-125468828D01*
X174076592Y-125468114D01*
X174076767Y-125467762D01*
X174080999Y-125461667D01*
X174083101Y-125456603D01*
X174083389Y-125456156D01*
X174084383Y-125456796D01*
X174084656Y-125456403D01*
X174083647Y-125455755D01*
X174088284Y-125448539D01*
X174095931Y-125439052D01*
X174095552Y-125438761D01*
X174100494Y-125432319D01*
X174100500Y-125432314D01*
X174166392Y-125318186D01*
X174200500Y-125190892D01*
X174200500Y-125059108D01*
X174166392Y-124931814D01*
X174166387Y-124931806D01*
X174157563Y-124916521D01*
X174100500Y-124817686D01*
X174007314Y-124724500D01*
X173937353Y-124684108D01*
X191899500Y-124684108D01*
X191899500Y-124815891D01*
X191899979Y-124817677D01*
X191933608Y-124943188D01*
X191966554Y-125000250D01*
X191999500Y-125057314D01*
X192092686Y-125150500D01*
X192206814Y-125216392D01*
X192334108Y-125250500D01*
X192334110Y-125250500D01*
X192465890Y-125250500D01*
X192465892Y-125250500D01*
X192593186Y-125216392D01*
X192707314Y-125150500D01*
X192800500Y-125057314D01*
X192866392Y-124943186D01*
X192900500Y-124815892D01*
X192900500Y-124684108D01*
X192866392Y-124556814D01*
X192866387Y-124556806D01*
X192833878Y-124500499D01*
X192800500Y-124442686D01*
X192707314Y-124349500D01*
X192650250Y-124316554D01*
X192593187Y-124283608D01*
X192529539Y-124266554D01*
X192465892Y-124249500D01*
X192465891Y-124249500D01*
X192334108Y-124249500D01*
X192206808Y-124283609D01*
X192206806Y-124283610D01*
X192092696Y-124349493D01*
X192092682Y-124349502D01*
X192092677Y-124349506D01*
X191999506Y-124442677D01*
X191999502Y-124442682D01*
X191999493Y-124442696D01*
X191933610Y-124556806D01*
X191933609Y-124556808D01*
X191910902Y-124641554D01*
X191899500Y-124684108D01*
X173937353Y-124684108D01*
X173893187Y-124658608D01*
X173829539Y-124641554D01*
X173765892Y-124624500D01*
X173765891Y-124624500D01*
X173634108Y-124624500D01*
X173506808Y-124658609D01*
X173506806Y-124658610D01*
X173392696Y-124724493D01*
X173392682Y-124724502D01*
X173392677Y-124724506D01*
X173299506Y-124817677D01*
X173299502Y-124817682D01*
X173299493Y-124817696D01*
X173233610Y-124931806D01*
X173233609Y-124931808D01*
X173215271Y-125000250D01*
X173199981Y-125057313D01*
X173199500Y-125059108D01*
X157000500Y-125059108D01*
X157000500Y-123934108D01*
X164999500Y-123934108D01*
X164999500Y-124065891D01*
X165016554Y-124129539D01*
X165033608Y-124193188D01*
X165066121Y-124249500D01*
X165099500Y-124307314D01*
X165192686Y-124400500D01*
X165306814Y-124466392D01*
X165434108Y-124500500D01*
X165434110Y-124500500D01*
X165565890Y-124500500D01*
X165565892Y-124500500D01*
X165693186Y-124466392D01*
X165807314Y-124400500D01*
X165900500Y-124307314D01*
X165966392Y-124193186D01*
X166000500Y-124065892D01*
X166000500Y-123934108D01*
X165966392Y-123806814D01*
X165966387Y-123806806D01*
X165933878Y-123750499D01*
X165900500Y-123692686D01*
X165807314Y-123599500D01*
X165750250Y-123566554D01*
X165693187Y-123533608D01*
X165629539Y-123516554D01*
X165565892Y-123499500D01*
X165565891Y-123499500D01*
X165434108Y-123499500D01*
X165306808Y-123533609D01*
X165306806Y-123533610D01*
X165192696Y-123599493D01*
X165192682Y-123599502D01*
X165192677Y-123599506D01*
X165099506Y-123692677D01*
X165099502Y-123692682D01*
X165099493Y-123692696D01*
X165033610Y-123806806D01*
X165033609Y-123806808D01*
X165033608Y-123806812D01*
X164999500Y-123934108D01*
X157000500Y-123934108D01*
X157000500Y-122785499D01*
X162527767Y-122785499D01*
X162527767Y-122785501D01*
X162527767Y-122937033D01*
X162544773Y-123000500D01*
X162566986Y-123083403D01*
X162584639Y-123113978D01*
X162590050Y-123123351D01*
X162590052Y-123123355D01*
X162625129Y-123184108D01*
X162642752Y-123214632D01*
X162749902Y-123321782D01*
X162881132Y-123397548D01*
X163027501Y-123436767D01*
X163027503Y-123436767D01*
X163179031Y-123436767D01*
X163179033Y-123436767D01*
X163325402Y-123397548D01*
X163456632Y-123321782D01*
X163563782Y-123214632D01*
X163581405Y-123184108D01*
X188499500Y-123184108D01*
X188499500Y-123315892D01*
X188501078Y-123321781D01*
X188533608Y-123443187D01*
X188566121Y-123499500D01*
X188599500Y-123557314D01*
X188692686Y-123650500D01*
X188806814Y-123716392D01*
X188934108Y-123750500D01*
X188934110Y-123750500D01*
X189065890Y-123750500D01*
X189065892Y-123750500D01*
X189193186Y-123716392D01*
X189307314Y-123650500D01*
X189400500Y-123557314D01*
X189466392Y-123443186D01*
X189500500Y-123315892D01*
X189500500Y-123184108D01*
X189466392Y-123056814D01*
X189466387Y-123056806D01*
X189433878Y-123000499D01*
X189400500Y-122942686D01*
X189307314Y-122849500D01*
X189250250Y-122816554D01*
X189193187Y-122783608D01*
X189129539Y-122766554D01*
X189065892Y-122749500D01*
X189065891Y-122749500D01*
X188934108Y-122749500D01*
X188806808Y-122783609D01*
X188806806Y-122783610D01*
X188692696Y-122849493D01*
X188692682Y-122849502D01*
X188692677Y-122849506D01*
X188599506Y-122942677D01*
X188599502Y-122942682D01*
X188599493Y-122942696D01*
X188533610Y-123056806D01*
X188533609Y-123056808D01*
X188533608Y-123056812D01*
X188499500Y-123184108D01*
X163581405Y-123184108D01*
X163639548Y-123083402D01*
X163678767Y-122937033D01*
X163678767Y-122785501D01*
X163639548Y-122639132D01*
X163639543Y-122639124D01*
X163629396Y-122621548D01*
X163563782Y-122507902D01*
X163489988Y-122434108D01*
X178499500Y-122434108D01*
X178499500Y-122565891D01*
X178533608Y-122693187D01*
X178566121Y-122749500D01*
X178599500Y-122807314D01*
X178692686Y-122900500D01*
X178806814Y-122966392D01*
X178934108Y-123000500D01*
X178934110Y-123000500D01*
X179065890Y-123000500D01*
X179065892Y-123000500D01*
X179193186Y-122966392D01*
X179307314Y-122900500D01*
X179400500Y-122807314D01*
X179466392Y-122693186D01*
X179500500Y-122565892D01*
X179500500Y-122434108D01*
X184249500Y-122434108D01*
X184249500Y-122565891D01*
X184283608Y-122693187D01*
X184316121Y-122749500D01*
X184349500Y-122807314D01*
X184442686Y-122900500D01*
X184556814Y-122966392D01*
X184684108Y-123000500D01*
X184684110Y-123000500D01*
X184815890Y-123000500D01*
X184815892Y-123000500D01*
X184943186Y-122966392D01*
X185057314Y-122900500D01*
X185150500Y-122807314D01*
X185216392Y-122693186D01*
X185250500Y-122565892D01*
X185250500Y-122434108D01*
X185216392Y-122306814D01*
X185216387Y-122306806D01*
X185183878Y-122250499D01*
X185150500Y-122192686D01*
X185057314Y-122099500D01*
X184981228Y-122055572D01*
X184943188Y-122033609D01*
X184943187Y-122033608D01*
X184943186Y-122033608D01*
X184815892Y-121999500D01*
X184815891Y-121999500D01*
X184684108Y-121999500D01*
X184556808Y-122033609D01*
X184556806Y-122033610D01*
X184442696Y-122099493D01*
X184442682Y-122099502D01*
X184442677Y-122099506D01*
X184349506Y-122192677D01*
X184349502Y-122192682D01*
X184349493Y-122192696D01*
X184283610Y-122306806D01*
X184283609Y-122306808D01*
X184283608Y-122306812D01*
X184249500Y-122434108D01*
X179500500Y-122434108D01*
X179466392Y-122306814D01*
X179466387Y-122306806D01*
X179433878Y-122250499D01*
X179400500Y-122192686D01*
X179307314Y-122099500D01*
X179249100Y-122065890D01*
X179193187Y-122033608D01*
X179129539Y-122016554D01*
X179065892Y-121999500D01*
X179065891Y-121999500D01*
X178934108Y-121999500D01*
X178806808Y-122033609D01*
X178806806Y-122033610D01*
X178692696Y-122099493D01*
X178692682Y-122099502D01*
X178692677Y-122099506D01*
X178599506Y-122192677D01*
X178599502Y-122192682D01*
X178599493Y-122192696D01*
X178533610Y-122306806D01*
X178533609Y-122306808D01*
X178533608Y-122306812D01*
X178499500Y-122434108D01*
X163489988Y-122434108D01*
X163456632Y-122400752D01*
X163391017Y-122362869D01*
X163325403Y-122324986D01*
X163252217Y-122305376D01*
X163252216Y-122305375D01*
X163179034Y-122285767D01*
X163179033Y-122285767D01*
X163027501Y-122285767D01*
X162881126Y-122324987D01*
X162881124Y-122324988D01*
X162749912Y-122400745D01*
X162749898Y-122400754D01*
X162749893Y-122400758D01*
X162642758Y-122507893D01*
X162642754Y-122507898D01*
X162642745Y-122507912D01*
X162566988Y-122639124D01*
X162566987Y-122639125D01*
X162566986Y-122639130D01*
X162552502Y-122693186D01*
X162552502Y-122693187D01*
X162552501Y-122693186D01*
X162527767Y-122785499D01*
X157000500Y-122785499D01*
X157000500Y-119684108D01*
X162499500Y-119684108D01*
X162499500Y-119815891D01*
X162516554Y-119879539D01*
X162533608Y-119943188D01*
X162547005Y-119966391D01*
X162599500Y-120057314D01*
X162692686Y-120150500D01*
X162806814Y-120216392D01*
X162934108Y-120250500D01*
X162934110Y-120250500D01*
X163065890Y-120250500D01*
X163065892Y-120250500D01*
X163193186Y-120216392D01*
X163307314Y-120150500D01*
X163400500Y-120057314D01*
X163466392Y-119943186D01*
X163500500Y-119815892D01*
X163500500Y-119684108D01*
X163466392Y-119556814D01*
X163466387Y-119556806D01*
X163437526Y-119506817D01*
X163400500Y-119442686D01*
X163307314Y-119349500D01*
X163250250Y-119316554D01*
X163193187Y-119283608D01*
X163106911Y-119260491D01*
X163100044Y-119258651D01*
X163100039Y-119258649D01*
X163065893Y-119249500D01*
X163065892Y-119249500D01*
X162934108Y-119249500D01*
X162806808Y-119283609D01*
X162806806Y-119283610D01*
X162692696Y-119349493D01*
X162692682Y-119349502D01*
X162692677Y-119349506D01*
X162599506Y-119442677D01*
X162599502Y-119442682D01*
X162599493Y-119442696D01*
X162533610Y-119556806D01*
X162533609Y-119556808D01*
X162520990Y-119603903D01*
X162499500Y-119684108D01*
X157000500Y-119684108D01*
X157000500Y-117934108D01*
X169249500Y-117934108D01*
X169249500Y-118065891D01*
X169266554Y-118129539D01*
X169283608Y-118193188D01*
X169299714Y-118221084D01*
X169316554Y-118250250D01*
X169349500Y-118307314D01*
X169349502Y-118307316D01*
X169442489Y-118400303D01*
X169446273Y-118404892D01*
X169446732Y-118405966D01*
X169450754Y-118410664D01*
X169462855Y-118427240D01*
X169486484Y-118492993D01*
X169470817Y-118561078D01*
X169465994Y-118569665D01*
X169445562Y-118596622D01*
X169349502Y-118692682D01*
X169349493Y-118692696D01*
X169283610Y-118806806D01*
X169283609Y-118806808D01*
X169283608Y-118806812D01*
X169249500Y-118934108D01*
X169249500Y-119065891D01*
X169258505Y-119099498D01*
X169283608Y-119193188D01*
X169310983Y-119240601D01*
X169316121Y-119249500D01*
X169349500Y-119307314D01*
X169349501Y-119307315D01*
X169349502Y-119307316D01*
X169442521Y-119400335D01*
X169446324Y-119404953D01*
X169446780Y-119406022D01*
X169450754Y-119410664D01*
X169462855Y-119427240D01*
X169486484Y-119492993D01*
X169470817Y-119561078D01*
X169465994Y-119569665D01*
X169445562Y-119596622D01*
X169349502Y-119692682D01*
X169349493Y-119692696D01*
X169283610Y-119806806D01*
X169283609Y-119806808D01*
X169258506Y-119900497D01*
X169249500Y-119934106D01*
X169249500Y-119934108D01*
X169249500Y-120065892D01*
X169272170Y-120150500D01*
X169283609Y-120193188D01*
X169283609Y-120193189D01*
X169345421Y-120300251D01*
X169346841Y-120303022D01*
X169347552Y-120306763D01*
X169356986Y-120330328D01*
X169361421Y-120348610D01*
X169359894Y-120412774D01*
X169356959Y-120422771D01*
X169345368Y-120449840D01*
X169283609Y-120556809D01*
X169283608Y-120556813D01*
X169283608Y-120556814D01*
X169272170Y-120599502D01*
X169249500Y-120684108D01*
X169249500Y-120815891D01*
X169258505Y-120849498D01*
X169283608Y-120943188D01*
X169299714Y-120971084D01*
X169316554Y-121000250D01*
X169349500Y-121057314D01*
X169349502Y-121057316D01*
X169442489Y-121150303D01*
X169446273Y-121154892D01*
X169446732Y-121155966D01*
X169450754Y-121160664D01*
X169462855Y-121177240D01*
X169486484Y-121242993D01*
X169470817Y-121311078D01*
X169465994Y-121319665D01*
X169445562Y-121346622D01*
X169349502Y-121442682D01*
X169349493Y-121442696D01*
X169283610Y-121556806D01*
X169283609Y-121556808D01*
X169272168Y-121599506D01*
X169249500Y-121684108D01*
X169249500Y-121815891D01*
X169266554Y-121879539D01*
X169283608Y-121943188D01*
X169316121Y-121999500D01*
X169349500Y-122057314D01*
X169442686Y-122150500D01*
X169556814Y-122216392D01*
X169684108Y-122250500D01*
X169684110Y-122250500D01*
X169815890Y-122250500D01*
X169815892Y-122250500D01*
X169943186Y-122216392D01*
X170057314Y-122150500D01*
X170150500Y-122057314D01*
X170216392Y-121943186D01*
X170250500Y-121815892D01*
X170250500Y-121684108D01*
X170216392Y-121556814D01*
X170216387Y-121556806D01*
X170202995Y-121533610D01*
X170150500Y-121442686D01*
X170061717Y-121353903D01*
X170049254Y-121339345D01*
X170037150Y-121322768D01*
X170013514Y-121257017D01*
X170029176Y-121188931D01*
X170033998Y-121180344D01*
X170054436Y-121153376D01*
X170057310Y-121150502D01*
X170057314Y-121150500D01*
X170150500Y-121057314D01*
X170216392Y-120943186D01*
X170250500Y-120815892D01*
X170250500Y-120684108D01*
X170216392Y-120556814D01*
X170173586Y-120482673D01*
X170162178Y-120435648D01*
X170155675Y-120408856D01*
X170178519Y-120342827D01*
X170233436Y-120299630D01*
X170302988Y-120292980D01*
X170336342Y-120304520D01*
X170340533Y-120306680D01*
X170371407Y-120329221D01*
X170442686Y-120400500D01*
X170556814Y-120466392D01*
X170684108Y-120500500D01*
X170684110Y-120500500D01*
X170815890Y-120500500D01*
X170815892Y-120500500D01*
X170943186Y-120466392D01*
X171057314Y-120400500D01*
X171150500Y-120307314D01*
X171216392Y-120193186D01*
X171250500Y-120065892D01*
X171250500Y-119934108D01*
X171216392Y-119806814D01*
X171216387Y-119806806D01*
X171207563Y-119791521D01*
X171150500Y-119692686D01*
X171061717Y-119603903D01*
X171049255Y-119589346D01*
X171037004Y-119572568D01*
X171013367Y-119506817D01*
X171028670Y-119439374D01*
X171032909Y-119431719D01*
X171053706Y-119404108D01*
X171153771Y-119304043D01*
X171182025Y-119282892D01*
X171186131Y-119280651D01*
X171186135Y-119280647D01*
X171189701Y-119278701D01*
X171190567Y-119280288D01*
X171250633Y-119263003D01*
X171310644Y-119280975D01*
X171311515Y-119279426D01*
X171315055Y-119281414D01*
X171315058Y-119281416D01*
X171319655Y-119283998D01*
X171346619Y-119304433D01*
X171349499Y-119307313D01*
X171349500Y-119307314D01*
X171442686Y-119400500D01*
X171556814Y-119466392D01*
X171556815Y-119466392D01*
X171557757Y-119466936D01*
X171573209Y-119474786D01*
X171588571Y-119484150D01*
X171635569Y-119535851D01*
X171647154Y-119604753D01*
X171647153Y-119604762D01*
X171646960Y-119606375D01*
X171626534Y-119661138D01*
X171623727Y-119665286D01*
X171608712Y-119683472D01*
X171599507Y-119692676D01*
X171599504Y-119692680D01*
X171599499Y-119692685D01*
X171533608Y-119806810D01*
X171531175Y-119815891D01*
X171499500Y-119934108D01*
X171499500Y-120065891D01*
X171499501Y-120065893D01*
X171533608Y-120193188D01*
X171533609Y-120193189D01*
X171547005Y-120216391D01*
X171599500Y-120307314D01*
X171692686Y-120400500D01*
X171806814Y-120466392D01*
X171934108Y-120500500D01*
X171934110Y-120500500D01*
X172065890Y-120500500D01*
X172065892Y-120500500D01*
X172193186Y-120466392D01*
X172307314Y-120400500D01*
X172400500Y-120307314D01*
X172466392Y-120193186D01*
X172500500Y-120065892D01*
X172500500Y-119934108D01*
X172466392Y-119806814D01*
X172466387Y-119806806D01*
X172457563Y-119791521D01*
X172400500Y-119692686D01*
X172307314Y-119599500D01*
X172260667Y-119572568D01*
X172234236Y-119557308D01*
X172234225Y-119557302D01*
X172233380Y-119556814D01*
X172193185Y-119533607D01*
X172190259Y-119532823D01*
X172180998Y-119527667D01*
X172180375Y-119527033D01*
X172176772Y-119525203D01*
X172161422Y-119515845D01*
X172114427Y-119464141D01*
X172102844Y-119395255D01*
X172103037Y-119393640D01*
X172123466Y-119338858D01*
X172126275Y-119334708D01*
X172141288Y-119316525D01*
X172150500Y-119307314D01*
X172216392Y-119193186D01*
X172250500Y-119065892D01*
X172250500Y-118934108D01*
X172216392Y-118806814D01*
X172216387Y-118806806D01*
X172183878Y-118750499D01*
X172150500Y-118692686D01*
X172061717Y-118603903D01*
X172049255Y-118589346D01*
X172037004Y-118572568D01*
X172013367Y-118506817D01*
X172028670Y-118439374D01*
X172032909Y-118431719D01*
X172053706Y-118404108D01*
X172153771Y-118304043D01*
X172182025Y-118282892D01*
X172186131Y-118280651D01*
X172186135Y-118280647D01*
X172189701Y-118278701D01*
X172190567Y-118280288D01*
X172250633Y-118263003D01*
X172310644Y-118280975D01*
X172311515Y-118279426D01*
X172315055Y-118281414D01*
X172315058Y-118281416D01*
X172319655Y-118283998D01*
X172346619Y-118304433D01*
X172349499Y-118307313D01*
X172349500Y-118307314D01*
X172442686Y-118400500D01*
X172556814Y-118466392D01*
X172684108Y-118500500D01*
X172684110Y-118500500D01*
X172815890Y-118500500D01*
X172815892Y-118500500D01*
X172943186Y-118466392D01*
X173057314Y-118400500D01*
X173146106Y-118311707D01*
X173160646Y-118299259D01*
X173177434Y-118287001D01*
X173243184Y-118263367D01*
X173310615Y-118278664D01*
X173315976Y-118281632D01*
X173315988Y-118281640D01*
X173318278Y-118282908D01*
X173321466Y-118285309D01*
X173333378Y-118293288D01*
X173333383Y-118293292D01*
X173332887Y-118293911D01*
X173345892Y-118303707D01*
X173445953Y-118403768D01*
X173466703Y-118431293D01*
X173466917Y-118431680D01*
X173469353Y-118436140D01*
X173469515Y-118436362D01*
X173471427Y-118439808D01*
X173478314Y-118470477D01*
X173486994Y-118500691D01*
X173485911Y-118504303D01*
X173486737Y-118507980D01*
X173476000Y-118537365D01*
X173469019Y-118560657D01*
X173470565Y-118561526D01*
X173465991Y-118569669D01*
X173445561Y-118596623D01*
X173349502Y-118692682D01*
X173349493Y-118692696D01*
X173283610Y-118806806D01*
X173283609Y-118806808D01*
X173283608Y-118806812D01*
X173249500Y-118934108D01*
X173249500Y-119065891D01*
X173258505Y-119099498D01*
X173283608Y-119193188D01*
X173310983Y-119240601D01*
X173316121Y-119249500D01*
X173349500Y-119307314D01*
X173349501Y-119307315D01*
X173349502Y-119307316D01*
X173442521Y-119400335D01*
X173446324Y-119404953D01*
X173446780Y-119406022D01*
X173450754Y-119410664D01*
X173462855Y-119427240D01*
X173486484Y-119492993D01*
X173470817Y-119561078D01*
X173465994Y-119569665D01*
X173445562Y-119596622D01*
X173349502Y-119692682D01*
X173349493Y-119692696D01*
X173283610Y-119806806D01*
X173283609Y-119806808D01*
X173283474Y-119807313D01*
X173249500Y-119934108D01*
X173249500Y-120065891D01*
X173249501Y-120065893D01*
X173283608Y-120193188D01*
X173283609Y-120193189D01*
X173297005Y-120216391D01*
X173349500Y-120307314D01*
X173442686Y-120400500D01*
X173556814Y-120466392D01*
X173684108Y-120500500D01*
X173684110Y-120500500D01*
X173815890Y-120500500D01*
X173815892Y-120500500D01*
X173943186Y-120466392D01*
X174057314Y-120400500D01*
X174146106Y-120311707D01*
X174160654Y-120299254D01*
X174177233Y-120287149D01*
X174242984Y-120263514D01*
X174311069Y-120279176D01*
X174319654Y-120283997D01*
X174346620Y-120304434D01*
X174349499Y-120307313D01*
X174349500Y-120307314D01*
X174442686Y-120400500D01*
X174556814Y-120466392D01*
X174684108Y-120500500D01*
X174684110Y-120500500D01*
X174815890Y-120500500D01*
X174815892Y-120500500D01*
X174943186Y-120466392D01*
X175057314Y-120400500D01*
X175127651Y-120330161D01*
X175133008Y-120327236D01*
X175133009Y-120327235D01*
X175159081Y-120312999D01*
X175188973Y-120296676D01*
X175188975Y-120296676D01*
X175194333Y-120293751D01*
X175264024Y-120298735D01*
X175319958Y-120340607D01*
X175344374Y-120406072D01*
X175341856Y-120441276D01*
X175340854Y-120445882D01*
X175327076Y-120481522D01*
X175283609Y-120556810D01*
X175283608Y-120556813D01*
X175283608Y-120556814D01*
X175272170Y-120599502D01*
X175249500Y-120684108D01*
X175249500Y-120815891D01*
X175258505Y-120849498D01*
X175283608Y-120943188D01*
X175299714Y-120971084D01*
X175316554Y-121000250D01*
X175349500Y-121057314D01*
X175349502Y-121057316D01*
X175442489Y-121150303D01*
X175446273Y-121154892D01*
X175446732Y-121155966D01*
X175450754Y-121160664D01*
X175462855Y-121177240D01*
X175486484Y-121242993D01*
X175470817Y-121311078D01*
X175465994Y-121319665D01*
X175445562Y-121346622D01*
X175349502Y-121442682D01*
X175349493Y-121442696D01*
X175283610Y-121556806D01*
X175283609Y-121556808D01*
X175272168Y-121599506D01*
X175249500Y-121684108D01*
X175249500Y-121815891D01*
X175266554Y-121879539D01*
X175283608Y-121943188D01*
X175316121Y-121999500D01*
X175349500Y-122057314D01*
X175442686Y-122150500D01*
X175556814Y-122216392D01*
X175684108Y-122250500D01*
X175684110Y-122250500D01*
X175815890Y-122250500D01*
X175815892Y-122250500D01*
X175943186Y-122216392D01*
X176057314Y-122150500D01*
X176150500Y-122057314D01*
X176216392Y-121943186D01*
X176218824Y-121934108D01*
X188499500Y-121934108D01*
X188499500Y-122065891D01*
X188508505Y-122099498D01*
X188533608Y-122193188D01*
X188547005Y-122216391D01*
X188599500Y-122307314D01*
X188692686Y-122400500D01*
X188806814Y-122466392D01*
X188934108Y-122500500D01*
X188934110Y-122500500D01*
X189065890Y-122500500D01*
X189065892Y-122500500D01*
X189193186Y-122466392D01*
X189307314Y-122400500D01*
X189400500Y-122307314D01*
X189466392Y-122193186D01*
X189500500Y-122065892D01*
X189500500Y-121934108D01*
X189466392Y-121806814D01*
X189466387Y-121806806D01*
X189433878Y-121750499D01*
X189400500Y-121692686D01*
X189307314Y-121599500D01*
X189250250Y-121566554D01*
X189193187Y-121533608D01*
X189129539Y-121516554D01*
X189065892Y-121499500D01*
X189065891Y-121499500D01*
X188934108Y-121499500D01*
X188806808Y-121533609D01*
X188806806Y-121533610D01*
X188692696Y-121599493D01*
X188692682Y-121599502D01*
X188692677Y-121599506D01*
X188599506Y-121692677D01*
X188599502Y-121692682D01*
X188599493Y-121692696D01*
X188533610Y-121806806D01*
X188533609Y-121806808D01*
X188533608Y-121806812D01*
X188499500Y-121934108D01*
X176218824Y-121934108D01*
X176250500Y-121815892D01*
X176250500Y-121684108D01*
X176216392Y-121556814D01*
X176216387Y-121556806D01*
X176202995Y-121533610D01*
X176150500Y-121442686D01*
X176061717Y-121353903D01*
X176049254Y-121339345D01*
X176037150Y-121322768D01*
X176013514Y-121257017D01*
X176029176Y-121188931D01*
X176033998Y-121180344D01*
X176054436Y-121153376D01*
X176057310Y-121150502D01*
X176057314Y-121150500D01*
X176150500Y-121057314D01*
X176216392Y-120943186D01*
X176218824Y-120934108D01*
X178749500Y-120934108D01*
X178749500Y-121065891D01*
X178766554Y-121129539D01*
X178783608Y-121193188D01*
X178792195Y-121208060D01*
X178797005Y-121216391D01*
X178849500Y-121307314D01*
X178942686Y-121400500D01*
X179056814Y-121466392D01*
X179184108Y-121500500D01*
X179184110Y-121500500D01*
X179315890Y-121500500D01*
X179315892Y-121500500D01*
X179443186Y-121466392D01*
X179557314Y-121400500D01*
X179650500Y-121307314D01*
X179716392Y-121193186D01*
X179718824Y-121184108D01*
X184249500Y-121184108D01*
X184249500Y-121315892D01*
X184258204Y-121348375D01*
X184283608Y-121443187D01*
X184297005Y-121466391D01*
X184349500Y-121557314D01*
X184442686Y-121650500D01*
X184556814Y-121716392D01*
X184684108Y-121750500D01*
X184684110Y-121750500D01*
X184815890Y-121750500D01*
X184815892Y-121750500D01*
X184943186Y-121716392D01*
X185057314Y-121650500D01*
X185150500Y-121557314D01*
X185216392Y-121443186D01*
X185250500Y-121315892D01*
X185250500Y-121184108D01*
X192999500Y-121184108D01*
X192999500Y-121315892D01*
X193008204Y-121348375D01*
X193033608Y-121443187D01*
X193047005Y-121466391D01*
X193099500Y-121557314D01*
X193192686Y-121650500D01*
X193306814Y-121716392D01*
X193434108Y-121750500D01*
X193434110Y-121750500D01*
X193565890Y-121750500D01*
X193565892Y-121750500D01*
X193693186Y-121716392D01*
X193749103Y-121684108D01*
X211999500Y-121684108D01*
X211999500Y-121815891D01*
X212016554Y-121879539D01*
X212033608Y-121943188D01*
X212066121Y-121999500D01*
X212099500Y-122057314D01*
X212192686Y-122150500D01*
X212306814Y-122216392D01*
X212434108Y-122250500D01*
X212434110Y-122250500D01*
X212565890Y-122250500D01*
X212565892Y-122250500D01*
X212693186Y-122216392D01*
X212807314Y-122150500D01*
X212900500Y-122057314D01*
X212966392Y-121943186D01*
X213000500Y-121815892D01*
X213000500Y-121684108D01*
X212966392Y-121556814D01*
X212966387Y-121556806D01*
X212952995Y-121533610D01*
X212900500Y-121442686D01*
X212807314Y-121349500D01*
X212749100Y-121315890D01*
X212693187Y-121283608D01*
X212629539Y-121266554D01*
X212565892Y-121249500D01*
X212565891Y-121249500D01*
X212434108Y-121249500D01*
X212306808Y-121283609D01*
X212306806Y-121283610D01*
X212192696Y-121349493D01*
X212192682Y-121349502D01*
X212192677Y-121349506D01*
X212099506Y-121442677D01*
X212099502Y-121442682D01*
X212099493Y-121442696D01*
X212033610Y-121556806D01*
X212033609Y-121556808D01*
X212022168Y-121599506D01*
X211999500Y-121684108D01*
X193749103Y-121684108D01*
X193807314Y-121650500D01*
X193900500Y-121557314D01*
X193966392Y-121443186D01*
X194000500Y-121315892D01*
X194000500Y-121184108D01*
X193966392Y-121056814D01*
X193966387Y-121056806D01*
X193957563Y-121041521D01*
X193900500Y-120942686D01*
X193807314Y-120849500D01*
X193731228Y-120805572D01*
X193693188Y-120783609D01*
X193693187Y-120783608D01*
X193693186Y-120783608D01*
X193565892Y-120749500D01*
X193565891Y-120749500D01*
X193434108Y-120749500D01*
X193306808Y-120783609D01*
X193306806Y-120783610D01*
X193192696Y-120849493D01*
X193192682Y-120849502D01*
X193192677Y-120849506D01*
X193099506Y-120942677D01*
X193099502Y-120942682D01*
X193099493Y-120942696D01*
X193033610Y-121056806D01*
X193033609Y-121056809D01*
X193033608Y-121056811D01*
X193033608Y-121056812D01*
X193033473Y-121057316D01*
X193010277Y-121143883D01*
X193010277Y-121143886D01*
X192999500Y-121184108D01*
X185250500Y-121184108D01*
X185216392Y-121056814D01*
X185216387Y-121056806D01*
X185207563Y-121041521D01*
X185150500Y-120942686D01*
X185057314Y-120849500D01*
X184983380Y-120806814D01*
X184943187Y-120783608D01*
X184879539Y-120766554D01*
X184815892Y-120749500D01*
X184815891Y-120749500D01*
X184684108Y-120749500D01*
X184556808Y-120783609D01*
X184556806Y-120783610D01*
X184442696Y-120849493D01*
X184442682Y-120849502D01*
X184442677Y-120849506D01*
X184349506Y-120942677D01*
X184349502Y-120942682D01*
X184349493Y-120942696D01*
X184283610Y-121056806D01*
X184283609Y-121056809D01*
X184283608Y-121056811D01*
X184283608Y-121056812D01*
X184283473Y-121057316D01*
X184260277Y-121143883D01*
X184260277Y-121143886D01*
X184249500Y-121184108D01*
X179718824Y-121184108D01*
X179750500Y-121065892D01*
X179750500Y-120934108D01*
X179716392Y-120806814D01*
X179716387Y-120806806D01*
X179702995Y-120783610D01*
X179650500Y-120692686D01*
X179641922Y-120684108D01*
X202499500Y-120684108D01*
X202499500Y-120815891D01*
X202508505Y-120849498D01*
X202533608Y-120943188D01*
X202566554Y-121000250D01*
X202599500Y-121057314D01*
X202692686Y-121150500D01*
X202806814Y-121216392D01*
X202934108Y-121250500D01*
X202934110Y-121250500D01*
X203065890Y-121250500D01*
X203065892Y-121250500D01*
X203193186Y-121216392D01*
X203307314Y-121150500D01*
X203400500Y-121057314D01*
X203466392Y-120943186D01*
X203500500Y-120815892D01*
X203500500Y-120684108D01*
X203466392Y-120556814D01*
X203466387Y-120556806D01*
X203452995Y-120533610D01*
X203400500Y-120442686D01*
X203307314Y-120349500D01*
X203307312Y-120349499D01*
X203307310Y-120349497D01*
X203252331Y-120317755D01*
X203252329Y-120317754D01*
X203244093Y-120312999D01*
X203193187Y-120283608D01*
X203106911Y-120260491D01*
X203100400Y-120258746D01*
X203100394Y-120258744D01*
X203065893Y-120249500D01*
X203065892Y-120249500D01*
X202934108Y-120249500D01*
X202806808Y-120283609D01*
X202806806Y-120283610D01*
X202692696Y-120349493D01*
X202692682Y-120349502D01*
X202692677Y-120349506D01*
X202599506Y-120442677D01*
X202599502Y-120442682D01*
X202599493Y-120442696D01*
X202533610Y-120556806D01*
X202533609Y-120556808D01*
X202522168Y-120599506D01*
X202499500Y-120684108D01*
X179641922Y-120684108D01*
X179557314Y-120599500D01*
X179483380Y-120556814D01*
X179443187Y-120533608D01*
X179379539Y-120516554D01*
X179315892Y-120499500D01*
X179315891Y-120499500D01*
X179184108Y-120499500D01*
X179056808Y-120533609D01*
X179056806Y-120533610D01*
X178942696Y-120599493D01*
X178942682Y-120599502D01*
X178942677Y-120599506D01*
X178849506Y-120692677D01*
X178849502Y-120692682D01*
X178849493Y-120692696D01*
X178783610Y-120806806D01*
X178783609Y-120806808D01*
X178772168Y-120849506D01*
X178749500Y-120934108D01*
X176218824Y-120934108D01*
X176250500Y-120815892D01*
X176250500Y-120684108D01*
X176216392Y-120556814D01*
X176156125Y-120452430D01*
X176143015Y-120419683D01*
X176138576Y-120401384D01*
X176140104Y-120337220D01*
X176143042Y-120327216D01*
X176154626Y-120300166D01*
X176216392Y-120193186D01*
X176250500Y-120065892D01*
X176250500Y-119934108D01*
X176216392Y-119806814D01*
X176216387Y-119806806D01*
X176207563Y-119791521D01*
X176150500Y-119692686D01*
X176061717Y-119603903D01*
X176049255Y-119589346D01*
X176037150Y-119572768D01*
X176013513Y-119507018D01*
X176029175Y-119438929D01*
X176029627Y-119438126D01*
X176029627Y-119438124D01*
X176031884Y-119434106D01*
X178749500Y-119434106D01*
X178749500Y-119565892D01*
X178758204Y-119598376D01*
X178768348Y-119636234D01*
X178783608Y-119693187D01*
X178816554Y-119750250D01*
X178849500Y-119807314D01*
X178942686Y-119900500D01*
X179056814Y-119966392D01*
X179184108Y-120000500D01*
X179184110Y-120000500D01*
X179315890Y-120000500D01*
X179315892Y-120000500D01*
X179443186Y-119966392D01*
X179557314Y-119900500D01*
X179650500Y-119807314D01*
X179716392Y-119693186D01*
X179750500Y-119565892D01*
X179750500Y-119434108D01*
X179716392Y-119306814D01*
X179716387Y-119306806D01*
X179702995Y-119283610D01*
X179650500Y-119192686D01*
X179557314Y-119099500D01*
X179499100Y-119065890D01*
X179443187Y-119033608D01*
X179379539Y-119016554D01*
X179315892Y-118999500D01*
X179315891Y-118999500D01*
X179184108Y-118999500D01*
X179056808Y-119033609D01*
X179056806Y-119033610D01*
X178942696Y-119099493D01*
X178942682Y-119099502D01*
X178942677Y-119099506D01*
X178849506Y-119192677D01*
X178849502Y-119192682D01*
X178849493Y-119192696D01*
X178783610Y-119306806D01*
X178783609Y-119306808D01*
X178758506Y-119400497D01*
X178749500Y-119434106D01*
X176031884Y-119434106D01*
X176033996Y-119430345D01*
X176054433Y-119403379D01*
X176057309Y-119400502D01*
X176057314Y-119400500D01*
X176150500Y-119307314D01*
X176216392Y-119193186D01*
X176250500Y-119065892D01*
X176250500Y-118934108D01*
X176216392Y-118806814D01*
X176216387Y-118806806D01*
X176183878Y-118750499D01*
X176150500Y-118692686D01*
X176061717Y-118603903D01*
X176049254Y-118589345D01*
X176037150Y-118572768D01*
X176013514Y-118507017D01*
X176029176Y-118438931D01*
X176033998Y-118430344D01*
X176054436Y-118403376D01*
X176057310Y-118400502D01*
X176057314Y-118400500D01*
X176150500Y-118307314D01*
X176216392Y-118193186D01*
X176250500Y-118065892D01*
X176250500Y-117934108D01*
X179499500Y-117934108D01*
X179499500Y-118065891D01*
X179516554Y-118129539D01*
X179533608Y-118193188D01*
X179566554Y-118250250D01*
X179599500Y-118307314D01*
X179692686Y-118400500D01*
X179806814Y-118466392D01*
X179934108Y-118500500D01*
X179934110Y-118500500D01*
X180065890Y-118500500D01*
X180065892Y-118500500D01*
X180193186Y-118466392D01*
X180307314Y-118400500D01*
X180400500Y-118307314D01*
X180466392Y-118193186D01*
X180500500Y-118065892D01*
X180500500Y-117934108D01*
X182499500Y-117934108D01*
X182499500Y-118065891D01*
X182516554Y-118129539D01*
X182533608Y-118193188D01*
X182566554Y-118250250D01*
X182599500Y-118307314D01*
X182692686Y-118400500D01*
X182806814Y-118466392D01*
X182934108Y-118500500D01*
X182934110Y-118500500D01*
X183065890Y-118500500D01*
X183065892Y-118500500D01*
X183193186Y-118466392D01*
X183307314Y-118400500D01*
X183400500Y-118307314D01*
X183466392Y-118193186D01*
X183468824Y-118184108D01*
X189999500Y-118184108D01*
X189999500Y-118315891D01*
X190016554Y-118379539D01*
X190033608Y-118443188D01*
X190046982Y-118466351D01*
X190099497Y-118557310D01*
X190099499Y-118557312D01*
X190099500Y-118557314D01*
X190192686Y-118650500D01*
X190306814Y-118716392D01*
X190434108Y-118750500D01*
X190434110Y-118750500D01*
X190565890Y-118750500D01*
X190565892Y-118750500D01*
X190693186Y-118716392D01*
X190807314Y-118650500D01*
X190900500Y-118557314D01*
X190966392Y-118443186D01*
X191000500Y-118315892D01*
X191000500Y-118184108D01*
X190966392Y-118056814D01*
X190966387Y-118056806D01*
X190957563Y-118041521D01*
X190900500Y-117942686D01*
X190807314Y-117849500D01*
X190733380Y-117806814D01*
X190693187Y-117783608D01*
X190629539Y-117766554D01*
X190565892Y-117749500D01*
X190565891Y-117749500D01*
X190434108Y-117749500D01*
X190306808Y-117783609D01*
X190306806Y-117783610D01*
X190192696Y-117849493D01*
X190192682Y-117849502D01*
X190192677Y-117849506D01*
X190099506Y-117942677D01*
X190099502Y-117942682D01*
X190099493Y-117942696D01*
X190033610Y-118056806D01*
X190033609Y-118056808D01*
X190033608Y-118056812D01*
X189999500Y-118184108D01*
X183468824Y-118184108D01*
X183500500Y-118065892D01*
X183500500Y-117934108D01*
X183466392Y-117806814D01*
X183466387Y-117806806D01*
X183452995Y-117783610D01*
X183400500Y-117692686D01*
X183307314Y-117599500D01*
X183250250Y-117566554D01*
X183193187Y-117533608D01*
X183129539Y-117516554D01*
X183065892Y-117499500D01*
X183065891Y-117499500D01*
X182934108Y-117499500D01*
X182806808Y-117533609D01*
X182806806Y-117533610D01*
X182692696Y-117599493D01*
X182692682Y-117599502D01*
X182692677Y-117599506D01*
X182599506Y-117692677D01*
X182599502Y-117692682D01*
X182599493Y-117692696D01*
X182533610Y-117806806D01*
X182533609Y-117806808D01*
X182522168Y-117849506D01*
X182499500Y-117934108D01*
X180500500Y-117934108D01*
X180466392Y-117806814D01*
X180466387Y-117806806D01*
X180452995Y-117783610D01*
X180400500Y-117692686D01*
X180307314Y-117599500D01*
X180250250Y-117566554D01*
X180193187Y-117533608D01*
X180129539Y-117516554D01*
X180065892Y-117499500D01*
X180065891Y-117499500D01*
X179934108Y-117499500D01*
X179806808Y-117533609D01*
X179806806Y-117533610D01*
X179692696Y-117599493D01*
X179692682Y-117599502D01*
X179692677Y-117599506D01*
X179599506Y-117692677D01*
X179599502Y-117692682D01*
X179599493Y-117692696D01*
X179533610Y-117806806D01*
X179533609Y-117806808D01*
X179522168Y-117849506D01*
X179499500Y-117934108D01*
X176250500Y-117934108D01*
X176216392Y-117806814D01*
X176216387Y-117806806D01*
X176202995Y-117783610D01*
X176150500Y-117692686D01*
X176057314Y-117599500D01*
X176000250Y-117566554D01*
X175943187Y-117533608D01*
X175879539Y-117516554D01*
X175815892Y-117499500D01*
X175815891Y-117499500D01*
X175684108Y-117499500D01*
X175556808Y-117533609D01*
X175556806Y-117533610D01*
X175442696Y-117599493D01*
X175442682Y-117599502D01*
X175353897Y-117688287D01*
X175339332Y-117700755D01*
X175322761Y-117712853D01*
X175257009Y-117736484D01*
X175188925Y-117720819D01*
X175180332Y-117715993D01*
X175155727Y-117693196D01*
X175153369Y-117695555D01*
X175057316Y-117599502D01*
X175057314Y-117599500D01*
X175000250Y-117566554D01*
X174943187Y-117533608D01*
X174879539Y-117516554D01*
X174815892Y-117499500D01*
X174815891Y-117499500D01*
X174684108Y-117499500D01*
X174556808Y-117533609D01*
X174556806Y-117533610D01*
X174442696Y-117599493D01*
X174442682Y-117599502D01*
X174353897Y-117688287D01*
X174339332Y-117700755D01*
X174322761Y-117712853D01*
X174257009Y-117736484D01*
X174188925Y-117720819D01*
X174180332Y-117715993D01*
X174155727Y-117693196D01*
X174153369Y-117695555D01*
X174057316Y-117599502D01*
X174057314Y-117599500D01*
X174000250Y-117566554D01*
X173943187Y-117533608D01*
X173879539Y-117516554D01*
X173815892Y-117499500D01*
X173815891Y-117499500D01*
X173684108Y-117499500D01*
X173556808Y-117533609D01*
X173556806Y-117533610D01*
X173442696Y-117599493D01*
X173442682Y-117599502D01*
X173353897Y-117688287D01*
X173339332Y-117700755D01*
X173322761Y-117712853D01*
X173257009Y-117736484D01*
X173188925Y-117720819D01*
X173180332Y-117715993D01*
X173155727Y-117693196D01*
X173153369Y-117695555D01*
X173057316Y-117599502D01*
X173057314Y-117599500D01*
X173000250Y-117566554D01*
X172943187Y-117533608D01*
X172879539Y-117516554D01*
X172815892Y-117499500D01*
X172815891Y-117499500D01*
X172684108Y-117499500D01*
X172556808Y-117533609D01*
X172556806Y-117533610D01*
X172442696Y-117599493D01*
X172442682Y-117599502D01*
X172353897Y-117688287D01*
X172339332Y-117700755D01*
X172322761Y-117712853D01*
X172257009Y-117736484D01*
X172188925Y-117720819D01*
X172180332Y-117715993D01*
X172155727Y-117693196D01*
X172153369Y-117695555D01*
X172057316Y-117599502D01*
X172057314Y-117599500D01*
X172000250Y-117566554D01*
X171943187Y-117533608D01*
X171879539Y-117516554D01*
X171815892Y-117499500D01*
X171815891Y-117499500D01*
X171684108Y-117499500D01*
X171556808Y-117533609D01*
X171556806Y-117533610D01*
X171442696Y-117599493D01*
X171442682Y-117599502D01*
X171353897Y-117688287D01*
X171339332Y-117700755D01*
X171322761Y-117712853D01*
X171257009Y-117736484D01*
X171188925Y-117720819D01*
X171180332Y-117715993D01*
X171155727Y-117693196D01*
X171153369Y-117695555D01*
X171057316Y-117599502D01*
X171057314Y-117599500D01*
X171000250Y-117566554D01*
X170943187Y-117533608D01*
X170879539Y-117516554D01*
X170815892Y-117499500D01*
X170815891Y-117499500D01*
X170684108Y-117499500D01*
X170556808Y-117533609D01*
X170556806Y-117533610D01*
X170442696Y-117599493D01*
X170442682Y-117599502D01*
X170353897Y-117688287D01*
X170339332Y-117700755D01*
X170322761Y-117712853D01*
X170257009Y-117736484D01*
X170188925Y-117720819D01*
X170180332Y-117715993D01*
X170155727Y-117693196D01*
X170153369Y-117695555D01*
X170057316Y-117599502D01*
X170057314Y-117599500D01*
X170000250Y-117566554D01*
X169943187Y-117533608D01*
X169879539Y-117516554D01*
X169815892Y-117499500D01*
X169815891Y-117499500D01*
X169684108Y-117499500D01*
X169556808Y-117533609D01*
X169556806Y-117533610D01*
X169442696Y-117599493D01*
X169442682Y-117599502D01*
X169442677Y-117599506D01*
X169349506Y-117692677D01*
X169349502Y-117692682D01*
X169349493Y-117692696D01*
X169283610Y-117806806D01*
X169283609Y-117806808D01*
X169272168Y-117849506D01*
X169249500Y-117934108D01*
X157000500Y-117934108D01*
X157000500Y-101934108D01*
X161249500Y-101934108D01*
X161249500Y-102065891D01*
X161266554Y-102129539D01*
X161283608Y-102193188D01*
X161299714Y-102221084D01*
X161316554Y-102250250D01*
X161349500Y-102307314D01*
X161349502Y-102307316D01*
X161442489Y-102400303D01*
X161446273Y-102404892D01*
X161446732Y-102405966D01*
X161450754Y-102410664D01*
X161462855Y-102427240D01*
X161486484Y-102492993D01*
X161470817Y-102561078D01*
X161465994Y-102569665D01*
X161445562Y-102596622D01*
X161349502Y-102692682D01*
X161349493Y-102692696D01*
X161283610Y-102806806D01*
X161283609Y-102806808D01*
X161283608Y-102806812D01*
X161249500Y-102934108D01*
X161249500Y-103065891D01*
X161266554Y-103129539D01*
X161283608Y-103193188D01*
X161299714Y-103221084D01*
X161316554Y-103250250D01*
X161349500Y-103307314D01*
X161349502Y-103307316D01*
X161442489Y-103400303D01*
X161446273Y-103404892D01*
X161446732Y-103405966D01*
X161450754Y-103410664D01*
X161462855Y-103427240D01*
X161486484Y-103492993D01*
X161470817Y-103561078D01*
X161465994Y-103569665D01*
X161445562Y-103596622D01*
X161349502Y-103692682D01*
X161349493Y-103692696D01*
X161283610Y-103806806D01*
X161283609Y-103806808D01*
X161283608Y-103806812D01*
X161249500Y-103934108D01*
X161249500Y-104065891D01*
X161266554Y-104129539D01*
X161283608Y-104193188D01*
X161299714Y-104221084D01*
X161316554Y-104250250D01*
X161349500Y-104307314D01*
X161349502Y-104307316D01*
X161442489Y-104400303D01*
X161446273Y-104404892D01*
X161446732Y-104405966D01*
X161450754Y-104410664D01*
X161462855Y-104427240D01*
X161486484Y-104492993D01*
X161470817Y-104561078D01*
X161465994Y-104569665D01*
X161445562Y-104596622D01*
X161349502Y-104692682D01*
X161349493Y-104692696D01*
X161283610Y-104806806D01*
X161283609Y-104806808D01*
X161283608Y-104806812D01*
X161249500Y-104934108D01*
X161249500Y-105065891D01*
X161266554Y-105129539D01*
X161283608Y-105193188D01*
X161299714Y-105221084D01*
X161316554Y-105250250D01*
X161349500Y-105307314D01*
X161349502Y-105307316D01*
X161442489Y-105400303D01*
X161446273Y-105404892D01*
X161446732Y-105405966D01*
X161450754Y-105410664D01*
X161462855Y-105427240D01*
X161486484Y-105492993D01*
X161470817Y-105561078D01*
X161465994Y-105569665D01*
X161445562Y-105596622D01*
X161349502Y-105692682D01*
X161349493Y-105692696D01*
X161283610Y-105806806D01*
X161283609Y-105806808D01*
X161283608Y-105806812D01*
X161249500Y-105934108D01*
X161249500Y-106065891D01*
X161266554Y-106129539D01*
X161283608Y-106193188D01*
X161299714Y-106221084D01*
X161316554Y-106250250D01*
X161349500Y-106307314D01*
X161349502Y-106307316D01*
X161442489Y-106400303D01*
X161446273Y-106404892D01*
X161446732Y-106405966D01*
X161450754Y-106410664D01*
X161462855Y-106427240D01*
X161486484Y-106492993D01*
X161470817Y-106561078D01*
X161465994Y-106569665D01*
X161445562Y-106596622D01*
X161349502Y-106692682D01*
X161349493Y-106692696D01*
X161283610Y-106806806D01*
X161283609Y-106806808D01*
X161283608Y-106806812D01*
X161249500Y-106934108D01*
X161249500Y-107065891D01*
X161266554Y-107129539D01*
X161283608Y-107193188D01*
X161299714Y-107221084D01*
X161316554Y-107250250D01*
X161349500Y-107307314D01*
X161349502Y-107307316D01*
X161442489Y-107400303D01*
X161446273Y-107404892D01*
X161446732Y-107405966D01*
X161450754Y-107410664D01*
X161462855Y-107427240D01*
X161486484Y-107492993D01*
X161470817Y-107561078D01*
X161465994Y-107569665D01*
X161445562Y-107596622D01*
X161349502Y-107692682D01*
X161349493Y-107692696D01*
X161283610Y-107806806D01*
X161283609Y-107806808D01*
X161283608Y-107806812D01*
X161249500Y-107934108D01*
X161249500Y-108065891D01*
X161266554Y-108129539D01*
X161283608Y-108193188D01*
X161299714Y-108221084D01*
X161316554Y-108250250D01*
X161349500Y-108307314D01*
X161349502Y-108307316D01*
X161442489Y-108400303D01*
X161446273Y-108404892D01*
X161446732Y-108405966D01*
X161450754Y-108410664D01*
X161462855Y-108427240D01*
X161486484Y-108492993D01*
X161470817Y-108561078D01*
X161465994Y-108569665D01*
X161445562Y-108596622D01*
X161349502Y-108692682D01*
X161349493Y-108692696D01*
X161283610Y-108806806D01*
X161283609Y-108806808D01*
X161283608Y-108806812D01*
X161249500Y-108934108D01*
X161249500Y-109065891D01*
X161260465Y-109106814D01*
X161283608Y-109193188D01*
X161307234Y-109234108D01*
X161316554Y-109250250D01*
X161349500Y-109307314D01*
X161442686Y-109400500D01*
X161556814Y-109466392D01*
X161684108Y-109500500D01*
X161684110Y-109500500D01*
X161815890Y-109500500D01*
X161815892Y-109500500D01*
X161943186Y-109466392D01*
X162057314Y-109400500D01*
X162146106Y-109311707D01*
X162160646Y-109299259D01*
X162177434Y-109287001D01*
X162243184Y-109263367D01*
X162310615Y-109278664D01*
X162315976Y-109281632D01*
X162315988Y-109281640D01*
X162318278Y-109282908D01*
X162321466Y-109285309D01*
X162333378Y-109293288D01*
X162333383Y-109293292D01*
X162332887Y-109293911D01*
X162345892Y-109303707D01*
X162445953Y-109403768D01*
X162466703Y-109431293D01*
X162466917Y-109431680D01*
X162469353Y-109436140D01*
X162469515Y-109436362D01*
X162471427Y-109439808D01*
X162478314Y-109470477D01*
X162486994Y-109500691D01*
X162485911Y-109504303D01*
X162486737Y-109507980D01*
X162476000Y-109537365D01*
X162469019Y-109560657D01*
X162470565Y-109561526D01*
X162465991Y-109569669D01*
X162445561Y-109596623D01*
X162349502Y-109692682D01*
X162349493Y-109692696D01*
X162283609Y-109806808D01*
X162276295Y-109834108D01*
X162276294Y-109834110D01*
X162249500Y-109934108D01*
X162249500Y-110065893D01*
X162267777Y-110134108D01*
X162267778Y-110134108D01*
X162279834Y-110179103D01*
X162279835Y-110179105D01*
X162283609Y-110193188D01*
X162283609Y-110193189D01*
X162344732Y-110299057D01*
X162345543Y-110300556D01*
X162346086Y-110303103D01*
X162356986Y-110330328D01*
X162361421Y-110348610D01*
X162359894Y-110412774D01*
X162356959Y-110422771D01*
X162345368Y-110449840D01*
X162283609Y-110556808D01*
X162275484Y-110587132D01*
X162271902Y-110600502D01*
X162249500Y-110684108D01*
X162249500Y-110815891D01*
X162259216Y-110852152D01*
X162283608Y-110943188D01*
X162316119Y-110999497D01*
X162349497Y-111057310D01*
X162349498Y-111057311D01*
X162349500Y-111057314D01*
X162442686Y-111150500D01*
X162556814Y-111216392D01*
X162684108Y-111250500D01*
X162684110Y-111250500D01*
X162815890Y-111250500D01*
X162815892Y-111250500D01*
X162943186Y-111216392D01*
X163057314Y-111150500D01*
X163146106Y-111061707D01*
X163160654Y-111049254D01*
X163177233Y-111037149D01*
X163242984Y-111013514D01*
X163311069Y-111029176D01*
X163319654Y-111033997D01*
X163346620Y-111054434D01*
X163349499Y-111057313D01*
X163349500Y-111057314D01*
X163442686Y-111150500D01*
X163556814Y-111216392D01*
X163684108Y-111250500D01*
X163684110Y-111250500D01*
X163815890Y-111250500D01*
X163815892Y-111250500D01*
X163943186Y-111216392D01*
X164057314Y-111150500D01*
X164127651Y-111080161D01*
X164133008Y-111077236D01*
X164133009Y-111077235D01*
X164159081Y-111062999D01*
X164188973Y-111046676D01*
X164188975Y-111046676D01*
X164194333Y-111043751D01*
X164264024Y-111048735D01*
X164319958Y-111090607D01*
X164344374Y-111156072D01*
X164341856Y-111191276D01*
X164340854Y-111195882D01*
X164327076Y-111231522D01*
X164283608Y-111306810D01*
X164281818Y-111313495D01*
X164281817Y-111313499D01*
X164249500Y-111434108D01*
X164249500Y-111477854D01*
X164244475Y-111512795D01*
X164240564Y-111526112D01*
X164202787Y-111584888D01*
X164139229Y-111613910D01*
X164139221Y-111613911D01*
X164137613Y-111614142D01*
X164079428Y-111608583D01*
X164074692Y-111606944D01*
X164053245Y-111597150D01*
X163999101Y-111565890D01*
X163943189Y-111533609D01*
X163943187Y-111533608D01*
X163943185Y-111533607D01*
X163846816Y-111507786D01*
X163815892Y-111499500D01*
X163815891Y-111499500D01*
X163684108Y-111499500D01*
X163556808Y-111533609D01*
X163556806Y-111533610D01*
X163442696Y-111599493D01*
X163442682Y-111599502D01*
X163353897Y-111688287D01*
X163339332Y-111700755D01*
X163322761Y-111712853D01*
X163257009Y-111736484D01*
X163188925Y-111720819D01*
X163180332Y-111715993D01*
X163155727Y-111693196D01*
X163153369Y-111695555D01*
X163057316Y-111599502D01*
X163057310Y-111599497D01*
X162993615Y-111562723D01*
X162943188Y-111533608D01*
X162879539Y-111516554D01*
X162846816Y-111507786D01*
X162815892Y-111499500D01*
X162815891Y-111499500D01*
X162684108Y-111499500D01*
X162556808Y-111533609D01*
X162556806Y-111533610D01*
X162442696Y-111599493D01*
X162442682Y-111599502D01*
X162353897Y-111688287D01*
X162339332Y-111700755D01*
X162322761Y-111712853D01*
X162257009Y-111736484D01*
X162188925Y-111720819D01*
X162180332Y-111715993D01*
X162155727Y-111693196D01*
X162153369Y-111695555D01*
X162057316Y-111599502D01*
X162057310Y-111599497D01*
X161993615Y-111562723D01*
X161943188Y-111533608D01*
X161879539Y-111516554D01*
X161846816Y-111507786D01*
X161815892Y-111499500D01*
X161815891Y-111499500D01*
X161684108Y-111499500D01*
X161556808Y-111533609D01*
X161556806Y-111533610D01*
X161442696Y-111599493D01*
X161442682Y-111599502D01*
X161442677Y-111599506D01*
X161349506Y-111692677D01*
X161349502Y-111692682D01*
X161349493Y-111692696D01*
X161283610Y-111806806D01*
X161283609Y-111806808D01*
X161277147Y-111830927D01*
X161249500Y-111934108D01*
X161249500Y-112065891D01*
X161258773Y-112100499D01*
X161283608Y-112193188D01*
X161299714Y-112221084D01*
X161316554Y-112250250D01*
X161349500Y-112307314D01*
X161349502Y-112307316D01*
X161442489Y-112400303D01*
X161446273Y-112404892D01*
X161446732Y-112405966D01*
X161450754Y-112410664D01*
X161462855Y-112427240D01*
X161486484Y-112492993D01*
X161470817Y-112561078D01*
X161465994Y-112569665D01*
X161445562Y-112596622D01*
X161349502Y-112692682D01*
X161349493Y-112692696D01*
X161283610Y-112806806D01*
X161283609Y-112806808D01*
X161272168Y-112849506D01*
X161249500Y-112934108D01*
X161249500Y-113065891D01*
X161266554Y-113129539D01*
X161283608Y-113193188D01*
X161299714Y-113221084D01*
X161316554Y-113250250D01*
X161349500Y-113307314D01*
X161349502Y-113307316D01*
X161442489Y-113400303D01*
X161446273Y-113404892D01*
X161446732Y-113405966D01*
X161450754Y-113410664D01*
X161462855Y-113427240D01*
X161486484Y-113492993D01*
X161470817Y-113561078D01*
X161465994Y-113569665D01*
X161445562Y-113596622D01*
X161349502Y-113692682D01*
X161349493Y-113692696D01*
X161283610Y-113806806D01*
X161283609Y-113806808D01*
X161283608Y-113806812D01*
X161249500Y-113934108D01*
X161249500Y-114065891D01*
X161256814Y-114093187D01*
X161283608Y-114193188D01*
X161291763Y-114207310D01*
X161291766Y-114207316D01*
X161349500Y-114307314D01*
X161349502Y-114307316D01*
X161438283Y-114396097D01*
X161450754Y-114410664D01*
X161462855Y-114427240D01*
X161486484Y-114492993D01*
X161470817Y-114561078D01*
X161465994Y-114569665D01*
X161445562Y-114596622D01*
X161349502Y-114692682D01*
X161349493Y-114692696D01*
X161283610Y-114806806D01*
X161283609Y-114806808D01*
X161283608Y-114806812D01*
X161249500Y-114934108D01*
X161249500Y-115065891D01*
X161266554Y-115129539D01*
X161283608Y-115193188D01*
X161299714Y-115221084D01*
X161316554Y-115250250D01*
X161349500Y-115307314D01*
X161349502Y-115307316D01*
X161442489Y-115400303D01*
X161446273Y-115404892D01*
X161446732Y-115405966D01*
X161450754Y-115410664D01*
X161462855Y-115427240D01*
X161486484Y-115492993D01*
X161470817Y-115561078D01*
X161465994Y-115569665D01*
X161445562Y-115596622D01*
X161349502Y-115692682D01*
X161349493Y-115692696D01*
X161283610Y-115806806D01*
X161283609Y-115806808D01*
X161272168Y-115849506D01*
X161249500Y-115934108D01*
X161249500Y-116065891D01*
X161266554Y-116129539D01*
X161283608Y-116193188D01*
X161299714Y-116221084D01*
X161316554Y-116250250D01*
X161349500Y-116307314D01*
X161349502Y-116307316D01*
X161442489Y-116400303D01*
X161446273Y-116404892D01*
X161446732Y-116405966D01*
X161450754Y-116410664D01*
X161462855Y-116427240D01*
X161486484Y-116492993D01*
X161470817Y-116561078D01*
X161465994Y-116569665D01*
X161445562Y-116596622D01*
X161349502Y-116692682D01*
X161349493Y-116692696D01*
X161283610Y-116806806D01*
X161283609Y-116806807D01*
X161283608Y-116806812D01*
X161272170Y-116849500D01*
X161272170Y-116849501D01*
X161272169Y-116849500D01*
X161249500Y-116934106D01*
X161249500Y-116934108D01*
X161249500Y-117065892D01*
X161266554Y-117129539D01*
X161283608Y-117193187D01*
X161316554Y-117250250D01*
X161349500Y-117307314D01*
X161442686Y-117400500D01*
X161556814Y-117466392D01*
X161684108Y-117500500D01*
X161684110Y-117500500D01*
X161815890Y-117500500D01*
X161815892Y-117500500D01*
X161943186Y-117466392D01*
X162057314Y-117400500D01*
X162146106Y-117311707D01*
X162160654Y-117299254D01*
X162177233Y-117287149D01*
X162242984Y-117263514D01*
X162311069Y-117279176D01*
X162319654Y-117283997D01*
X162346620Y-117304434D01*
X162349499Y-117307313D01*
X162349500Y-117307314D01*
X162442686Y-117400500D01*
X162556814Y-117466392D01*
X162684108Y-117500500D01*
X162684110Y-117500500D01*
X162815890Y-117500500D01*
X162815892Y-117500500D01*
X162943186Y-117466392D01*
X163057314Y-117400500D01*
X163146106Y-117311707D01*
X163160654Y-117299254D01*
X163177233Y-117287149D01*
X163242984Y-117263514D01*
X163311069Y-117279176D01*
X163319654Y-117283997D01*
X163346620Y-117304434D01*
X163349499Y-117307313D01*
X163349500Y-117307314D01*
X163442686Y-117400500D01*
X163556814Y-117466392D01*
X163684108Y-117500500D01*
X163684110Y-117500500D01*
X163815890Y-117500500D01*
X163815892Y-117500500D01*
X163943186Y-117466392D01*
X164057314Y-117400500D01*
X164150500Y-117307314D01*
X164216392Y-117193186D01*
X164218824Y-117184108D01*
X181249500Y-117184108D01*
X181249500Y-117315891D01*
X181272171Y-117400500D01*
X181283608Y-117443186D01*
X181283607Y-117443186D01*
X181283608Y-117443187D01*
X181297005Y-117466391D01*
X181349500Y-117557314D01*
X181442686Y-117650500D01*
X181556814Y-117716392D01*
X181684108Y-117750500D01*
X181684110Y-117750500D01*
X181815890Y-117750500D01*
X181815892Y-117750500D01*
X181943186Y-117716392D01*
X182057314Y-117650500D01*
X182150500Y-117557314D01*
X182216392Y-117443186D01*
X182250500Y-117315892D01*
X182250500Y-117184108D01*
X182216392Y-117056814D01*
X182150500Y-116942686D01*
X182141920Y-116934106D01*
X194249500Y-116934106D01*
X194249500Y-116934108D01*
X194249500Y-117065892D01*
X194266554Y-117129539D01*
X194283608Y-117193187D01*
X194316554Y-117250250D01*
X194349500Y-117307314D01*
X194442686Y-117400500D01*
X194556814Y-117466392D01*
X194684108Y-117500500D01*
X194684110Y-117500500D01*
X194815890Y-117500500D01*
X194815892Y-117500500D01*
X194943186Y-117466392D01*
X195057314Y-117400500D01*
X195150500Y-117307314D01*
X195216392Y-117193186D01*
X195250500Y-117065892D01*
X195250500Y-116934108D01*
X195250499Y-116934106D01*
X195499500Y-116934106D01*
X195499500Y-116934108D01*
X195499500Y-117065892D01*
X195516554Y-117129539D01*
X195533608Y-117193187D01*
X195566554Y-117250250D01*
X195599500Y-117307314D01*
X195692686Y-117400500D01*
X195806814Y-117466392D01*
X195934108Y-117500500D01*
X195934110Y-117500500D01*
X196065890Y-117500500D01*
X196065892Y-117500500D01*
X196193186Y-117466392D01*
X196307314Y-117400500D01*
X196400500Y-117307314D01*
X196466392Y-117193186D01*
X196482222Y-117134106D01*
X207099500Y-117134106D01*
X207099500Y-117265893D01*
X207112897Y-117315891D01*
X207133608Y-117393186D01*
X207133608Y-117393187D01*
X207162476Y-117443186D01*
X207199500Y-117507314D01*
X207292686Y-117600500D01*
X207406814Y-117666392D01*
X207534108Y-117700500D01*
X207534110Y-117700500D01*
X207665890Y-117700500D01*
X207665892Y-117700500D01*
X207793186Y-117666392D01*
X207907314Y-117600500D01*
X208000500Y-117507314D01*
X208066392Y-117393186D01*
X208100500Y-117265892D01*
X208100500Y-117134108D01*
X208100499Y-117134106D01*
X210399500Y-117134106D01*
X210399500Y-117265893D01*
X210412897Y-117315891D01*
X210433608Y-117393186D01*
X210433608Y-117393187D01*
X210462476Y-117443186D01*
X210499500Y-117507314D01*
X210592686Y-117600500D01*
X210706814Y-117666392D01*
X210834108Y-117700500D01*
X210834110Y-117700500D01*
X210965890Y-117700500D01*
X210965892Y-117700500D01*
X211093186Y-117666392D01*
X211207314Y-117600500D01*
X211300500Y-117507314D01*
X211366392Y-117393186D01*
X211400500Y-117265892D01*
X211400500Y-117134108D01*
X211366392Y-117006814D01*
X211366387Y-117006806D01*
X211329373Y-116942696D01*
X211300500Y-116892686D01*
X211207314Y-116799500D01*
X211120712Y-116749500D01*
X211120712Y-116749499D01*
X211120709Y-116749498D01*
X211104039Y-116739873D01*
X211093188Y-116733608D01*
X211028934Y-116716392D01*
X210965892Y-116699500D01*
X210965891Y-116699500D01*
X210834108Y-116699500D01*
X210706808Y-116733609D01*
X210706806Y-116733610D01*
X210592696Y-116799493D01*
X210592682Y-116799502D01*
X210592677Y-116799506D01*
X210499506Y-116892677D01*
X210499502Y-116892682D01*
X210499493Y-116892696D01*
X210433610Y-117006806D01*
X210433609Y-117006809D01*
X210433608Y-117006811D01*
X210433608Y-117006812D01*
X210420213Y-117056806D01*
X210417778Y-117065892D01*
X210399500Y-117134106D01*
X208100499Y-117134106D01*
X208066392Y-117006814D01*
X208066387Y-117006806D01*
X208029373Y-116942696D01*
X208000500Y-116892686D01*
X207907314Y-116799500D01*
X207820712Y-116749500D01*
X207820712Y-116749499D01*
X207820709Y-116749498D01*
X207804039Y-116739873D01*
X207793188Y-116733608D01*
X207728934Y-116716392D01*
X207665892Y-116699500D01*
X207665891Y-116699500D01*
X207534108Y-116699500D01*
X207406808Y-116733609D01*
X207406806Y-116733610D01*
X207292696Y-116799493D01*
X207292682Y-116799502D01*
X207292677Y-116799506D01*
X207199506Y-116892677D01*
X207199502Y-116892682D01*
X207199493Y-116892696D01*
X207133610Y-117006806D01*
X207133609Y-117006809D01*
X207133608Y-117006811D01*
X207133608Y-117006812D01*
X207120213Y-117056806D01*
X207117778Y-117065892D01*
X207099500Y-117134106D01*
X196482222Y-117134106D01*
X196500500Y-117065892D01*
X196500500Y-116934108D01*
X196466392Y-116806814D01*
X196466387Y-116806806D01*
X196452995Y-116783610D01*
X196400500Y-116692686D01*
X196307314Y-116599500D01*
X196250250Y-116566554D01*
X196193187Y-116533608D01*
X196129539Y-116516554D01*
X196065892Y-116499500D01*
X196065891Y-116499500D01*
X195934108Y-116499500D01*
X195806808Y-116533609D01*
X195806806Y-116533610D01*
X195692696Y-116599493D01*
X195692682Y-116599502D01*
X195692677Y-116599506D01*
X195599506Y-116692677D01*
X195599502Y-116692682D01*
X195599493Y-116692696D01*
X195533610Y-116806806D01*
X195533609Y-116806807D01*
X195533608Y-116806812D01*
X195522170Y-116849500D01*
X195522170Y-116849501D01*
X195522169Y-116849500D01*
X195499500Y-116934106D01*
X195250499Y-116934106D01*
X195216392Y-116806814D01*
X195216387Y-116806806D01*
X195202995Y-116783610D01*
X195150500Y-116692686D01*
X195057314Y-116599500D01*
X195000250Y-116566554D01*
X194943187Y-116533608D01*
X194879539Y-116516554D01*
X194815892Y-116499500D01*
X194815891Y-116499500D01*
X194684108Y-116499500D01*
X194556808Y-116533609D01*
X194556806Y-116533610D01*
X194442696Y-116599493D01*
X194442682Y-116599502D01*
X194442677Y-116599506D01*
X194349506Y-116692677D01*
X194349502Y-116692682D01*
X194349493Y-116692696D01*
X194283610Y-116806806D01*
X194283609Y-116806807D01*
X194283608Y-116806812D01*
X194272170Y-116849500D01*
X194272170Y-116849501D01*
X194272169Y-116849500D01*
X194249500Y-116934106D01*
X182141920Y-116934106D01*
X182073101Y-116865287D01*
X182069342Y-116860735D01*
X182065986Y-116852900D01*
X182058411Y-116841788D01*
X182054105Y-116840851D01*
X182018472Y-116827074D01*
X181957325Y-116791771D01*
X181950793Y-116786758D01*
X181935580Y-116780457D01*
X181927418Y-116779383D01*
X181920642Y-116777567D01*
X181815892Y-116749500D01*
X181815891Y-116749500D01*
X181684108Y-116749500D01*
X181556808Y-116783609D01*
X181556806Y-116783610D01*
X181442696Y-116849493D01*
X181442682Y-116849502D01*
X181442677Y-116849506D01*
X181349506Y-116942677D01*
X181349502Y-116942682D01*
X181349493Y-116942696D01*
X181283610Y-117056806D01*
X181283609Y-117056808D01*
X181283608Y-117056812D01*
X181249500Y-117184108D01*
X164218824Y-117184108D01*
X164250500Y-117065892D01*
X164250500Y-116934108D01*
X164216392Y-116806814D01*
X164216387Y-116806806D01*
X164202995Y-116783610D01*
X164150500Y-116692686D01*
X164061717Y-116603903D01*
X164049254Y-116589345D01*
X164037150Y-116572768D01*
X164013514Y-116507017D01*
X164029176Y-116438931D01*
X164033998Y-116430344D01*
X164054436Y-116403376D01*
X164057310Y-116400502D01*
X164057314Y-116400500D01*
X164150500Y-116307314D01*
X164216392Y-116193186D01*
X164218824Y-116184108D01*
X181999500Y-116184108D01*
X181999500Y-116315891D01*
X182016554Y-116379539D01*
X182033608Y-116443188D01*
X182042195Y-116458060D01*
X182047005Y-116466391D01*
X182099500Y-116557314D01*
X182099502Y-116557316D01*
X182169835Y-116627649D01*
X182172764Y-116633013D01*
X182172769Y-116633016D01*
X182186246Y-116657703D01*
X182199538Y-116657932D01*
X182200133Y-116658193D01*
X182206135Y-116658265D01*
X182306814Y-116716392D01*
X182434108Y-116750500D01*
X182565892Y-116750500D01*
X182693186Y-116716392D01*
X182807314Y-116650500D01*
X182900500Y-116557314D01*
X182966392Y-116443186D01*
X183000500Y-116315892D01*
X183000500Y-116184108D01*
X182966392Y-116056814D01*
X182900500Y-115942686D01*
X182891922Y-115934108D01*
X192999500Y-115934108D01*
X192999500Y-116065891D01*
X193016554Y-116129539D01*
X193033608Y-116193188D01*
X193066554Y-116250250D01*
X193099500Y-116307314D01*
X193192686Y-116400500D01*
X193306814Y-116466392D01*
X193434108Y-116500500D01*
X193434110Y-116500500D01*
X193565890Y-116500500D01*
X193565892Y-116500500D01*
X193693186Y-116466392D01*
X193807314Y-116400500D01*
X193900500Y-116307314D01*
X193966392Y-116193186D01*
X194000500Y-116065892D01*
X194000500Y-115934108D01*
X193966392Y-115806814D01*
X193966387Y-115806806D01*
X193952995Y-115783610D01*
X193900500Y-115692686D01*
X193807314Y-115599500D01*
X193707630Y-115541947D01*
X193693187Y-115533608D01*
X193629539Y-115516554D01*
X193565892Y-115499500D01*
X193565891Y-115499500D01*
X193434108Y-115499500D01*
X193306808Y-115533609D01*
X193306806Y-115533610D01*
X193192696Y-115599493D01*
X193192682Y-115599502D01*
X193192677Y-115599506D01*
X193099506Y-115692677D01*
X193099502Y-115692682D01*
X193099493Y-115692696D01*
X193033610Y-115806806D01*
X193033609Y-115806808D01*
X193022168Y-115849506D01*
X192999500Y-115934108D01*
X182891922Y-115934108D01*
X182807314Y-115849500D01*
X182733380Y-115806814D01*
X182693187Y-115783608D01*
X182629539Y-115766554D01*
X182565892Y-115749500D01*
X182565891Y-115749500D01*
X182434108Y-115749500D01*
X182306808Y-115783609D01*
X182306806Y-115783610D01*
X182192696Y-115849493D01*
X182192682Y-115849502D01*
X182192677Y-115849506D01*
X182099506Y-115942677D01*
X182099502Y-115942682D01*
X182099493Y-115942696D01*
X182033610Y-116056806D01*
X182033609Y-116056808D01*
X182033608Y-116056812D01*
X181999500Y-116184108D01*
X164218824Y-116184108D01*
X164250500Y-116065892D01*
X164250500Y-115934108D01*
X164216392Y-115806814D01*
X164216387Y-115806806D01*
X164202995Y-115783610D01*
X164150500Y-115692686D01*
X164057314Y-115599500D01*
X163957630Y-115541947D01*
X163943187Y-115533608D01*
X163879539Y-115516554D01*
X163815892Y-115499500D01*
X163815891Y-115499500D01*
X163684108Y-115499500D01*
X163556808Y-115533609D01*
X163556806Y-115533610D01*
X163442696Y-115599493D01*
X163442682Y-115599502D01*
X163353897Y-115688287D01*
X163339332Y-115700755D01*
X163322761Y-115712853D01*
X163257009Y-115736484D01*
X163188925Y-115720819D01*
X163180332Y-115715993D01*
X163155727Y-115693196D01*
X163153369Y-115695555D01*
X163057316Y-115599502D01*
X163057314Y-115599500D01*
X162957630Y-115541947D01*
X162943187Y-115533608D01*
X162879539Y-115516554D01*
X162815892Y-115499500D01*
X162815891Y-115499500D01*
X162684108Y-115499500D01*
X162556808Y-115533609D01*
X162556806Y-115533610D01*
X162442696Y-115599493D01*
X162442682Y-115599502D01*
X162353897Y-115688287D01*
X162339334Y-115700753D01*
X162322561Y-115712999D01*
X162256810Y-115736632D01*
X162189359Y-115721322D01*
X162183999Y-115718353D01*
X162183999Y-115718352D01*
X162183996Y-115718351D01*
X162181705Y-115717082D01*
X162154107Y-115696292D01*
X162054044Y-115596229D01*
X162033291Y-115568699D01*
X162033134Y-115568416D01*
X162030649Y-115563865D01*
X162030484Y-115563639D01*
X162028567Y-115560183D01*
X162021676Y-115529494D01*
X162013003Y-115499259D01*
X162014082Y-115495667D01*
X162013261Y-115492010D01*
X162024055Y-115462467D01*
X162030995Y-115439369D01*
X162029424Y-115438487D01*
X162031415Y-115434942D01*
X162033997Y-115430343D01*
X162054433Y-115403379D01*
X162057310Y-115400502D01*
X162057314Y-115400500D01*
X162150500Y-115307314D01*
X162216392Y-115193186D01*
X162250500Y-115065892D01*
X162250500Y-115034108D01*
X206999500Y-115034108D01*
X206999500Y-115165891D01*
X207006814Y-115193187D01*
X207033608Y-115293188D01*
X207041764Y-115307312D01*
X207041766Y-115307316D01*
X207099500Y-115407314D01*
X207192686Y-115500500D01*
X207306814Y-115566392D01*
X207434108Y-115600500D01*
X207434110Y-115600500D01*
X207565890Y-115600500D01*
X207565892Y-115600500D01*
X207693186Y-115566392D01*
X207807314Y-115500500D01*
X207900500Y-115407314D01*
X207966392Y-115293186D01*
X208000500Y-115165892D01*
X208000500Y-115034108D01*
X207966392Y-114906814D01*
X207966387Y-114906806D01*
X207957563Y-114891521D01*
X207900500Y-114792686D01*
X207807314Y-114699500D01*
X207750250Y-114666554D01*
X207693187Y-114633608D01*
X207629539Y-114616554D01*
X207565892Y-114599500D01*
X207565891Y-114599500D01*
X207434108Y-114599500D01*
X207306808Y-114633609D01*
X207306806Y-114633610D01*
X207192696Y-114699493D01*
X207192682Y-114699502D01*
X207192677Y-114699506D01*
X207099506Y-114792677D01*
X207099502Y-114792682D01*
X207099493Y-114792696D01*
X207033610Y-114906806D01*
X207033609Y-114906808D01*
X207033608Y-114906812D01*
X206999500Y-115034108D01*
X162250500Y-115034108D01*
X162250500Y-114934108D01*
X162216392Y-114806814D01*
X162216387Y-114806806D01*
X162207563Y-114791521D01*
X162150500Y-114692686D01*
X162061717Y-114603903D01*
X162049254Y-114589345D01*
X162037150Y-114572768D01*
X162013514Y-114507017D01*
X162029176Y-114438931D01*
X162033998Y-114430344D01*
X162054436Y-114403376D01*
X162057310Y-114400502D01*
X162057314Y-114400500D01*
X162150500Y-114307314D01*
X162216392Y-114193186D01*
X162250500Y-114065892D01*
X162250500Y-113934108D01*
X162223705Y-113834108D01*
X180099500Y-113834108D01*
X180099500Y-113965891D01*
X180116554Y-114029539D01*
X180133608Y-114093188D01*
X180166554Y-114150250D01*
X180199500Y-114207314D01*
X180292686Y-114300500D01*
X180406814Y-114366392D01*
X180534108Y-114400500D01*
X180534110Y-114400500D01*
X180665890Y-114400500D01*
X180665892Y-114400500D01*
X180793186Y-114366392D01*
X180907314Y-114300500D01*
X181000500Y-114207314D01*
X181066392Y-114093186D01*
X181100500Y-113965892D01*
X181100500Y-113834108D01*
X181066392Y-113706814D01*
X181066387Y-113706806D01*
X181033877Y-113650497D01*
X181000500Y-113592686D01*
X180907314Y-113499500D01*
X180835538Y-113458060D01*
X180835538Y-113458059D01*
X180835536Y-113458059D01*
X180793187Y-113433608D01*
X180729539Y-113416554D01*
X180665892Y-113399500D01*
X180665891Y-113399500D01*
X180534108Y-113399500D01*
X180406808Y-113433609D01*
X180406806Y-113433610D01*
X180292696Y-113499493D01*
X180292682Y-113499502D01*
X180292677Y-113499506D01*
X180199506Y-113592677D01*
X180199502Y-113592682D01*
X180199493Y-113592696D01*
X180133610Y-113706806D01*
X180133609Y-113706808D01*
X180133608Y-113706812D01*
X180099500Y-113834108D01*
X162223705Y-113834108D01*
X162216392Y-113806814D01*
X162150500Y-113692686D01*
X162061717Y-113603903D01*
X162049255Y-113589346D01*
X162037004Y-113572568D01*
X162013367Y-113506817D01*
X162028670Y-113439374D01*
X162032909Y-113431719D01*
X162053706Y-113404108D01*
X162153771Y-113304043D01*
X162182025Y-113282892D01*
X162186131Y-113280651D01*
X162186135Y-113280647D01*
X162189701Y-113278701D01*
X162190567Y-113280288D01*
X162250633Y-113263003D01*
X162310644Y-113280975D01*
X162311515Y-113279426D01*
X162315055Y-113281414D01*
X162315058Y-113281416D01*
X162319654Y-113283997D01*
X162346619Y-113304433D01*
X162349499Y-113307313D01*
X162349500Y-113307314D01*
X162442686Y-113400500D01*
X162556814Y-113466392D01*
X162684108Y-113500500D01*
X162684110Y-113500500D01*
X162815890Y-113500500D01*
X162815892Y-113500500D01*
X162943186Y-113466392D01*
X163057314Y-113400500D01*
X163146106Y-113311707D01*
X163160654Y-113299254D01*
X163177233Y-113287149D01*
X163242984Y-113263514D01*
X163311069Y-113279176D01*
X163319654Y-113283997D01*
X163346620Y-113304434D01*
X163349499Y-113307313D01*
X163349500Y-113307314D01*
X163442686Y-113400500D01*
X163556814Y-113466392D01*
X163684108Y-113500500D01*
X163684110Y-113500500D01*
X163815890Y-113500500D01*
X163815892Y-113500500D01*
X163943186Y-113466392D01*
X164057314Y-113400500D01*
X164150500Y-113307314D01*
X164216392Y-113193186D01*
X164250500Y-113065892D01*
X164250500Y-112934108D01*
X164216392Y-112806814D01*
X164216387Y-112806806D01*
X164202995Y-112783610D01*
X164150500Y-112692686D01*
X164061717Y-112603903D01*
X164049254Y-112589345D01*
X164037150Y-112572768D01*
X164013514Y-112507017D01*
X164029176Y-112438931D01*
X164033998Y-112430344D01*
X164054436Y-112403376D01*
X164057310Y-112400502D01*
X164057314Y-112400500D01*
X164150500Y-112307314D01*
X164216392Y-112193186D01*
X164250500Y-112065892D01*
X164250500Y-112022144D01*
X164255522Y-111987211D01*
X164259433Y-111973892D01*
X164297206Y-111915115D01*
X164360758Y-111886090D01*
X164362399Y-111885854D01*
X164420566Y-111891413D01*
X164425299Y-111893051D01*
X164446743Y-111902842D01*
X164556814Y-111966392D01*
X164684108Y-112000500D01*
X164684110Y-112000500D01*
X164815890Y-112000500D01*
X164815892Y-112000500D01*
X164943186Y-111966392D01*
X165057314Y-111900500D01*
X165127651Y-111830161D01*
X165133008Y-111827236D01*
X165133009Y-111827235D01*
X165157688Y-111813760D01*
X165188973Y-111796676D01*
X165188975Y-111796676D01*
X165194333Y-111793751D01*
X165264024Y-111798735D01*
X165319958Y-111840607D01*
X165344374Y-111906072D01*
X165341856Y-111941276D01*
X165340854Y-111945882D01*
X165327076Y-111981522D01*
X165283608Y-112056810D01*
X165249500Y-112184108D01*
X165249500Y-112315892D01*
X165249523Y-112315976D01*
X165275058Y-112411281D01*
X165279600Y-112428229D01*
X165283609Y-112443188D01*
X165283609Y-112443189D01*
X165345421Y-112550250D01*
X165346841Y-112553022D01*
X165347552Y-112556763D01*
X165356986Y-112580328D01*
X165361421Y-112598610D01*
X165359894Y-112662774D01*
X165356959Y-112672771D01*
X165345368Y-112699840D01*
X165283609Y-112806809D01*
X165283608Y-112806813D01*
X165283608Y-112806814D01*
X165272170Y-112849502D01*
X165249500Y-112934108D01*
X165249500Y-113065891D01*
X165266554Y-113129539D01*
X165283608Y-113193188D01*
X165316554Y-113250250D01*
X165349500Y-113307314D01*
X165442686Y-113400500D01*
X165556814Y-113466392D01*
X165684108Y-113500500D01*
X165684110Y-113500500D01*
X165815890Y-113500500D01*
X165815892Y-113500500D01*
X165943186Y-113466392D01*
X166057314Y-113400500D01*
X166150500Y-113307314D01*
X166216392Y-113193186D01*
X166250500Y-113065892D01*
X166250500Y-112934108D01*
X185999500Y-112934108D01*
X185999500Y-113065891D01*
X186016554Y-113129539D01*
X186033608Y-113193188D01*
X186066554Y-113250250D01*
X186099500Y-113307314D01*
X186192686Y-113400500D01*
X186306814Y-113466392D01*
X186434108Y-113500500D01*
X186434110Y-113500500D01*
X186565890Y-113500500D01*
X186565892Y-113500500D01*
X186693186Y-113466392D01*
X186807314Y-113400500D01*
X186900500Y-113307314D01*
X186966392Y-113193186D01*
X186968824Y-113184108D01*
X204249500Y-113184108D01*
X204249500Y-113315891D01*
X204266554Y-113379539D01*
X204283608Y-113443188D01*
X204292194Y-113458059D01*
X204297005Y-113466391D01*
X204349500Y-113557314D01*
X204442686Y-113650500D01*
X204556814Y-113716392D01*
X204684108Y-113750500D01*
X204684110Y-113750500D01*
X204815890Y-113750500D01*
X204815892Y-113750500D01*
X204943186Y-113716392D01*
X205057314Y-113650500D01*
X205150500Y-113557314D01*
X205216392Y-113443186D01*
X205250500Y-113315892D01*
X205250500Y-113184108D01*
X205216392Y-113056814D01*
X205216387Y-113056806D01*
X205207563Y-113041521D01*
X205150500Y-112942686D01*
X205057314Y-112849500D01*
X204983380Y-112806814D01*
X204943187Y-112783608D01*
X204879539Y-112766554D01*
X204815892Y-112749500D01*
X204815891Y-112749500D01*
X204684108Y-112749500D01*
X204556808Y-112783609D01*
X204556806Y-112783610D01*
X204442696Y-112849493D01*
X204442682Y-112849502D01*
X204442677Y-112849506D01*
X204349506Y-112942677D01*
X204349502Y-112942682D01*
X204349493Y-112942696D01*
X204283610Y-113056806D01*
X204283609Y-113056808D01*
X204283608Y-113056812D01*
X204249500Y-113184108D01*
X186968824Y-113184108D01*
X187000500Y-113065892D01*
X187000500Y-112934108D01*
X186966392Y-112806814D01*
X186966387Y-112806806D01*
X186952995Y-112783610D01*
X186900500Y-112692686D01*
X186807314Y-112599500D01*
X186702297Y-112538868D01*
X186700624Y-112537902D01*
X186693189Y-112533608D01*
X186629539Y-112516554D01*
X186593946Y-112507017D01*
X186565892Y-112499500D01*
X186565891Y-112499500D01*
X186434108Y-112499500D01*
X186306808Y-112533609D01*
X186306806Y-112533610D01*
X186192696Y-112599493D01*
X186192682Y-112599502D01*
X186192677Y-112599506D01*
X186099506Y-112692677D01*
X186099502Y-112692682D01*
X186099493Y-112692696D01*
X186033610Y-112806806D01*
X186033609Y-112806808D01*
X186022168Y-112849506D01*
X185999500Y-112934108D01*
X166250500Y-112934108D01*
X166216392Y-112806814D01*
X166156125Y-112702430D01*
X166143015Y-112669683D01*
X166138576Y-112651384D01*
X166140104Y-112587220D01*
X166143042Y-112577216D01*
X166154626Y-112550166D01*
X166216392Y-112443186D01*
X166250500Y-112315892D01*
X166250500Y-112184108D01*
X166216392Y-112056814D01*
X166156125Y-111952430D01*
X166143015Y-111919683D01*
X166138576Y-111901384D01*
X166140104Y-111837220D01*
X166143042Y-111827216D01*
X166154626Y-111800166D01*
X166216392Y-111693186D01*
X166250500Y-111565892D01*
X166250500Y-111484108D01*
X180149500Y-111484108D01*
X180149500Y-111615891D01*
X180150178Y-111618422D01*
X180183608Y-111743188D01*
X180207213Y-111784072D01*
X180210091Y-111789056D01*
X180249500Y-111857314D01*
X180342686Y-111950500D01*
X180456814Y-112016392D01*
X180584108Y-112050500D01*
X180584110Y-112050500D01*
X180715890Y-112050500D01*
X180715892Y-112050500D01*
X180843186Y-112016392D01*
X180957314Y-111950500D01*
X181050500Y-111857314D01*
X181116392Y-111743186D01*
X181150500Y-111615892D01*
X181150500Y-111484108D01*
X181116392Y-111356814D01*
X181116387Y-111356806D01*
X181102019Y-111331920D01*
X181050500Y-111242686D01*
X180957314Y-111149500D01*
X180900250Y-111116554D01*
X180843187Y-111083608D01*
X180766271Y-111062999D01*
X180759034Y-111061059D01*
X180759027Y-111061057D01*
X180715893Y-111049500D01*
X180715892Y-111049500D01*
X180584108Y-111049500D01*
X180456808Y-111083609D01*
X180456806Y-111083610D01*
X180342696Y-111149493D01*
X180342682Y-111149502D01*
X180342677Y-111149506D01*
X180249506Y-111242677D01*
X180249502Y-111242682D01*
X180249493Y-111242696D01*
X180183610Y-111356806D01*
X180183609Y-111356808D01*
X180172964Y-111396536D01*
X180149500Y-111484108D01*
X166250500Y-111484108D01*
X166250500Y-111434108D01*
X166216392Y-111306814D01*
X166156125Y-111202430D01*
X166143015Y-111169683D01*
X166138576Y-111151384D01*
X166140104Y-111087220D01*
X166143042Y-111077216D01*
X166154626Y-111050166D01*
X166216392Y-110943186D01*
X166218825Y-110934104D01*
X182999500Y-110934104D01*
X182999500Y-111065893D01*
X183004247Y-111083608D01*
X183008505Y-111099500D01*
X183033608Y-111193187D01*
X183041475Y-111206812D01*
X183099500Y-111307314D01*
X183192686Y-111400500D01*
X183306814Y-111466392D01*
X183434108Y-111500500D01*
X183434110Y-111500500D01*
X183477855Y-111500500D01*
X183512787Y-111505521D01*
X183526106Y-111509432D01*
X183584884Y-111547206D01*
X183613910Y-111610761D01*
X183613914Y-111610788D01*
X183614145Y-111612397D01*
X183608586Y-111670566D01*
X183606949Y-111675297D01*
X183597153Y-111696751D01*
X183572468Y-111739506D01*
X183533608Y-111806810D01*
X183506679Y-111907314D01*
X183499500Y-111934108D01*
X183499500Y-112065891D01*
X183508773Y-112100499D01*
X183533608Y-112193188D01*
X183566554Y-112250250D01*
X183599500Y-112307314D01*
X183692686Y-112400500D01*
X183806814Y-112466392D01*
X183934108Y-112500500D01*
X183934110Y-112500500D01*
X184065890Y-112500500D01*
X184065892Y-112500500D01*
X184193186Y-112466392D01*
X184307314Y-112400500D01*
X184400500Y-112307314D01*
X184466392Y-112193186D01*
X184500500Y-112065892D01*
X184500500Y-111934108D01*
X184466392Y-111806814D01*
X184466387Y-111806806D01*
X184429657Y-111743188D01*
X184400500Y-111692686D01*
X184307314Y-111599500D01*
X184231229Y-111555572D01*
X184231227Y-111555571D01*
X184207318Y-111541767D01*
X184200791Y-111536758D01*
X184193187Y-111533608D01*
X184193186Y-111533608D01*
X184185579Y-111530457D01*
X184177418Y-111529383D01*
X184115510Y-111512795D01*
X184065892Y-111499500D01*
X184065891Y-111499500D01*
X184022145Y-111499500D01*
X183987206Y-111494476D01*
X183973888Y-111490565D01*
X183915111Y-111452789D01*
X183906581Y-111434108D01*
X187749500Y-111434108D01*
X187749500Y-111565891D01*
X187762897Y-111615890D01*
X187783608Y-111693188D01*
X187791766Y-111707316D01*
X187791768Y-111707320D01*
X187799562Y-111720819D01*
X187849500Y-111807314D01*
X187942686Y-111900500D01*
X188056814Y-111966392D01*
X188184108Y-112000500D01*
X188184110Y-112000500D01*
X188315890Y-112000500D01*
X188315892Y-112000500D01*
X188443186Y-111966392D01*
X188557314Y-111900500D01*
X188650500Y-111807314D01*
X188716392Y-111693186D01*
X188750500Y-111565892D01*
X188750500Y-111434108D01*
X188716392Y-111306814D01*
X188716387Y-111306806D01*
X188707563Y-111291521D01*
X188650500Y-111192686D01*
X188557314Y-111099500D01*
X188557312Y-111099499D01*
X188557310Y-111099497D01*
X188502331Y-111067755D01*
X188502329Y-111067754D01*
X188494093Y-111062999D01*
X188443187Y-111033608D01*
X188356911Y-111010491D01*
X188350400Y-111008746D01*
X188350394Y-111008744D01*
X188315893Y-110999500D01*
X188315892Y-110999500D01*
X188184108Y-110999500D01*
X188056808Y-111033609D01*
X188056806Y-111033610D01*
X187942696Y-111099493D01*
X187942682Y-111099502D01*
X187942677Y-111099506D01*
X187849506Y-111192677D01*
X187849502Y-111192682D01*
X187849493Y-111192696D01*
X187783610Y-111306806D01*
X187783609Y-111306808D01*
X187776294Y-111334108D01*
X187749500Y-111434108D01*
X183906581Y-111434108D01*
X183886089Y-111389232D01*
X183886088Y-111389229D01*
X183885854Y-111387599D01*
X183891413Y-111329433D01*
X183893052Y-111324696D01*
X183902845Y-111303252D01*
X183966392Y-111193186D01*
X184000500Y-111065892D01*
X184000500Y-110934108D01*
X183966392Y-110806814D01*
X183966387Y-110806806D01*
X183945758Y-110771075D01*
X183900500Y-110692686D01*
X183838061Y-110630247D01*
X191079500Y-110630247D01*
X191079500Y-112369752D01*
X191091131Y-112428229D01*
X191091132Y-112428230D01*
X191091132Y-112428231D01*
X191091134Y-112428233D01*
X191135447Y-112494552D01*
X191201765Y-112538864D01*
X191201767Y-112538866D01*
X191201770Y-112538868D01*
X191252612Y-112548981D01*
X191255337Y-112549703D01*
X191260249Y-112550500D01*
X192999750Y-112550500D01*
X193003873Y-112550500D01*
X193011732Y-112548116D01*
X193036595Y-112543171D01*
X193046258Y-112541249D01*
X193052354Y-112540648D01*
X193052386Y-112540639D01*
X193063311Y-112537902D01*
X193073515Y-112528654D01*
X193124552Y-112494552D01*
X193168867Y-112428231D01*
X193168867Y-112428229D01*
X193168868Y-112428229D01*
X193171030Y-112417355D01*
X193171166Y-112417090D01*
X193171249Y-112416256D01*
X193172362Y-112410664D01*
X193180072Y-112371896D01*
X193180500Y-112369931D01*
X193180500Y-111603471D01*
X193619499Y-111603471D01*
X193659864Y-111806394D01*
X193659870Y-111806421D01*
X193726130Y-111966388D01*
X193739059Y-111997599D01*
X193739061Y-111997602D01*
X193740996Y-112000499D01*
X193740997Y-112000499D01*
X193854025Y-112169659D01*
X194000336Y-112315970D01*
X194000340Y-112315973D01*
X194000342Y-112315975D01*
X194000345Y-112315977D01*
X194000349Y-112315980D01*
X194000348Y-112315980D01*
X194000411Y-112316032D01*
X194000448Y-112316046D01*
X194172402Y-112430941D01*
X194363580Y-112510130D01*
X194481613Y-112533608D01*
X194558898Y-112548981D01*
X194563559Y-112549908D01*
X194565794Y-112550409D01*
X194566532Y-112550500D01*
X194773466Y-112550500D01*
X194777586Y-112550500D01*
X194785435Y-112548118D01*
X194976420Y-112510130D01*
X195167598Y-112430941D01*
X195339655Y-112315977D01*
X195485977Y-112169655D01*
X195600941Y-111997598D01*
X195680130Y-111806420D01*
X195720499Y-111603471D01*
X196159499Y-111603471D01*
X196199864Y-111806394D01*
X196199870Y-111806421D01*
X196266130Y-111966388D01*
X196279059Y-111997599D01*
X196279061Y-111997602D01*
X196280996Y-112000499D01*
X196280997Y-112000499D01*
X196394025Y-112169659D01*
X196540336Y-112315970D01*
X196540340Y-112315973D01*
X196540342Y-112315975D01*
X196540345Y-112315977D01*
X196540349Y-112315980D01*
X196540348Y-112315980D01*
X196540411Y-112316032D01*
X196540448Y-112316046D01*
X196712402Y-112430941D01*
X196903580Y-112510130D01*
X197021613Y-112533608D01*
X197098898Y-112548981D01*
X197103559Y-112549908D01*
X197105794Y-112550409D01*
X197106532Y-112550500D01*
X197313466Y-112550500D01*
X197317586Y-112550500D01*
X197325435Y-112548118D01*
X197516420Y-112510130D01*
X197707598Y-112430941D01*
X197879655Y-112315977D01*
X198025977Y-112169655D01*
X198140941Y-111997598D01*
X198220130Y-111806420D01*
X198260500Y-111603465D01*
X198260500Y-111396535D01*
X198248083Y-111334108D01*
X211299500Y-111334108D01*
X211299500Y-111465892D01*
X211307483Y-111495684D01*
X211310724Y-111507783D01*
X211310725Y-111507786D01*
X211333608Y-111593188D01*
X211346717Y-111615892D01*
X211399497Y-111707310D01*
X211399499Y-111707312D01*
X211399500Y-111707314D01*
X211492686Y-111800500D01*
X211606814Y-111866392D01*
X211734108Y-111900500D01*
X211734110Y-111900500D01*
X211865890Y-111900500D01*
X211865892Y-111900500D01*
X211993186Y-111866392D01*
X212107314Y-111800500D01*
X212200500Y-111707314D01*
X212266392Y-111593186D01*
X212282222Y-111534106D01*
X215099500Y-111534106D01*
X215099500Y-111534108D01*
X215099500Y-111665892D01*
X215116554Y-111729539D01*
X215132501Y-111789056D01*
X215133609Y-111793189D01*
X215155398Y-111830928D01*
X215155399Y-111830928D01*
X215199500Y-111907314D01*
X215292686Y-112000500D01*
X215292687Y-112000501D01*
X215292689Y-112000502D01*
X215390218Y-112056810D01*
X215390221Y-112056812D01*
X215405930Y-112065882D01*
X215405944Y-112065890D01*
X215406814Y-112066392D01*
X215534108Y-112100500D01*
X215534110Y-112100500D01*
X215665890Y-112100500D01*
X215665892Y-112100500D01*
X215793186Y-112066392D01*
X215907314Y-112000500D01*
X216000500Y-111907314D01*
X216066392Y-111793186D01*
X216100500Y-111665892D01*
X216100500Y-111534108D01*
X216066392Y-111406814D01*
X216066387Y-111406806D01*
X216037521Y-111356808D01*
X216000500Y-111292686D01*
X215907314Y-111199500D01*
X215822439Y-111150497D01*
X215793187Y-111133608D01*
X215729539Y-111116554D01*
X215665892Y-111099500D01*
X215665891Y-111099500D01*
X215534108Y-111099500D01*
X215406808Y-111133609D01*
X215406806Y-111133610D01*
X215292696Y-111199493D01*
X215292682Y-111199502D01*
X215292677Y-111199506D01*
X215199506Y-111292677D01*
X215199502Y-111292682D01*
X215199493Y-111292696D01*
X215133610Y-111406806D01*
X215133609Y-111406809D01*
X215133608Y-111406811D01*
X215133608Y-111406812D01*
X215128196Y-111427011D01*
X215108773Y-111499500D01*
X215099500Y-111534106D01*
X212282222Y-111534106D01*
X212300500Y-111465892D01*
X212300500Y-111334108D01*
X212266392Y-111206814D01*
X212266387Y-111206806D01*
X212233878Y-111150499D01*
X212200500Y-111092686D01*
X212107314Y-110999500D01*
X212107311Y-110999497D01*
X212106623Y-110999001D01*
X212104107Y-110997647D01*
X212009780Y-110943188D01*
X212005646Y-110940801D01*
X211979499Y-110914523D01*
X211964242Y-110904202D01*
X211960468Y-110895396D01*
X211959949Y-110894874D01*
X211954862Y-110885960D01*
X211956117Y-110885243D01*
X211936722Y-110839980D01*
X211948291Y-110771075D01*
X211987977Y-110724177D01*
X211988479Y-110723820D01*
X212039810Y-110702584D01*
X212042032Y-110702210D01*
X212062559Y-110700500D01*
X212065890Y-110700500D01*
X212065892Y-110700500D01*
X212193186Y-110666392D01*
X212307314Y-110600500D01*
X212400500Y-110507314D01*
X212466392Y-110393186D01*
X212500500Y-110265892D01*
X212500500Y-110134108D01*
X212466392Y-110006814D01*
X212466389Y-110006808D01*
X212455520Y-109987982D01*
X212455519Y-109987980D01*
X212455519Y-109987979D01*
X212451462Y-109980954D01*
X212451458Y-109980946D01*
X212451458Y-109980945D01*
X212451455Y-109980942D01*
X212424415Y-109934108D01*
X222399500Y-109934108D01*
X222399500Y-110065891D01*
X222406814Y-110093187D01*
X222433608Y-110193188D01*
X222433609Y-110193189D01*
X222441766Y-110207316D01*
X222499500Y-110307314D01*
X222592686Y-110400500D01*
X222678145Y-110449840D01*
X222702712Y-110464024D01*
X222706814Y-110466392D01*
X222834108Y-110500500D01*
X222834110Y-110500500D01*
X222965890Y-110500500D01*
X222965892Y-110500500D01*
X223093186Y-110466392D01*
X223207314Y-110400500D01*
X223300500Y-110307314D01*
X223366392Y-110193186D01*
X223400500Y-110065892D01*
X223400500Y-109934108D01*
X223366392Y-109806814D01*
X223366387Y-109806806D01*
X223343054Y-109766392D01*
X223300500Y-109692686D01*
X223207314Y-109599500D01*
X223147664Y-109565061D01*
X223093187Y-109533608D01*
X223029539Y-109516554D01*
X222965892Y-109499500D01*
X222965891Y-109499500D01*
X222834108Y-109499500D01*
X222706808Y-109533609D01*
X222706806Y-109533610D01*
X222592696Y-109599493D01*
X222592682Y-109599502D01*
X222592677Y-109599506D01*
X222499506Y-109692677D01*
X222499502Y-109692682D01*
X222499493Y-109692696D01*
X222433610Y-109806806D01*
X222433609Y-109806808D01*
X222410599Y-109892684D01*
X222399500Y-109934108D01*
X212424415Y-109934108D01*
X212423337Y-109932240D01*
X212423335Y-109932238D01*
X212400502Y-109892689D01*
X212400498Y-109892684D01*
X212307316Y-109799502D01*
X212307314Y-109799500D01*
X212284268Y-109786194D01*
X212258343Y-109771226D01*
X212258341Y-109771225D01*
X212249968Y-109766391D01*
X212193187Y-109733608D01*
X212093188Y-109706814D01*
X212086827Y-109705109D01*
X212086823Y-109705108D01*
X212065893Y-109699500D01*
X212065892Y-109699500D01*
X211934108Y-109699500D01*
X211806808Y-109733609D01*
X211806806Y-109733610D01*
X211692696Y-109799493D01*
X211692682Y-109799502D01*
X211692677Y-109799506D01*
X211599506Y-109892677D01*
X211599502Y-109892682D01*
X211599493Y-109892696D01*
X211533610Y-110006806D01*
X211533609Y-110006808D01*
X211533608Y-110006812D01*
X211499500Y-110134108D01*
X211499500Y-110265892D01*
X211516554Y-110329539D01*
X211533608Y-110393187D01*
X211558904Y-110437000D01*
X211599500Y-110507314D01*
X211599502Y-110507316D01*
X211692686Y-110600500D01*
X211693375Y-110600996D01*
X211695879Y-110602344D01*
X211794357Y-110659200D01*
X211822093Y-110681012D01*
X211829898Y-110689197D01*
X211861916Y-110751298D01*
X211855277Y-110820852D01*
X211812089Y-110875775D01*
X211812022Y-110875822D01*
X211811520Y-110876179D01*
X211760247Y-110897405D01*
X211758032Y-110897778D01*
X211737441Y-110899500D01*
X211734108Y-110899500D01*
X211606808Y-110933609D01*
X211606806Y-110933610D01*
X211492696Y-110999493D01*
X211492682Y-110999502D01*
X211492677Y-110999506D01*
X211399506Y-111092677D01*
X211399502Y-111092682D01*
X211399493Y-111092696D01*
X211333610Y-111206806D01*
X211333609Y-111206807D01*
X211333608Y-111206812D01*
X211321902Y-111250500D01*
X211321902Y-111250501D01*
X211321901Y-111250500D01*
X211300086Y-111331920D01*
X211299500Y-111334108D01*
X198248083Y-111334108D01*
X198220130Y-111193580D01*
X198140941Y-111002402D01*
X198026046Y-110830449D01*
X198026036Y-110830417D01*
X198025980Y-110830348D01*
X198025980Y-110830349D01*
X198025977Y-110830345D01*
X198025975Y-110830342D01*
X198025973Y-110830340D01*
X198025970Y-110830336D01*
X197879659Y-110684025D01*
X197758619Y-110603150D01*
X197754653Y-110600500D01*
X197707598Y-110569059D01*
X197678031Y-110556812D01*
X197516420Y-110489870D01*
X197516412Y-110489868D01*
X197516404Y-110489866D01*
X197516394Y-110489864D01*
X197313471Y-110449500D01*
X197313469Y-110449500D01*
X197313465Y-110449500D01*
X197106535Y-110449500D01*
X197106530Y-110449500D01*
X197106528Y-110449500D01*
X196903604Y-110489864D01*
X196903579Y-110489870D01*
X196712404Y-110569057D01*
X196540337Y-110684027D01*
X196394027Y-110830337D01*
X196279057Y-111002404D01*
X196199870Y-111193579D01*
X196199864Y-111193604D01*
X196159500Y-111396527D01*
X196159500Y-111396528D01*
X196159500Y-111396530D01*
X196159500Y-111603469D01*
X196159500Y-111603471D01*
X196159499Y-111603471D01*
X195720499Y-111603471D01*
X195720500Y-111603465D01*
X195720500Y-111396535D01*
X195720498Y-111396527D01*
X195684836Y-111217238D01*
X195680130Y-111193580D01*
X195600941Y-111002402D01*
X195486046Y-110830449D01*
X195486036Y-110830417D01*
X195485980Y-110830348D01*
X195485980Y-110830349D01*
X195485977Y-110830345D01*
X195485975Y-110830342D01*
X195485973Y-110830340D01*
X195485970Y-110830336D01*
X195339659Y-110684025D01*
X195218619Y-110603150D01*
X195214653Y-110600500D01*
X195167598Y-110569059D01*
X195138031Y-110556812D01*
X194976420Y-110489870D01*
X194976412Y-110489868D01*
X194976404Y-110489866D01*
X194976394Y-110489864D01*
X194773471Y-110449500D01*
X194773469Y-110449500D01*
X194773465Y-110449500D01*
X194566535Y-110449500D01*
X194566530Y-110449500D01*
X194566528Y-110449500D01*
X194363604Y-110489864D01*
X194363579Y-110489870D01*
X194172404Y-110569057D01*
X194000337Y-110684027D01*
X193854027Y-110830337D01*
X193739057Y-111002404D01*
X193659870Y-111193579D01*
X193659864Y-111193604D01*
X193619500Y-111396527D01*
X193619500Y-111396528D01*
X193619500Y-111396530D01*
X193619500Y-111603469D01*
X193619500Y-111603471D01*
X193619499Y-111603471D01*
X193180500Y-111603471D01*
X193180500Y-110630063D01*
X193180069Y-110628081D01*
X193168868Y-110571770D01*
X193165975Y-110566358D01*
X193162081Y-110561613D01*
X193156974Y-110553970D01*
X193124552Y-110505447D01*
X193088146Y-110481121D01*
X193068385Y-110467917D01*
X193063641Y-110464024D01*
X193058230Y-110461132D01*
X193058229Y-110461131D01*
X192999752Y-110449500D01*
X192999750Y-110449500D01*
X191260249Y-110449500D01*
X191260247Y-110449500D01*
X191201770Y-110461131D01*
X191201769Y-110461131D01*
X191201768Y-110461132D01*
X191201765Y-110461133D01*
X191201759Y-110461138D01*
X191135447Y-110505447D01*
X191091138Y-110571759D01*
X191091133Y-110571765D01*
X191091132Y-110571768D01*
X191091132Y-110571769D01*
X191091131Y-110571770D01*
X191079500Y-110630247D01*
X183838061Y-110630247D01*
X183807314Y-110599500D01*
X183733380Y-110556814D01*
X183693187Y-110533608D01*
X183629539Y-110516554D01*
X183565892Y-110499500D01*
X183565891Y-110499500D01*
X183434108Y-110499500D01*
X183306808Y-110533609D01*
X183306806Y-110533610D01*
X183192696Y-110599493D01*
X183192682Y-110599502D01*
X183192677Y-110599506D01*
X183099506Y-110692677D01*
X183099502Y-110692682D01*
X183099493Y-110692696D01*
X183033610Y-110806806D01*
X183033609Y-110806807D01*
X183024721Y-110839980D01*
X183013644Y-110881320D01*
X183013644Y-110881321D01*
X183013643Y-110881320D01*
X182999500Y-110934104D01*
X166218825Y-110934104D01*
X166250500Y-110815892D01*
X166250500Y-110684108D01*
X166216392Y-110556814D01*
X166156125Y-110452430D01*
X166143015Y-110419683D01*
X166138576Y-110401384D01*
X166140104Y-110337220D01*
X166143042Y-110327216D01*
X166154626Y-110300166D01*
X166216392Y-110193186D01*
X166250500Y-110065892D01*
X166250500Y-109934108D01*
X185999500Y-109934108D01*
X185999500Y-110065891D01*
X186006814Y-110093187D01*
X186033608Y-110193188D01*
X186033609Y-110193189D01*
X186041766Y-110207316D01*
X186099500Y-110307314D01*
X186192686Y-110400500D01*
X186278145Y-110449840D01*
X186302712Y-110464024D01*
X186306814Y-110466392D01*
X186434108Y-110500500D01*
X186434110Y-110500500D01*
X186565889Y-110500500D01*
X186565890Y-110500500D01*
X186565892Y-110500500D01*
X186693186Y-110466392D01*
X186807314Y-110400500D01*
X186900500Y-110307314D01*
X186966392Y-110193186D01*
X187000500Y-110065892D01*
X187000500Y-109934108D01*
X186973705Y-109834108D01*
X187899500Y-109834108D01*
X187899500Y-109965891D01*
X187910465Y-110006814D01*
X187933608Y-110093188D01*
X187957234Y-110134108D01*
X187966554Y-110150250D01*
X187999500Y-110207314D01*
X188092686Y-110300500D01*
X188206814Y-110366392D01*
X188334108Y-110400500D01*
X188334110Y-110400500D01*
X188465890Y-110400500D01*
X188465892Y-110400500D01*
X188593186Y-110366392D01*
X188707314Y-110300500D01*
X188800500Y-110207314D01*
X188866392Y-110093186D01*
X188900500Y-109965892D01*
X188900500Y-109834108D01*
X188866392Y-109706814D01*
X188866387Y-109706806D01*
X188857563Y-109691521D01*
X188800500Y-109592686D01*
X188707314Y-109499500D01*
X188597576Y-109436142D01*
X188597573Y-109436139D01*
X188597573Y-109436140D01*
X188593190Y-109433609D01*
X188593187Y-109433608D01*
X188529539Y-109416554D01*
X188465892Y-109399500D01*
X188465891Y-109399500D01*
X188334108Y-109399500D01*
X188206808Y-109433609D01*
X188206806Y-109433610D01*
X188092696Y-109499493D01*
X188092682Y-109499502D01*
X188092677Y-109499506D01*
X187999506Y-109592677D01*
X187999502Y-109592682D01*
X187999493Y-109592696D01*
X187933610Y-109706806D01*
X187933609Y-109706808D01*
X187933608Y-109706812D01*
X187899500Y-109834108D01*
X186973705Y-109834108D01*
X186966392Y-109806814D01*
X186900500Y-109692686D01*
X186807314Y-109599500D01*
X186747664Y-109565061D01*
X186693187Y-109533608D01*
X186629539Y-109516554D01*
X186565892Y-109499500D01*
X186565891Y-109499500D01*
X186434108Y-109499500D01*
X186306808Y-109533609D01*
X186306806Y-109533610D01*
X186192696Y-109599493D01*
X186192682Y-109599502D01*
X186192677Y-109599506D01*
X186099506Y-109692677D01*
X186099502Y-109692682D01*
X186099493Y-109692696D01*
X186033610Y-109806806D01*
X186033609Y-109806808D01*
X186010599Y-109892684D01*
X185999500Y-109934108D01*
X166250500Y-109934108D01*
X166216392Y-109806814D01*
X166216387Y-109806806D01*
X166193054Y-109766392D01*
X166150500Y-109692686D01*
X166061717Y-109603903D01*
X166049254Y-109589345D01*
X166037150Y-109572768D01*
X166013514Y-109507017D01*
X166029176Y-109438931D01*
X166033998Y-109430344D01*
X166054436Y-109403376D01*
X166057310Y-109400502D01*
X166057314Y-109400500D01*
X166150500Y-109307314D01*
X166192766Y-109234108D01*
X183299500Y-109234108D01*
X183299500Y-109365891D01*
X183333608Y-109493187D01*
X183337949Y-109500705D01*
X183337951Y-109500715D01*
X183337954Y-109500714D01*
X183399500Y-109607314D01*
X183492686Y-109700500D01*
X183606814Y-109766392D01*
X183734108Y-109800500D01*
X183734110Y-109800500D01*
X183865890Y-109800500D01*
X183865892Y-109800500D01*
X183993186Y-109766392D01*
X184107314Y-109700500D01*
X184200500Y-109607314D01*
X184266392Y-109493186D01*
X184300500Y-109365892D01*
X184300500Y-109234108D01*
X184266392Y-109106814D01*
X184266387Y-109106806D01*
X184257563Y-109091521D01*
X184200500Y-108992686D01*
X184107314Y-108899500D01*
X184050250Y-108866554D01*
X183993187Y-108833608D01*
X183893188Y-108806814D01*
X183886813Y-108805106D01*
X183886806Y-108805103D01*
X183865893Y-108799500D01*
X183865892Y-108799500D01*
X183734108Y-108799500D01*
X183606808Y-108833609D01*
X183606806Y-108833610D01*
X183492696Y-108899493D01*
X183492682Y-108899502D01*
X183492677Y-108899506D01*
X183399506Y-108992677D01*
X183399502Y-108992682D01*
X183399493Y-108992696D01*
X183333610Y-109106806D01*
X183333609Y-109106808D01*
X183333608Y-109106812D01*
X183299500Y-109234108D01*
X166192766Y-109234108D01*
X166216392Y-109193186D01*
X166250500Y-109065892D01*
X166250500Y-108934108D01*
X166216392Y-108806814D01*
X166216387Y-108806806D01*
X166207563Y-108791521D01*
X166150500Y-108692686D01*
X166061717Y-108603903D01*
X166049254Y-108589345D01*
X166037150Y-108572768D01*
X166013514Y-108507017D01*
X166029176Y-108438931D01*
X166033998Y-108430344D01*
X166054436Y-108403376D01*
X166057310Y-108400502D01*
X166057314Y-108400500D01*
X166150500Y-108307314D01*
X166216392Y-108193186D01*
X166250500Y-108065892D01*
X166250500Y-107934108D01*
X166216392Y-107806814D01*
X166216387Y-107806806D01*
X166207563Y-107791521D01*
X166150500Y-107692686D01*
X166057314Y-107599500D01*
X165957630Y-107541947D01*
X165943187Y-107533608D01*
X165879539Y-107516554D01*
X165815892Y-107499500D01*
X165815891Y-107499500D01*
X165684108Y-107499500D01*
X165556808Y-107533609D01*
X165556806Y-107533610D01*
X165442696Y-107599493D01*
X165442682Y-107599502D01*
X165353897Y-107688287D01*
X165339332Y-107700755D01*
X165322761Y-107712853D01*
X165257009Y-107736484D01*
X165188925Y-107720819D01*
X165180332Y-107715993D01*
X165155727Y-107693196D01*
X165153369Y-107695555D01*
X165057316Y-107599502D01*
X165057314Y-107599500D01*
X164957630Y-107541947D01*
X164943187Y-107533608D01*
X164879539Y-107516554D01*
X164815892Y-107499500D01*
X164815891Y-107499500D01*
X164684108Y-107499500D01*
X164556808Y-107533609D01*
X164556806Y-107533610D01*
X164442696Y-107599493D01*
X164442682Y-107599502D01*
X164353897Y-107688287D01*
X164339332Y-107700755D01*
X164322761Y-107712853D01*
X164257009Y-107736484D01*
X164188925Y-107720819D01*
X164180332Y-107715993D01*
X164155727Y-107693196D01*
X164153369Y-107695555D01*
X164057316Y-107599502D01*
X164057314Y-107599500D01*
X163957630Y-107541947D01*
X163943187Y-107533608D01*
X163879539Y-107516554D01*
X163815892Y-107499500D01*
X163815891Y-107499500D01*
X163684108Y-107499500D01*
X163556808Y-107533609D01*
X163556806Y-107533610D01*
X163442696Y-107599493D01*
X163442682Y-107599502D01*
X163353897Y-107688287D01*
X163339334Y-107700753D01*
X163322561Y-107712999D01*
X163256810Y-107736632D01*
X163189359Y-107721322D01*
X163183999Y-107718353D01*
X163183999Y-107718352D01*
X163183996Y-107718351D01*
X163181705Y-107717082D01*
X163154107Y-107696292D01*
X163054044Y-107596229D01*
X163033291Y-107568699D01*
X163033134Y-107568416D01*
X163030649Y-107563865D01*
X163030484Y-107563639D01*
X163028567Y-107560183D01*
X163021676Y-107529494D01*
X163013003Y-107499259D01*
X163014082Y-107495667D01*
X163013261Y-107492010D01*
X163024055Y-107462467D01*
X163030995Y-107439369D01*
X163029424Y-107438487D01*
X163031415Y-107434942D01*
X163033997Y-107430343D01*
X163054433Y-107403379D01*
X163057310Y-107400502D01*
X163057314Y-107400500D01*
X163150500Y-107307314D01*
X163216392Y-107193186D01*
X163250500Y-107065892D01*
X163250500Y-106934108D01*
X185999500Y-106934108D01*
X185999500Y-107065891D01*
X186016554Y-107129539D01*
X186033608Y-107193188D01*
X186066554Y-107250250D01*
X186099500Y-107307314D01*
X186192686Y-107400500D01*
X186306814Y-107466392D01*
X186434108Y-107500500D01*
X186434110Y-107500500D01*
X186565890Y-107500500D01*
X186565892Y-107500500D01*
X186693186Y-107466392D01*
X186807314Y-107400500D01*
X186900500Y-107307314D01*
X186966392Y-107193186D01*
X187000500Y-107065892D01*
X187000500Y-106934108D01*
X186966392Y-106806814D01*
X186966387Y-106806806D01*
X186957563Y-106791521D01*
X186900500Y-106692686D01*
X186807314Y-106599500D01*
X186707630Y-106541947D01*
X186693187Y-106533608D01*
X186629539Y-106516554D01*
X186565892Y-106499500D01*
X186565891Y-106499500D01*
X186434108Y-106499500D01*
X186306808Y-106533609D01*
X186306806Y-106533610D01*
X186192696Y-106599493D01*
X186192682Y-106599502D01*
X186192677Y-106599506D01*
X186099506Y-106692677D01*
X186099502Y-106692682D01*
X186099493Y-106692696D01*
X186033610Y-106806806D01*
X186033609Y-106806808D01*
X186033608Y-106806812D01*
X185999500Y-106934108D01*
X163250500Y-106934108D01*
X163216392Y-106806814D01*
X163216387Y-106806806D01*
X163207563Y-106791521D01*
X163150500Y-106692686D01*
X163057314Y-106599500D01*
X162957630Y-106541947D01*
X162943187Y-106533608D01*
X162879539Y-106516554D01*
X162815892Y-106499500D01*
X162815891Y-106499500D01*
X162684108Y-106499500D01*
X162556808Y-106533609D01*
X162556806Y-106533610D01*
X162442696Y-106599493D01*
X162442682Y-106599502D01*
X162353897Y-106688287D01*
X162339334Y-106700753D01*
X162322561Y-106712999D01*
X162256810Y-106736632D01*
X162189359Y-106721322D01*
X162183999Y-106718353D01*
X162183999Y-106718352D01*
X162183996Y-106718351D01*
X162181705Y-106717082D01*
X162154107Y-106696292D01*
X162054044Y-106596229D01*
X162033291Y-106568699D01*
X162033134Y-106568416D01*
X162030649Y-106563865D01*
X162030484Y-106563639D01*
X162028567Y-106560183D01*
X162021676Y-106529494D01*
X162013003Y-106499259D01*
X162014082Y-106495667D01*
X162013261Y-106492010D01*
X162024055Y-106462467D01*
X162030995Y-106439369D01*
X162029424Y-106438487D01*
X162031415Y-106434942D01*
X162033997Y-106430343D01*
X162054433Y-106403379D01*
X162057310Y-106400502D01*
X162057314Y-106400500D01*
X162150500Y-106307314D01*
X162216392Y-106193186D01*
X162250500Y-106065892D01*
X162250500Y-105934108D01*
X174749500Y-105934108D01*
X174749500Y-106065891D01*
X174766554Y-106129539D01*
X174783608Y-106193188D01*
X174816554Y-106250250D01*
X174849500Y-106307314D01*
X174942686Y-106400500D01*
X175056814Y-106466392D01*
X175184108Y-106500500D01*
X175184110Y-106500500D01*
X175315890Y-106500500D01*
X175315892Y-106500500D01*
X175443186Y-106466392D01*
X175557314Y-106400500D01*
X175650500Y-106307314D01*
X175716392Y-106193186D01*
X175750500Y-106065892D01*
X175750500Y-105934108D01*
X175716392Y-105806814D01*
X175716387Y-105806806D01*
X175707563Y-105791521D01*
X175650500Y-105692686D01*
X175557314Y-105599500D01*
X175457630Y-105541947D01*
X175443187Y-105533608D01*
X175379539Y-105516554D01*
X175315892Y-105499500D01*
X175315891Y-105499500D01*
X175184108Y-105499500D01*
X175056808Y-105533609D01*
X175056806Y-105533610D01*
X174942696Y-105599493D01*
X174942682Y-105599502D01*
X174942677Y-105599506D01*
X174849506Y-105692677D01*
X174849502Y-105692682D01*
X174849493Y-105692696D01*
X174783610Y-105806806D01*
X174783609Y-105806808D01*
X174783608Y-105806812D01*
X174749500Y-105934108D01*
X162250500Y-105934108D01*
X162216392Y-105806814D01*
X162216387Y-105806806D01*
X162207563Y-105791521D01*
X162150500Y-105692686D01*
X162061717Y-105603903D01*
X162049254Y-105589345D01*
X162037150Y-105572768D01*
X162013514Y-105507017D01*
X162029176Y-105438931D01*
X162033998Y-105430344D01*
X162054436Y-105403376D01*
X162057310Y-105400502D01*
X162057314Y-105400500D01*
X162150500Y-105307314D01*
X162216392Y-105193186D01*
X162250500Y-105065892D01*
X162250500Y-104934108D01*
X185999500Y-104934108D01*
X185999500Y-105065891D01*
X186016554Y-105129539D01*
X186033608Y-105193188D01*
X186066554Y-105250250D01*
X186099500Y-105307314D01*
X186192686Y-105400500D01*
X186306814Y-105466392D01*
X186434108Y-105500500D01*
X186434110Y-105500500D01*
X186565890Y-105500500D01*
X186565892Y-105500500D01*
X186693186Y-105466392D01*
X186807314Y-105400500D01*
X186900500Y-105307314D01*
X186966392Y-105193186D01*
X187000500Y-105065892D01*
X187000500Y-104934108D01*
X186966392Y-104806814D01*
X186966387Y-104806806D01*
X186957563Y-104791521D01*
X186900500Y-104692686D01*
X186807314Y-104599500D01*
X186707630Y-104541947D01*
X186693187Y-104533608D01*
X186629539Y-104516554D01*
X186565892Y-104499500D01*
X186565891Y-104499500D01*
X186434108Y-104499500D01*
X186306808Y-104533609D01*
X186306806Y-104533610D01*
X186192696Y-104599493D01*
X186192682Y-104599502D01*
X186192677Y-104599506D01*
X186099506Y-104692677D01*
X186099502Y-104692682D01*
X186099493Y-104692696D01*
X186033610Y-104806806D01*
X186033609Y-104806808D01*
X186033608Y-104806812D01*
X185999500Y-104934108D01*
X162250500Y-104934108D01*
X162216392Y-104806814D01*
X162216387Y-104806806D01*
X162207563Y-104791521D01*
X162150500Y-104692686D01*
X162061717Y-104603903D01*
X162049254Y-104589345D01*
X162037150Y-104572768D01*
X162013514Y-104507017D01*
X162029176Y-104438931D01*
X162033998Y-104430344D01*
X162054436Y-104403376D01*
X162057310Y-104400502D01*
X162057314Y-104400500D01*
X162150500Y-104307314D01*
X162216392Y-104193186D01*
X162250500Y-104065892D01*
X162250500Y-103934108D01*
X162216392Y-103806814D01*
X162216387Y-103806806D01*
X162207563Y-103791521D01*
X162150500Y-103692686D01*
X162061717Y-103603903D01*
X162049255Y-103589346D01*
X162037004Y-103572568D01*
X162013367Y-103506817D01*
X162028670Y-103439374D01*
X162032909Y-103431719D01*
X162053706Y-103404108D01*
X162153771Y-103304043D01*
X162182025Y-103282892D01*
X162186131Y-103280651D01*
X162186135Y-103280647D01*
X162189701Y-103278701D01*
X162190567Y-103280288D01*
X162250633Y-103263003D01*
X162310644Y-103280975D01*
X162311515Y-103279426D01*
X162315055Y-103281414D01*
X162315058Y-103281416D01*
X162319654Y-103283997D01*
X162346619Y-103304433D01*
X162349499Y-103307313D01*
X162349500Y-103307314D01*
X162442686Y-103400500D01*
X162556814Y-103466392D01*
X162684108Y-103500500D01*
X162684110Y-103500500D01*
X162815890Y-103500500D01*
X162815892Y-103500500D01*
X162943186Y-103466392D01*
X163057314Y-103400500D01*
X163146106Y-103311707D01*
X163160654Y-103299254D01*
X163177233Y-103287149D01*
X163242984Y-103263514D01*
X163311069Y-103279176D01*
X163319654Y-103283997D01*
X163346620Y-103304434D01*
X163349499Y-103307313D01*
X163349500Y-103307314D01*
X163442686Y-103400500D01*
X163556814Y-103466392D01*
X163684108Y-103500500D01*
X163684110Y-103500500D01*
X163815890Y-103500500D01*
X163815892Y-103500500D01*
X163943186Y-103466392D01*
X164057314Y-103400500D01*
X164146106Y-103311707D01*
X164160654Y-103299254D01*
X164177233Y-103287149D01*
X164242984Y-103263514D01*
X164311069Y-103279176D01*
X164319654Y-103283997D01*
X164346620Y-103304434D01*
X164349499Y-103307313D01*
X164349500Y-103307314D01*
X164442686Y-103400500D01*
X164556814Y-103466392D01*
X164684108Y-103500500D01*
X164684110Y-103500500D01*
X164815890Y-103500500D01*
X164815892Y-103500500D01*
X164943186Y-103466392D01*
X165057314Y-103400500D01*
X165146106Y-103311707D01*
X165160654Y-103299254D01*
X165177233Y-103287149D01*
X165242984Y-103263514D01*
X165311069Y-103279176D01*
X165319654Y-103283997D01*
X165346620Y-103304434D01*
X165349499Y-103307313D01*
X165349500Y-103307314D01*
X165442686Y-103400500D01*
X165556814Y-103466392D01*
X165684108Y-103500500D01*
X165684110Y-103500500D01*
X165815890Y-103500500D01*
X165815892Y-103500500D01*
X165943186Y-103466392D01*
X166047569Y-103406125D01*
X166080319Y-103393014D01*
X166098611Y-103388577D01*
X166162780Y-103390105D01*
X166172775Y-103393040D01*
X166199833Y-103404626D01*
X166306814Y-103466392D01*
X166434108Y-103500500D01*
X166434110Y-103500500D01*
X166565890Y-103500500D01*
X166565892Y-103500500D01*
X166693186Y-103466392D01*
X166807314Y-103400500D01*
X166900500Y-103307314D01*
X166966392Y-103193186D01*
X167000500Y-103065892D01*
X167000500Y-102934108D01*
X166966392Y-102806814D01*
X166966387Y-102806806D01*
X166957563Y-102791521D01*
X166900500Y-102692686D01*
X166811717Y-102603903D01*
X166799254Y-102589345D01*
X166787150Y-102572768D01*
X166763514Y-102507017D01*
X166779176Y-102438931D01*
X166783998Y-102430344D01*
X166804436Y-102403376D01*
X166807310Y-102400502D01*
X166807314Y-102400500D01*
X166900500Y-102307314D01*
X166966392Y-102193186D01*
X167000500Y-102065892D01*
X167000500Y-101934108D01*
X166966392Y-101806814D01*
X166966387Y-101806806D01*
X166957563Y-101791521D01*
X166900500Y-101692686D01*
X166811717Y-101603903D01*
X166799254Y-101589345D01*
X166787150Y-101572768D01*
X166763514Y-101507017D01*
X166779176Y-101438931D01*
X166783998Y-101430344D01*
X166804436Y-101403376D01*
X166807310Y-101400502D01*
X166807314Y-101400500D01*
X166900500Y-101307314D01*
X166966392Y-101193186D01*
X167000500Y-101065892D01*
X167000500Y-100934108D01*
X166966392Y-100806814D01*
X166966387Y-100806806D01*
X166957563Y-100791521D01*
X166900500Y-100692686D01*
X166811717Y-100603903D01*
X166799254Y-100589345D01*
X166787150Y-100572768D01*
X166763514Y-100507017D01*
X166779176Y-100438931D01*
X166783998Y-100430344D01*
X166804436Y-100403376D01*
X166807310Y-100400502D01*
X166807314Y-100400500D01*
X166900500Y-100307314D01*
X166966392Y-100193186D01*
X167000500Y-100065892D01*
X167000500Y-99934108D01*
X166966392Y-99806814D01*
X166966387Y-99806806D01*
X166957563Y-99791521D01*
X166900500Y-99692686D01*
X166807314Y-99599500D01*
X166731220Y-99555567D01*
X166731220Y-99555566D01*
X166731218Y-99555566D01*
X166693187Y-99533608D01*
X166629539Y-99516554D01*
X166565892Y-99499500D01*
X166565891Y-99499500D01*
X166434106Y-99499500D01*
X166308624Y-99533121D01*
X166308625Y-99533122D01*
X166306811Y-99533607D01*
X166202438Y-99593868D01*
X166169671Y-99606986D01*
X166151389Y-99611421D01*
X166087225Y-99609894D01*
X166077228Y-99606959D01*
X166050160Y-99595368D01*
X165943194Y-99533612D01*
X165943195Y-99533612D01*
X165943189Y-99533609D01*
X165943186Y-99533608D01*
X165943182Y-99533606D01*
X165844404Y-99507139D01*
X165815892Y-99499500D01*
X165815891Y-99499500D01*
X165684108Y-99499500D01*
X165556808Y-99533609D01*
X165556806Y-99533610D01*
X165442696Y-99599493D01*
X165442682Y-99599502D01*
X165353897Y-99688287D01*
X165339332Y-99700755D01*
X165322761Y-99712853D01*
X165257009Y-99736484D01*
X165188925Y-99720819D01*
X165180332Y-99715993D01*
X165155727Y-99693196D01*
X165153369Y-99695555D01*
X165057316Y-99599502D01*
X165057314Y-99599500D01*
X164981220Y-99555567D01*
X164981220Y-99555566D01*
X164981218Y-99555566D01*
X164943187Y-99533608D01*
X164879539Y-99516554D01*
X164815892Y-99499500D01*
X164815891Y-99499500D01*
X164684108Y-99499500D01*
X164556808Y-99533609D01*
X164556806Y-99533610D01*
X164442696Y-99599493D01*
X164442682Y-99599502D01*
X164353897Y-99688287D01*
X164339332Y-99700755D01*
X164322761Y-99712853D01*
X164257009Y-99736484D01*
X164188925Y-99720819D01*
X164180332Y-99715993D01*
X164155727Y-99693196D01*
X164153369Y-99695555D01*
X164057316Y-99599502D01*
X164057314Y-99599500D01*
X163981220Y-99555567D01*
X163981220Y-99555566D01*
X163981218Y-99555566D01*
X163943187Y-99533608D01*
X163879539Y-99516554D01*
X163815892Y-99499500D01*
X163815891Y-99499500D01*
X163684108Y-99499500D01*
X163556808Y-99533609D01*
X163556806Y-99533610D01*
X163442696Y-99599493D01*
X163442682Y-99599502D01*
X163353897Y-99688287D01*
X163339332Y-99700755D01*
X163322761Y-99712853D01*
X163257009Y-99736484D01*
X163188925Y-99720819D01*
X163180332Y-99715993D01*
X163155727Y-99693196D01*
X163153369Y-99695555D01*
X163057316Y-99599502D01*
X163057314Y-99599500D01*
X162981220Y-99555567D01*
X162981220Y-99555566D01*
X162981218Y-99555566D01*
X162943187Y-99533608D01*
X162879539Y-99516554D01*
X162815892Y-99499500D01*
X162815891Y-99499500D01*
X162684108Y-99499500D01*
X162556808Y-99533609D01*
X162556806Y-99533610D01*
X162442696Y-99599493D01*
X162442682Y-99599502D01*
X162442677Y-99599506D01*
X162349506Y-99692677D01*
X162349502Y-99692682D01*
X162349493Y-99692696D01*
X162283610Y-99806806D01*
X162283609Y-99806808D01*
X162283608Y-99806812D01*
X162249500Y-99934108D01*
X162249500Y-100065891D01*
X162266554Y-100129539D01*
X162283608Y-100193188D01*
X162299714Y-100221084D01*
X162316554Y-100250250D01*
X162349500Y-100307314D01*
X162349502Y-100307316D01*
X162442489Y-100400303D01*
X162446273Y-100404892D01*
X162446732Y-100405966D01*
X162450754Y-100410664D01*
X162462855Y-100427240D01*
X162486484Y-100492993D01*
X162470817Y-100561078D01*
X162465994Y-100569665D01*
X162445562Y-100596622D01*
X162349502Y-100692682D01*
X162349493Y-100692696D01*
X162283610Y-100806806D01*
X162283609Y-100806808D01*
X162283608Y-100806812D01*
X162249500Y-100934108D01*
X162249500Y-101065891D01*
X162266554Y-101129539D01*
X162283608Y-101193188D01*
X162316554Y-101250250D01*
X162290172Y-101265481D01*
X162329318Y-101284356D01*
X162344552Y-101300865D01*
X162349502Y-101307316D01*
X162438283Y-101396097D01*
X162450753Y-101410663D01*
X162463001Y-101427440D01*
X162486631Y-101493193D01*
X162471322Y-101560638D01*
X162467078Y-101568300D01*
X162446287Y-101595898D01*
X162346237Y-101695948D01*
X162317987Y-101717097D01*
X162310307Y-101721291D01*
X162309463Y-101719745D01*
X162249154Y-101736992D01*
X162189346Y-101719008D01*
X162188472Y-101720565D01*
X162180324Y-101715988D01*
X162153372Y-101695558D01*
X162057316Y-101599502D01*
X162057310Y-101599497D01*
X161996866Y-101564600D01*
X161943188Y-101533608D01*
X161879539Y-101516554D01*
X161843946Y-101507017D01*
X161815892Y-101499500D01*
X161815891Y-101499500D01*
X161684108Y-101499500D01*
X161556808Y-101533609D01*
X161556806Y-101533610D01*
X161442696Y-101599493D01*
X161442682Y-101599502D01*
X161442677Y-101599506D01*
X161349506Y-101692677D01*
X161349502Y-101692682D01*
X161349493Y-101692696D01*
X161283610Y-101806806D01*
X161283609Y-101806808D01*
X161283608Y-101806812D01*
X161249500Y-101934108D01*
X157000500Y-101934108D01*
X157000500Y-96570254D01*
X176399500Y-96570254D01*
X176399500Y-96929744D01*
X176439746Y-97286943D01*
X176439748Y-97286951D01*
X176519737Y-97637407D01*
X176519738Y-97637410D01*
X176519741Y-97637422D01*
X176519748Y-97637443D01*
X176638462Y-97976704D01*
X176638465Y-97976711D01*
X176794430Y-98300576D01*
X176847288Y-98384699D01*
X176853455Y-98394514D01*
X176985685Y-98604956D01*
X177209812Y-98886003D01*
X177463997Y-99140188D01*
X177745044Y-99364315D01*
X178049418Y-99555566D01*
X178373292Y-99711536D01*
X178628119Y-99800703D01*
X178712580Y-99830258D01*
X178712592Y-99830262D01*
X179063052Y-99910252D01*
X179063060Y-99910252D01*
X179063065Y-99910254D01*
X179234811Y-99929604D01*
X179402863Y-99948538D01*
X179410466Y-99950500D01*
X179779739Y-99950500D01*
X179805237Y-99950500D01*
X179810371Y-99947696D01*
X179822840Y-99945642D01*
X180033715Y-99921883D01*
X180136934Y-99910254D01*
X180136940Y-99910252D01*
X180136948Y-99910252D01*
X180487408Y-99830262D01*
X180826708Y-99711536D01*
X181150582Y-99555566D01*
X181454956Y-99364315D01*
X181736003Y-99140188D01*
X181990188Y-98886003D01*
X182214315Y-98604956D01*
X182405566Y-98300582D01*
X182561536Y-97976708D01*
X182680262Y-97637408D01*
X182760252Y-97286948D01*
X182760252Y-97286943D01*
X182760252Y-97286937D01*
X182760254Y-97286934D01*
X182777722Y-97131896D01*
X192749500Y-97131896D01*
X192749500Y-97368102D01*
X192786445Y-97601362D01*
X192786446Y-97601368D01*
X192859433Y-97825996D01*
X192936227Y-97976711D01*
X192966657Y-98036433D01*
X193105483Y-98227510D01*
X193272490Y-98394517D01*
X193463567Y-98533343D01*
X193562991Y-98584002D01*
X193674003Y-98640566D01*
X193674876Y-98641011D01*
X193678630Y-98642070D01*
X193726335Y-98657569D01*
X193794410Y-98679688D01*
X193794411Y-98679689D01*
X193794412Y-98679689D01*
X193898631Y-98713553D01*
X194131903Y-98750500D01*
X194131908Y-98750500D01*
X194368096Y-98750500D01*
X194368097Y-98750500D01*
X194601368Y-98713553D01*
X194825992Y-98640568D01*
X195036433Y-98533343D01*
X195227510Y-98394517D01*
X195394517Y-98227510D01*
X195533343Y-98036433D01*
X195640568Y-97825992D01*
X195713553Y-97601368D01*
X195750500Y-97368097D01*
X195750500Y-97131902D01*
X195713553Y-96898631D01*
X195640566Y-96674003D01*
X195553369Y-96502871D01*
X195533343Y-96463567D01*
X195394517Y-96272490D01*
X195267757Y-96145730D01*
X197749500Y-96145730D01*
X197749500Y-96148124D01*
X197749500Y-98354265D01*
X197751812Y-98378929D01*
X197751978Y-98382499D01*
X197752353Y-98384699D01*
X197752353Y-98384701D01*
X197797206Y-98512880D01*
X197797207Y-98512882D01*
X197877850Y-98622150D01*
X197955812Y-98679688D01*
X197987118Y-98702793D01*
X198115299Y-98747646D01*
X198115303Y-98747647D01*
X198133742Y-98749375D01*
X198145730Y-98750500D01*
X198145734Y-98750500D01*
X198145739Y-98750500D01*
X200354270Y-98750500D01*
X200354271Y-98750500D01*
X200355576Y-98750377D01*
X200384699Y-98747646D01*
X200384701Y-98747646D01*
X200448790Y-98725219D01*
X200512882Y-98702793D01*
X200622150Y-98622150D01*
X200702793Y-98512882D01*
X200744212Y-98394514D01*
X200747646Y-98384701D01*
X200747646Y-98384699D01*
X200750500Y-98354269D01*
X200750500Y-97131896D01*
X204249500Y-97131896D01*
X204249500Y-97368102D01*
X204286445Y-97601362D01*
X204286446Y-97601368D01*
X204359433Y-97825996D01*
X204436227Y-97976711D01*
X204466657Y-98036433D01*
X204605483Y-98227510D01*
X204772490Y-98394517D01*
X204963567Y-98533343D01*
X205062991Y-98584002D01*
X205174003Y-98640566D01*
X205174876Y-98641011D01*
X205178630Y-98642070D01*
X205226335Y-98657569D01*
X205294410Y-98679688D01*
X205294411Y-98679689D01*
X205294412Y-98679689D01*
X205398631Y-98713553D01*
X205631903Y-98750500D01*
X205631908Y-98750500D01*
X205868096Y-98750500D01*
X205868097Y-98750500D01*
X206101368Y-98713553D01*
X206325992Y-98640568D01*
X206536433Y-98533343D01*
X206727510Y-98394517D01*
X206894517Y-98227510D01*
X207033343Y-98036433D01*
X207140568Y-97825992D01*
X207213553Y-97601368D01*
X207250500Y-97368097D01*
X207250500Y-97131902D01*
X207250499Y-97131896D01*
X209249500Y-97131896D01*
X209249500Y-97368102D01*
X209286445Y-97601362D01*
X209286446Y-97601368D01*
X209359433Y-97825996D01*
X209436227Y-97976711D01*
X209466657Y-98036433D01*
X209605483Y-98227510D01*
X209772490Y-98394517D01*
X209963567Y-98533343D01*
X210062991Y-98584002D01*
X210174003Y-98640566D01*
X210174876Y-98641011D01*
X210178630Y-98642070D01*
X210226335Y-98657569D01*
X210294410Y-98679688D01*
X210294411Y-98679689D01*
X210294412Y-98679689D01*
X210398631Y-98713553D01*
X210631903Y-98750500D01*
X210631908Y-98750500D01*
X210868096Y-98750500D01*
X210868097Y-98750500D01*
X211101368Y-98713553D01*
X211325992Y-98640568D01*
X211536433Y-98533343D01*
X211727510Y-98394517D01*
X211894517Y-98227510D01*
X212033343Y-98036433D01*
X212140568Y-97825992D01*
X212213553Y-97601368D01*
X212250500Y-97368097D01*
X212250500Y-97131902D01*
X212213553Y-96898631D01*
X212140566Y-96674003D01*
X212053369Y-96502871D01*
X212033343Y-96463567D01*
X211894517Y-96272490D01*
X211727510Y-96105483D01*
X211536433Y-95966657D01*
X211325996Y-95859433D01*
X211101368Y-95786446D01*
X211101362Y-95786445D01*
X210868102Y-95749500D01*
X210868097Y-95749500D01*
X210868092Y-95749500D01*
X210631908Y-95749500D01*
X210631903Y-95749500D01*
X210631898Y-95749500D01*
X210398636Y-95786445D01*
X210398634Y-95786445D01*
X210398631Y-95786446D01*
X210174003Y-95859433D01*
X209989655Y-95953364D01*
X209963564Y-95966658D01*
X209854549Y-96045861D01*
X209854550Y-96045862D01*
X209784361Y-96096858D01*
X209776980Y-96100991D01*
X209600991Y-96276980D01*
X209596858Y-96284361D01*
X209545862Y-96354550D01*
X209545861Y-96354549D01*
X209466659Y-96463562D01*
X209466657Y-96463566D01*
X209359433Y-96674003D01*
X209286446Y-96898631D01*
X209286445Y-96898634D01*
X209286445Y-96898636D01*
X209249500Y-97131896D01*
X207250499Y-97131896D01*
X207213553Y-96898631D01*
X207140566Y-96674003D01*
X207053369Y-96502871D01*
X207033343Y-96463567D01*
X206894517Y-96272490D01*
X206727510Y-96105483D01*
X206536433Y-95966657D01*
X206325996Y-95859433D01*
X206101368Y-95786446D01*
X206101362Y-95786445D01*
X205868102Y-95749500D01*
X205868097Y-95749500D01*
X205868092Y-95749500D01*
X205631908Y-95749500D01*
X205631903Y-95749500D01*
X205631898Y-95749500D01*
X205398636Y-95786445D01*
X205398634Y-95786445D01*
X205398631Y-95786446D01*
X205174003Y-95859433D01*
X204989655Y-95953364D01*
X204963564Y-95966658D01*
X204854549Y-96045861D01*
X204854550Y-96045862D01*
X204784361Y-96096858D01*
X204776980Y-96100991D01*
X204600991Y-96276980D01*
X204596858Y-96284361D01*
X204545862Y-96354550D01*
X204545861Y-96354549D01*
X204466659Y-96463562D01*
X204466657Y-96463566D01*
X204359433Y-96674003D01*
X204286446Y-96898631D01*
X204286445Y-96898634D01*
X204286445Y-96898636D01*
X204249500Y-97131896D01*
X200750500Y-97131896D01*
X200750500Y-96145730D01*
X200747646Y-96115300D01*
X200747646Y-96115298D01*
X200702793Y-95987119D01*
X200702792Y-95987117D01*
X200687692Y-95966657D01*
X200622150Y-95877850D01*
X200601481Y-95862596D01*
X200512883Y-95797208D01*
X200512882Y-95797207D01*
X200512880Y-95797206D01*
X200512874Y-95797204D01*
X200384704Y-95752354D01*
X200384702Y-95752353D01*
X200384700Y-95752353D01*
X200354270Y-95749500D01*
X200354266Y-95749500D01*
X200354264Y-95749500D01*
X198145734Y-95749500D01*
X198145730Y-95749500D01*
X198127074Y-95751249D01*
X198121069Y-95751812D01*
X198117499Y-95751978D01*
X198115297Y-95752353D01*
X197987118Y-95797206D01*
X197877849Y-95877849D01*
X197797206Y-95987118D01*
X197752353Y-96115297D01*
X197752021Y-96117247D01*
X197751901Y-96120070D01*
X197751850Y-96120655D01*
X197749500Y-96145730D01*
X195267757Y-96145730D01*
X195227510Y-96105483D01*
X195036433Y-95966657D01*
X194825996Y-95859433D01*
X194601368Y-95786446D01*
X194601362Y-95786445D01*
X194368102Y-95749500D01*
X194368097Y-95749500D01*
X194368092Y-95749500D01*
X194131908Y-95749500D01*
X194131903Y-95749500D01*
X194131898Y-95749500D01*
X193898636Y-95786445D01*
X193898634Y-95786445D01*
X193898631Y-95786446D01*
X193674003Y-95859433D01*
X193489655Y-95953364D01*
X193463564Y-95966658D01*
X193354549Y-96045861D01*
X193354550Y-96045862D01*
X193284361Y-96096858D01*
X193276980Y-96100991D01*
X193100991Y-96276980D01*
X193096858Y-96284361D01*
X193045862Y-96354550D01*
X193045861Y-96354549D01*
X192966659Y-96463562D01*
X192966657Y-96463566D01*
X192859433Y-96674003D01*
X192786446Y-96898631D01*
X192786445Y-96898634D01*
X192786445Y-96898636D01*
X192749500Y-97131896D01*
X182777722Y-97131896D01*
X182779834Y-97113153D01*
X182779834Y-97113152D01*
X182800500Y-96929736D01*
X182800500Y-96570264D01*
X182760252Y-96213052D01*
X182680262Y-95862592D01*
X182657382Y-95797206D01*
X182640689Y-95749500D01*
X182561536Y-95523292D01*
X182405566Y-95199418D01*
X182214315Y-94895044D01*
X181990188Y-94613997D01*
X181736003Y-94359812D01*
X181454956Y-94135685D01*
X181151994Y-93945321D01*
X181150935Y-93944635D01*
X181150577Y-93944431D01*
X180826718Y-93788468D01*
X180826704Y-93788462D01*
X180487443Y-93669748D01*
X180487422Y-93669741D01*
X180487410Y-93669738D01*
X180487407Y-93669737D01*
X180261606Y-93618199D01*
X180136943Y-93589746D01*
X179779744Y-93549500D01*
X179779740Y-93549500D01*
X179779736Y-93549500D01*
X179420264Y-93549500D01*
X179420259Y-93549500D01*
X179420254Y-93549500D01*
X179063055Y-93589746D01*
X178712588Y-93669738D01*
X178712576Y-93669741D01*
X178712555Y-93669748D01*
X178373294Y-93788462D01*
X178373280Y-93788468D01*
X178049422Y-93944430D01*
X177745046Y-94135683D01*
X177464003Y-94359804D01*
X177209804Y-94614003D01*
X176985683Y-94895046D01*
X176794430Y-95199422D01*
X176638468Y-95523280D01*
X176638462Y-95523294D01*
X176519748Y-95862555D01*
X176519741Y-95862576D01*
X176519738Y-95862588D01*
X176519737Y-95862592D01*
X176505511Y-95924919D01*
X176439746Y-96213055D01*
X176399500Y-96570254D01*
X157000500Y-96570254D01*
X157000500Y-96504296D01*
X157000532Y-96501464D01*
X157000600Y-96498531D01*
X157000695Y-96495779D01*
X157011018Y-96272487D01*
X157017164Y-96139521D01*
X157017558Y-96133853D01*
X157018091Y-96128108D01*
X157018748Y-96122457D01*
X157021117Y-96105480D01*
X157064118Y-95797207D01*
X157067412Y-95773588D01*
X157068334Y-95767942D01*
X157069385Y-95762321D01*
X157070567Y-95756721D01*
X157071594Y-95752354D01*
X157151215Y-95413829D01*
X157152647Y-95408313D01*
X157154207Y-95402828D01*
X157155896Y-95397369D01*
X157267862Y-95063309D01*
X157269788Y-95057978D01*
X157271867Y-95052611D01*
X157274021Y-95047411D01*
X157416346Y-94725075D01*
X157418757Y-94719940D01*
X157421306Y-94714822D01*
X157423943Y-94709817D01*
X157595384Y-94402021D01*
X157598256Y-94397133D01*
X157601302Y-94392214D01*
X157604408Y-94387450D01*
X157623341Y-94359812D01*
X157803495Y-94096817D01*
X157806821Y-94092196D01*
X157810278Y-94087621D01*
X157813793Y-94083182D01*
X158038868Y-93812134D01*
X158042610Y-93807835D01*
X158046456Y-93803616D01*
X158050391Y-93799494D01*
X158299494Y-93550391D01*
X158303616Y-93546456D01*
X158307835Y-93542610D01*
X158312134Y-93538868D01*
X158583182Y-93313793D01*
X158587628Y-93310271D01*
X158592196Y-93306821D01*
X158596818Y-93303495D01*
X158887464Y-93104397D01*
X158892233Y-93101291D01*
X158897135Y-93098255D01*
X158902011Y-93095390D01*
X159209817Y-92923943D01*
X159214836Y-92921299D01*
X159219940Y-92918757D01*
X159225075Y-92916346D01*
X159547411Y-92774021D01*
X159552611Y-92771867D01*
X159557988Y-92769783D01*
X159563309Y-92767862D01*
X159897369Y-92655896D01*
X159902808Y-92654212D01*
X159908323Y-92652644D01*
X159913829Y-92651215D01*
X160256734Y-92570564D01*
X160262308Y-92569387D01*
X160267955Y-92568331D01*
X160273588Y-92567412D01*
X160622503Y-92518742D01*
X160628118Y-92518090D01*
X160633852Y-92517558D01*
X160639515Y-92517165D01*
X160995777Y-92500695D01*
X160998532Y-92500600D01*
X161001501Y-92500531D01*
X161004297Y-92500500D01*
X222995703Y-92500500D01*
X222998497Y-92500531D01*
G37*
%TD.AperFunction*%
%TD*%
M02*
