M48
; DRILL file KiCad 10.0.0 date 2026-04-11T13:38:18
; FORMAT={-:-/ absolute / metric / decimal}
; #@! TF.CreationDate,2026-04-11T13:38:18-04:00
; #@! TF.GenerationSoftware,Kicad,Pcbnew,10.0.0
; #@! TF.FileFunction,Plated,1,4,PTH
FMAT,2
METRIC
; #@! TA.AperFunction,Plated,PTH,ComponentDrill
T1C0.200
; #@! TA.AperFunction,Plated,PTH,ViaDrill
T2C0.300
; #@! TA.AperFunction,Plated,PTH,ComponentDrill
T3C0.500
; #@! TA.AperFunction,Plated,PTH,ComponentDrill
T4C0.600
; #@! TA.AperFunction,Plated,PTH,ComponentDrill
T5C1.000
; #@! TA.AperFunction,Plated,PTH,ComponentDrill
T6C1.300
; #@! TA.AperFunction,Plated,PTH,ComponentDrill
T7C3.200
; #@! TA.AperFunction,Plated,PTH,ComponentDrill
T8C4.500
%
G90
G05
T1
X196.1Y-123.7
X196.1Y-125.1
X196.8Y-123.0
X196.8Y-124.4
X196.8Y-125.8
X197.5Y-123.7
X197.5Y-125.1
X198.2Y-123.0
X198.2Y-124.4
X198.2Y-125.8
X198.9Y-123.7
X198.9Y-125.1
T2
X161.75Y-102.0
X161.75Y-103.0
X161.75Y-104.0
X161.75Y-105.0
X161.75Y-106.0
X161.75Y-107.0
X161.75Y-108.0
X161.75Y-109.0
X161.75Y-112.0
X161.75Y-113.0
X161.75Y-114.0
X161.75Y-115.0
X161.75Y-116.0
X161.75Y-117.0
X162.75Y-100.0
X162.75Y-101.0
X162.75Y-102.0
X162.75Y-103.0
X162.75Y-107.0
X162.75Y-108.0
X162.75Y-109.0
X162.75Y-110.0
X162.75Y-110.75
X162.75Y-112.0
X162.75Y-113.0
X162.75Y-116.0
X162.75Y-117.0
X163.0Y-119.75
X163.0Y-131.75
X163.75Y-100.0
X163.75Y-101.0
X163.75Y-102.0
X163.75Y-103.0
X163.75Y-108.0
X163.75Y-109.0
X163.75Y-110.0
X163.75Y-110.75
X163.75Y-112.0
X163.75Y-113.0
X163.75Y-116.0
X163.75Y-117.0
X164.75Y-100.0
X164.75Y-101.0
X164.75Y-102.0
X164.75Y-103.0
X164.75Y-108.0
X164.75Y-109.0
X164.75Y-110.0
X164.75Y-110.75
X164.75Y-111.5
X165.5Y-93.5
X165.5Y-94.75
X165.5Y-96.0
X165.5Y-97.25
X165.5Y-98.5
X165.5Y-124.0
X165.5Y-136.75
X165.5Y-138.5
X165.75Y-100.0
X165.75Y-101.0
X165.75Y-102.0
X165.75Y-103.0
X165.75Y-108.0
X165.75Y-109.0
X165.75Y-110.0
X165.75Y-110.75
X165.75Y-111.5
X165.75Y-112.25
X165.75Y-113.0
X165.75Y-127.5
X166.5Y-100.0
X166.5Y-101.0
X166.5Y-102.0
X166.5Y-103.0
X167.0Y-117.75
X167.0Y-119.0
X167.0Y-120.25
X167.0Y-121.5
X167.0Y-122.75
X167.0Y-127.25
X167.0Y-133.25
X167.25Y-136.75
X167.25Y-138.5
X168.5Y-117.75
X168.5Y-119.0
X168.5Y-120.25
X168.5Y-121.5
X168.5Y-122.75
X168.75Y-136.75
X168.75Y-138.5
X169.4Y-129.1
X169.5Y-128.05
X169.75Y-118.0
X169.75Y-119.0
X169.75Y-120.0
X169.75Y-120.75
X169.75Y-121.75
X170.25Y-136.75
X170.25Y-138.5
X170.75Y-118.0
X170.75Y-119.0
X170.75Y-120.0
X171.75Y-118.0
X171.75Y-119.0
X172.0Y-120.0
X172.0Y-136.75
X172.0Y-138.5
X172.1Y-126.9
X172.75Y-118.0
X172.9Y-126.9
X173.7Y-125.125
X173.7Y-125.925
X173.75Y-111.0
X173.75Y-118.0
X173.75Y-119.0
X173.75Y-120.0
X173.75Y-136.75
X173.75Y-138.5
X174.75Y-118.0
X174.75Y-119.0
X174.75Y-120.0
X175.2Y-126.4
X175.2Y-135.8
X175.25Y-106.0
X175.25Y-111.0
X175.5Y-107.25
X175.5Y-138.5
X175.75Y-118.0
X175.75Y-119.0
X175.75Y-120.0
X175.75Y-120.75
X175.75Y-121.75
X176.0Y-112.5
X177.2Y-132.3
X177.25Y-138.5
X177.75Y-111.75
X178.75Y-136.75
X178.75Y-138.5
X178.9Y-128.7
X179.0Y-122.5
X179.0Y-133.6
X179.25Y-119.5
X179.25Y-121.0
X180.0Y-118.0
X180.25Y-113.0
X180.25Y-134.75
X180.25Y-136.75
X180.25Y-138.5
X180.6Y-113.9
X180.65Y-111.55
X181.75Y-117.25
X182.0Y-134.75
X182.0Y-136.75
X182.0Y-138.5
X182.5Y-116.25
X183.0Y-118.0
X183.5Y-111.0
X183.75Y-134.75
X183.75Y-136.75
X183.75Y-138.5
X183.8Y-109.3
X183.849Y-107.849
X184.0Y-112.0
X184.75Y-121.25
X184.75Y-122.5
X185.75Y-130.75
X185.8Y-125.8
X186.5Y-105.0
X186.5Y-107.0
X186.5Y-110.0
X186.5Y-113.0
X188.25Y-111.5
X188.4Y-109.9
X189.0Y-122.0
X189.0Y-123.25
X189.5Y-126.6
X190.2Y-129.6
X190.5Y-118.25
X192.4Y-124.75
X192.4Y-129.6
X193.5Y-116.0
X193.5Y-121.25
X194.75Y-117.0
X196.0Y-117.0
X203.0Y-120.75
X203.0Y-130.75
X204.75Y-113.25
X206.5Y-136.5
X206.5Y-138.5
X207.5Y-115.1
X207.6Y-117.2
X208.25Y-136.5
X208.25Y-138.5
X209.75Y-125.75
X210.0Y-134.5
X210.0Y-136.5
X210.0Y-138.5
X210.9Y-117.2
X211.75Y-134.5
X211.75Y-136.5
X211.75Y-138.5
X211.8Y-111.4
X212.0Y-110.2
X212.5Y-121.75
X213.25Y-134.5
X213.25Y-136.5
X213.25Y-138.5
X214.75Y-134.5
X214.75Y-136.5
X214.75Y-138.5
X215.6Y-111.6
X216.5Y-134.5
X216.5Y-136.5
X216.5Y-138.5
X217.5Y-130.9
X218.25Y-134.5
X218.25Y-136.5
X218.25Y-138.5
X222.9Y-110.0
T3
X158.6Y-136.053
X158.6Y-96.5
X159.303Y-134.356
X159.303Y-137.75
X159.303Y-94.803
X159.303Y-98.197
X161.0Y-133.653
X161.0Y-138.453
X161.0Y-94.1
X161.0Y-98.9
X162.697Y-134.356
X162.697Y-137.75
X162.697Y-94.803
X162.697Y-98.197
X163.4Y-136.053
X163.4Y-96.5
X220.6Y-96.5
X220.6Y-136.0
X221.303Y-94.803
X221.303Y-98.197
X221.303Y-134.303
X221.303Y-137.697
X223.0Y-94.1
X223.0Y-98.9
X223.0Y-133.6
X223.0Y-138.4
X224.697Y-94.803
X224.697Y-98.197
X224.697Y-134.303
X224.697Y-137.697
X225.4Y-96.5
X225.4Y-136.0
T5
X192.13Y-111.5
X194.67Y-111.5
X197.21Y-111.5
X199.75Y-111.5
T6
X189.25Y-97.25
X194.25Y-97.25
X199.25Y-97.25
X205.75Y-97.25
X210.75Y-97.25
X215.75Y-97.25
T7
X161.0Y-136.053
X161.0Y-96.5
X223.0Y-96.5
X223.0Y-136.0
T8
X172.4Y-96.75
X179.6Y-96.75
T4
G00X159.823Y-121.431
M15
G01X159.023Y-121.431
M16
G05
G00X159.823Y-130.071
M15
G01X159.023Y-130.071
M16
G05
G00X164.153Y-121.431
M15
G01X163.053Y-121.431
M16
G05
G00X164.153Y-130.071
M15
G01X163.053Y-130.071
M16
G05
M30
